M48
;Layer_Color=9474304
;FILE_FORMAT=2:5
INCH
;TYPE=PLATED
T1F00S00C0.01181
T2F00S00C0.01968
T4F00S00C0.03500
T5F00S00C0.03543
T6F00S00C0.03937
T7F00S00C0.06299
T8F00S00C0.07874
T9F00S00C0.11811
T10F00S00C0.14567
T11F00S00C0.19685
;TYPE=NON_PLATED
T12F00S00C0.02756
T13F00S00C0.03917
%
T01
X0791338Y0283465
X0803149
X0814960
X0826771
X0838582
X0850393
X0862204
X0874016
X0885826
X0897637
X0909449
X0915354Y0295275
X0903543
X0891732
X0879921
X0868110
X0856299
X0844488
X0832677
X0820866
X0826771Y0307086
X0838582
X0850393
X0862204
X0874016
X0885826
X0897637
X0909449
X0915354Y0271654
X0903543
X0891732
X0879921
X0868110
X0856299
X0844488
X0832677
X0820866
X0838582Y0259842
X0850393
X0862204
X0874016
X0885826
X0897637
X0909449
X0903543Y0248031
X0879921
X0868110
X0856299
X0862204Y0236220
X0874016
X0885826
X0814960Y0307086
X0797244Y0295275
X0785433
X0773622
X0761811
X0767716Y0283465
X0779527
X0755905
X0744094
X0732283
X0720472
X0708661
X0696850
X0685039
X0673228
X0661417
X0649606
X0637795
X0625984
Y0307086
X0649606
X0655512Y0295275
X0690945
X0702756
X0714567
X0726378
X0738189
X0720472Y0307086
X0696850
X0685039
X0614173Y0283465
X0590551
X0578740
X0566929
X0555118
X0543307
X0531496
X0519685
X0507874
X0496063
X0484252
X0472441
X0478346Y0295275
X0490157
X0501968
X0513779
X0525590
X0537401
X0549212
X0561023
X0555118Y0307086
X0543307
X0531496
X0507874
X0496063
X0484252
X0596456Y0295275
X0454724
X0442913
X0431102
X0419291
X0425197Y0307086
X0437008
X0448819
X0460630
Y0283465
X0413386Y0307086
X0389764
X0377953
X0383858Y0295275
X0366142Y0283465
X0354331
X0342520
X0330709
X0318898
X0324803Y0271654
X0336614
X0312992
X0318898Y0307086
X0342520
X0301181Y0271654
X0289370
X0295275Y0259842
X0307086
X0301181Y0248031
X0289370
X0277559
X0283465Y0259842
X0271654
X0259842
X0248031
X0253937Y0271654
X0242126
X0248031Y0283465
X0259842
X0271654
X0283465
X0253937Y0295275
X0242126
X0248031Y0307086
X0236220
Y0283465
X0253937Y0248031
X0271654Y0236220
X0283465
X0295275
X0301181Y0342520
X0307086Y0354331
X0301181Y0366142
X0307086Y0377953
X0301181Y0389764
X0307086Y0401575
X0301181Y0413386
X0307086Y0425197
Y0448819
X0295275
X0301181Y0460630
X0312992
X0336614
X0348425
X0354331Y0448819
X0366142
X0377953
X0389764
X0389311Y0439572
X0398326Y0439454
X0401575Y0448819
X0407480Y0460630
X0418048Y0460872
X0431102Y0460630
X0442913
X0437008Y0448819
X0425197
X0431102Y0437008
X0442913
X0437008Y0425197
X0442913Y0413386
X0431102
X0437008Y0401575
X0442913Y0389764
X0431102
X0437008Y0377953
X0442913Y0366142
X0431102
X0419291
X0407480
X0413386Y0354331
X0401575
X0407480Y0342520
X0442913
X0448819Y0330709
X0454724Y0318898
X0466535
Y0342520
Y0366142
Y0389764
X0407480
X0395669
X0383858
X0377953Y0401575
X0375649Y0414179
X0383858Y0413386
X0395669
X0407480
X0413386Y0425197
X0419291Y0437008
X0389764Y0425197
X0372047Y0437008
Y0460630
X0383858
X0395669
X0401575Y0401575
X0354331
X0351791Y0400596
X0342520Y0401575
X0330709
X0318898
X0312992Y0413386
X0318898Y0425197
X0330709
X0342520
X0354331
X0348425Y0437008
X0336614
X0342520Y0448819
X0330709
X0336614Y0413386
X0348425
Y0389764
X0354901Y0387132
X0354331Y0377953
X0366142
X0372047Y0366142
X0377953Y0354331
X0366142
X0354331
X0342520
X0330709
X0318898
X0312992Y0366142
X0318898Y0377953
X0330709
X0342520
X0348425Y0366142
X0336614
Y0389764
X0312992
Y0342520
X0336614
X0348425
X0342520Y0330709
X0330709
X0372047Y0342520
X0437008Y0354331
X0472441
X0484252
X0496063
X0507874
X0513779Y0342520
X0501968
X0490157
X0478346
X0484252Y0330709
X0472441
X0478346Y0318898
X0501968
X0513779
X0525590
X0537401
X0549212
X0561023
X0572834
X0584646
X0596456
X0620079
Y0342520
X0614173Y0354331
X0602362
X0590551
X0578740
X0566929
X0555118
X0543307
X0531496
X0537401Y0366142
X0525590
X0519685Y0377953
X0507874
X0513779Y0389764
X0501968
X0507874Y0401575
X0531496
X0537401Y0389764
X0549212
X0561023
X0566929Y0401575
X0578740
X0590551
X0592221Y0404686
X0584938Y0408426
X0575292Y0415316
X0574308Y0422009
X0568304Y0429391
X0572834Y0437008
X0561023
X0555118Y0425197
X0543307
X0531496
X0537401Y0437008
X0530410Y0444244
X0526966Y0446123
X0514466Y0443667
X0513442Y0438431
X0496063Y0448819
X0484252
X0490157Y0460630
X0525590
X0543307Y0448819
X0572834Y0460630
X0602362Y0448819
X0596456Y0437008
X0593304Y0432934
X0586513
X0603147Y0415218
X0608267Y0413386
X0597340Y0382147
X0596456Y0366142
X0584646
X0572834
X0561023
X0566929Y0377953
X0555118
X0543307
X0555118Y0401575
X0561023Y0413386
X0525590
X0496063Y0425197
X0484252
X0472441
X0478346Y0413386
X0484252Y0401575
Y0377953
X0490157Y0366142
X0478346
X0584646Y0389764
X0613186Y0366694
X0626670Y0367186
X0625984Y0354331
Y0330709
X0637795
X0649606
X0661417
X0673228
X0679134Y0342520
X0690945
X0702756
X0696850Y0354331
X0685039
X0673228
X0661417
X0667323Y0342520
X0655512
Y0318898
X0643701
X0631890
X0642123Y0366989
X0655214Y0366300
X0653364Y0378316
X0650884Y0381892
X0635430Y0380375
X0649606Y0401575
X0661417
X0673228
X0685039
X0696850
X0708661
X0702756Y0413386
X0690945
X0679134
X0667323
X0655512
Y0437008
X0658954Y0441792
X0667323Y0437008
X0679134
X0690945
X0702756
X0714567
X0726378
X0732283Y0448819
X0738242Y0452281
X0750000Y0460630
Y0437008
X0755905Y0425197
X0767716
X0779527
X0773622Y0413386
X0779527Y0401575
X0755905
X0744094
X0750000Y0413386
Y0389764
Y0366142
X0761811
X0767716Y0354331
X0774665Y0355439
X0779232
X0773622Y0342520
X0761811
X0750000
X0755905Y0354331
X0744094
X0720472
X0701474Y0365611
X0689663
X0674505Y0365414
X0690945Y0318898
X0702756
X0716788Y0315005
X0726378Y0318898
X0738189
X0750000
X0761811
X0773622
X0779527Y0330709
X0779509Y0377935
X0773622Y0437008
X0779527Y0448819
X0767716
X0713481Y0449218
X0713442Y0454572
X0713127Y0461974
X0713166Y0465714
X0718993Y0467250
X0720472Y0425197
X0726378Y0413386
X0673228Y0448819
X0791338
X0803149
X0814960
X0826771
X0820866Y0437008
X0809055
X0803149Y0425197
X0814960
X0820866Y0413386
X0809055
X0803149Y0401575
X0795371Y0403308
X0791338Y0401575
X0785433Y0413386
X0791338Y0425197
X0785433Y0437008
Y0460630
X0797244
X0809055
X0820866
X0832677
Y0413386
X0838582Y0401575
X0850393
X0862204
X0874016
X0885826
X0897637
X0909449
X0915354Y0389764
X0903543
X0891732
X0879921
X0868110
X0856299
X0844488
X0832677
X0820866
X0809055
X0814960Y0377953
X0826771
X0838582
X0850393
X0862204
X0874016
X0885826
X0897637
X0909449
X0915354Y0366142
X0903543
X0891732
X0879921
X0868110
X0856299
X0844488
X0832677
X0820866
X0809055
X0814960Y0354331
X0826771
X0838582
X0850393
X0862204
X0874016
X0885826
X0897637
X0909449
X0915354Y0342520
X0903543
X0891732
X0879921
X0868110
X0856299
X0844488
X0832677
X0820866
X0826771Y0330709
X0838582
X0850393
X0862204
X0874016
X0885826
X0897637
X0909449
X0915354Y0318898
X0903543
X0891732
X0879921
X0868110
X0856299
X0844488
X0832677
X0820866
X0809055
X0797244
X0785433
X0791338Y0330709
X0803149
X0814960
X0797244Y0342520
X0785433
X0784193Y0355439
X0789156
X0793996Y0355689
X0793895Y0375257
X0826771Y0401575
Y0472441
X0814960
X0803149
X0791338
X0797244Y0484252
X0809055
X0820866
X0832677
X0826771Y0496063
X0814960
X0803149
X0791338
X0789479Y0499406
X0787279Y0497413
X0784901Y0495637
X0782383Y0494064
X0782669Y0505401
X0784725Y0507543
X0786521Y0509906
X0788035Y0512459
X0789247Y0515169
X0790141Y0518000
X0790705Y0520914
X0790933Y0523874
X0790920Y0526842
Y0529811
Y0532779
Y0535748
Y0538716
Y0541685
Y0544653
Y0547622
Y0550590
Y0553559
Y0556528
Y0559496
Y0562465
Y0565433
Y0568401
Y0571370
Y0574338
Y0577307
Y0580275
Y0583244
Y0586212
Y0589181
Y0592149
Y0595118
Y0598086
Y0601055
Y0604023
Y0606992
X0790966Y0609960
X0791186Y0612921
X0791701Y0615844
X0792523Y0618696
X0793643Y0621445
X0795034Y0624068
X0805340Y0622883
X0803496Y0620556
X0802008Y0617987
X0800909Y0615230
X0803149Y0614173
X0800220Y0612342
X0799956Y0609386
X0799984Y0606417
Y0603449
Y0600480
Y0597512
Y0594543
Y0591575
Y0588606
Y0585638
Y0582669
Y0579701
Y0576732
Y0573764
Y0570795
Y0567827
Y0564858
Y0561890
Y0558921
Y0555953
Y0552984
Y0550016
Y0547047
Y0544079
Y0541110
Y0538142
Y0535173
Y0532205
Y0529236
Y0526268
X0799927Y0523300
X0799723Y0520338
X0799274Y0517404
X0798553Y0514524
X0797582Y0511719
X0796383Y0509003
X0794962Y0506397
X0793330Y0503917
X0791498Y0501582
X0785433Y0484252
X0809055Y0507874
X0820866
X0832677
X0826771Y0519685
X0814960
X0803149
X0809055Y0531496
X0820866
X0832677
X0826771Y0543307
X0814960
X0803149
X0809055Y0555118
X0820866
X0832677
X0826771Y0566929
X0814960
X0803149
X0809055Y0578740
X0814960Y0590551
X0826771
X0832677Y0602362
X0844488
X0838582Y0614173
X0826771
X0814960
X0820866Y0602362
X0809055
X0803149Y0590551
X0782907
X0785433Y0602362
X0782907Y0614173
X0807501Y0624917
X0785433Y0578740
Y0555118
X0781995Y0543307
X0785433Y0531496
X0779527Y0519685
X0769729Y0518969
X0767402Y0529408
X0761811Y0507874
X0760672Y0498475
X0763641
X0766609Y0498523
X0769557Y0498872
X0772445Y0499556
X0775237Y0500566
X0777894Y0501890
X0780382Y0503508
X0773622Y0507874
X0774173Y0490667
X0771280Y0490002
X0768341Y0489579
X0765377Y0489433
X0762408Y0489410
X0761811Y0484252
X0773622
X0777000Y0491571
X0779743Y0492705
X0779527Y0472441
X0767716
X0746016Y0485670
X0739097Y0481372
X0736525Y0480912
X0736316Y0483918
X0732972Y0480714
X0729547Y0480557
X0726867Y0481851
X0720846Y0481707
X0721040Y0475281
X0724662Y0475399
X0715259Y0469069
X0703718Y0475281
X0697743Y0475279
X0691159Y0475399
X0684336Y0475261
X0683206Y0483667
X0679134Y0484252
X0671985Y0483746
X0672379Y0475714
X0659269Y0478982
X0651946
X0645568Y0478903
X0643701Y0484252
X0636009Y0482840
X0629117Y0486620
X0626480
X0625810Y0495832
X0626834Y0507761
X0629275Y0507722
X0627497Y0511187
X0627536Y0513627
X0652623Y0511620
X0652786Y0506220
X0649859Y0497053
X0643954Y0497250
X0638403Y0497328
X0664977Y0499218
X0668647Y0504336
X0668600Y0513313
X0672812Y0513116
X0676319Y0516541
X0680883Y0513706
X0682618Y0510163
X0684456Y0507313
X0684033Y0502722
X0683521Y0499769
X0673228Y0496063
X0671080Y0494454
X0694623Y0496029
X0695576Y0492446
X0698914Y0492289
X0690879Y0487525
X0695064Y0510738
X0694781Y0513347
X0694938Y0515832
X0699033Y0513785
X0703054Y0513706
X0711007
X0717773Y0518667
X0717733Y0508588
X0717930Y0499061
X0717615Y0492678
X0703043Y0503810
X0695115Y0524008
X0682219Y0526367
X0682013Y0519043
X0668127Y0528116
X0669301Y0537278
X0661119Y0536068
X0662694Y0543269
X0658428Y0547220
X0651395Y0543194
X0654741Y0530911
X0651828Y0524297
X0651631Y0519691
X0655512Y0484252
X0643072Y0472987
X0625194Y0542777
X0625984Y0566929
X0637795
X0649606
X0657618Y0564376
X0661417Y0566929
X0670619Y0560454
X0682516Y0552775
X0692790Y0551633
X0692456Y0556918
X0702756Y0555118
X0701789Y0561895
X0702460Y0569572
X0702756Y0578740
X0714567
X0714466Y0564887
X0710410Y0564572
Y0561777
X0706284Y0543421
X0700448Y0543076
X0696850Y0543307
X0691463Y0540832
X0701993Y0532486
X0720812Y0534691
X0723960Y0535102
X0727163Y0535592
X0730509Y0535690
X0737700Y0535941
X0732994Y0543999
X0729466Y0552446
X0729426Y0556265
X0732500Y0559258
X0736515Y0559179
X0744094Y0566929
X0750000Y0578740
X0761811
X0767716Y0590551
X0755905
X0744094
X0736515Y0587606
X0732666Y0587537
X0728836Y0581950
X0720472Y0590551
X0720214Y0600161
X0722694Y0601837
X0723029Y0608721
X0708661Y0590551
X0693993Y0588544
X0682379Y0588741
X0682044Y0577661
X0673939
X0665647Y0588347
X0667517Y0599962
X0655115Y0600847
X0641139Y0600159
X0645174Y0593564
X0645273Y0585207
X0637891Y0580375
X0628245Y0599962
X0681100Y0600355
X0694978Y0600454
X0767716Y0566929
X0780331
X0748065Y0517122
X0745017Y0519494
X0742103Y0516462
X0744629Y0502914
X0726001Y0513431
X0726277Y0523288
X0729057Y0525075
X0731124Y0522909
X0619033Y0521620
Y0517250
X0618875Y0513155
X0611434Y0511068
X0610765Y0515320
X0605922Y0518746
X0605804Y0521659
X0610844Y0524848
X0610883Y0529297
X0622537Y0534415
X0618875Y0549061
X0602661Y0549021
X0603133Y0551698
X0603877Y0562407
X0612815Y0566580
X0608563Y0572013
X0609544Y0580572
X0622537Y0580080
X0617714Y0572993
X0624147Y0562210
X0590570Y0563982
X0590531Y0567407
X0584646Y0578740
X0578048Y0583229
X0577950Y0591497
X0572834Y0578740
X0561023
X0549212
X0537401
X0525590
X0513779
X0501968
X0490157
X0490174Y0600281
X0473225Y0598584
X0475471Y0595354
X0490157Y0555118
X0501968
X0507874Y0543307
X0496063
X0484252
X0490157Y0531496
X0501968
X0496063Y0519685
X0484252
X0519685
X0531496
X0545056Y0526029
X0550056Y0525753
X0555135Y0525478
X0560568Y0525163
X0561023Y0531496
X0555732Y0538982
X0561023Y0555118
X0537401
X0536284Y0498882
X0537464Y0493313
Y0490557
X0532812Y0491305
X0529151Y0490950
X0527458Y0494139
X0521828Y0494651
X0522182Y0491187
X0525590Y0484252
X0534859Y0483273
X0537401Y0484252
X0544544Y0484533
X0545810Y0493076
Y0496620
X0549354
Y0500163
X0545810
X0552897
Y0496620
Y0493076
X0549354
X0561322Y0492289
Y0489848
Y0487486
X0561080Y0484494
X0562891Y0478942
X0566867Y0478706
X0572773Y0478391
X0578166Y0478667
X0581080Y0482053
X0579820Y0490320
Y0494021
X0579426Y0497998
X0579663Y0503313
X0579584Y0507801
X0572064Y0510675
X0572655Y0498431
X0563448Y0500635
X0560810
X0563993Y0516305
X0565692Y0520990
X0584078Y0522565
X0584984Y0530596
X0584905Y0533313
X0584944Y0536029
X0592458Y0532328
X0597694Y0525084
X0597103Y0510714
X0596456Y0507874
X0601677Y0506069
X0607621Y0505596
X0610102Y0505557
X0608586Y0499651
X0606716
X0604846
X0601991Y0498470
X0602013Y0496290
X0601991Y0494041
X0604846Y0492958
X0606716
X0608586
X0618015Y0495753
X0621880
X0623803Y0486580
X0615732Y0476777
X0613053Y0476817
X0614173Y0472441
X0603088Y0482801
X0596047Y0491108
X0588639Y0518155
X0600220Y0540438
X0602818Y0539524
X0624511Y0507801
X0549216Y0508726
X0552149Y0477722
X0541795Y0474848
X0531496Y0472441
X0496063
X0484252
X0594307Y0598509
X0615745Y0600454
X0614466Y0592481
X0437008Y0590551
X0425197
X0413386
X0419291Y0578740
X0431102
X0438877Y0573903
X0444665Y0577919
X0441870Y0581698
X0442725Y0602173
X0431102Y0602362
X0407480
X0395669
X0383858
Y0578740
X0395669
X0407480
Y0555118
X0419291
X0431102
X0425197Y0543307
X0413386
X0401575
X0389764
X0377953
X0366142
X0354331
X0342520
X0348425Y0555118
X0360236
X0372047
X0383858
X0395669
X0407480Y0531496
X0399584Y0522958
X0389764Y0519685
X0377953
X0366142
X0354331
X0342520
X0330709
X0318898
X0312992Y0531496
X0318898Y0543307
X0312992Y0555118
X0318898Y0566929
X0312992Y0578740
X0336614
X0348425
X0360236
X0372047
X0366142Y0590551
X0354331
X0342520
X0330709
X0336614Y0602362
X0348425
X0360236
X0330709Y0614173
X0318898
X0336614Y0555118
Y0531496
X0348425
X0360236
X0372047
X0383858
Y0507874
X0395669
X0406788Y0499572
X0413386Y0496063
X0425197
Y0519685
X0416040Y0519572
X0413386Y0519685
X0431102Y0531496
X0425197Y0472441
X0413386
X0407851Y0481971
X0394721Y0486856
X0372047Y0484252
X0360236
X0348425
X0336614
X0342520Y0496063
X0354331
X0366142
X0377953
X0372047Y0507874
X0360236
X0348425
X0336614
X0330709Y0496063
X0318898
X0312992Y0507874
Y0484252
X0318898Y0472441
X0330709
X0342520
X0354331
X0307086
X0295275
X0301181Y0484252
X0307086Y0496063
X0295275
X0301181Y0507874
X0295275Y0519685
X0301181Y0531496
X0307086Y0543307
X0295275
X0301181Y0555118
X0307086Y0566929
X0295275
X0283465
X0271654
X0259842
X0248031
X0236220
X0242126Y0578740
X0253937
X0265748
X0277559
X0289370
X0301181
X0307086Y0590551
X0295275
X0283465
X0271654
X0277559Y0602362
X0289370
X0301181
X0307086Y0614173
X0295275
X0283465
X0271654
X0259842
X0248031
X0236220
X0242126Y0602362
X0253937
X0236220Y0590551
X0242126Y0625984
X0253937
X0265748
X0277559
X0289370
X0301181
X0307086Y0637795
X0295275
X0283465
X0271654
X0259842
X0248031
X0253937Y0649606
X0265748
X0277559
X0289370
X0301181
X0307086Y0661417
X0295275
X0283465
X0271654
X0318898
X0312992Y0649606
X0318898Y0637795
X0330709
X0336614Y0625984
X0360236
X0366142Y0637795
X0372047Y0649606
X0395669
Y0625984
X0407480
X0419102Y0625795
X0431102Y0625984
X0442913
X0454724
X0466535
X0454724Y0649606
X0460630Y0661417
X0383858Y0625984
X0312992
X0478236
X0490452Y0632328
X0496063Y0637795
X0490157Y0649606
X0496063Y0661417
X0507874
X0519685
X0531496
X0543307
X0555118
X0566929
X0578740
X0590551
X0602362
X0614173
X0620079Y0649606
X0608267
X0596456
X0584646
X0572834
X0561023
X0549212
X0537401
X0543307Y0637795
X0555118
X0561023Y0625984
X0572834
X0584646
X0596456
X0608267
X0620079
X0615361Y0637779
X0602362Y0637795
X0590551
X0549212Y0625984
X0537401
X0525590
X0513779
X0484252Y0661417
X0472441
X0625984
X0637795
X0649606
X0661417
X0673228
X0685039
X0696850
X0708661
X0720472
X0732283
X0744094
X0755905
X0767716
X0779527
X0761811Y0649606
X0738189
Y0625984
X0726378
X0714567
X0702756
X0690945
X0679134
X0667323
X0655512
X0643196
X0631890
Y0649606
X0643701
X0655512
X0667323
X0679134
X0690945
X0702756
X0714567
X0673228Y0637795
X0661417
X0750000Y0625984
X0779633Y0630320
X0788383Y0634115
X0791338Y0637795
X0788210Y0645410
X0793403Y0659139
X0791338Y0661417
X0814960
X0826771
X0838582
X0850393
X0862204
X0874016
X0879921Y0649606
X0891732
X0868110
X0856299
X0844488
X0832677
X0820866
X0819596Y0638400
X0822564Y0638474
X0825532Y0638522
X0828934Y0638643
X0831887Y0638544
X0834706Y0638552
X0837673Y0638620
X0840642
X0843610
X0846579
X0845176Y0629556
X0848145
X0842208
X0844488Y0625984
X0832677
X0833167Y0630011
X0830229Y0629584
X0821326Y0629389
X0818359Y0629294
X0815429Y0628821
X0812598Y0627928
X0809934Y0626618
X0808095Y0635789
X0810852Y0636889
X0813710Y0637692
X0816634Y0638203
X0803149Y0637795
X0802980Y0632790
X0805462Y0634418
X0800673Y0630921
X0798566Y0628830
X0796680Y0626538
X0820866Y0625984
T02
X0293166Y0292092
Y0295793
X0293127Y0299218
X0326001Y0345832
Y0349021
X0325883Y0352289
X0498363Y0596895
X0498281Y0600209
X0498324Y0625851
X0494505Y0626068
T04
X0737326Y0362378
Y0372378
Y0382378
Y0392378
Y0402378
Y0412378
T05
X0477801Y0439147
Y0449147
Y0459147
X0538047Y0461647
Y0451647
X0548047
Y0461647
X0558047
Y0451647
X0568047
Y0461647
X0578047
Y0451647
X0588047
Y0461647
X0598047
X0608047
Y0451647
X0598047
X0618047
Y0461647
X0628047
Y0451647
X0638047
Y0461647
X0648047
Y0451647
X0658047
X0668047
Y0461647
X0658047
X0678047
X0688047
Y0451647
X0678047
X0698047
X0708047
Y0461647
X0698047
X0718047
Y0451647
X0728047
Y0461647
X0717544Y0554887
X0707544
X0697544
X0687544
X0677544
X0667544
X0657544
X0647544
X0637544
X0627544
X0617544
X0606598
X0596598
X0584787
X0574787
X0512740Y0518076
Y0508076
Y0498076
Y0488076
X0477801Y0469147
X0302002Y0512453
Y0522296
X0538043Y0633943
X0548043
X0558043
X0568043
Y0643942
X0578043
X0588043
X0598043
X0608043
X0618043
Y0633943
X0608043
X0598043
X0588043
X0578043
X0558043Y0643942
X0548043
X0538043
X0628043
X0638043
X0648043
X0658043
X0668043
X0678043
X0688043
Y0633943
X0698043
X0708043
Y0643942
X0718043
X0728043
Y0633943
X0718043
X0698043Y0643942
X0678043Y0633943
X0668043
X0658043
X0648043
X0638043
X0628043
T06
X0800356Y0288515
Y0306232
X0774765
Y0288515
X0736379Y0288988
Y0306704
X0710789
Y0288988
X0661991Y0487525
Y0530045
X0264308Y0598458
X0253285Y0589403
Y0608694
T07
X0350916Y0327274
X0433690Y0327289
X0516269Y0327471
X0599412Y0327505
X0682312Y0327485
X0764938Y0327418
Y0613418
X0682312Y0613485
X0599412Y0613505
X0516269Y0613471
X0433690Y0613288
X0350916Y0613274
T08
X0518444Y0290005
X0518366Y0305793
T09
X0891257Y0253348
X0263492Y0253245
X0491458Y0412936
X0540671
X0642444Y0429937
Y0344819
X0736539
Y0429937
X0827221Y0431935
Y0576423
X0491458Y0495613
T10
X0748566Y0549376
X0520220
X0520216Y0639927
X0748563
T11
X0400374Y0298195
T12
X0248867Y0316795
X0264812
T13
X0783639Y0649194
Y0657195
X0803639Y0653195
M30
