G04*
G04 #@! TF.GenerationSoftware,Altium Limited,Altium Designer,20.2.5 (213)*
G04*
G04 Layer_Color=16711935*
%FSAX25Y25*%
%MOIN*%
G70*
G04*
G04 #@! TF.SameCoordinates,38458E12-344E-42E4-8E5B-5AAD2516AE5C*
G04*
G04*
G04 #@! TF.FilePolarity,Positive*
G04*
G01*
G75*
%ADD11C,0.00787*%
%ADD158C,0.03937*%
%ADD200C,0.00787*%
D11*
X0925273Y0601480D02*
G03*
X0925273Y0601482I-0000394J0000003D01*
G01*
X0925272Y0601477D02*
G03*
X0925273Y0601480I-0000394J0000005D01*
G01*
Y0601480D02*
G03*
X0925273Y0601482I-0000420J0000003D01*
G01*
X0925273Y0601477D02*
G03*
X0925273Y0601480I-0000420J0000005D01*
G01*
X0925272Y0601476D02*
G03*
X0925273Y0601477I-0000420J0000006D01*
G01*
X0925273Y0601482D02*
G03*
X0856881Y0669874I-0068391J0000000D01*
G01*
X0925273Y0601480D02*
G03*
X0925273Y0601482I-0000394J0000003D01*
G01*
X0925272Y0601477D02*
G03*
X0925273Y0601480I-0000394J0000005D01*
G01*
X0925272Y0601476D02*
G03*
X0925272Y0601477I-0000394J0000006D01*
G01*
X0925273Y0600654D02*
G03*
X0925273Y0600657I-0000420J0000000D01*
G01*
Y0601480D02*
G03*
X0925273Y0601482I-0000394J0000003D01*
G01*
X0925272Y0601477D02*
G03*
X0925273Y0601480I-0000394J0000005D01*
G01*
X0925272Y0601476D02*
G03*
X0925272Y0601477I-0000394J0000006D01*
G01*
X0925273Y0600654D02*
G03*
X0925273Y0600657I-0000394J0000000D01*
G01*
X0856881Y0669874D02*
G03*
X0856878Y0669874I0000000J-0000420D01*
G01*
X0856881Y0669874D02*
G03*
X0856878Y0669874I0000000J-0000394D01*
G01*
X0840993Y0596297D02*
G03*
X0840994Y0596297I-0000000J0000394D01*
G01*
X0925273Y0407544D02*
G03*
X0920915Y0411901I-0004357J0000000D01*
G01*
X0925273Y0407541D02*
G03*
X0925273Y0407544I-0000394J0000003D01*
G01*
X0920915Y0596297D02*
G03*
X0925273Y0600654I0000000J0004357D01*
G01*
X0925273Y0407541D02*
G03*
X0925273Y0407544I-0000394J0000003D01*
G01*
Y0292519D02*
G03*
X0925273Y0292522I-0000420J0000000D01*
G01*
X0925273Y0292519D02*
G03*
X0925273Y0292521I-0000394J0000000D01*
G01*
X0840991Y0596297D02*
G03*
X0840994Y0596297I0000003J0000420D01*
G01*
X0840991Y0596297D02*
G03*
X0840994Y0596297I0000003J0000394D01*
G01*
X0840991Y0596297D02*
G03*
X0837477Y0592780I0000003J-0003517D01*
G01*
X0840993Y0596297D02*
G03*
X0840991Y0596297I0000001J-0003517D01*
G01*
X0837477Y0415418D02*
G03*
X0840994Y0411901I0003517J0000000D01*
G01*
X0819400Y0267781D02*
G03*
X0819401Y0267780I0000136J0000370D01*
G01*
X0819397Y0267782D02*
G03*
X0819400Y0267781I0000138J0000369D01*
G01*
D02*
G03*
X0819401Y0267780I0000136J0000370D01*
G01*
X0819397Y0267782D02*
G03*
X0819400Y0267781I0000138J0000369D01*
G01*
X0818516Y0268101D02*
G03*
X0818518Y0268101I0000145J0000394D01*
G01*
X0818521Y0268100D02*
G03*
X0818523Y0268099I0000131J0000371D01*
G01*
X0818519Y0268100D02*
G03*
X0818521Y0268100I0000133J0000371D01*
G01*
X0818518Y0268101D02*
G03*
X0818519Y0268100I0000134J0000370D01*
G01*
X0817634Y0268411D02*
G03*
X0817635Y0268411I0000128J0000373D01*
G01*
X0817634Y0268411D02*
G03*
X0817635Y0268411I0000128J0000373D01*
G01*
X0822826Y0266430D02*
G03*
X0822828Y0266429I0000152J0000363D01*
G01*
X0822825Y0266431D02*
G03*
X0822826Y0266430I0000154J0000362D01*
G01*
X0822824Y0266431D02*
G03*
X0822825Y0266431I0000154J0000362D01*
G01*
X0823660Y0266074D02*
G03*
X0823665Y0266072I0000156J0000362D01*
G01*
X0823659Y0266075D02*
G03*
X0823660Y0266074I0000157J0000361D01*
G01*
D02*
G03*
X0823665Y0266072I0000156J0000362D01*
G01*
X0823659Y0266075D02*
G03*
X0823660Y0266074I0000157J0000361D01*
G01*
X0821987Y0266777D02*
G03*
X0821988Y0266777I0000144J0000366D01*
G01*
X0821985Y0266778D02*
G03*
X0821987Y0266777I0000146J0000366D01*
G01*
X0821127Y0267122D02*
G03*
X0821128Y0267121I0000148J0000365D01*
G01*
X0821126Y0267122D02*
G03*
X0821127Y0267122I0000149J0000365D01*
G01*
X0820271Y0267454D02*
G03*
X0820273Y0267453I0000138J0000369D01*
G01*
X0820267Y0267455D02*
G03*
X0820271Y0267454I0000142J0000367D01*
G01*
D02*
G03*
X0820273Y0267453I0000138J0000369D01*
G01*
X0821983Y0266779D02*
G03*
X0821987Y0266777I0000148J0000365D01*
G01*
X0821982Y0266779D02*
G03*
X0821983Y0266779I0000149J0000365D01*
G01*
X0821130Y0267121D02*
G03*
X0821133Y0267120I0000145J0000366D01*
G01*
X0821127Y0267122D02*
G03*
X0821130Y0267121I0000149J0000365D01*
G01*
X0829217Y0263388D02*
G03*
X0829218Y0263388I0000184J0000348D01*
G01*
X0829216Y0263389D02*
G03*
X0829217Y0263388I0000185J0000348D01*
G01*
X0829212Y0263391D02*
G03*
X0829216Y0263389I0000189J0000346D01*
G01*
X0829217Y0263388D02*
G03*
X0829218Y0263388I0000184J0000348D01*
G01*
X0829216Y0263389D02*
G03*
X0829217Y0263388I0000185J0000348D01*
G01*
X0829212Y0263391D02*
G03*
X0829216Y0263389I0000189J0000346D01*
G01*
X0829216Y0263389D02*
G03*
X0829218Y0263388I0000184J0000348D01*
G01*
X0827678Y0264191D02*
G03*
X0827681Y0264190I0000179J0000351D01*
G01*
X0827676Y0264192D02*
G03*
X0827678Y0264191I0000181J0000350D01*
G01*
X0827676Y0264192D02*
G03*
X0827677Y0264192I0000181J0000350D01*
G01*
X0828453Y0263793D02*
G03*
X0828455Y0263792I0000181J0000350D01*
G01*
X0828451Y0263794D02*
G03*
X0828453Y0263793I0000183J0000349D01*
G01*
D02*
G03*
X0828455Y0263792I0000181J0000350D01*
G01*
X0828451Y0263794D02*
G03*
X0828453Y0263793I0000183J0000349D01*
G01*
X0830705Y0262563D02*
G03*
X0830707Y0262562I0000195J0000342D01*
G01*
X0830704Y0262564D02*
G03*
X0830705Y0262563I0000197J0000341D01*
G01*
X0830705Y0262563D02*
G03*
X0830707Y0262562I0000195J0000342D01*
G01*
X0830707Y0262562D02*
G03*
X0830708Y0262562I0000194J0000343D01*
G01*
X0830707Y0262562D02*
G03*
X0830708Y0262562I0000194J0000343D01*
G01*
X0830704Y0262564D02*
G03*
X0830705Y0262563I0000197J0000341D01*
G01*
X0829962Y0262982D02*
G03*
X0829963Y0262981I0000194J0000343D01*
G01*
X0829964Y0262981D02*
G03*
X0829968Y0262979I0000192J0000344D01*
G01*
X0829962Y0262981D02*
G03*
X0829964Y0262981I0000194J0000343D01*
G01*
X0829962Y0262982D02*
G03*
X0829962Y0262981I0000194J0000343D01*
G01*
X0830705Y0262563D02*
G03*
X0830707Y0262562I0000195J0000342D01*
G01*
X0830704Y0262564D02*
G03*
X0830705Y0262563I0000197J0000341D01*
G01*
X0830702Y0262565D02*
G03*
X0830704Y0262564I0000198J0000340D01*
G01*
X0830705Y0262563D02*
G03*
X0830707Y0262562I0000195J0000342D01*
G01*
X0830704Y0262564D02*
G03*
X0830705Y0262563I0000197J0000341D01*
G01*
X0830702Y0262565D02*
G03*
X0830704Y0262564I0000198J0000340D01*
G01*
X0823661Y0266074D02*
G03*
X0823665Y0266072I0000155J0000362D01*
G01*
X0823658Y0266075D02*
G03*
X0823661Y0266074I0000158J0000360D01*
G01*
X0823657Y0266075D02*
G03*
X0823658Y0266075I0000159J0000360D01*
G01*
X0823661Y0266074D02*
G03*
X0823665Y0266072I0000155J0000362D01*
G01*
X0823661Y0266074D02*
G03*
X0823665Y0266072I0000156J0000362D01*
G01*
X0823658Y0266075D02*
G03*
X0823661Y0266074I0000158J0000361D01*
G01*
X0823661Y0266074D02*
G03*
X0823662Y0266074I0000155J0000362D01*
G01*
X0823658Y0266075D02*
G03*
X0823661Y0266074I0000159J0000360D01*
G01*
X0822826Y0266430D02*
G03*
X0822827Y0266430I0000153J0000363D01*
G01*
X0822825Y0266431D02*
G03*
X0822826Y0266430I0000154J0000362D01*
G01*
D02*
G03*
X0822827Y0266430I0000153J0000363D01*
G01*
X0822825Y0266431D02*
G03*
X0822826Y0266430I0000154J0000362D01*
G01*
X0823662Y0266074D02*
G03*
X0823662Y0266073I0000165J0000387D01*
G01*
X0823655Y0266076D02*
G03*
X0823657Y0266075I0000171J0000384D01*
G01*
X0822828Y0266429D02*
G03*
X0822830Y0266429I0000161J0000388D01*
G01*
X0826101Y0264965D02*
G03*
X0826104Y0264964I0000170J0000355D01*
G01*
X0826099Y0264966D02*
G03*
X0826101Y0264965I0000172J0000354D01*
G01*
X0826893Y0264582D02*
G03*
X0826898Y0264580I0000176J0000353D01*
G01*
X0824485Y0265711D02*
G03*
X0824486Y0265710I0000159J0000360D01*
G01*
X0824482Y0265712D02*
G03*
X0824485Y0265711I0000162J0000359D01*
G01*
X0824480Y0265713D02*
G03*
X0824482Y0265712I0000164J0000358D01*
G01*
X0824487Y0265710D02*
G03*
X0824489Y0265709I0000158J0000361D01*
G01*
X0824486Y0265710D02*
G03*
X0824487Y0265710I0000158J0000361D01*
G01*
X0824485Y0265711D02*
G03*
X0824486Y0265710I0000160J0000360D01*
G01*
X0824483Y0265712D02*
G03*
X0824485Y0265711I0000162J0000359D01*
G01*
X0825298Y0265342D02*
G03*
X0825301Y0265340I0000165J0000358D01*
G01*
X0825296Y0265343D02*
G03*
X0825298Y0265342I0000167J0000357D01*
G01*
X0825295Y0265343D02*
G03*
X0825296Y0265343I0000167J0000356D01*
G01*
X0823661Y0266074D02*
G03*
X0823665Y0266072I0000156J0000362D01*
G01*
X0823658Y0266075D02*
G03*
X0823661Y0266074I0000158J0000361D01*
G01*
X0823662Y0266073D02*
G03*
X0823665Y0266072I0000154J0000362D01*
G01*
X0825301Y0265340D02*
G03*
X0825302Y0265340I0000161J0000359D01*
G01*
X0825300Y0265341D02*
G03*
X0825301Y0265340I0000163J0000359D01*
G01*
X0824487Y0265710D02*
G03*
X0824489Y0265709I0000158J0000361D01*
G01*
X0824486Y0265710D02*
G03*
X0824487Y0265710I0000158J0000361D01*
G01*
X0824485Y0265711D02*
G03*
X0824486Y0265710I0000159J0000360D01*
G01*
X0824487Y0265710D02*
G03*
X0824489Y0265709I0000158J0000361D01*
G01*
X0801460Y0272482D02*
G03*
X0801463Y0272481I0000064J0000389D01*
G01*
X0801457Y0272482D02*
G03*
X0801460Y0272482I0000067J0000388D01*
G01*
X0801463Y0272481D02*
G03*
X0801465Y0272481I0000061J0000389D01*
G01*
X0801460Y0272482D02*
G03*
X0801463Y0272481I0000064J0000389D01*
G01*
X0801457Y0272482D02*
G03*
X0801460Y0272482I0000067J0000388D01*
G01*
X0801456Y0272482D02*
G03*
X0801457Y0272482I0000073J0000414D01*
G01*
X0801461Y0272482D02*
G03*
X0801462Y0272481I0000068J0000415D01*
G01*
X0801460Y0272482D02*
G03*
X0801463Y0272481I0000064J0000389D01*
G01*
X0801457Y0272482D02*
G03*
X0801460Y0272482I0000067J0000388D01*
G01*
X0801463Y0272481D02*
G03*
X0801465Y0272481I0000061J0000389D01*
G01*
X0801460Y0272482D02*
G03*
X0801463Y0272481I0000064J0000389D01*
G01*
X0805421Y0271740D02*
G03*
X0805423Y0271739I0000081J0000385D01*
G01*
X0805421Y0271740D02*
G03*
X0805423Y0271739I0000081J0000385D01*
G01*
X0806401Y0271533D02*
G03*
X0806403Y0271532I0000083J0000385D01*
G01*
X0803449Y0272128D02*
G03*
X0803453Y0272127I0000074J0000387D01*
G01*
X0801462Y0272481D02*
G03*
X0801463Y0272481I0000063J0000389D01*
G01*
X0803453Y0272127D02*
G03*
X0803456Y0272127I0000075J0000414D01*
G01*
X0804438Y0271938D02*
G03*
X0804439Y0271938I0000078J0000386D01*
G01*
X0802458Y0272309D02*
G03*
X0802460Y0272309I0000068J0000388D01*
G01*
X0802455Y0272309D02*
G03*
X0802458Y0272309I0000071J0000387D01*
G01*
X0802454Y0272310D02*
G03*
X0802455Y0272309I0000076J0000413D01*
G01*
X0796404Y0273216D02*
G03*
X0796405Y0273216I0000047J0000391D01*
G01*
X0796404Y0273216D02*
G03*
X0796405Y0273216I0000047J0000391D01*
G01*
X0801460Y0272482D02*
G03*
X0801463Y0272481I0000064J0000389D01*
G01*
X0801459Y0272482D02*
G03*
X0801460Y0272482I0000065J0000388D01*
G01*
Y0272482D02*
G03*
X0801463Y0272481I0000064J0000389D01*
G01*
X0801457Y0272482D02*
G03*
X0801460Y0272482I0000067J0000388D01*
G01*
Y0272482D02*
G03*
X0801463Y0272481I0000064J0000389D01*
G01*
X0801459Y0272482D02*
G03*
X0801460Y0272482I0000065J0000388D01*
G01*
X0800454Y0272646D02*
G03*
X0800457Y0272646I0000063J0000389D01*
G01*
X0800454Y0272646D02*
G03*
X0800457Y0272646I0000063J0000389D01*
G01*
X0800457Y0272646D02*
G03*
X0800458Y0272646I0000061J0000389D01*
G01*
X0800454Y0272646D02*
G03*
X0800457Y0272646I0000064J0000389D01*
G01*
X0800458Y0272646D02*
G03*
X0800459Y0272646I0000064J0000415D01*
G01*
X0801460Y0272482D02*
G03*
X0801461Y0272482I0000064J0000389D01*
G01*
X0801457Y0272482D02*
G03*
X0801460Y0272482I0000067J0000388D01*
G01*
X0800457Y0272646D02*
G03*
X0800458Y0272646I0000061J0000389D01*
G01*
X0800457Y0272646D02*
G03*
X0800458Y0272646I0000061J0000389D01*
G01*
X0798438Y0272949D02*
G03*
X0798439Y0272948I0000055J0000390D01*
G01*
X0798437Y0272949D02*
G03*
X0798438Y0272949I0000056J0000390D01*
G01*
D02*
G03*
X0798439Y0272948I0000055J0000390D01*
G01*
X0798437Y0272949D02*
G03*
X0798438Y0272949I0000056J0000390D01*
G01*
X0798438Y0272949D02*
G03*
X0798439Y0272948I0000055J0000390D01*
G01*
X0798437Y0272949D02*
G03*
X0798438Y0272949I0000055J0000390D01*
G01*
X0798436Y0272949D02*
G03*
X0798437Y0272949I0000056J0000390D01*
G01*
X0799447Y0272802D02*
G03*
X0799448Y0272802I0000060J0000389D01*
G01*
X0799443Y0272803D02*
G03*
X0799447Y0272802I0000068J0000415D01*
G01*
X0798439Y0272948D02*
G03*
X0798443Y0272948I0000057J0000416D01*
G01*
X0813077Y0269852D02*
G03*
X0813078Y0269852I0000109J0000378D01*
G01*
X0814001Y0269581D02*
G03*
X0814002Y0269580I0000115J0000377D01*
G01*
X0813078Y0269852D02*
G03*
X0813080Y0269851I0000114J0000404D01*
G01*
X0814000Y0269581D02*
G03*
X0814001Y0269581I0000124J0000402D01*
G01*
X0817633Y0268411D02*
G03*
X0817634Y0268411I0000128J0000372D01*
G01*
X0817633Y0268411D02*
G03*
X0817634Y0268411I0000128J0000372D01*
G01*
X0815833Y0269011D02*
G03*
X0815835Y0269011I0000121J0000375D01*
G01*
Y0269011D02*
G03*
X0815836Y0269011I0000119J0000375D01*
G01*
X0815833Y0269011D02*
G03*
X0815835Y0269011I0000121J0000375D01*
G01*
X0817634Y0268411D02*
G03*
X0817635Y0268411I0000127J0000373D01*
G01*
X0817635Y0268411D02*
G03*
X0817637Y0268410I0000135J0000398D01*
G01*
X0816733Y0268717D02*
G03*
X0816735Y0268716I0000137J0000397D01*
G01*
X0816735Y0268716D02*
G03*
X0816737Y0268715I0000126J0000373D01*
G01*
X0814926Y0269299D02*
G03*
X0814926Y0269298I0000113J0000377D01*
G01*
X0814924Y0269299D02*
G03*
X0814926Y0269299I0000115J0000377D01*
G01*
X0815835Y0269011D02*
G03*
X0815836Y0269011I0000119J0000375D01*
G01*
X0815834Y0269011D02*
G03*
X0815835Y0269011I0000120J0000375D01*
G01*
X0815833Y0269011D02*
G03*
X0815834Y0269011I0000121J0000375D01*
G01*
X0815833Y0269012D02*
G03*
X0815833Y0269011I0000122J0000375D01*
G01*
X0814923Y0269299D02*
G03*
X0814926Y0269299I0000116J0000376D01*
G01*
X0814920Y0269300D02*
G03*
X0814923Y0269299I0000119J0000375D01*
G01*
D02*
G03*
X0814926Y0269299I0000116J0000376D01*
G01*
X0814920Y0269300D02*
G03*
X0814923Y0269299I0000119J0000375D01*
G01*
X0814926Y0269299D02*
G03*
X0814926Y0269298I0000113J0000377D01*
G01*
X0814923Y0269299D02*
G03*
X0814926Y0269299I0000116J0000376D01*
G01*
X0814920Y0269300D02*
G03*
X0814923Y0269299I0000119J0000375D01*
G01*
X0814926Y0269299D02*
G03*
X0814926Y0269298I0000113J0000377D01*
G01*
X0814923Y0269299D02*
G03*
X0814926Y0269299I0000116J0000376D01*
G01*
X0814920Y0269300D02*
G03*
X0814923Y0269299I0000119J0000375D01*
G01*
X0815836Y0269011D02*
G03*
X0815837Y0269010I0000127J0000401D01*
G01*
X0805421Y0271740D02*
G03*
X0805423Y0271739I0000082J0000385D01*
G01*
X0804434Y0271939D02*
G03*
X0804438Y0271938I0000086J0000411D01*
G01*
X0805421Y0271740D02*
G03*
X0805423Y0271739I0000082J0000385D01*
G01*
X0807369Y0271318D02*
G03*
X0807372Y0271318I0000097J0000409D01*
G01*
X0806403Y0271532D02*
G03*
X0806405Y0271532I0000087J0000411D01*
G01*
X0812137Y0270119D02*
G03*
X0812141Y0270117I0000111J0000378D01*
G01*
X0812142Y0270117D02*
G03*
X0812144Y0270116I0000106J0000379D01*
G01*
X0812137Y0270119D02*
G03*
X0812142Y0270117I0000111J0000378D01*
G01*
D02*
G03*
X0812144Y0270116I0000106J0000379D01*
G01*
X0812137Y0270119D02*
G03*
X0812142Y0270117I0000111J0000378D01*
G01*
D02*
G03*
X0812144Y0270116I0000106J0000379D01*
G01*
X0812137Y0270119D02*
G03*
X0812142Y0270117I0000111J0000378D01*
G01*
D02*
G03*
X0812144Y0270116I0000106J0000379D01*
G01*
X0812137Y0270119D02*
G03*
X0812142Y0270117I0000111J0000378D01*
G01*
X0809302Y0270861D02*
G03*
X0809303Y0270861I0000092J0000383D01*
G01*
X0809302Y0270861D02*
G03*
X0809303Y0270861I0000092J0000383D01*
G01*
X0809298Y0270862D02*
G03*
X0809302Y0270861I0000096J0000382D01*
G01*
X0810254Y0270622D02*
G03*
X0810256Y0270621I0000098J0000381D01*
G01*
X0811197Y0270375D02*
G03*
X0811200Y0270374I0000113J0000405D01*
G01*
Y0270374D02*
G03*
X0811203Y0270373I0000104J0000380D01*
G01*
X0810256Y0270621D02*
G03*
X0810259Y0270620I0000103J0000408D01*
G01*
X0848489Y0244840D02*
G03*
X0848489Y0244839I0000357J0000166D01*
G01*
X0870842Y0225561D02*
G03*
X0925273Y0292519I-0013969J0066958D01*
G01*
X0848973Y0243706D02*
G03*
X0848975Y0243700I0000367J0000143D01*
G01*
X0848973Y0243706D02*
G03*
X0848975Y0243700I0000367J0000143D01*
G01*
X0847004Y0247657D02*
G03*
X0847008Y0247651I0000339J0000200D01*
G01*
X0847004Y0247657D02*
G03*
X0847008Y0247651I0000339J0000200D01*
G01*
X0845936Y0249313D02*
G03*
X0845938Y0249309I0000325J0000222D01*
G01*
X0845934Y0249315D02*
G03*
X0845936Y0249313I0000327J0000220D01*
G01*
X0847643Y0246537D02*
G03*
X0847644Y0246535I0000347J0000187D01*
G01*
X0847643Y0246538D02*
G03*
X0847643Y0246537I0000347J0000187D01*
G01*
X0847642Y0246539D02*
G03*
X0847643Y0246538I0000347J0000186D01*
G01*
X0847641Y0246541D02*
G03*
X0847642Y0246539I0000348J0000184D01*
G01*
X0847643Y0246537D02*
G03*
X0847645Y0246535I0000347J0000187D01*
G01*
X0847643Y0246537D02*
G03*
X0847644Y0246535I0000347J0000187D01*
G01*
X0847643Y0246538D02*
G03*
X0847643Y0246537I0000347J0000187D01*
G01*
X0847642Y0246539D02*
G03*
X0847643Y0246538I0000347J0000186D01*
G01*
X0847641Y0246541D02*
G03*
X0847642Y0246539I0000348J0000184D01*
G01*
X0848219Y0245413D02*
G03*
X0848223Y0245407I0000356J0000168D01*
G01*
X0848489Y0244840D02*
G03*
X0848489Y0244839I0000357J0000166D01*
G01*
X0848219Y0245413D02*
G03*
X0848223Y0245407I0000356J0000168D01*
G01*
X0847642Y0246539D02*
G03*
X0847643Y0246538I0000347J0000186D01*
G01*
X0847641Y0246541D02*
G03*
X0847642Y0246539I0000348J0000184D01*
G01*
D02*
G03*
X0847643Y0246538I0000347J0000186D01*
G01*
X0847641Y0246541D02*
G03*
X0847642Y0246539I0000348J0000184D01*
G01*
X0847643Y0246537D02*
G03*
X0847645Y0246535I0000347J0000187D01*
G01*
X0850552Y0237325D02*
G03*
X0850876Y0236963I0000418J0000047D01*
G01*
X0850551Y0237327D02*
G03*
X0850552Y0237325I0000391J0000043D01*
G01*
X0849922Y0240827D02*
G03*
X0849922Y0240825I0000382J0000096D01*
G01*
X0849922Y0240827D02*
G03*
X0849922Y0240825I0000382J0000096D01*
G01*
X0850403Y0238502D02*
G03*
X0850404Y0238495I0000390J0000056D01*
G01*
X0850403Y0238502D02*
G03*
X0850404Y0238495I0000390J0000056D01*
G01*
X0850876Y0236963D02*
G03*
X0870842Y0225561I0016424J0005578D01*
G01*
X0835561Y0259479D02*
G03*
X0835561Y0259478I0000228J0000321D01*
G01*
X0835559Y0259480D02*
G03*
X0835561Y0259479I0000230J0000320D01*
G01*
D02*
G03*
X0835561Y0259478I0000228J0000321D01*
G01*
X0835559Y0259480D02*
G03*
X0835561Y0259479I0000230J0000320D01*
G01*
D02*
G03*
X0835561Y0259478I0000228J0000321D01*
G01*
X0835559Y0259480D02*
G03*
X0835561Y0259479I0000229J0000320D01*
G01*
X0835558Y0259481D02*
G03*
X0835559Y0259480I0000231J0000319D01*
G01*
X0835561Y0259479D02*
G03*
X0835561Y0259478I0000228J0000321D01*
G01*
X0835559Y0259480D02*
G03*
X0835561Y0259479I0000229J0000320D01*
G01*
X0835558Y0259481D02*
G03*
X0835559Y0259480I0000231J0000319D01*
G01*
X0837458Y0258072D02*
G03*
X0837462Y0258069I0000243J0000310D01*
G01*
X0837456Y0258074D02*
G03*
X0837458Y0258072I0000245J0000308D01*
G01*
D02*
G03*
X0837462Y0258069I0000243J0000310D01*
G01*
X0837456Y0258074D02*
G03*
X0837458Y0258072I0000245J0000308D01*
G01*
X0838068Y0257591D02*
G03*
X0838069Y0257589I0000245J0000308D01*
G01*
X0838065Y0257593D02*
G03*
X0838068Y0257591I0000248J0000306D01*
G01*
X0838063Y0257594D02*
G03*
X0838065Y0257593I0000250J0000304D01*
G01*
X0838069Y0257589D02*
G03*
X0838070Y0257589I0000244J0000309D01*
G01*
X0838069Y0257590D02*
G03*
X0838069Y0257589I0000244J0000309D01*
G01*
X0836205Y0259016D02*
G03*
X0836209Y0259013I0000234J0000317D01*
G01*
X0836203Y0259017D02*
G03*
X0836205Y0259016I0000236J0000316D01*
G01*
D02*
G03*
X0836209Y0259013I0000234J0000317D01*
G01*
X0836203Y0259017D02*
G03*
X0836205Y0259016I0000236J0000316D01*
G01*
X0832155Y0261710D02*
G03*
X0832155Y0261709I0000201J0000339D01*
G01*
X0832152Y0261712D02*
G03*
X0832155Y0261710I0000204J0000337D01*
G01*
X0832150Y0261713D02*
G03*
X0832152Y0261712I0000206J0000336D01*
G01*
X0832148Y0261714D02*
G03*
X0832150Y0261713I0000207J0000335D01*
G01*
X0832155Y0261710D02*
G03*
X0832155Y0261709I0000201J0000339D01*
G01*
X0832154Y0261711D02*
G03*
X0832155Y0261710I0000202J0000338D01*
G01*
X0831438Y0262139D02*
G03*
X0831439Y0262138I0000197J0000341D01*
G01*
X0831437Y0262139D02*
G03*
X0831439Y0262138I0000198J0000341D01*
G01*
X0831437Y0262139D02*
G03*
X0831439Y0262138I0000197J0000341D01*
G01*
X0831436Y0262140D02*
G03*
X0831437Y0262139I0000198J0000340D01*
G01*
X0831433Y0262141D02*
G03*
X0831436Y0262140I0000201J0000338D01*
G01*
X0832152Y0261712D02*
G03*
X0832155Y0261710I0000204J0000337D01*
G01*
X0832150Y0261713D02*
G03*
X0832152Y0261712I0000206J0000336D01*
G01*
X0832148Y0261714D02*
G03*
X0832150Y0261713I0000207J0000335D01*
G01*
X0831437Y0262139D02*
G03*
X0831439Y0262138I0000197J0000341D01*
G01*
X0831436Y0262140D02*
G03*
X0831437Y0262139I0000198J0000340D01*
G01*
X0831433Y0262141D02*
G03*
X0831436Y0262140I0000201J0000338D01*
G01*
X0831436Y0262140D02*
G03*
X0831436Y0262139I0000198J0000340D01*
G01*
X0831433Y0262141D02*
G03*
X0831436Y0262140I0000201J0000339D01*
G01*
X0831433Y0262142D02*
G03*
X0831433Y0262141I0000202J0000338D01*
G01*
X0831436Y0262139D02*
G03*
X0831438Y0262139I0000211J0000363D01*
G01*
X0832152Y0261712D02*
G03*
X0832155Y0261710I0000204J0000337D01*
G01*
X0832150Y0261713D02*
G03*
X0832152Y0261712I0000206J0000336D01*
G01*
X0832148Y0261714D02*
G03*
X0832150Y0261713I0000207J0000335D01*
G01*
X0834230Y0260391D02*
G03*
X0834231Y0260391I0000221J0000326D01*
G01*
X0833554Y0260834D02*
G03*
X0833556Y0260833I0000211J0000332D01*
G01*
X0833554Y0260834D02*
G03*
X0833556Y0260833I0000210J0000333D01*
G01*
X0833553Y0260835D02*
G03*
X0833554Y0260834I0000212J0000332D01*
G01*
X0833549Y0260837D02*
G03*
X0833553Y0260835I0000216J0000329D01*
G01*
X0834903Y0259937D02*
G03*
X0834904Y0259936I0000223J0000324D01*
G01*
X0834903Y0259937D02*
G03*
X0834904Y0259936I0000223J0000324D01*
G01*
X0834233Y0260389D02*
G03*
X0834236Y0260387I0000219J0000327D01*
G01*
X0834231Y0260391D02*
G03*
X0834233Y0260389I0000221J0000326D01*
G01*
X0833554Y0260834D02*
G03*
X0833556Y0260833I0000210J0000333D01*
G01*
X0833553Y0260835D02*
G03*
X0833554Y0260834I0000212J0000332D01*
G01*
X0833549Y0260837D02*
G03*
X0833553Y0260835I0000216J0000329D01*
G01*
X0833554Y0260834D02*
G03*
X0833556Y0260833I0000210J0000333D01*
G01*
X0833553Y0260835D02*
G03*
X0833554Y0260834I0000212J0000332D01*
G01*
X0833549Y0260837D02*
G03*
X0833553Y0260835I0000216J0000329D01*
G01*
X0832858Y0261276D02*
G03*
X0832860Y0261275I0000208J0000335D01*
G01*
X0832856Y0261278D02*
G03*
X0832858Y0261276I0000210J0000333D01*
G01*
X0832854Y0261279D02*
G03*
X0832856Y0261278I0000212J0000332D01*
G01*
X0833554Y0260834D02*
G03*
X0833556Y0260833I0000210J0000333D01*
G01*
X0833553Y0260835D02*
G03*
X0833554Y0260834I0000212J0000332D01*
G01*
X0833549Y0260837D02*
G03*
X0833553Y0260835I0000216J0000329D01*
G01*
X0843862Y0252010D02*
G03*
X0843865Y0252006I0000301J0000253D01*
G01*
X0843861Y0252011D02*
G03*
X0843862Y0252010I0000302J0000252D01*
G01*
D02*
G03*
X0843865Y0252006I0000301J0000253D01*
G01*
X0843861Y0252011D02*
G03*
X0843862Y0252010I0000302J0000252D01*
G01*
X0842933Y0253062D02*
G03*
X0842935Y0253060I0000291J0000265D01*
G01*
X0845149Y0250402D02*
G03*
X0845153Y0250397I0000316J0000235D01*
G01*
X0845149Y0250402D02*
G03*
X0845153Y0250397I0000316J0000235D01*
G01*
X0844309Y0251473D02*
G03*
X0844310Y0251472I0000302J0000252D01*
G01*
X0844308Y0251474D02*
G03*
X0844309Y0251473I0000304J0000251D01*
G01*
X0844304Y0251479D02*
G03*
X0844308Y0251474I0000307J0000246D01*
G01*
D02*
G03*
X0844309Y0251473I0000304J0000251D01*
G01*
X0844304Y0251479D02*
G03*
X0844308Y0251474I0000307J0000246D01*
G01*
X0844309Y0251473D02*
G03*
X0844310Y0251472I0000302J0000252D01*
G01*
X0844308Y0251474D02*
G03*
X0844309Y0251473I0000304J0000251D01*
G01*
X0844304Y0251479D02*
G03*
X0844308Y0251474I0000307J0000246D01*
G01*
X0844309Y0251473D02*
G03*
X0844310Y0251472I0000302J0000252D01*
G01*
X0844308Y0251474D02*
G03*
X0844309Y0251473I0000304J0000251D01*
G01*
X0844304Y0251479D02*
G03*
X0844308Y0251474I0000307J0000246D01*
G01*
X0840363Y0255626D02*
G03*
X0840365Y0255623I0000268J0000289D01*
G01*
X0840362Y0255627D02*
G03*
X0840363Y0255626I0000269J0000288D01*
G01*
X0838663Y0257105D02*
G03*
X0838664Y0257104I0000250J0000304D01*
G01*
X0838659Y0257108D02*
G03*
X0838663Y0257105I0000253J0000302D01*
G01*
X0838658Y0257109D02*
G03*
X0838659Y0257108I0000254J0000301D01*
G01*
X0839808Y0256125D02*
G03*
X0839812Y0256121I0000263J0000293D01*
G01*
X0839808Y0256125D02*
G03*
X0839812Y0256121I0000263J0000293D01*
G01*
X0842449Y0253580D02*
G03*
X0842451Y0253579I0000284J0000273D01*
G01*
X0842446Y0253584D02*
G03*
X0842449Y0253580I0000287J0000270D01*
G01*
D02*
G03*
X0842451Y0253579I0000284J0000273D01*
G01*
X0842446Y0253584D02*
G03*
X0842449Y0253580I0000287J0000270D01*
G01*
X0840903Y0255123D02*
G03*
X0840903Y0255122I0000274J0000283D01*
G01*
X0840902Y0255123D02*
G03*
X0840903Y0255123I0000274J0000283D01*
G01*
X0840365Y0255623D02*
G03*
X0840367Y0255622I0000265J0000291D01*
G01*
X0840365Y0255623D02*
G03*
X0840367Y0255622I0000265J0000291D01*
G01*
X0840363Y0255625D02*
G03*
X0840365Y0255623I0000267J0000289D01*
G01*
X0840363Y0255626D02*
G03*
X0840365Y0255623I0000268J0000289D01*
G01*
X0840362Y0255627D02*
G03*
X0840363Y0255626I0000269J0000288D01*
G01*
X0840365Y0255623D02*
G03*
X0840367Y0255622I0000265J0000291D01*
G01*
X0840363Y0255625D02*
G03*
X0840365Y0255623I0000267J0000289D01*
G01*
X0840365Y0255623D02*
G03*
X0840367Y0255622I0000265J0000291D01*
G01*
X0840908Y0255118D02*
G03*
X0840909Y0255117I0000269J0000288D01*
G01*
X0840905Y0255121D02*
G03*
X0840908Y0255118I0000272J0000284D01*
G01*
X0840903Y0255123D02*
G03*
X0840905Y0255121I0000274J0000283D01*
G01*
X0790230Y0273807D02*
G03*
X0790231Y0273807I0000027J0000393D01*
G01*
X0790228Y0273807D02*
G03*
X0790230Y0273807I0000029J0000393D01*
G01*
X0790223Y0273807D02*
G03*
X0790228Y0273807I0000034J0000392D01*
G01*
X0790231Y0273807D02*
G03*
X0790232Y0273807I0000026J0000393D01*
G01*
X0790229Y0273807D02*
G03*
X0790231Y0273807I0000028J0000393D01*
G01*
X0790228Y0273807D02*
G03*
X0790229Y0273807I0000029J0000393D01*
G01*
X0790223Y0273807D02*
G03*
X0790228Y0273807I0000034J0000392D01*
G01*
X0788156Y0273932D02*
G03*
X0788157Y0273932I0000018J0000393D01*
G01*
X0788152Y0273933D02*
G03*
X0788156Y0273932I0000022J0000393D01*
G01*
X0789192Y0273874D02*
G03*
X0789194Y0273874I0000025J0000393D01*
G01*
X0789191Y0273874D02*
G03*
X0789192Y0273874I0000025J0000393D01*
G01*
X0787112Y0273982D02*
G03*
X0787114Y0273982I0000019J0000393D01*
G01*
X0791262Y0273731D02*
G03*
X0791263Y0273731I0000034J0000392D01*
G01*
X0791261Y0273731D02*
G03*
X0791262Y0273731I0000034J0000392D01*
G01*
X0787112Y0273982D02*
G03*
X0787114Y0273982I0000019J0000393D01*
G01*
X0786069Y0274022D02*
G03*
X0786070Y0274022I0000017J0000393D01*
G01*
X0782945Y0274090D02*
G03*
X0782946Y0274090I0000001J0000394D01*
G01*
X0782941Y0274090D02*
G03*
X0782945Y0274090I0000005J0000394D01*
G01*
X0783987Y0274076D02*
G03*
X0783989Y0274076I0000007J0000394D01*
G01*
X0785029Y0274054D02*
G03*
X0785030Y0274054I0000011J0000394D01*
G01*
X0785028Y0274054D02*
G03*
X0785029Y0274054I0000012J0000394D01*
G01*
X0786073Y0274022D02*
G03*
X0786075Y0274022I0000013J0000394D01*
G01*
X0786069Y0274022D02*
G03*
X0786073Y0274022I0000017J0000393D01*
G01*
X0782946Y0274090D02*
G03*
X0782947Y0274090I0000000J0000394D01*
G01*
X0782945D02*
G03*
X0782946Y0274090I0000002J0000394D01*
G01*
X0783992Y0274076D02*
G03*
X0783994Y0274076I0000002J0000394D01*
G01*
X0783989Y0274076D02*
G03*
X0783994Y0274076I0000005J0000394D01*
G01*
X0371852Y0274090D02*
G03*
X0371854Y0274090I-0000000J0000394D01*
G01*
X0370813Y0274076D02*
G03*
X0370814Y0274076I-0000008J0000394D01*
G01*
X0370812Y0274076D02*
G03*
X0370813Y0274076I-0000007J0000394D01*
G01*
X0370810Y0274076D02*
G03*
X0370812Y0274076I-0000005J0000394D01*
G01*
X0370805Y0274076D02*
G03*
X0370810Y0274076I0000000J0000394D01*
G01*
X0370805Y0274076D02*
G03*
X0370810Y0274076I0000000J0000394D01*
G01*
Y0274076D02*
G03*
X0370813Y0274076I-0000005J0000394D01*
G01*
X0370805Y0274076D02*
G03*
X0370810Y0274076I-0000000J0000394D01*
G01*
X0369770Y0274054D02*
G03*
X0369771Y0274054I-0000011J0000394D01*
G01*
X0369769Y0274054D02*
G03*
X0369770Y0274054I-0000010J0000394D01*
G01*
X0368726Y0274022D02*
G03*
X0368730Y0274022I-0000013J0000394D01*
G01*
X0368725Y0274022D02*
G03*
X0368726Y0274022I-0000013J0000394D01*
G01*
X0368724Y0274022D02*
G03*
X0368725Y0274022I-0000011J0000394D01*
G01*
X0371854Y0274090D02*
G03*
X0371857Y0274090I-0000001J0000394D01*
G01*
X0371852Y0274090D02*
G03*
X0371854Y0274090I0000000J0000394D01*
G01*
X0370813Y0274076D02*
G03*
X0370814Y0274076I-0000009J0000394D01*
G01*
X0368728Y0274022D02*
G03*
X0368730Y0274022I-0000015J0000393D01*
G01*
X0367685Y0273982D02*
G03*
X0367687Y0273982I-0000017J0000393D01*
G01*
X0367685Y0273982D02*
G03*
X0367687Y0273982I-0000017J0000393D01*
G01*
X0366641Y0273932D02*
G03*
X0366643Y0273932I-0000017J0000393D01*
G01*
X0364570Y0273807D02*
G03*
X0364571Y0273807I-0000029J0000393D01*
G01*
X0363535Y0273731D02*
G03*
X0363537Y0273731I-0000033J0000392D01*
G01*
X0363535Y0273730D02*
G03*
X0363535Y0273731I-0000032J0000392D01*
G01*
X0363532Y0273730D02*
G03*
X0363535Y0273730I-0000029J0000393D01*
G01*
X0788156Y0273932D02*
G03*
X0788157Y0273932I0000019J0000393D01*
G01*
X0789193Y0273874D02*
G03*
X0789195Y0273874I0000024J0000393D01*
G01*
X0789192Y0273874D02*
G03*
X0789193Y0273874I0000025J0000393D01*
G01*
D02*
G03*
X0789195Y0273874I0000024J0000393D01*
G01*
X0789192Y0273874D02*
G03*
X0789193Y0273874I0000025J0000393D01*
G01*
X0789195Y0273874D02*
G03*
X0789198Y0273874I0000024J0000420D01*
G01*
X0789194Y0273874D02*
G03*
X0789195Y0273874I0000024J0000420D01*
G01*
X0785024Y0274054D02*
G03*
X0785028Y0274054I0000016J0000420D01*
G01*
X0783989Y0274076D02*
G03*
X0783992Y0274076I0000005J0000420D01*
G01*
X0369771Y0274054D02*
G03*
X0369774Y0274054I-0000013J0000420D01*
G01*
X0794359Y0273448D02*
G03*
X0794364Y0273448I0000039J0000392D01*
G01*
X0794357Y0273448D02*
G03*
X0794358Y0273448I0000040J0000392D01*
G01*
X0794355Y0273448D02*
G03*
X0794357Y0273448I0000042J0000391D01*
G01*
X0795376Y0273337D02*
G03*
X0795380Y0273337I0000053J0000417D01*
G01*
X0794362Y0273448D02*
G03*
X0794364Y0273448I0000036J0000392D01*
G01*
X0795380Y0273337D02*
G03*
X0795382Y0273337I0000046J0000391D01*
G01*
X0794359Y0273448D02*
G03*
X0794364Y0273448I0000039J0000392D01*
G01*
X0794356Y0273448D02*
G03*
X0794359Y0273448I0000042J0000391D01*
G01*
X0794355Y0273448D02*
G03*
X0794356Y0273448I0000043J0000391D01*
G01*
X0794359Y0273448D02*
G03*
X0794362Y0273448I0000041J0000418D01*
G01*
X0794358Y0273448D02*
G03*
X0794359Y0273448I0000042J0000418D01*
G01*
X0794359Y0273448D02*
G03*
X0794364Y0273448I0000039J0000392D01*
G01*
X0794356Y0273448D02*
G03*
X0794359Y0273448I0000042J0000391D01*
G01*
X0794355Y0273448D02*
G03*
X0794356Y0273448I0000043J0000391D01*
G01*
X0793331Y0273551D02*
G03*
X0793332Y0273551I0000035J0000392D01*
G01*
X0793329Y0273551D02*
G03*
X0793331Y0273551I0000037J0000392D01*
G01*
X0793328Y0273551D02*
G03*
X0793329Y0273551I0000038J0000392D01*
G01*
X0793330Y0273551D02*
G03*
X0793332Y0273551I0000036J0000392D01*
G01*
X0790231Y0273807D02*
G03*
X0790232Y0273807I0000025J0000393D01*
G01*
X0791264Y0273730D02*
G03*
X0791267Y0273730I0000032J0000392D01*
G01*
X0791263Y0273731D02*
G03*
X0791264Y0273730I0000033J0000392D01*
G01*
X0791262Y0273731D02*
G03*
X0791263Y0273731I0000034J0000392D01*
G01*
X0366643Y0273932D02*
G03*
X0366646Y0273933I-0000018J0000393D01*
G01*
X0366641Y0273932D02*
G03*
X0366643Y0273932I-0000017J0000393D01*
G01*
X0365604Y0273874D02*
G03*
X0365605Y0273874I-0000022J0000393D01*
G01*
X0364570Y0273807D02*
G03*
X0364571Y0273807I-0000029J0000393D01*
G01*
X0363535Y0273731D02*
G03*
X0363537Y0273731I-0000032J0000392D01*
G01*
X0365600Y0273874D02*
G03*
X0365604Y0273874I-0000020J0000420D01*
G01*
X0364571Y0273807D02*
G03*
X0364574Y0273807I-0000031J0000419D01*
G01*
X0361469Y0273551D02*
G03*
X0361470Y0273551I-0000037J0000392D01*
G01*
X0361467Y0273551D02*
G03*
X0361469Y0273551I-0000035J0000392D01*
G01*
X0361467Y0273551D02*
G03*
X0361468Y0273551I-0000034J0000392D01*
G01*
X0361466Y0273551D02*
G03*
X0361467Y0273551I-0000034J0000392D01*
G01*
X0360443Y0273448D02*
G03*
X0360444Y0273448I-0000043J0000391D01*
G01*
X0360443Y0273448D02*
G03*
X0360444Y0273448I-0000042J0000391D01*
G01*
X0360441Y0273448D02*
G03*
X0360443Y0273448I-0000041J0000392D01*
G01*
X0360435Y0273448D02*
G03*
X0360441Y0273448I-0000034J0000392D01*
G01*
X0360435Y0273448D02*
G03*
X0360440Y0273448I-0000034J0000392D01*
G01*
D02*
G03*
X0360443Y0273448I-0000039J0000392D01*
G01*
X0360435Y0273448D02*
G03*
X0360440Y0273448I-0000034J0000392D01*
G01*
X0359417Y0273337D02*
G03*
X0359419Y0273337I-0000045J0000391D01*
G01*
X0359419Y0273337D02*
G03*
X0359422Y0273337I-0000049J0000417D01*
G01*
X0356360Y0272948D02*
G03*
X0356361Y0272949I-0000054J0000390D01*
G01*
X0356359Y0272948D02*
G03*
X0356360Y0272948I-0000053J0000390D01*
G01*
X0356355Y0272948D02*
G03*
X0356359Y0272948I-0000053J0000417D01*
G01*
X0297920Y0669874D02*
G03*
X0297917Y0669874I-0000003J-0000420D01*
G01*
X0297923Y0669874D02*
G03*
X0297920Y0669874I-0000005J-0000420D01*
G01*
X0297920D02*
G03*
X0297917Y0669874I-0000003J-0000394D01*
G01*
X0297923Y0669874D02*
G03*
X0297920Y0669874I-0000005J-0000394D01*
G01*
D02*
G03*
X0297917Y0669874I-0000003J-0000394D01*
G01*
X0297923Y0669874D02*
G03*
X0297920Y0669874I-0000005J-0000394D01*
G01*
D02*
G03*
X0297917Y0669874I-0000003J-0000394D01*
G01*
X0297923Y0669874D02*
G03*
X0297920Y0669874I-0000005J-0000394D01*
G01*
X0288581Y0558181D02*
G03*
X0288581Y0558176I0000394J-0000005D01*
G01*
D02*
G03*
X0288581Y0558175I0000394J0000000D01*
G01*
D02*
G03*
X0288581Y0558176I-0003517J0000000D01*
G01*
Y0335826D02*
G03*
X0288581Y0335825I0000394J-0000001D01*
G01*
X0355350Y0272802D02*
G03*
X0355352Y0272802I-0000058J0000389D01*
G01*
X0354345Y0272647D02*
G03*
X0354346Y0272647I-0000065J0000389D01*
G01*
X0354344Y0272646D02*
G03*
X0354345Y0272647I-0000063J0000389D01*
G01*
X0354342Y0272646D02*
G03*
X0354344Y0272646I-0000061J0000389D01*
G01*
X0354345Y0272647D02*
G03*
X0354346Y0272647I-0000065J0000388D01*
G01*
X0354344Y0272646D02*
G03*
X0354345Y0272647I-0000064J0000389D01*
G01*
X0354344Y0272646D02*
G03*
X0354345Y0272647I-0000064J0000389D01*
G01*
X0354342Y0272646D02*
G03*
X0354344Y0272646I-0000061J0000389D01*
G01*
X0354341Y0272646D02*
G03*
X0354342Y0272646I-0000061J0000389D01*
G01*
X0353336Y0272481D02*
G03*
X0353338Y0272482I-0000061J0000389D01*
G01*
Y0272482D02*
G03*
X0353341Y0272482I-0000064J0000389D01*
G01*
X0353336Y0272481D02*
G03*
X0353338Y0272482I-0000062J0000389D01*
G01*
X0352340Y0272309D02*
G03*
X0352343Y0272309I-0000068J0000388D01*
G01*
X0352339Y0272309D02*
G03*
X0352340Y0272309I-0000067J0000388D01*
G01*
X0288581Y0558178D02*
G03*
X0288581Y0558175I0000394J-0000003D01*
G01*
X0288581Y0558181D02*
G03*
X0288581Y0558178I0000394J-0000005D01*
G01*
D02*
G03*
X0288581Y0558175I0000394J-0000003D01*
G01*
X0288581Y0558181D02*
G03*
X0288581Y0558178I0000394J-0000005D01*
G01*
X0288581Y0558181D02*
G03*
X0285064Y0561692I-0003517J-0000006D01*
G01*
X0288581Y0558178D02*
G03*
X0288581Y0558181I-0003517J-0000003D01*
G01*
Y0558176D02*
G03*
X0288581Y0558178I-0003517J-0000001D01*
G01*
X0297917Y0669874D02*
G03*
X0229526Y0601482I0000000J-0068391D01*
G01*
X0288581Y0335825D02*
G03*
X0288581Y0335826I-0003517J0000001D01*
G01*
Y0558178D02*
G03*
X0288581Y0558175I0000394J-0000003D01*
G01*
X0288581Y0558181D02*
G03*
X0288581Y0558178I0000394J-0000005D01*
G01*
Y0558178D02*
G03*
X0288581Y0558175I0000420J-0000003D01*
G01*
X0288581Y0558181D02*
G03*
X0288581Y0558178I0000420J-0000005D01*
G01*
X0288581Y0335825D02*
G03*
X0288581Y0335823I0000420J0000001D01*
G01*
X0288581Y0335826D02*
G03*
X0288581Y0335825I0000420J0000000D01*
G01*
X0229526Y0601482D02*
G03*
X0229526Y0601480I0000420J0000000D01*
G01*
X0229526Y0601482D02*
G03*
X0229526Y0601480I0000394J0000000D01*
G01*
Y0566052D02*
G03*
X0229526Y0566049I0000394J-0000003D01*
G01*
D02*
G03*
X0233883Y0561692I0004357J0000000D01*
G01*
X0229526Y0566052D02*
G03*
X0229526Y0566049I0000394J-0000003D01*
G01*
X0288581Y0335825D02*
G03*
X0288581Y0335820I0000394J0000000D01*
G01*
X0288581Y0335825D02*
G03*
X0288581Y0335820I0000394J0000000D01*
G01*
X0288581Y0335823D02*
G03*
X0288581Y0335820I0000394J0000003D01*
G01*
X0288581Y0335825D02*
G03*
X0288581Y0335823I0000394J0000001D01*
G01*
X0288581Y0335826D02*
G03*
X0288581Y0335825I0000394J0000000D01*
G01*
X0288581Y0335823D02*
G03*
X0288581Y0335825I-0003517J0000003D01*
G01*
X0285064Y0332309D02*
G03*
X0288581Y0335823I0000000J0003517D01*
G01*
X0233883Y0332309D02*
G03*
X0229526Y0327952I0000000J-0004357D01*
G01*
D02*
G03*
X0229526Y0327949I0000394J0000000D01*
G01*
X0229526Y0327952D02*
G03*
X0229526Y0327949I0000420J0000000D01*
G01*
Y0292521D02*
G03*
X0229526Y0292519I0000394J-0000003D01*
G01*
X0229526Y0292524D02*
G03*
X0229526Y0292521I0000394J-0000005D01*
G01*
X0229526Y0292525D02*
G03*
X0229526Y0292524I0000394J-0000006D01*
G01*
X0229526Y0292521D02*
G03*
X0229526Y0292519I0000394J-0000003D01*
G01*
X0229526Y0292524D02*
G03*
X0229526Y0292521I0000394J-0000005D01*
G01*
X0229526Y0292525D02*
G03*
X0229526Y0292524I0000394J-0000006D01*
G01*
X0229526Y0292522D02*
G03*
X0229526Y0292519I0000420J-0000003D01*
G01*
X0229526Y0292524D02*
G03*
X0229526Y0292522I0000420J-0000005D01*
G01*
X0229526Y0292525D02*
G03*
X0229526Y0292524I0000420J-0000006D01*
G01*
X0229526Y0292521D02*
G03*
X0229526Y0292519I0000394J-0000003D01*
G01*
X0229526Y0292524D02*
G03*
X0229526Y0292521I0000394J-0000005D01*
G01*
X0355352Y0272802D02*
G03*
X0355356Y0272803I-0000064J0000415D01*
G01*
X0353338Y0272482D02*
G03*
X0353340Y0272482I-0000064J0000389D01*
G01*
X0351352Y0272129D02*
G03*
X0351353Y0272129I-0000077J0000386D01*
G01*
X0351349Y0272128D02*
G03*
X0351352Y0272129I-0000074J0000387D01*
G01*
X0351346Y0272127D02*
G03*
X0351349Y0272128I-0000071J0000387D01*
G01*
X0352343Y0272309D02*
G03*
X0352344Y0272310I-0000075J0000414D01*
G01*
X0351352Y0272129D02*
G03*
X0351353Y0272129I-0000077J0000386D01*
G01*
X0351349Y0272128D02*
G03*
X0351352Y0272129I-0000074J0000387D01*
G01*
X0351349Y0272128D02*
G03*
X0351352Y0272129I-0000074J0000387D01*
G01*
X0351346Y0272127D02*
G03*
X0351349Y0272128I-0000071J0000387D01*
G01*
X0350360Y0271938D02*
G03*
X0350361Y0271938I-0000077J0000386D01*
G01*
X0350361Y0271938D02*
G03*
X0350364Y0271939I-0000083J0000412D01*
G01*
X0348397Y0271533D02*
G03*
X0348403Y0271534I-0000083J0000385D01*
G01*
X0348396Y0271532D02*
G03*
X0348397Y0271533I-0000082J0000385D01*
G01*
X0348398Y0271533D02*
G03*
X0348403Y0271534I-0000084J0000385D01*
G01*
X0348396Y0271532D02*
G03*
X0348398Y0271533I-0000083J0000385D01*
G01*
X0348399Y0271533D02*
G03*
X0348403Y0271534I-0000085J0000384D01*
G01*
X0347427Y0271318D02*
G03*
X0347429Y0271318I-0000095J0000410D01*
G01*
X0347426Y0271318D02*
G03*
X0347427Y0271318I-0000088J0000384D01*
G01*
X0345496Y0270861D02*
G03*
X0345500Y0270862I-0000092J0000383D01*
G01*
X0344544Y0270621D02*
G03*
X0344544Y0270622I-0000097J0000382D01*
G01*
X0344542Y0270621D02*
G03*
X0344544Y0270621I-0000096J0000382D01*
G01*
X0344542Y0270621D02*
G03*
X0344544Y0270621I-0000096J0000382D01*
G01*
X0344544Y0270622D02*
G03*
X0344546Y0270622I-0000098J0000381D01*
G01*
X0343599Y0270374D02*
G03*
X0343601Y0270375I-0000111J0000405D01*
G01*
X0343596Y0270373D02*
G03*
X0343599Y0270374I-0000101J0000381D01*
G01*
X0341720Y0269852D02*
G03*
X0341722Y0269852I-0000107J0000379D01*
G01*
X0341719Y0269851D02*
G03*
X0341720Y0269852I-0000113J0000405D01*
G01*
X0340797Y0269580D02*
G03*
X0340798Y0269581I-0000114J0000377D01*
G01*
X0340796Y0269580D02*
G03*
X0340797Y0269580I-0000114J0000377D01*
G01*
X0340798Y0269581D02*
G03*
X0340799Y0269581I-0000123J0000402D01*
G01*
X0338963Y0269011D02*
G03*
X0338964Y0269011I-0000119J0000375D01*
G01*
X0338961Y0269010D02*
G03*
X0338963Y0269011I-0000125J0000401D01*
G01*
X0338062Y0268715D02*
G03*
X0338063Y0268716I-0000125J0000374D01*
G01*
X0338064Y0268716D02*
G03*
X0338065Y0268717I-0000135J0000398D01*
G01*
X0338063Y0268716D02*
G03*
X0338064Y0268716I-0000135J0000398D01*
G01*
X0337164Y0268411D02*
G03*
X0337165Y0268411I-0000126J0000373D01*
G01*
X0336279Y0268100D02*
G03*
X0336280Y0268101I-0000133J0000371D01*
G01*
X0336277Y0268100D02*
G03*
X0336279Y0268100I-0000131J0000371D01*
G01*
X0336276Y0268099D02*
G03*
X0336277Y0268100I-0000130J0000372D01*
G01*
X0337162Y0268410D02*
G03*
X0337164Y0268411I-0000133J0000399D01*
G01*
X0336280Y0268101D02*
G03*
X0336282Y0268101I-0000143J0000395D01*
G01*
X0335399Y0267781D02*
G03*
X0335401Y0267782I-0000136J0000370D01*
G01*
X0335399Y0267781D02*
G03*
X0335401Y0267782I-0000136J0000370D01*
G01*
X0334526Y0267453D02*
G03*
X0334527Y0267454I-0000137J0000369D01*
G01*
D02*
G03*
X0334531Y0267455I-0000138J0000369D01*
G01*
X0334526Y0267453D02*
G03*
X0334527Y0267454I-0000137J0000369D01*
G01*
X0333670Y0267121D02*
G03*
X0333672Y0267122I-0000146J0000366D01*
G01*
X0333668Y0267121D02*
G03*
X0333672Y0267122I-0000145J0000366D01*
G01*
X0333666Y0267120D02*
G03*
X0333668Y0267121I-0000142J0000367D01*
G01*
X0332811Y0266777D02*
G03*
X0332813Y0266778I-0000144J0000366D01*
G01*
X0332815Y0266779D02*
G03*
X0332816Y0266779I-0000148J0000365D01*
G01*
X0332811Y0266777D02*
G03*
X0332815Y0266779I-0000144J0000366D01*
G01*
X0331970Y0266429D02*
G03*
X0331972Y0266430I-0000151J0000364D01*
G01*
X0331968Y0266429D02*
G03*
X0331970Y0266429I-0000159J0000389D01*
G01*
X0331138Y0266074D02*
G03*
X0331140Y0266075I-0000156J0000362D01*
G01*
X0331139Y0266074D02*
G03*
X0331139Y0266075I-0000156J0000362D01*
G01*
X0331138Y0266074D02*
G03*
X0331139Y0266074I-0000155J0000362D01*
G01*
X0331137Y0266074D02*
G03*
X0331138Y0266074I-0000155J0000362D01*
G01*
X0330317Y0265713D02*
G03*
X0330318Y0265713I-0000174J0000383D01*
G01*
X0330316Y0265712D02*
G03*
X0330317Y0265713I-0000162J0000359D01*
G01*
X0330314Y0265711D02*
G03*
X0330316Y0265712I-0000160J0000360D01*
G01*
X0330312Y0265710D02*
G03*
X0330314Y0265711I-0000158J0000361D01*
G01*
X0329501Y0265342D02*
G03*
X0329503Y0265343I-0000165J0000358D01*
G01*
X0329497Y0265340D02*
G03*
X0329501Y0265342I-0000161J0000359D01*
G01*
X0329497Y0265340D02*
G03*
X0329499Y0265341I-0000161J0000359D01*
G01*
X0328698Y0264965D02*
G03*
X0328700Y0264966I-0000170J0000355D01*
G01*
X0328695Y0264964D02*
G03*
X0328698Y0264965I-0000167J0000356D01*
G01*
X0328694Y0264964D02*
G03*
X0328695Y0264964I-0000167J0000357D01*
G01*
X0327901Y0264580D02*
G03*
X0327905Y0264582I-0000171J0000355D01*
G01*
X0327122Y0264192D02*
G03*
X0327123Y0264192I-0000181J0000350D01*
G01*
X0327121Y0264191D02*
G03*
X0327122Y0264192I-0000179J0000351D01*
G01*
X0327117Y0264190D02*
G03*
X0327121Y0264191I-0000176J0000353D01*
G01*
X0324836Y0262982D02*
G03*
X0324837Y0262982I-0000194J0000343D01*
G01*
X0324836Y0262981D02*
G03*
X0324836Y0262982I-0000193J0000343D01*
G01*
X0324836Y0262981D02*
G03*
X0324836Y0262982I-0000194J0000343D01*
G01*
X0324835Y0262981D02*
G03*
X0324836Y0262981I-0000192J0000344D01*
G01*
X0324831Y0262979D02*
G03*
X0324835Y0262981I-0000189J0000346D01*
G01*
X0324093Y0262563D02*
G03*
X0324095Y0262564I-0000195J0000342D01*
G01*
X0324093Y0262563D02*
G03*
X0324095Y0262564I-0000195J0000342D01*
G01*
X0324091Y0262562D02*
G03*
X0324093Y0262563I-0000193J0000343D01*
G01*
X0324091Y0262562D02*
G03*
X0324093Y0262563I-0000193J0000343D01*
G01*
X0323366Y0262142D02*
G03*
X0323367Y0262142I-0000201J0000338D01*
G01*
X0323360Y0262138D02*
G03*
X0323362Y0262139I-0000195J0000342D01*
G01*
X0323366Y0262142D02*
G03*
X0323367Y0262142I-0000202J0000338D01*
G01*
X0323366Y0262141D02*
G03*
X0323366Y0262142I-0000201J0000338D01*
G01*
X0323365Y0262141D02*
G03*
X0323366Y0262141I-0000201J0000339D01*
G01*
X0323363Y0262140D02*
G03*
X0323365Y0262141I-0000198J0000340D01*
G01*
X0323361Y0262139D02*
G03*
X0323363Y0262140I-0000197J0000341D01*
G01*
X0323360Y0262138D02*
G03*
X0323361Y0262139I-0000195J0000342D01*
G01*
X0323363Y0262140D02*
G03*
X0323366Y0262141I-0000198J0000340D01*
G01*
X0323361Y0262139D02*
G03*
X0323363Y0262140I-0000197J0000341D01*
G01*
X0323360Y0262138D02*
G03*
X0323361Y0262139I-0000195J0000342D01*
G01*
X0323366Y0262142D02*
G03*
X0323367Y0262142I-0000202J0000338D01*
G01*
X0322649Y0261713D02*
G03*
X0322650Y0261714I-0000206J0000336D01*
G01*
X0322647Y0261712D02*
G03*
X0322649Y0261713I-0000204J0000337D01*
G01*
X0321938Y0261275D02*
G03*
X0321939Y0261275I-0000206J0000336D01*
G01*
X0321943Y0261278D02*
G03*
X0321944Y0261279I-0000210J0000333D01*
G01*
X0321940Y0261276D02*
G03*
X0321943Y0261278I-0000208J0000335D01*
G01*
X0321938Y0261275D02*
G03*
X0321940Y0261276I-0000206J0000336D01*
G01*
X0321246Y0260835D02*
G03*
X0321250Y0260837I-0000212J0000332D01*
G01*
X0321244Y0260834D02*
G03*
X0321246Y0260835I-0000210J0000333D01*
G01*
D02*
G03*
X0321250Y0260837I-0000212J0000332D01*
G01*
X0321244Y0260834D02*
G03*
X0321246Y0260835I-0000210J0000333D01*
G01*
X0320566Y0260389D02*
G03*
X0320568Y0260391I-0000219J0000327D01*
G01*
X0320563Y0260387D02*
G03*
X0320566Y0260389I-0000216J0000329D01*
G01*
X0317341Y0258072D02*
G03*
X0317342Y0258074I-0000243J0000310D01*
G01*
X0317337Y0258069D02*
G03*
X0317341Y0258072I-0000239J0000313D01*
G01*
D02*
G03*
X0317342Y0258074I-0000243J0000310D01*
G01*
X0317337Y0258069D02*
G03*
X0317341Y0258072I-0000239J0000313D01*
G01*
X0316734Y0257593D02*
G03*
X0316735Y0257594I-0000248J0000306D01*
G01*
X0316731Y0257591D02*
G03*
X0316734Y0257593I-0000245J0000308D01*
G01*
X0316729Y0257589D02*
G03*
X0316731Y0257591I-0000244J0000309D01*
G01*
X0316729Y0257589D02*
G03*
X0316729Y0257590I-0000244J0000309D01*
G01*
X0316139Y0257108D02*
G03*
X0316140Y0257109I-0000253J0000302D01*
G01*
X0316136Y0257105D02*
G03*
X0316139Y0257108I-0000250J0000304D01*
G01*
X0316134Y0257104D02*
G03*
X0316136Y0257105I-0000248J0000306D01*
G01*
X0313894Y0255121D02*
G03*
X0313896Y0255123I-0000272J0000284D01*
G01*
X0313891Y0255118D02*
G03*
X0313894Y0255121I-0000269J0000288D01*
G01*
X0313889Y0255117D02*
G03*
X0313891Y0255118I-0000268J0000289D01*
G01*
X0313895Y0255122D02*
G03*
X0313896Y0255123I-0000273J0000284D01*
G01*
X0312349Y0253580D02*
G03*
X0312352Y0253584I-0000284J0000273D01*
G01*
X0312348Y0253579D02*
G03*
X0312349Y0253580I-0000282J0000274D01*
G01*
D02*
G03*
X0312352Y0253584I-0000284J0000273D01*
G01*
X0312348Y0253579D02*
G03*
X0312349Y0253580I-0000282J0000274D01*
G01*
X0311863Y0253060D02*
G03*
X0311866Y0253062I-0000289J0000268D01*
G01*
X0310937Y0252010D02*
G03*
X0310938Y0252011I-0000301J0000253D01*
G01*
X0310934Y0252006D02*
G03*
X0310937Y0252010I-0000299J0000256D01*
G01*
D02*
G03*
X0310938Y0252011I-0000301J0000253D01*
G01*
X0310934Y0252006D02*
G03*
X0310937Y0252010I-0000299J0000256D01*
G01*
X0310490Y0251474D02*
G03*
X0310494Y0251479I-0000304J0000251D01*
G01*
X0310490Y0251474D02*
G03*
X0310494Y0251479I-0000304J0000251D01*
G01*
X0309645Y0250397D02*
G03*
X0309649Y0250402I-0000312J0000240D01*
G01*
X0309645Y0250397D02*
G03*
X0309649Y0250402I-0000312J0000240D01*
G01*
X0308490Y0248761D02*
G03*
X0308493Y0248766I-0000328J0000218D01*
G01*
X0308863Y0249313D02*
G03*
X0308864Y0249315I-0000325J0000222D01*
G01*
X0308860Y0249309D02*
G03*
X0308863Y0249313I-0000323J0000226D01*
G01*
X0308490Y0248761D02*
G03*
X0308493Y0248766I-0000328J0000218D01*
G01*
X0308489Y0248760D02*
G03*
X0308490Y0248761I-0000327J0000219D01*
G01*
X0308489Y0248760D02*
G03*
X0308490Y0248761I-0000327J0000219D01*
G01*
X0307791Y0247651D02*
G03*
X0307795Y0247657I-0000335J0000206D01*
G01*
X0307791Y0247651D02*
G03*
X0307795Y0247657I-0000335J0000206D01*
G01*
X0307156Y0246538D02*
G03*
X0307156Y0246539I-0000347J0000187D01*
G01*
X0307156Y0246538D02*
G03*
X0307156Y0246539I-0000347J0000187D01*
G01*
X0307154Y0246535D02*
G03*
X0307155Y0246537I-0000345J0000190D01*
G01*
X0307154Y0246535D02*
G03*
X0307155Y0246537I-0000345J0000190D01*
G01*
X0306857Y0245972D02*
G03*
X0306861Y0245978I-0000349J0000182D01*
G01*
X0306857Y0245972D02*
G03*
X0306861Y0245978I-0000349J0000182D01*
G01*
X0229526Y0292519D02*
G03*
X0283956Y0225561I0068399J0000000D01*
G01*
X0306310Y0244840D02*
G03*
X0306313Y0244846I-0000357J0000166D01*
G01*
X0306310Y0244840D02*
G03*
X0306313Y0244846I-0000357J0000166D01*
G01*
X0304876Y0240825D02*
G03*
X0304877Y0240827I-0000381J0000098D01*
G01*
X0304876Y0240825D02*
G03*
X0304877Y0240827I-0000381J0000098D01*
G01*
X0304247Y0237325D02*
G03*
X0304247Y0237327I-0000391J0000044D01*
G01*
X0283956Y0225561D02*
G03*
X0303923Y0236963I0003542J0016980D01*
G01*
X0303923Y0236963D02*
G03*
X0304247Y0237325I-0000093J0000410D01*
G01*
X0925272Y0601476D02*
X0925272Y0601477D01*
X0925273Y0601480D02*
Y0601482D01*
Y0601480D02*
Y0601480D01*
Y0600657D02*
Y0601480D01*
Y0600657D02*
Y0600657D01*
Y0600655D02*
Y0600657D01*
Y0407541D02*
Y0407544D01*
Y0292522D02*
Y0407541D01*
Y0292521D02*
Y0292522D01*
Y0292519D02*
Y0292521D01*
X0840994Y0596297D02*
X0920915D01*
X0837477Y0415418D02*
Y0592780D01*
X0840994Y0411901D02*
X0920915D01*
X0819400Y0267781D02*
X0819401Y0267780D01*
X0819399Y0267781D02*
X0819400Y0267781D01*
X0818520Y0268100D02*
X0819399Y0267781D01*
X0818519Y0268100D02*
X0818520Y0268100D01*
X0818518Y0268101D02*
X0818519Y0268100D01*
X0819401Y0267780D02*
X0819401Y0267780D01*
X0819401Y0267780D02*
X0819401Y0267780D01*
X0818522Y0268099D02*
X0818523Y0268099D01*
X0818521Y0268100D02*
X0818522Y0268099D01*
X0818520Y0268100D02*
X0818521Y0268100D01*
X0817634Y0268411D02*
X0818520Y0268100D01*
X0817634Y0268411D02*
X0817634Y0268411D01*
X0817633Y0268411D02*
X0817634Y0268411D01*
X0817631Y0268412D02*
X0817633Y0268411D01*
X0821983Y0266779D02*
X0821985Y0266778D01*
X0821983Y0266779D02*
X0821983Y0266779D01*
X0821132Y0267120D02*
X0821983Y0266779D01*
X0821130Y0267121D02*
X0821132Y0267120D01*
X0821128Y0267121D02*
X0821130Y0267121D01*
X0820273Y0267453D02*
X0820273Y0267453D01*
X0821126Y0267122D02*
X0821127Y0267122D01*
X0820269Y0267455D02*
X0820271Y0267454D01*
X0819399Y0267781D02*
X0820269Y0267455D01*
X0819397Y0267782D02*
X0819399Y0267781D01*
X0821132Y0267120D02*
X0821133Y0267120D01*
X0820269Y0267455D02*
X0821132Y0267120D01*
X0820267Y0267455D02*
X0820269Y0267455D01*
X0829218Y0263388D02*
X0829218Y0263388D01*
X0829218Y0263388D02*
X0829218Y0263388D01*
X0829216Y0263389D02*
X0829217Y0263388D01*
X0829216Y0263389D02*
X0829216Y0263389D01*
X0829214Y0263390D02*
X0829216Y0263389D01*
X0828452Y0263794D02*
X0829214Y0263390D01*
X0828451Y0263794D02*
X0828452Y0263794D01*
X0828450Y0263795D02*
X0828451Y0263794D01*
X0828454Y0263793D02*
X0828455Y0263792D01*
X0828453Y0263793D02*
X0828454Y0263793D01*
X0828452Y0263794D02*
X0828453Y0263793D01*
X0827679Y0264191D02*
X0828452Y0263794D01*
X0827678Y0264191D02*
X0827679Y0264191D01*
X0827677Y0264192D02*
X0827678Y0264191D01*
X0827676Y0264192D02*
X0827677Y0264192D01*
X0827676Y0264192D02*
X0827676Y0264192D01*
X0829965Y0262980D02*
X0829968Y0262979D01*
X0829214Y0263390D02*
X0829965Y0262980D01*
X0829212Y0263391D02*
X0829214Y0263390D01*
X0830705Y0262563D02*
X0830705Y0262563D01*
X0830707Y0262562D02*
X0830707Y0262562D01*
X0830707Y0262562D02*
X0830707Y0262562D01*
X0830705Y0262563D02*
X0830705Y0262563D01*
X0829962Y0262982D02*
X0829962Y0262982D01*
X0830707Y0262562D02*
X0830708Y0262562D01*
X0830707Y0262562D02*
X0830707Y0262562D01*
X0830705Y0262563D02*
X0830707Y0262562D01*
X0829965Y0262980D02*
X0830705Y0262563D01*
X0829964Y0262981D02*
X0829965Y0262980D01*
X0829963Y0262981D02*
X0829964Y0262981D01*
X0829962Y0262981D02*
X0829963Y0262981D01*
X0822827Y0266430D02*
X0822828Y0266429D01*
X0822826Y0266430D02*
X0822827Y0266430D01*
X0822826Y0266430D02*
X0822826Y0266430D01*
X0821983Y0266779D02*
X0822826Y0266430D01*
X0821982Y0266779D02*
X0821983Y0266779D01*
X0821981Y0266780D02*
X0821982Y0266779D01*
X0821987Y0266777D02*
X0821988Y0266777D01*
X0823665Y0266072D02*
X0823665Y0266072D01*
X0822824Y0266431D02*
X0822825Y0266431D01*
X0822824Y0266431D02*
X0822825Y0266431D01*
X0823661Y0266074D02*
X0823661Y0266074D01*
X0823660Y0266074D02*
X0823661Y0266074D01*
X0823660Y0266075D02*
X0823660Y0266074D01*
X0822826Y0266430D02*
X0823660Y0266075D01*
X0822826Y0266430D02*
X0822826Y0266430D01*
X0822826Y0266430D02*
X0822826Y0266430D01*
X0822824Y0266431D02*
X0822826Y0266430D01*
X0826104Y0264964D02*
X0826104Y0264964D01*
X0826104Y0264964D02*
X0826104Y0264964D01*
X0826102Y0264965D02*
X0826104Y0264964D01*
X0825297Y0265342D02*
X0826102Y0264965D01*
X0825296Y0265343D02*
X0825297Y0265342D01*
X0825295Y0265343D02*
X0825296Y0265343D01*
X0825295Y0265343D02*
X0825295Y0265343D01*
X0826898Y0264580D02*
X0826898Y0264580D01*
X0827679Y0264191D02*
X0827681Y0264190D01*
X0826895Y0264581D02*
X0827679Y0264191D01*
X0826893Y0264582D02*
X0826895Y0264581D01*
X0826898Y0264580D01*
X0826102Y0264965D02*
X0826895Y0264581D01*
X0826101Y0264965D02*
X0826102Y0264965D01*
X0826099Y0264966D02*
X0826101Y0264965D01*
X0826099Y0264966D02*
X0826099Y0264966D01*
X0825301Y0265340D02*
X0825302Y0265340D01*
X0824486Y0265710D02*
X0824487Y0265710D01*
X0824485Y0265711D02*
X0824486Y0265710D01*
X0824485Y0265711D02*
X0824485Y0265711D01*
X0824483Y0265712D02*
X0824485Y0265711D01*
X0823660Y0266075D02*
X0824483Y0265712D01*
X0823659Y0266075D02*
X0823660Y0266075D01*
X0823658Y0266075D02*
X0823659Y0266075D01*
X0823658Y0266075D02*
X0823658Y0266075D01*
X0825298Y0265342D02*
X0825300Y0265341D01*
X0825297Y0265342D02*
X0825298Y0265342D01*
X0824483Y0265712D02*
X0825297Y0265342D01*
X0824483Y0265712D02*
X0824483Y0265712D01*
X0824482Y0265712D02*
X0824483Y0265712D01*
X0824481Y0265713D02*
X0824482Y0265712D01*
X0824480Y0265713D02*
X0824481Y0265713D01*
X0801463Y0272481D02*
X0801463Y0272481D01*
X0802459Y0272309D02*
X0802460Y0272309D01*
X0802458Y0272309D02*
X0802459Y0272309D01*
X0802457Y0272309D02*
X0802458Y0272309D01*
X0801460Y0272482D02*
X0802457Y0272309D01*
X0801459Y0272482D02*
X0801460Y0272482D01*
X0801457Y0272482D02*
X0801459Y0272482D01*
X0804439Y0271938D02*
X0804441Y0271937D01*
X0804439Y0271938D02*
X0804439Y0271938D01*
X0803451Y0272128D02*
X0804439Y0271938D01*
X0803449Y0272128D02*
X0803451Y0272128D01*
X0803453Y0272127D01*
X0802457Y0272309D02*
X0803451Y0272128D01*
X0802455Y0272309D02*
X0802457Y0272309D01*
X0797423Y0273087D02*
X0797424Y0273086D01*
X0796404Y0273216D02*
X0797423Y0273087D01*
X0796404Y0273216D02*
X0796404D01*
X0796402Y0273216D02*
X0796404Y0273216D01*
X0800456Y0272646D02*
X0800458Y0272646D01*
X0799448Y0272802D02*
X0800456Y0272646D01*
X0799447Y0272802D02*
X0799448Y0272802D01*
X0801460Y0272482D02*
X0801460Y0272482D01*
X0800456Y0272646D02*
X0801460Y0272482D01*
X0800454Y0272646D02*
X0800456Y0272646D01*
X0800457Y0272646D02*
X0800457Y0272646D01*
X0800457Y0272646D02*
X0800457Y0272646D01*
X0798438Y0272948D02*
X0798439Y0272948D01*
X0798438Y0272949D02*
X0798438Y0272948D01*
X0797423Y0273087D02*
X0798438Y0272949D01*
X0797421Y0273087D02*
X0797423Y0273087D01*
X0798437Y0272949D02*
X0798437Y0272949D01*
X0798436Y0272949D02*
X0798437Y0272949D01*
X0798437Y0272949D01*
X0798436Y0272949D02*
X0798437Y0272949D01*
X0799448Y0272802D02*
X0799450Y0272801D01*
X0799448Y0272802D02*
X0799448Y0272802D01*
X0798439Y0272948D02*
X0799448Y0272802D01*
X0798438Y0272948D02*
X0798439Y0272948D01*
X0798438Y0272949D02*
X0798438Y0272948D01*
X0798437Y0272949D02*
X0798438Y0272949D01*
X0798436Y0272949D02*
X0798437Y0272949D01*
X0814002Y0269580D02*
X0814005Y0269580D01*
X0814002Y0269580D02*
X0814002Y0269580D01*
X0813077Y0269852D02*
X0814002Y0269580D01*
X0813077Y0269852D02*
X0813077Y0269852D01*
X0813075Y0269853D02*
X0813077Y0269852D01*
X0817634Y0268411D02*
X0817634Y0268411D01*
X0817634Y0268411D02*
X0817634Y0268411D01*
X0816737Y0268715D02*
X0816739Y0268715D01*
X0816736Y0268716D02*
X0816737Y0268715D01*
X0815835Y0269011D02*
X0816736Y0268716D01*
X0815834Y0269011D02*
X0815835Y0269011D01*
X0815833Y0269011D02*
X0815834Y0269011D01*
X0815833Y0269011D02*
X0815833Y0269011D01*
X0815832Y0269012D02*
X0815833Y0269011D01*
X0817634Y0268411D02*
X0817635Y0268411D01*
X0816736Y0268716D02*
X0817634Y0268411D01*
X0816735Y0268716D02*
X0816736Y0268716D01*
X0815833Y0269011D02*
X0815833Y0269011D01*
X0815833Y0269012D02*
X0815833Y0269011D01*
X0815833Y0269011D01*
X0815833Y0269012D02*
X0815833Y0269011D01*
X0814923Y0269299D02*
X0814924Y0269299D01*
X0814922Y0269300D02*
X0814923Y0269299D01*
X0814002Y0269580D02*
X0814922Y0269300D01*
X0814002Y0269580D02*
X0814002Y0269580D01*
X0814001Y0269581D02*
X0814002Y0269580D01*
X0814926Y0269299D02*
X0814926Y0269298D01*
X0815835Y0269011D02*
X0815835Y0269011D01*
X0814922Y0269300D02*
X0815835Y0269011D01*
X0814920Y0269300D02*
X0814922Y0269300D01*
X0814926Y0269299D02*
X0814926Y0269298D01*
X0808340Y0271094D02*
X0808342Y0271093D01*
X0807372Y0271318D02*
X0808340Y0271094D01*
X0807372Y0271318D02*
X0807372Y0271318D01*
X0805423Y0271739D02*
X0805425Y0271739D01*
X0805423Y0271739D02*
X0805423Y0271739D01*
X0805422Y0271740D02*
X0805423Y0271739D01*
X0804439Y0271938D02*
X0805422Y0271740D01*
X0804439Y0271938D02*
X0804439Y0271938D01*
X0804438Y0271938D02*
X0804439Y0271938D01*
X0807372Y0271318D02*
X0807375Y0271317D01*
X0807372Y0271318D02*
X0807372Y0271318D01*
X0806402Y0271532D02*
X0807372Y0271318D01*
X0806401Y0271533D02*
X0806402Y0271532D01*
X0806400Y0271533D02*
X0806401Y0271533D01*
X0806402Y0271532D02*
X0806403Y0271532D01*
X0805422Y0271740D02*
X0806402Y0271532D01*
X0805421Y0271740D02*
X0805422Y0271740D01*
X0805421Y0271740D02*
X0805421Y0271740D01*
X0805421Y0271740D02*
X0805421Y0271740D01*
X0813077Y0269852D02*
X0813078Y0269852D01*
X0813077Y0269852D02*
X0813077Y0269852D01*
X0812143Y0270117D02*
X0813077Y0269852D01*
X0812142Y0270117D02*
X0812143Y0270117D01*
X0812141Y0270117D02*
X0812142Y0270117D01*
X0812143Y0270117D02*
X0812144Y0270116D01*
X0811201Y0270374D02*
X0812143Y0270117D01*
X0811200Y0270374D02*
X0811201Y0270374D01*
X0812137Y0270119D02*
X0812137Y0270119D01*
X0812137Y0270119D02*
X0812137Y0270119D01*
X0810255Y0270622D02*
X0810256Y0270621D01*
X0809300Y0270862D02*
X0810255Y0270622D01*
X0809298Y0270862D02*
X0809300Y0270862D01*
X0809303Y0270861D02*
X0809303Y0270861D01*
X0809300Y0270862D02*
X0809302Y0270861D01*
X0808340Y0271094D02*
X0809300Y0270862D01*
X0808338Y0271094D02*
X0808340Y0271094D01*
X0811203Y0270373D02*
X0811203Y0270373D01*
X0811201Y0270374D02*
X0811203Y0270373D01*
X0810255Y0270622D02*
X0811201Y0270374D01*
X0810254Y0270622D02*
X0810255Y0270622D01*
X0810253Y0270622D02*
X0810254Y0270622D01*
X0848487Y0244843D02*
X0848738Y0244273D01*
X0848737Y0244277D02*
X0848738Y0244273D01*
X0848974Y0243703D01*
X0848975Y0243700D01*
X0849399Y0242556D02*
X0849399Y0242556D01*
X0849399Y0242556D02*
X0849399Y0242556D01*
X0849399Y0242555D02*
X0849589Y0241979D01*
X0849194Y0243130D02*
X0849399Y0242555D01*
X0848973Y0243706D02*
X0848974Y0243703D01*
X0849194Y0243130D01*
X0847004Y0247657D02*
X0847005Y0247655D01*
X0847332Y0247097D01*
X0846662Y0248213D02*
X0846664Y0248210D01*
X0847005Y0247655D01*
X0847008Y0247651D01*
X0846305Y0248766D02*
X0846307Y0248762D01*
X0846664Y0248210D01*
X0846666Y0248206D01*
X0845936Y0249313D02*
X0845937Y0249311D01*
X0846307Y0248762D01*
X0846310Y0248759D01*
X0848219Y0245413D02*
X0848221Y0245410D01*
X0848487Y0244843D01*
X0848489Y0244840D01*
X0847332Y0247097D02*
X0847643Y0246537D01*
X0847644Y0246535D01*
X0847645Y0246535D01*
X0847939Y0245975D02*
X0848221Y0245410D01*
X0848223Y0245407D01*
X0847643Y0246538D02*
X0847643Y0246537D01*
X0847642Y0246539D02*
X0847642Y0246539D01*
X0847643Y0246537D01*
X0847939Y0245975D01*
X0847643Y0246538D02*
X0847643Y0246537D01*
X0849589Y0241979D02*
X0849763Y0241402D01*
X0849922Y0240825D02*
X0849922Y0240824D01*
X0849922Y0240825D02*
X0849922Y0240824D01*
X0850066Y0240244D02*
X0850194Y0239663D01*
X0849922Y0240827D02*
X0849922Y0240823D01*
X0850066Y0240244D01*
X0849763Y0241402D02*
X0849922Y0240823D01*
X0850194Y0239663D02*
X0850307Y0239080D01*
X0850404Y0238495D02*
X0850404Y0238495D01*
X0850485Y0237914D02*
X0850551Y0237327D01*
X0850552Y0237325D01*
X0850404Y0238495D02*
X0850404Y0238495D01*
X0850403Y0238502D02*
X0850403Y0238498D01*
X0850485Y0237914D01*
X0850307Y0239080D02*
X0850403Y0238498D01*
X0835561Y0259478D02*
X0835563Y0259477D01*
X0835561Y0259478D02*
X0835561Y0259478D01*
X0835561Y0259479D02*
X0835561Y0259478D01*
X0834904Y0259936D02*
X0835561Y0259479D01*
X0834903Y0259937D02*
X0834904Y0259936D01*
X0834901Y0259938D02*
X0834903Y0259937D01*
X0838068Y0257591D02*
X0838069Y0257590D01*
X0838066Y0257592D02*
X0838068Y0257591D01*
X0837459Y0258071D02*
X0838066Y0257592D01*
X0837458Y0258072D02*
X0837459Y0258071D01*
X0837457Y0258073D02*
X0837458Y0258072D01*
X0837456Y0258074D02*
X0837457Y0258073D01*
X0836207Y0259015D02*
X0836209Y0259013D01*
X0835561Y0259479D02*
X0836207Y0259015D01*
X0835559Y0259480D02*
X0835561Y0259479D01*
X0835559Y0259480D02*
X0835559Y0259480D01*
X0835558Y0259481D02*
X0835559Y0259480D01*
X0836839Y0258546D02*
X0836841Y0258544D01*
X0836207Y0259015D02*
X0836839Y0258546D01*
X0836205Y0259016D02*
X0836207Y0259015D01*
X0836204Y0259016D02*
X0836205Y0259016D01*
X0836203Y0259017D02*
X0836204Y0259016D01*
X0836209Y0259013D02*
X0836209Y0259013D01*
X0836209Y0259013D02*
X0836209Y0259013D01*
X0837459Y0258071D02*
X0837462Y0258069D01*
X0836839Y0258546D02*
X0837459Y0258071D01*
X0836837Y0258547D02*
X0836839Y0258546D01*
X0831437Y0262139D02*
X0831437Y0262139D01*
X0831436Y0262140D02*
X0831437Y0262139D01*
X0831436Y0262140D02*
X0831436Y0262140D01*
X0831434Y0262140D02*
X0831436Y0262140D01*
X0830705Y0262563D02*
X0831434Y0262140D01*
X0830704Y0262564D02*
X0830705Y0262563D01*
X0830704Y0262564D02*
X0830704Y0262564D01*
X0830703Y0262565D02*
X0830704Y0262564D01*
X0830702Y0262565D02*
X0830703Y0262565D01*
X0832155Y0261710D02*
X0832155Y0261709D01*
X0832155Y0261710D02*
X0832155Y0261709D01*
X0831433Y0262142D02*
X0831433Y0262141D01*
X0831433Y0262142D02*
X0831433Y0262141D01*
X0832152Y0261712D02*
X0832154Y0261711D01*
X0832151Y0261712D02*
X0832152Y0261712D01*
X0831434Y0262140D02*
X0832151Y0261712D01*
X0831433Y0262141D02*
X0831434Y0262140D01*
X0831432Y0262142D02*
X0831433Y0262141D01*
X0834234Y0260388D02*
X0834236Y0260387D01*
X0833551Y0260836D02*
X0834234Y0260388D01*
X0833549Y0260837D02*
X0833551Y0260836D01*
X0834230Y0260391D02*
X0834231Y0260391D01*
X0834904Y0259936D02*
X0834906Y0259935D01*
X0834904Y0259936D02*
X0834904Y0259936D01*
X0834234Y0260388D02*
X0834904Y0259936D01*
X0834233Y0260389D02*
X0834234Y0260388D01*
X0834231Y0260391D02*
X0834233Y0260389D01*
X0832858Y0261276D02*
X0832860Y0261275D01*
X0832857Y0261277D02*
X0832858Y0261276D01*
X0832151Y0261712D02*
X0832857Y0261277D01*
X0832150Y0261713D02*
X0832151Y0261712D01*
X0832149Y0261713D02*
X0832150Y0261713D01*
X0832148Y0261714D02*
X0832149Y0261713D01*
X0832860Y0261275D02*
X0832860Y0261275D01*
X0833554Y0260834D02*
X0833554Y0260834D01*
X0833553Y0260835D02*
X0833554Y0260834D01*
X0833551Y0260836D02*
X0833553Y0260835D01*
X0832857Y0261277D02*
X0833551Y0260836D01*
X0832856Y0261278D02*
X0832857Y0261277D01*
X0832855Y0261278D02*
X0832856Y0261278D01*
X0832854Y0261279D02*
X0832855Y0261278D01*
X0843861Y0252011D02*
X0843861Y0252011D01*
X0843403Y0252539D02*
X0843405Y0252537D01*
X0843863Y0252008D01*
X0843865Y0252006D01*
X0843866Y0252005D01*
X0843861Y0252011D02*
X0843861Y0252011D01*
X0842931Y0253064D02*
X0842933Y0253062D01*
X0842934Y0253061D01*
X0843405Y0252537D01*
X0843408Y0252534D01*
X0845549Y0249860D02*
X0845551Y0249857D01*
X0845937Y0249311D01*
X0845938Y0249309D01*
X0845939Y0249307D01*
X0845148Y0250403D02*
X0845149Y0250402D01*
X0845151Y0250400D01*
X0845551Y0249857D01*
X0845553Y0249854D01*
X0843861Y0252011D02*
X0843862Y0252010D01*
X0843863Y0252008D01*
X0844307Y0251476D01*
X0844308Y0251474D01*
X0844309Y0251473D01*
X0844309Y0251473D02*
X0844310Y0251472D01*
X0844309Y0251473D02*
X0844310Y0251472D01*
X0844734Y0250942D02*
X0844736Y0250939D01*
X0845151Y0250400D01*
X0845153Y0250397D01*
X0844304Y0251479D02*
X0844304Y0251479D01*
X0844304Y0251479D02*
X0844304Y0251479D01*
X0844304Y0251479D02*
X0844307Y0251476D01*
X0844736Y0250939D01*
X0844739Y0250936D01*
X0838663Y0257105D02*
X0838664Y0257104D01*
X0838663Y0257105D02*
X0838663Y0257105D01*
X0838661Y0257107D02*
X0838663Y0257105D01*
X0838066Y0257592D02*
X0838661Y0257107D01*
X0838065Y0257593D02*
X0838066Y0257592D01*
X0838064Y0257594D02*
X0838065Y0257593D01*
X0838063Y0257594D02*
X0838064Y0257594D01*
X0838069Y0257589D02*
X0838070Y0257589D01*
X0839812Y0256121D02*
X0839812Y0256121D01*
X0839812Y0256121D02*
X0839812Y0256121D01*
X0839242Y0256617D02*
X0839244Y0256615D01*
X0838661Y0257107D02*
X0839242Y0256617D01*
X0838659Y0257108D02*
X0838661Y0257107D01*
X0838658Y0257109D02*
X0838659Y0257108D01*
X0838658Y0257109D02*
X0838658Y0257109D01*
X0839810Y0256123D02*
X0839812Y0256121D01*
X0839242Y0256617D02*
X0839810Y0256123D01*
X0839240Y0256619D02*
X0839242Y0256617D01*
X0841947Y0254099D02*
X0841950Y0254097D01*
X0841433Y0254612D02*
X0841947Y0254099D01*
X0841431Y0254614D02*
X0841433Y0254612D01*
X0841945Y0254102D02*
X0841947Y0254099D01*
X0842447Y0253582D01*
X0842449Y0253580D01*
X0842450Y0253580D01*
X0842451Y0253579D01*
X0842445Y0253585D02*
X0842446Y0253584D01*
X0842447Y0253582D01*
X0842934Y0253061D01*
X0842935Y0253060D01*
X0842936Y0253059D01*
X0840365Y0255624D02*
X0840367Y0255622D01*
X0839810Y0256123D02*
X0840365Y0255624D01*
X0839808Y0256125D02*
X0839810Y0256123D01*
X0840902Y0255123D02*
X0840903Y0255123D01*
X0841433Y0254612D02*
X0841436Y0254609D01*
X0840906Y0255120D02*
X0841433Y0254612D01*
X0840905Y0255121D02*
X0840906Y0255120D01*
X0840903Y0255122D02*
X0840905Y0255121D01*
X0840903Y0255123D02*
X0840903Y0255122D01*
X0840365Y0255623D02*
X0840365Y0255623D01*
X0840367Y0255622D02*
X0840367Y0255622D01*
X0840365Y0255623D02*
X0840365Y0255623D01*
X0840909Y0255118D02*
X0840909Y0255117D01*
X0840908Y0255118D02*
X0840909Y0255118D01*
X0840906Y0255120D02*
X0840908Y0255118D01*
X0840365Y0255624D02*
X0840906Y0255120D01*
X0840363Y0255625D02*
X0840365Y0255624D01*
X0840363Y0255626D02*
X0840363Y0255625D01*
X0840362Y0255626D02*
X0840363Y0255626D01*
X0840362Y0255627D02*
X0840362Y0255626D01*
X0840367Y0255622D02*
X0840367Y0255622D01*
X0856878Y0669874D02*
X0856880D01*
X0856878D02*
X0856878D01*
X0297920D02*
X0856878D01*
X0297920D02*
X0297920D01*
X0297917D02*
X0297920D01*
X0789191Y0273874D02*
X0789192Y0273874D01*
X0788154Y0273932D02*
X0788156Y0273932D01*
X0787113Y0273982D02*
X0788154Y0273932D01*
X0787112Y0273982D02*
X0787113Y0273982D01*
X0788157Y0273932D02*
X0788157Y0273932D01*
X0787114Y0273982D02*
X0787115Y0273982D01*
X0787113Y0273982D02*
X0787114Y0273982D01*
X0786073Y0274022D02*
X0787113Y0273982D01*
X0786073Y0274022D02*
X0786073Y0274022D01*
X0786070Y0274022D02*
X0786073Y0274022D01*
X0789194Y0273874D02*
X0789195Y0273874D01*
X0788154Y0273932D02*
X0789194Y0273874D01*
X0788152Y0273933D02*
X0788154Y0273932D01*
X0789191Y0273874D02*
X0789192Y0273874D01*
X0782943Y0274090D02*
X0782945Y0274090D01*
X0781897Y0274094D02*
X0782943Y0274090D01*
X0782946Y0274090D02*
X0782947D01*
X0781897Y0274094D02*
X0781899D01*
X0372901D02*
X0781897D01*
X0372899D02*
X0372901D01*
X0783988Y0274076D02*
X0783989Y0274076D01*
X0782943Y0274090D02*
X0783988Y0274076D01*
X0782941Y0274090D02*
X0782943Y0274090D01*
X0785030Y0274054D02*
X0785031Y0274054D01*
X0785029Y0274054D02*
X0785030Y0274054D01*
X0783988Y0274076D02*
X0785029Y0274054D01*
X0783987Y0274076D02*
X0783988Y0274076D01*
X0783985Y0274076D02*
X0783987Y0274076D01*
X0371855Y0274090D02*
X0372901Y0274094D01*
X0371854Y0274090D02*
X0371855Y0274090D01*
X0371852Y0274090D02*
X0371852D01*
X0370813Y0274076D02*
X0370814Y0274076D01*
X0371855Y0274090D02*
X0371857Y0274090D01*
X0370811Y0274076D02*
X0371855Y0274090D01*
X0370810Y0274076D02*
X0370811Y0274076D01*
X0370812Y0274076D02*
X0370813Y0274076D01*
X0370811Y0274076D02*
X0370812Y0274076D01*
X0369769Y0274054D02*
X0370811Y0274076D01*
X0369769Y0274054D02*
X0369769Y0274054D01*
X0369767Y0274054D02*
X0369769Y0274054D01*
X0786074Y0274022D02*
X0786075Y0274022D01*
X0786073Y0274022D02*
X0786074Y0274022D01*
X0786073Y0274022D02*
X0786073Y0274022D01*
X0785029Y0274054D02*
X0786073Y0274022D01*
X0785029Y0274054D02*
X0785029Y0274054D01*
X0785028Y0274054D02*
X0785029Y0274054D01*
X0786069Y0274022D02*
X0786069Y0274022D01*
X0368730D02*
X0368730Y0274022D01*
X0369770Y0274054D02*
X0369771Y0274054D01*
X0369769Y0274054D02*
X0369770Y0274054D01*
X0368726Y0274022D02*
X0369769Y0274054D01*
X0368725Y0274022D02*
X0368726Y0274022D01*
X0368724Y0274022D02*
X0368725Y0274022D01*
X0368724Y0274022D02*
X0368724Y0274022D01*
X0796405Y0273216D02*
X0796406Y0273216D01*
X0796404Y0273216D02*
X0796405Y0273216D01*
X0795381Y0273337D02*
X0796404Y0273216D01*
X0795380Y0273337D02*
X0795381Y0273337D01*
X0794359Y0273448D02*
X0794359Y0273448D01*
X0794357Y0273448D02*
X0794359Y0273448D01*
X0794357Y0273448D02*
X0794357Y0273448D01*
X0793329Y0273551D02*
X0794357Y0273448D01*
X0793328Y0273551D02*
X0793329Y0273551D01*
X0793327Y0273551D02*
X0793328Y0273551D01*
X0795382Y0273337D02*
X0795383Y0273336D01*
X0795381Y0273337D02*
X0795382Y0273337D01*
X0794357Y0273448D02*
X0795381Y0273337D01*
X0794357Y0273448D02*
X0794357D01*
X0794356Y0273448D02*
X0794357Y0273448D01*
X0794355Y0273448D02*
X0794356Y0273448D01*
X0793330Y0273551D02*
X0793331Y0273551D01*
X0793329Y0273551D02*
X0793330Y0273551D01*
X0793329Y0273551D02*
X0793329Y0273551D01*
X0792298Y0273645D02*
X0793329Y0273551D01*
X0792296Y0273645D02*
X0792298Y0273645D01*
X0793332Y0273551D02*
X0793332Y0273551D01*
X0792298Y0273645D02*
X0792300Y0273645D01*
X0791266Y0273730D02*
X0792298Y0273645D01*
X0791264Y0273730D02*
X0791266Y0273730D01*
X0791263Y0273731D02*
X0791264Y0273730D01*
X0791263Y0273731D02*
X0791263D01*
X0794355Y0273448D02*
X0794355Y0273448D01*
X0794355Y0273448D02*
X0794355Y0273448D01*
X0790231Y0273807D02*
X0790232Y0273807D01*
X0790230Y0273807D02*
X0790231Y0273807D01*
X0790229Y0273807D02*
X0790230Y0273807D01*
X0790229Y0273807D02*
X0790229Y0273807D01*
X0789194Y0273874D02*
X0790229Y0273807D01*
X0789194Y0273874D02*
X0789194Y0273874D01*
X0789193Y0273874D02*
X0789194Y0273874D01*
X0789191Y0273874D02*
X0789193Y0273874D01*
X0791266Y0273730D02*
X0791267Y0273730D01*
X0790229Y0273807D02*
X0791266Y0273730D01*
X0790228Y0273807D02*
X0790229Y0273807D01*
X0791261Y0273731D02*
X0791262Y0273731D01*
X0368726Y0274022D02*
X0368728Y0274022D01*
X0368726Y0274022D02*
X0368726Y0274022D01*
X0367686Y0273982D02*
X0368726Y0274022D01*
X0367685Y0273982D02*
X0367686Y0273982D01*
X0367683Y0273982D02*
X0367685Y0273982D01*
X0367686Y0273982D02*
X0367687Y0273982D01*
X0366644Y0273932D02*
X0367686Y0273982D01*
X0366643Y0273932D02*
X0366644Y0273932D01*
X0366646Y0273933D01*
X0365605Y0273874D02*
X0366644Y0273932D01*
X0365604Y0273874D02*
X0365605Y0273874D01*
X0366641Y0273932D02*
X0366641Y0273932D01*
X0365605Y0273874D02*
X0365607Y0273874D01*
X0365605Y0273874D02*
X0365605Y0273874D01*
X0364570Y0273807D02*
X0365605Y0273874D01*
X0364570Y0273807D02*
X0364570Y0273807D01*
X0364567Y0273807D02*
X0364570Y0273807D01*
X0364570Y0273807D02*
X0364570Y0273807D01*
X0363533Y0273730D02*
X0364570Y0273807D01*
X0363532Y0273730D02*
X0363533Y0273730D01*
X0363537Y0273731D02*
X0363537Y0273731D01*
X0363535Y0273731D02*
X0363535D01*
X0363535Y0273730D02*
X0363535Y0273731D01*
X0363533Y0273730D02*
X0363535Y0273730D01*
X0362500Y0273645D02*
X0363533Y0273730D01*
X0362499Y0273645D02*
X0362500Y0273645D01*
X0362502Y0273645D01*
X0361470Y0273551D02*
X0362500Y0273645D01*
X0361469Y0273551D02*
X0361470Y0273551D01*
X0361468Y0273551D02*
X0361469Y0273551D01*
X0361467Y0273551D02*
X0361468Y0273551D01*
X0361466Y0273551D02*
X0361467Y0273551D01*
X0360443Y0273448D02*
X0360444Y0273448D01*
X0361470Y0273551D02*
X0361472Y0273551D01*
X0361470Y0273551D02*
X0361470Y0273551D01*
X0360441Y0273448D02*
X0361470Y0273551D01*
X0360441Y0273448D02*
X0360441Y0273448D01*
X0360440Y0273448D02*
X0360441Y0273448D01*
X0360443Y0273448D02*
X0360443Y0273448D01*
X0360441Y0273448D02*
X0360443Y0273448D01*
X0360441Y0273448D02*
X0360441D01*
X0359418Y0273337D02*
X0360441Y0273448D01*
X0359417Y0273337D02*
X0359418Y0273337D01*
X0359415Y0273336D02*
X0359417Y0273337D01*
X0359418Y0273337D02*
X0359419Y0273337D01*
X0358394Y0273216D02*
X0359418Y0273337D01*
X0358393Y0273216D02*
X0358394Y0273216D01*
X0358396Y0273216D01*
X0357376Y0273087D02*
X0358394Y0273216D01*
X0357376Y0273087D02*
X0357376Y0273087D01*
X0357374Y0273086D02*
X0357376Y0273087D01*
X0357378Y0273087D01*
X0357376Y0273087D02*
X0357376Y0273087D01*
X0356361Y0272949D02*
X0357376Y0273087D01*
X0356360Y0272948D02*
X0356361Y0272949D01*
X0356359Y0272948D02*
X0356360Y0272948D01*
X0356362Y0272949D01*
X0356360Y0272948D02*
X0356360Y0272948D01*
X0355351Y0272802D02*
X0356360Y0272948D01*
X0355350Y0272802D02*
X0355351Y0272802D01*
X0355348Y0272801D02*
X0355350Y0272802D01*
X0297923Y0669874D02*
X0297923Y0669874D01*
X0288581Y0558181D02*
X0288581Y0558181D01*
X0233883Y0561692D02*
X0285064D01*
X0288581Y0335825D02*
Y0335826D01*
X0288581D02*
Y0558175D01*
X0229526Y0601480D02*
Y0601482D01*
Y0601480D02*
Y0601480D01*
Y0566052D02*
Y0601480D01*
Y0566049D02*
Y0566052D01*
X0233883Y0332309D02*
X0285064D01*
X0229526Y0327949D02*
Y0327951D01*
Y0327949D02*
Y0327949D01*
Y0292522D02*
Y0327949D01*
Y0292521D02*
Y0292522D01*
Y0292519D02*
Y0292521D01*
X0229526Y0292524D02*
X0229526Y0292525D01*
X0354345Y0272647D02*
X0354346Y0272647D01*
X0354341Y0272646D02*
X0354342Y0272646D01*
X0355351Y0272802D02*
X0355352Y0272802D01*
X0354342Y0272646D02*
X0355351Y0272802D01*
X0354341Y0272646D02*
X0354342Y0272646D01*
X0354344Y0272646D01*
X0353339Y0272482D02*
X0354342Y0272646D01*
X0353338Y0272482D02*
X0353339Y0272482D01*
X0353340Y0272482D02*
X0353341Y0272482D01*
X0353339Y0272482D02*
X0353340Y0272482D01*
X0352342Y0272309D02*
X0353339Y0272482D01*
X0352340Y0272309D02*
X0352342Y0272309D01*
X0352340Y0272309D02*
X0352340Y0272309D01*
X0352339Y0272309D02*
X0352340Y0272309D01*
X0351352Y0272129D02*
X0351353Y0272129D01*
X0352342Y0272309D02*
X0352343Y0272309D01*
X0351347Y0272128D02*
X0352342Y0272309D01*
X0351346Y0272127D02*
X0351347Y0272128D01*
X0351349Y0272128D01*
X0350360Y0271938D02*
X0351347Y0272128D01*
X0350360Y0271938D02*
X0350360Y0271938D01*
X0350358Y0271937D02*
X0350360Y0271938D01*
X0350361Y0271938D01*
X0350360Y0271938D02*
X0350360Y0271938D01*
X0349376Y0271740D02*
X0350360Y0271938D01*
X0349374Y0271739D02*
X0349376Y0271740D01*
X0348403Y0271534D02*
X0348403Y0271534D01*
X0349376Y0271740D02*
X0349377Y0271740D01*
X0348397Y0271532D02*
X0349376Y0271740D01*
X0348396Y0271532D02*
X0348397Y0271532D01*
X0348398Y0271533D02*
X0348399Y0271533D01*
X0348397Y0271533D02*
X0348398Y0271533D01*
X0348397Y0271532D02*
X0348397Y0271533D01*
X0347427Y0271318D02*
X0348397Y0271532D01*
X0347426Y0271318D02*
X0347427Y0271318D01*
X0347424Y0271317D02*
X0347426Y0271318D01*
X0347427Y0271318D02*
X0347427Y0271318D01*
X0346458Y0271094D02*
X0347427Y0271318D01*
X0346457Y0271093D02*
X0346458Y0271094D01*
X0346460Y0271094D01*
X0345498Y0270862D02*
X0346458Y0271094D01*
X0345496Y0270861D02*
X0345498Y0270862D01*
X0345496Y0270861D02*
X0345496Y0270861D01*
X0345498Y0270862D02*
X0345500Y0270862D01*
X0344544Y0270622D02*
X0345498Y0270862D01*
X0344542Y0270621D02*
X0344544Y0270622D01*
X0344544Y0270621D02*
X0344544Y0270622D01*
X0344544Y0270622D02*
X0344546Y0270622D01*
X0344544Y0270622D02*
X0344544Y0270622D01*
X0343597Y0270374D02*
X0344544Y0270622D01*
X0343596Y0270373D02*
X0343597Y0270374D01*
X0343595Y0270373D02*
X0343596Y0270373D01*
X0343597Y0270374D02*
X0343599Y0270374D01*
X0342655Y0270117D02*
X0343597Y0270374D01*
X0342654Y0270116D02*
X0342655Y0270117D01*
X0342658Y0270117D01*
X0341722Y0269852D02*
X0342655Y0270117D01*
X0341722Y0269852D02*
X0341722Y0269852D01*
X0341720Y0269852D02*
X0341722Y0269852D01*
X0341724Y0269853D01*
X0341722Y0269852D02*
X0341722Y0269852D01*
X0340796Y0269580D02*
X0341722Y0269852D01*
X0340796Y0269580D02*
X0340796Y0269580D01*
X0340794Y0269580D02*
X0340796Y0269580D01*
X0340797Y0269580D02*
X0340798Y0269581D01*
X0340796Y0269580D02*
X0340797Y0269580D01*
X0339877Y0269300D02*
X0340796Y0269580D01*
X0339875Y0269299D02*
X0339877Y0269300D01*
X0339879Y0269300D01*
X0338964Y0269011D02*
X0339877Y0269300D01*
X0338963Y0269011D02*
X0338964Y0269011D01*
X0338964Y0269011D02*
X0338967Y0269012D01*
X0338964Y0269011D02*
X0338964Y0269011D01*
X0338063Y0268716D02*
X0338964Y0269011D01*
X0338062Y0268715D02*
X0338063Y0268716D01*
X0338060Y0268715D02*
X0338062Y0268715D01*
X0338063Y0268716D02*
X0338064Y0268716D01*
X0337164Y0268411D02*
X0338063Y0268716D01*
X0337164Y0268411D02*
X0337164Y0268411D01*
X0337165Y0268411D02*
X0337168Y0268412D01*
X0337164Y0268411D02*
X0337165Y0268411D01*
X0336278Y0268100D02*
X0337164Y0268411D01*
X0336277Y0268100D02*
X0336278Y0268100D01*
X0336277Y0268099D02*
X0336277Y0268100D01*
X0336276Y0268099D02*
X0336277Y0268099D01*
X0336279Y0268100D02*
X0336280Y0268101D01*
X0336278Y0268100D02*
X0336279Y0268100D01*
X0335400Y0267781D02*
X0336278Y0268100D01*
X0335399Y0267781D02*
X0335400Y0267781D01*
X0335398Y0267780D02*
X0335399Y0267781D01*
X0335402Y0267782D02*
X0335402Y0267782D01*
X0335401Y0267782D02*
X0335402Y0267782D01*
X0335402Y0267782D01*
X0335401Y0267782D02*
X0335402Y0267782D01*
X0335400Y0267781D02*
X0335402Y0267782D01*
X0334530Y0267455D02*
X0335400Y0267781D01*
X0334527Y0267454D02*
X0334530Y0267455D01*
X0334526Y0267453D02*
X0334526Y0267453D01*
X0334530Y0267455D02*
X0334531Y0267455D01*
X0333667Y0267120D02*
X0334530Y0267455D01*
X0333666Y0267120D02*
X0333667Y0267120D01*
X0333672Y0267122D02*
X0333672Y0267122D01*
X0333668Y0267121D02*
X0333670Y0267121D01*
X0333667Y0267120D02*
X0333668Y0267121D01*
X0332816Y0266779D02*
X0333667Y0267120D01*
X0332815Y0266779D02*
X0332816Y0266779D01*
X0332813Y0266778D02*
X0332815Y0266779D01*
X0332811Y0266777D02*
X0332811Y0266777D01*
X0332816Y0266779D02*
X0332818Y0266780D01*
X0332816Y0266779D02*
X0332816Y0266779D01*
X0331972Y0266430D02*
X0332816Y0266779D01*
X0331972Y0266430D02*
X0331972Y0266430D01*
X0331970Y0266429D02*
X0331972Y0266430D01*
X0331974Y0266431D01*
X0331972Y0266430D02*
X0331972Y0266430D01*
X0331139Y0266075D02*
X0331972Y0266430D01*
X0331139Y0266074D02*
X0331139Y0266075D01*
X0331138Y0266074D02*
X0331139Y0266074D01*
X0331137Y0266074D02*
X0331138Y0266074D01*
X0331137Y0266074D02*
X0331138Y0266074D01*
X0331140Y0266075D02*
X0331141Y0266075D01*
X0331139Y0266075D02*
X0331140Y0266075D01*
X0331139Y0266075D02*
X0331139Y0266075D01*
X0330315Y0265712D02*
X0331139Y0266075D01*
X0330314Y0265711D02*
X0330315Y0265712D01*
X0330313Y0265711D02*
X0330314Y0265711D01*
X0330312Y0265710D02*
X0330313Y0265711D01*
X0330317Y0265713D02*
X0330318Y0265713D01*
X0330316Y0265712D02*
X0330317Y0265713D01*
X0330315Y0265712D02*
X0330316Y0265712D01*
X0329501Y0265342D02*
X0330315Y0265712D01*
X0329501Y0265342D02*
X0329501Y0265342D01*
X0329499Y0265341D02*
X0329501Y0265342D01*
X0329497Y0265340D02*
X0329497Y0265340D01*
X0329503Y0265343D02*
X0329503Y0265343D01*
X0329503Y0265343D02*
X0329503Y0265343D01*
X0329501Y0265342D02*
X0329503Y0265343D01*
X0328697Y0264965D02*
X0329501Y0265342D01*
X0328695Y0264964D02*
X0328697Y0264965D01*
X0328695Y0264964D02*
X0328695Y0264964D01*
X0328694Y0264964D02*
X0328695Y0264964D01*
X0328699Y0264966D02*
X0328700Y0264966D01*
X0328698Y0264965D02*
X0328699Y0264966D01*
X0328697Y0264965D02*
X0328698Y0264965D01*
X0327903Y0264581D02*
X0328697Y0264965D01*
X0327901Y0264580D02*
X0327903Y0264581D01*
X0327901Y0264580D02*
X0327901Y0264580D01*
X0327122Y0264192D02*
X0327123Y0264192D01*
X0327903Y0264581D02*
X0327905Y0264582D01*
X0327119Y0264191D02*
X0327903Y0264581D01*
X0327117Y0264190D02*
X0327119Y0264191D01*
X0327122Y0264192D02*
X0327122Y0264192D01*
X0327121Y0264191D02*
X0327122Y0264192D01*
X0327119Y0264191D02*
X0327121Y0264191D01*
X0326347Y0263794D02*
X0327119Y0264191D01*
X0326345Y0263793D02*
X0326347Y0263794D01*
X0326349Y0263795D01*
X0325585Y0263390D02*
X0326347Y0263794D01*
X0325582Y0263389D02*
X0325585Y0263390D01*
X0325587Y0263391D01*
X0324833Y0262980D02*
X0325585Y0263390D01*
X0324831Y0262979D02*
X0324833Y0262980D01*
X0324836Y0262982D02*
X0324837Y0262982D01*
X0324836Y0262981D02*
X0324836Y0262981D01*
X0324835Y0262981D02*
X0324836Y0262981D01*
X0324833Y0262980D02*
X0324835Y0262981D01*
X0324093Y0262563D02*
X0324833Y0262980D01*
X0324091Y0262562D02*
X0324093Y0262563D01*
X0324093Y0262563D02*
X0324093Y0262563D01*
X0324093Y0262563D02*
X0324093Y0262563D01*
X0324095Y0262564D02*
X0324096Y0262565D01*
X0324093Y0262563D02*
X0324095Y0262564D01*
X0323364Y0262140D02*
X0324093Y0262563D01*
X0323363Y0262140D02*
X0323364Y0262140D01*
X0323363Y0262140D02*
X0323363Y0262140D01*
X0323362Y0262139D02*
X0323363Y0262140D01*
X0323361Y0262139D02*
X0323362Y0262139D01*
X0323361Y0262139D02*
X0323361Y0262139D01*
X0323367Y0262142D02*
X0323367Y0262142D01*
X0323366Y0262141D02*
X0323366Y0262142D01*
X0323365Y0262141D02*
X0323366Y0262142D01*
X0323364Y0262140D02*
X0323365Y0262141D01*
X0322648Y0261712D02*
X0323364Y0262140D01*
X0322647Y0261712D02*
X0322648Y0261712D01*
X0322645Y0261711D02*
X0322647Y0261712D01*
X0322649Y0261713D02*
X0322650Y0261714D01*
X0322649Y0261713D02*
X0322649Y0261713D01*
X0322648Y0261712D02*
X0322649Y0261713D01*
X0321941Y0261277D02*
X0322648Y0261712D01*
X0321940Y0261276D02*
X0321941Y0261277D01*
X0321939Y0261275D02*
X0321940Y0261276D01*
X0321938Y0261275D02*
X0321938Y0261275D01*
X0321944Y0261278D02*
X0321944Y0261279D01*
X0321943Y0261278D02*
X0321944Y0261278D01*
X0321941Y0261277D02*
X0321943Y0261278D01*
X0321248Y0260836D02*
X0321941Y0261277D01*
X0321246Y0260835D02*
X0321248Y0260836D01*
X0321245Y0260834D02*
X0321246Y0260835D01*
X0321244Y0260834D02*
X0321245Y0260834D01*
X0320568Y0260391D02*
X0320568Y0260391D01*
X0321248Y0260836D02*
X0321250Y0260837D01*
X0320565Y0260388D02*
X0321248Y0260836D01*
X0320563Y0260387D02*
X0320565Y0260388D01*
X0320566Y0260389D02*
X0320568Y0260391D01*
X0320565Y0260388D02*
X0320566Y0260389D01*
X0319895Y0259936D02*
X0320565Y0260388D01*
X0319893Y0259935D02*
X0319895Y0259936D01*
X0319898Y0259938D01*
X0319238Y0259479D02*
X0319895Y0259936D01*
X0319235Y0259477D02*
X0319238Y0259479D01*
X0319240Y0259480D01*
X0318592Y0259015D02*
X0319238Y0259479D01*
X0318590Y0259013D02*
X0318592Y0259015D01*
X0318595Y0259016D01*
X0317960Y0258546D02*
X0318592Y0259015D01*
X0317957Y0258544D02*
X0317960Y0258546D01*
X0317962Y0258547D01*
X0317339Y0258071D02*
X0317960Y0258546D01*
X0317337Y0258069D02*
X0317339Y0258071D01*
X0317342Y0258073D02*
X0317342Y0258074D01*
X0317341Y0258072D02*
X0317342Y0258073D01*
X0317339Y0258071D02*
X0317341Y0258072D01*
X0316732Y0257592D02*
X0317339Y0258071D01*
X0316731Y0257591D02*
X0316732Y0257592D01*
X0316729Y0257590D02*
X0316731Y0257591D01*
X0316729Y0257589D02*
X0316729Y0257589D01*
X0316735Y0257594D02*
X0316735Y0257594D01*
X0316734Y0257593D02*
X0316735Y0257594D01*
X0316732Y0257592D02*
X0316734Y0257593D01*
X0316138Y0257107D02*
X0316732Y0257592D01*
X0316136Y0257105D02*
X0316138Y0257107D01*
X0316135Y0257105D02*
X0316136Y0257105D01*
X0316134Y0257104D02*
X0316135Y0257105D01*
X0316140Y0257109D02*
X0316140Y0257109D01*
X0316139Y0257108D02*
X0316140Y0257109D01*
X0316138Y0257107D02*
X0316139Y0257108D01*
X0315557Y0256617D02*
X0316138Y0257107D01*
X0315554Y0256615D02*
X0315557Y0256617D01*
X0315559Y0256619D01*
X0314988Y0256123D02*
X0315557Y0256617D01*
X0314986Y0256121D02*
X0314988Y0256123D01*
X0314991Y0256125D01*
X0314434Y0255624D02*
X0314988Y0256123D01*
X0314431Y0255622D02*
X0314434Y0255624D01*
X0313896Y0255123D02*
X0313896Y0255123D01*
X0314434Y0255624D02*
X0314436Y0255626D01*
X0313892Y0255120D02*
X0314434Y0255624D01*
X0313891Y0255118D02*
X0313892Y0255120D01*
X0313890Y0255118D02*
X0313891Y0255118D01*
X0313889Y0255117D02*
X0313890Y0255118D01*
X0313895Y0255122D02*
X0313896Y0255123D01*
X0313894Y0255121D02*
X0313895Y0255122D01*
X0313892Y0255120D02*
X0313894Y0255121D01*
X0313365Y0254612D02*
X0313892Y0255120D01*
X0313363Y0254609D02*
X0313365Y0254612D01*
X0313368Y0254614D01*
X0312851Y0254099D02*
X0313365Y0254612D01*
X0312849Y0254097D02*
X0312851Y0254099D01*
X0312854Y0254102D01*
X0312351Y0253582D02*
X0312851Y0254099D01*
X0312349Y0253580D02*
X0312351Y0253582D01*
X0312349Y0253580D02*
X0312349Y0253580D01*
X0312348Y0253579D02*
X0312349Y0253580D01*
X0312352Y0253584D02*
X0312354Y0253585D01*
X0312351Y0253582D02*
X0312352Y0253584D01*
X0311865Y0253061D02*
X0312351Y0253582D01*
X0311863Y0253060D02*
X0311865Y0253061D01*
X0311862Y0253059D02*
X0311863Y0253060D01*
X0311866Y0253062D02*
X0311868Y0253064D01*
X0311865Y0253061D02*
X0311866Y0253062D01*
X0311393Y0252537D02*
X0311865Y0253061D01*
X0311391Y0252534D02*
X0311393Y0252537D01*
X0310938Y0252011D02*
X0310938Y0252011D01*
X0311393Y0252537D02*
X0311396Y0252539D01*
X0310935Y0252008D02*
X0311393Y0252537D01*
X0310934Y0252006D02*
X0310935Y0252008D01*
X0310933Y0252005D02*
X0310934Y0252006D01*
X0310938Y0252011D02*
X0310938Y0252011D01*
X0310494Y0251479D02*
X0310494Y0251479D01*
X0310494Y0251479D02*
X0310494Y0251479D01*
X0310937Y0252010D02*
X0310938Y0252011D01*
X0310935Y0252008D02*
X0310937Y0252010D01*
X0310492Y0251476D02*
X0310935Y0252008D01*
X0310490Y0251474D02*
X0310492Y0251476D01*
X0310489Y0251473D02*
X0310490Y0251474D01*
X0310492Y0251476D02*
X0310494Y0251479D01*
X0310063Y0250939D02*
X0310492Y0251476D01*
X0310060Y0250936D02*
X0310063Y0250939D01*
X0310065Y0250942D01*
X0309648Y0250400D02*
X0310063Y0250939D01*
X0309645Y0250397D02*
X0309648Y0250400D01*
X0309649Y0250402D02*
X0309650Y0250403D01*
X0309648Y0250400D02*
X0309649Y0250402D01*
X0309247Y0249857D02*
X0309648Y0250400D01*
X0309245Y0249854D02*
X0309247Y0249857D01*
X0309250Y0249860D01*
X0308862Y0249311D02*
X0309247Y0249857D01*
X0308860Y0249309D02*
X0308862Y0249311D01*
X0308859Y0249307D02*
X0308860Y0249309D01*
X0308490Y0248761D02*
X0308490Y0248761D01*
X0308862Y0249311D02*
X0308863Y0249313D01*
X0308491Y0248762D02*
X0308862Y0249311D01*
X0308489Y0248760D02*
X0308491Y0248762D01*
X0308489Y0248759D02*
X0308489Y0248760D01*
X0308490Y0248761D02*
X0308490Y0248761D01*
X0308491Y0248762D02*
X0308493Y0248766D01*
X0308135Y0248210D02*
X0308491Y0248762D01*
X0308132Y0248206D02*
X0308135Y0248210D01*
X0308137Y0248213D01*
X0307793Y0247655D02*
X0308135Y0248210D01*
X0307791Y0247651D02*
X0307793Y0247655D01*
X0307795Y0247657D01*
X0307467Y0247097D02*
X0307793Y0247655D01*
X0307155Y0246537D02*
X0307156Y0246538D01*
X0307155Y0246537D02*
X0307467Y0247097D01*
X0307154Y0246535D02*
X0307155Y0246537D01*
X0307156Y0246539D01*
X0306859Y0245975D02*
X0307155Y0246537D01*
X0306857Y0245972D02*
X0306859Y0245975D01*
X0307155Y0246537D02*
X0307156Y0246538D01*
X0306861Y0245978D02*
X0306861Y0245978D01*
X0306861Y0245978D02*
X0306861Y0245978D01*
X0306859Y0245975D02*
X0306861Y0245978D01*
X0306578Y0245410D02*
X0306859Y0245975D01*
X0306311Y0244843D02*
X0306578Y0245410D01*
X0306310Y0244840D02*
X0306311Y0244843D01*
X0306060Y0244273D02*
X0306311Y0244843D01*
X0306313Y0244846D02*
X0306313Y0244846D01*
X0306313Y0244846D02*
X0306313Y0244846D01*
X0306060Y0244273D02*
X0306062Y0244277D01*
X0305825Y0243703D02*
X0306060Y0244273D01*
X0305604Y0243130D02*
X0305825Y0243703D01*
X0305399Y0242555D02*
X0305604Y0243130D01*
X0305209Y0241979D02*
X0305399Y0242555D01*
X0305035Y0241402D02*
X0305209Y0241979D01*
X0304876Y0240824D02*
X0304876Y0240825D01*
X0304876Y0240824D02*
X0304876Y0240825D01*
X0304876Y0240823D02*
X0305035Y0241402D01*
X0304876Y0240823D02*
X0304877Y0240827D01*
X0304733Y0240244D02*
X0304876Y0240823D01*
X0304605Y0239663D02*
X0304733Y0240244D01*
X0304492Y0239080D02*
X0304605Y0239663D01*
X0304395Y0238498D02*
X0304492Y0239080D01*
X0304313Y0237914D02*
X0304395Y0238498D01*
X0304314Y0237917D02*
X0304314Y0237918D01*
X0304314Y0237917D02*
X0304314Y0237918D01*
X0304247Y0237327D02*
X0304313Y0237914D01*
X0304247Y0237325D02*
X0304247Y0237327D01*
D158*
X0383914Y0479021D02*
X0400118D01*
X0383914D02*
Y0500793D01*
X0400253D01*
D200*
X0840991Y0596297D02*
D03*
X0817635Y0268411D02*
D03*
X0822826Y0266430D02*
D03*
X0823665Y0266072D02*
D03*
D03*
X0820273Y0267453D02*
D03*
X0829218Y0263388D02*
D03*
X0827676Y0264192D02*
D03*
X0827676Y0264192D02*
D03*
X0830707Y0262562D02*
D03*
X0830707Y0262562D02*
D03*
X0830707Y0262562D02*
D03*
X0830707Y0262562D02*
D03*
X0830707Y0262562D02*
D03*
D03*
X0829962Y0262982D02*
D03*
X0830705Y0262563D02*
D03*
D03*
X0823665Y0266072D02*
D03*
D03*
X0826898Y0264580D02*
D03*
X0826104Y0264964D02*
D03*
X0824486Y0265710D02*
D03*
X0823665Y0266072D02*
D03*
D03*
X0823665Y0266072D02*
D03*
X0801463Y0272481D02*
D03*
X0801463Y0272481D02*
D03*
X0801457Y0272482D02*
D03*
X0801463Y0272481D02*
D03*
X0801460Y0272482D02*
D03*
X0801463Y0272481D02*
D03*
X0801460Y0272482D02*
D03*
X0801457Y0272482D02*
D03*
X0801457Y0272482D02*
D03*
X0801463Y0272481D02*
D03*
X0801463Y0272481D02*
D03*
X0805421Y0271740D02*
D03*
D03*
X0806403Y0271532D02*
D03*
X0801463Y0272481D02*
D03*
X0801463Y0272481D02*
D03*
X0802455Y0272309D02*
D03*
X0803453Y0272127D02*
D03*
X0804439Y0271938D02*
D03*
X0802455Y0272309D02*
D03*
X0801463Y0272481D02*
D03*
D03*
X0800458Y0272646D02*
D03*
X0800457Y0272646D02*
D03*
X0798439Y0272948D02*
D03*
X0798439Y0272948D02*
D03*
X0799447Y0272802D02*
D03*
X0813077Y0269852D02*
D03*
X0814002Y0269580D02*
D03*
X0813078Y0269852D02*
D03*
X0814001Y0269581D02*
D03*
X0815833Y0269011D02*
D03*
D03*
X0817635Y0268411D02*
D03*
X0817634Y0268411D02*
D03*
X0817634Y0268411D02*
D03*
X0816735Y0268716D02*
D03*
X0804438Y0271938D02*
D03*
X0806403Y0271532D02*
D03*
X0807372Y0271318D02*
D03*
X0807372Y0271318D02*
D03*
X0812137Y0270119D02*
D03*
D03*
D03*
X0809303Y0270861D02*
D03*
X0810256Y0270621D02*
D03*
X0850404Y0238495D02*
D03*
D03*
X0838658Y0257109D02*
D03*
X0836209Y0259013D02*
D03*
X0831433Y0262141D02*
D03*
X0834231Y0260391D02*
D03*
X0832860Y0261275D02*
D03*
X0832860Y0261275D02*
D03*
X0843861Y0252011D02*
D03*
X0844309Y0251473D02*
D03*
X0844304Y0251479D02*
D03*
X0844304Y0251479D02*
D03*
X0844304Y0251479D02*
D03*
X0844304Y0251479D02*
D03*
X0844304Y0251479D02*
D03*
X0844304Y0251479D02*
D03*
X0844304Y0251479D02*
D03*
D03*
X0839812Y0256121D02*
D03*
D03*
X0840367Y0255622D02*
D03*
D03*
D03*
X0840367Y0255622D02*
D03*
X0840365Y0255623D02*
D03*
D03*
X0840367Y0255622D02*
D03*
X0840367Y0255622D02*
D03*
X0840903Y0255123D02*
D03*
X0789191Y0273874D02*
D03*
X0789194Y0273874D02*
D03*
X0786069Y0274022D02*
D03*
X0785028Y0274054D02*
D03*
X0783989Y0274076D02*
D03*
X0786073Y0274022D02*
D03*
X0783989Y0274076D02*
D03*
X0371852Y0274090D02*
D03*
X0370813Y0274076D02*
D03*
D03*
X0369771Y0274054D02*
D03*
X0368730Y0274022D02*
D03*
X0366641Y0273932D02*
D03*
X0364570Y0273807D02*
D03*
X0788157Y0273932D02*
D03*
X0794355Y0273448D02*
D03*
X0794357Y0273448D02*
D03*
X0794355Y0273448D02*
D03*
X0795380Y0273337D02*
D03*
X0793332Y0273551D02*
D03*
X0363537Y0273731D02*
D03*
X0365604Y0273874D02*
D03*
X0361467Y0273551D02*
D03*
X0360441Y0273448D02*
D03*
X0360443Y0273448D02*
D03*
X0359419Y0273337D02*
D03*
X0356359Y0272948D02*
D03*
X0357376Y0273087D02*
D03*
D03*
X0297923Y0669874D02*
D03*
Y0669874D02*
D03*
D03*
X0288581Y0558181D02*
D03*
X0288581Y0558181D02*
D03*
X0354341Y0272646D02*
D03*
Y0272646D02*
D03*
X0352343Y0272309D02*
D03*
X0288581Y0558181D02*
D03*
X0288581Y0558181D02*
D03*
X0288581Y0558181D02*
D03*
X0288581Y0558181D02*
D03*
X0288581Y0558181D02*
D03*
Y0558178D02*
D03*
X0288581Y0558181D02*
D03*
X0288581Y0335825D02*
D03*
Y0335825D02*
D03*
Y0335823D02*
D03*
X0355352Y0272802D02*
D03*
X0352343Y0272309D02*
D03*
X0351349Y0272128D02*
D03*
Y0272128D02*
D03*
X0350360Y0271938D02*
D03*
X0350361Y0271938D02*
D03*
X0348403Y0271534D02*
D03*
X0348396Y0271532D02*
D03*
D03*
X0348403Y0271534D02*
D03*
X0347427Y0271318D02*
D03*
X0345496Y0270861D02*
D03*
D03*
X0345496Y0270861D02*
D03*
X0344544Y0270622D02*
D03*
X0341720Y0269852D02*
D03*
X0341722Y0269852D02*
D03*
X0340798Y0269581D02*
D03*
X0338963Y0269011D02*
D03*
D03*
X0337164Y0268411D02*
D03*
D03*
X0335402Y0267782D02*
D03*
X0334526Y0267453D02*
D03*
X0333672Y0267122D02*
D03*
X0332811Y0266777D02*
D03*
X0331972Y0266430D02*
D03*
X0331138Y0266074D02*
D03*
X0330318Y0265713D02*
D03*
X0329503Y0265343D02*
D03*
X0329497Y0265340D02*
D03*
X0327901Y0264580D02*
D03*
X0327122Y0264192D02*
D03*
X0327122Y0264192D02*
D03*
X0323367Y0262142D02*
D03*
D03*
X0321938Y0261275D02*
D03*
X0320568Y0260391D02*
D03*
X0320568Y0260391D02*
D03*
X0316729Y0257589D02*
D03*
X0316140Y0257109D02*
D03*
X0313896Y0255123D02*
D03*
X0313896Y0255123D02*
D03*
X0310938Y0252011D02*
D03*
X0310494Y0251479D02*
D03*
X0310494Y0251479D02*
D03*
D03*
D03*
X0306861Y0245978D02*
D03*
D03*
M02*
