G04*
G04 #@! TF.GenerationSoftware,Altium Limited,Altium Designer,20.2.5 (213)*
G04*
G04 Layer_Color=16711935*
%FSAX25Y25*%
%MOIN*%
G70*
G04*
G04 #@! TF.SameCoordinates,38458E12-344E-42E4-8E5B-5AAD2516AE5C*
G04*
G04*
G04 #@! TF.FilePolarity,Positive*
G04*
G01*
G75*
%ADD10C,0.00394*%
%ADD11C,0.00787*%
%ADD12C,0.01181*%
%ADD13C,0.01000*%
%ADD16C,0.01968*%
%ADD17C,0.00591*%
%ADD155C,0.00800*%
%ADD160C,0.03150*%
%ADD197C,0.00709*%
%ADD198C,0.00472*%
%ADD199R,0.16535X0.02224*%
D10*
X0666570Y0508757D02*
G03*
X0666570Y0508757I-0000943J0000000D01*
G01*
X0628540Y0533721D02*
X0634446D01*
X0628540Y0522698D02*
Y0533721D01*
Y0522698D02*
X0634446D01*
Y0533721D01*
X0577857Y0377578D02*
Y0389078D01*
X0583357D01*
Y0377578D02*
Y0389078D01*
X0577857Y0377578D02*
X0583357D01*
X0572346D02*
X0577846D01*
Y0389078D01*
X0572346D02*
X0577846D01*
X0572346Y0377578D02*
Y0389078D01*
X0688133Y0531372D02*
X0737633D01*
Y0485372D02*
Y0531372D01*
X0688133Y0485372D02*
X0737633D01*
X0688133D02*
Y0531372D01*
X0576769Y0418681D02*
X0587792D01*
X0576769D02*
Y0424586D01*
X0587792D01*
Y0418681D02*
Y0424586D01*
X0379877Y0366798D02*
Y0372298D01*
Y0366798D02*
X0391377D01*
Y0372298D01*
X0379877D02*
X0391377D01*
X0594485Y0417795D02*
Y0429803D01*
X0601375Y0417795D02*
Y0429803D01*
X0594485D02*
X0601375D01*
X0594485Y0417795D02*
X0601375D01*
X0415838Y0483680D02*
Y0495180D01*
X0410338Y0483680D02*
X0415838D01*
X0410338D02*
Y0495180D01*
X0415838D01*
X0266474Y0279415D02*
X0272379D01*
X0266474Y0268391D02*
Y0279415D01*
Y0268391D02*
X0272379D01*
Y0279415D01*
X0273836Y0267486D02*
Y0280084D01*
Y0267486D02*
X0295883D01*
Y0280084D01*
X0273836Y0280084D02*
X0295883Y0280084D01*
X0416316Y0489494D02*
Y0495399D01*
Y0489494D02*
X0427340D01*
Y0495399D01*
X0416316D02*
X0427340D01*
X0427340Y0483509D02*
Y0489415D01*
X0416316D02*
X0427340D01*
X0416316Y0483509D02*
Y0489415D01*
Y0483509D02*
X0427340D01*
X0709584Y0417840D02*
Y0423746D01*
Y0417840D02*
X0720607D01*
Y0423746D01*
X0709584D02*
X0720607D01*
X0709584Y0411856D02*
Y0417761D01*
Y0411856D02*
X0720607D01*
Y0417761D01*
X0709584D02*
X0720607D01*
X0395548Y0525970D02*
Y0537781D01*
Y0525970D02*
X0407359D01*
Y0537781D01*
X0395548D02*
X0407359D01*
X0413172Y0537330D02*
X0418672D01*
X0413172Y0525830D02*
Y0537330D01*
Y0525830D02*
X0418672D01*
Y0537330D01*
X0404868Y0483665D02*
X0410368D01*
Y0495165D01*
X0404868D02*
X0410368D01*
X0404868Y0483665D02*
Y0495165D01*
X0400252Y0483903D02*
Y0495124D01*
X0389130D02*
X0400252D01*
X0389032Y0495025D02*
X0389130Y0495124D01*
X0389032Y0483903D02*
Y0495025D01*
Y0483903D02*
X0400252D01*
X0714339Y0609062D02*
X0720245D01*
Y0620086D01*
X0714339D02*
X0720245D01*
X0714339Y0609062D02*
Y0620086D01*
X0705756Y0609066D02*
X0711661D01*
Y0620090D01*
X0705756D02*
X0711661D01*
X0705756Y0609066D02*
Y0620090D01*
X0840450Y0627171D02*
Y0634651D01*
X0836513Y0627171D02*
Y0634651D01*
X0840450D01*
X0836513Y0627171D02*
X0840450D01*
X0828855Y0636135D02*
X0836533D01*
X0828855Y0632001D02*
X0836533D01*
X0828855D02*
Y0636135D01*
X0836533Y0632001D02*
Y0636135D01*
X0828796Y0627092D02*
Y0634572D01*
X0824859Y0627092D02*
Y0634572D01*
X0828796D01*
X0824859Y0627092D02*
X0828796D01*
X0778897Y0382624D02*
Y0394632D01*
X0785787Y0382624D02*
Y0394632D01*
X0778897D02*
X0785787D01*
X0778897Y0382624D02*
X0785787D01*
X0769903Y0395759D02*
Y0401665D01*
X0758879D02*
X0769903D01*
X0758879Y0395759D02*
Y0401665D01*
Y0395759D02*
X0769903D01*
X0769901Y0389769D02*
Y0395675D01*
X0758878D02*
X0769901D01*
X0758878Y0389769D02*
Y0395675D01*
Y0389769D02*
X0769901D01*
X0769901Y0381423D02*
Y0387328D01*
X0758878D02*
X0769901D01*
X0758878Y0381423D02*
Y0387328D01*
Y0381423D02*
X0769901D01*
Y0375399D02*
Y0381305D01*
X0758878D02*
X0769901D01*
X0758878Y0375399D02*
Y0381305D01*
Y0375399D02*
X0769901D01*
X0709592Y0361825D02*
Y0367731D01*
Y0361825D02*
X0720615D01*
Y0367731D01*
X0709592D02*
X0720615D01*
X0709592Y0367810D02*
Y0373715D01*
Y0367810D02*
X0720615D01*
Y0373715D01*
X0709592D02*
X0720615D01*
X0709592Y0373794D02*
Y0379700D01*
Y0373794D02*
X0720615D01*
Y0379700D01*
X0709592D02*
X0720615D01*
X0709592Y0379818D02*
Y0385723D01*
Y0379818D02*
X0720615D01*
Y0385723D01*
X0709592D02*
X0720615D01*
X0709592Y0385841D02*
Y0391747D01*
Y0385841D02*
X0720615D01*
Y0391747D01*
X0709592D02*
X0720615D01*
X0709592Y0391826D02*
Y0397731D01*
Y0391826D02*
X0720615D01*
Y0397731D01*
X0709592D02*
X0720615D01*
X0709592Y0397849D02*
Y0403755D01*
Y0397849D02*
X0720615D01*
Y0403755D01*
X0709592D02*
X0720615D01*
X0709592Y0403833D02*
Y0409739D01*
Y0403833D02*
X0720615D01*
Y0409739D01*
X0709592D02*
X0720615D01*
X0808545Y0310169D02*
X0814450D01*
X0808545Y0299145D02*
Y0310169D01*
Y0299145D02*
X0814450D01*
Y0310169D01*
X0744607Y0310641D02*
X0750513D01*
X0744607Y0299618D02*
Y0310641D01*
Y0299618D02*
X0750513D01*
Y0310641D01*
X0392320Y0340119D02*
X0398225D01*
Y0351143D01*
X0392320D02*
X0398225D01*
X0392320Y0340119D02*
Y0351143D01*
X0392341Y0329088D02*
X0398246D01*
Y0340112D01*
X0392341D02*
X0398246D01*
X0392341Y0329088D02*
Y0340112D01*
X0386343D02*
X0392248D01*
X0386343Y0329088D02*
Y0340112D01*
Y0329088D02*
X0392248D01*
Y0340112D01*
X0378522D02*
X0384427D01*
X0378522Y0329088D02*
Y0340112D01*
Y0329088D02*
X0384427D01*
Y0340112D01*
X0372543D02*
X0378449D01*
X0372543Y0329088D02*
Y0340112D01*
Y0329088D02*
X0378449D01*
Y0340112D01*
X0391360Y0361271D02*
Y0366771D01*
X0379860D02*
X0391360D01*
X0379860Y0361271D02*
Y0366771D01*
Y0361271D02*
X0391360D01*
X0378897Y0347820D02*
X0390905D01*
X0378897Y0354710D02*
X0390905D01*
X0378897Y0347820D02*
Y0354710D01*
X0390905Y0347820D02*
Y0354710D01*
X0600489Y0410019D02*
Y0415925D01*
X0589466D02*
X0600489D01*
X0589466Y0410019D02*
Y0415925D01*
Y0410019D02*
X0600489D01*
X0587792Y0412677D02*
Y0418582D01*
X0576769D02*
X0587792D01*
X0576769Y0412677D02*
Y0418582D01*
Y0412677D02*
X0587792D01*
X0292553Y0502611D02*
Y0531863D01*
X0315387D01*
Y0502611D02*
Y0531863D01*
X0292553Y0502611D02*
X0315387D01*
X0850450Y0600033D02*
Y0647277D01*
Y0600033D02*
X0893757D01*
Y0647277D01*
X0850450D02*
X0893757D01*
X0808545Y0284657D02*
X0814450D01*
Y0295681D01*
X0808545D02*
X0814450D01*
X0808545Y0284657D02*
Y0295681D01*
X0744607Y0285130D02*
X0750513D01*
Y0296153D01*
X0744607D02*
X0750513D01*
X0744607Y0285130D02*
Y0296153D01*
X0703340Y0480831D02*
X0709246D01*
X0703340Y0469808D02*
Y0480831D01*
Y0469808D02*
X0709246D01*
Y0480831D01*
X0587792Y0424685D02*
Y0430590D01*
X0576769D02*
X0587792D01*
X0576769Y0424685D02*
Y0430590D01*
Y0424685D02*
X0587792D01*
X0739767Y0447853D02*
X0745267D01*
Y0459353D01*
X0739767D02*
X0745267D01*
X0739767Y0447853D02*
Y0459353D01*
X0652694Y0525872D02*
X0668694D01*
Y0517210D02*
Y0525872D01*
X0652694Y0517210D02*
X0668694D01*
X0652694D02*
Y0525872D01*
X0655024Y0510360D02*
X0667229D01*
X0655024Y0498155D02*
X0667229D01*
Y0510360D01*
X0655024Y0498155D02*
Y0510360D01*
X0625180Y0479100D02*
X0633054Y0479100D01*
X0633054Y0471226D02*
X0633054Y0479100D01*
X0625180Y0471226D02*
X0633054Y0471226D01*
X0625180Y0471226D02*
X0625180Y0479100D01*
X0719237Y0469769D02*
X0725143D01*
Y0480793D01*
X0719237D02*
X0725143D01*
X0719237Y0469769D02*
Y0480793D01*
X0713251D02*
X0719157D01*
X0713251Y0469769D02*
Y0480793D01*
Y0469769D02*
X0719157D01*
Y0480793D01*
X0715454Y0537722D02*
X0721359D01*
Y0548746D01*
X0715454D02*
X0721359D01*
X0715454Y0537722D02*
Y0548746D01*
X0731283Y0469769D02*
X0737188D01*
Y0480793D01*
X0731283D02*
X0737188D01*
X0731283Y0469769D02*
Y0480793D01*
X0725261Y0469769D02*
X0731166D01*
Y0480793D01*
X0725261D02*
X0731166D01*
X0725261Y0469769D02*
Y0480793D01*
X0709463Y0537722D02*
X0715369D01*
Y0548746D01*
X0709463D02*
X0715369D01*
X0709463Y0537722D02*
Y0548746D01*
X0697356Y0469808D02*
X0703262D01*
Y0480831D01*
X0697356D02*
X0703262D01*
X0697356Y0469808D02*
Y0480831D01*
X0691332Y0469808D02*
X0697238D01*
Y0480831D01*
X0691332D02*
X0697238D01*
X0691332Y0469808D02*
Y0480831D01*
X0685309Y0469808D02*
X0691214D01*
Y0480831D01*
X0685309D02*
X0691214D01*
X0685309Y0469808D02*
Y0480831D01*
X0460725Y0636084D02*
Y0641989D01*
Y0636084D02*
X0471749D01*
Y0641989D01*
X0460725D02*
X0471749D01*
Y0630080D02*
Y0635985D01*
X0460725D02*
X0471749D01*
X0460725Y0630080D02*
Y0635985D01*
Y0630080D02*
X0471749D01*
X0482773Y0636084D02*
Y0641989D01*
X0471749D02*
X0482773D01*
X0471749Y0636084D02*
Y0641989D01*
Y0636084D02*
X0482773D01*
Y0630080D02*
Y0635985D01*
X0471749D02*
X0482773D01*
X0471749Y0630080D02*
Y0635985D01*
Y0630080D02*
X0482773D01*
X0535771Y0483234D02*
X0541677D01*
X0535771Y0472210D02*
Y0483234D01*
Y0472210D02*
X0541677D01*
Y0483234D01*
X0555850D02*
X0561755D01*
X0555850Y0472210D02*
Y0483234D01*
Y0472210D02*
X0561755D01*
Y0483234D01*
X0520417Y0524966D02*
X0526322D01*
Y0535990D01*
X0520417D02*
X0526322D01*
X0520417Y0524966D02*
Y0535990D01*
X0703479Y0537722D02*
X0709385D01*
Y0548746D01*
X0703479D02*
X0709385D01*
X0703479Y0537722D02*
Y0548746D01*
X0581637Y0499572D02*
Y0505478D01*
Y0499572D02*
X0592661D01*
Y0505478D01*
X0581637D02*
X0592661D01*
X0581637Y0491698D02*
Y0497604D01*
Y0491698D02*
X0592661D01*
Y0497604D01*
X0581637D02*
X0592661D01*
X0581637Y0471620D02*
Y0477525D01*
Y0471620D02*
X0592661D01*
Y0477525D01*
X0581637D02*
X0592661D01*
X0542464Y0472210D02*
X0548369D01*
Y0483234D01*
X0542464D02*
X0548369D01*
X0542464Y0472210D02*
Y0483234D01*
X0697495Y0537722D02*
X0703400D01*
Y0548746D01*
X0697495D02*
X0703400D01*
X0697495Y0537722D02*
Y0548746D01*
X0596204Y0519651D02*
Y0525557D01*
X0585180D02*
X0596204D01*
X0585180Y0519651D02*
Y0525557D01*
Y0519651D02*
X0596204D01*
X0581637Y0478313D02*
Y0484218D01*
Y0478313D02*
X0592661D01*
Y0484218D01*
X0581637D02*
X0592661D01*
X0549157Y0483234D02*
X0555062D01*
X0549157Y0472210D02*
Y0483234D01*
Y0472210D02*
X0555062D01*
Y0483234D01*
X0532820Y0496816D02*
Y0502722D01*
X0521796D02*
X0532820D01*
X0521796Y0496816D02*
Y0502722D01*
Y0496816D02*
X0532820D01*
X0532818Y0503509D02*
Y0509415D01*
X0521795D02*
X0532818D01*
X0521795Y0503509D02*
Y0509415D01*
Y0503509D02*
X0532818D01*
X0617424Y0505439D02*
X0633960D01*
X0617424Y0488903D02*
X0633960D01*
Y0505439D01*
X0617424Y0488903D02*
Y0505439D01*
X0563527Y0505675D02*
X0580062D01*
X0563527Y0489139D02*
X0580062D01*
Y0505675D01*
X0563527Y0489139D02*
Y0505675D01*
X0613645Y0533234D02*
Y0548982D01*
X0589235Y0533234D02*
Y0548982D01*
Y0533234D02*
X0613645D01*
X0589235Y0548982D02*
X0613645D01*
X0581637Y0519454D02*
X0595810D01*
X0581637Y0512368D02*
X0595810D01*
X0581637D02*
Y0519454D01*
X0595810Y0512368D02*
Y0519454D01*
X0529275Y0537171D02*
X0543448D01*
X0529275Y0529297D02*
X0543448D01*
X0529275D02*
Y0537171D01*
X0543448Y0529297D02*
Y0537171D01*
X0549846Y0527919D02*
Y0538549D01*
X0566972Y0527919D02*
Y0538549D01*
X0549846D02*
X0566972D01*
X0549846Y0527919D02*
X0566972D01*
X0552503D02*
Y0538549D01*
X0571991Y0528214D02*
X0582621D01*
X0571991Y0545340D02*
X0582621D01*
X0571991Y0528214D02*
Y0545340D01*
X0582621Y0528214D02*
Y0545340D01*
X0571991Y0530872D02*
X0582621D01*
X0598251Y0508234D02*
Y0532643D01*
X0610062Y0508234D02*
Y0532643D01*
X0598251Y0508234D02*
X0610062D01*
X0598251Y0532643D02*
X0610062D01*
X0748307Y0487328D02*
Y0500557D01*
X0748385Y0500635D01*
X0760275D01*
Y0487289D02*
Y0500635D01*
X0760236Y0487328D02*
X0760275Y0487289D01*
X0748307Y0487328D02*
X0760236D01*
X0634978Y0466879D02*
Y0478379D01*
X0640478D01*
Y0466879D02*
Y0478379D01*
X0634978Y0466879D02*
X0640478D01*
X0617371Y0470642D02*
X0622871D01*
Y0482142D01*
X0617371D02*
X0622871D01*
X0617371Y0470642D02*
Y0482142D01*
X0581497Y0485307D02*
Y0490807D01*
Y0485307D02*
X0592997D01*
Y0490807D01*
X0581497D02*
X0592997D01*
X0610639Y0496759D02*
X0616139D01*
X0610639Y0485259D02*
Y0496759D01*
Y0485259D02*
X0616139D01*
Y0496759D01*
X0595928Y0470872D02*
Y0478746D01*
Y0470872D02*
X0610102D01*
Y0478746D01*
X0595928D02*
X0610102D01*
X0595850Y0478903D02*
Y0486777D01*
Y0478903D02*
X0610023D01*
Y0486777D01*
X0595850D02*
X0610023D01*
X0625968Y0509179D02*
Y0517053D01*
X0611795D02*
X0625968D01*
X0611795Y0509179D02*
Y0517053D01*
Y0509179D02*
X0625968D01*
X0626007Y0517250D02*
Y0525124D01*
X0611834D02*
X0626007D01*
X0611834Y0517250D02*
Y0525124D01*
Y0517250D02*
X0626007D01*
X0626086Y0525320D02*
Y0533194D01*
X0611913D02*
X0626086D01*
X0611913Y0525320D02*
Y0533194D01*
Y0525320D02*
X0626086D01*
X0562740Y0485596D02*
X0570613D01*
X0562740Y0471423D02*
Y0485596D01*
Y0471423D02*
X0570613D01*
Y0485596D01*
X0571795D02*
X0579669D01*
X0571795Y0471423D02*
Y0485596D01*
Y0471423D02*
X0579669D01*
Y0485596D01*
X0557923Y0507897D02*
X0563422D01*
Y0519397D01*
X0557923D02*
X0563422D01*
X0557923Y0507897D02*
Y0519397D01*
X0549655Y0511441D02*
X0555155D01*
Y0522940D01*
X0549655D02*
X0555155D01*
X0549655Y0511441D02*
Y0522940D01*
X0540692Y0509218D02*
X0548566D01*
Y0523391D01*
X0540692D02*
X0548566D01*
X0540692Y0509218D02*
Y0523391D01*
X0592661Y0506265D02*
Y0512171D01*
X0581637D02*
X0592661D01*
X0581637Y0506265D02*
Y0512171D01*
Y0506265D02*
X0592661D01*
X0669568Y0517236D02*
Y0522736D01*
Y0517236D02*
X0681068D01*
Y0522736D01*
X0669568D02*
X0681068D01*
X0669568Y0528220D02*
Y0533720D01*
Y0528220D02*
X0681068D01*
Y0533720D01*
X0669568D02*
X0681068D01*
X0669489Y0522629D02*
Y0528129D01*
Y0522629D02*
X0680990D01*
Y0528129D01*
X0669489D02*
X0680990D01*
X0639355Y0548785D02*
X0645261D01*
X0639355Y0537761D02*
Y0548785D01*
Y0537761D02*
X0645261D01*
Y0548785D01*
X0586873Y0526383D02*
Y0532289D01*
Y0526383D02*
X0597897D01*
Y0532289D01*
X0586873D02*
X0597897D01*
X0679325Y0480831D02*
X0685230D01*
X0679325Y0469808D02*
Y0480831D01*
Y0469808D02*
X0685230D01*
Y0480831D01*
X0610639Y0496756D02*
X0616139D01*
Y0508255D01*
X0610639D02*
X0616139D01*
X0610639Y0496756D02*
Y0508255D01*
X0741637Y0504649D02*
Y0516149D01*
X0747137D01*
Y0504649D02*
Y0516149D01*
X0741637Y0504649D02*
X0747137D01*
X0645182Y0535675D02*
Y0548667D01*
X0651481D01*
Y0535675D02*
Y0548667D01*
X0645182Y0535675D02*
X0651481D01*
X0645182Y0536856D02*
X0651481D01*
X0746552Y0447796D02*
X0759151D01*
Y0469844D01*
X0746552D02*
X0759151D01*
X0746552Y0447796D02*
Y0469844D01*
X0691527Y0537617D02*
Y0549117D01*
X0686027Y0537617D02*
X0691527D01*
X0686027D02*
Y0549117D01*
X0691527D01*
X0835410Y0641529D02*
X0842891D01*
X0835410Y0645466D02*
X0842891D01*
Y0641529D02*
Y0645466D01*
X0835410Y0641529D02*
Y0645466D01*
X0629918Y0532540D02*
X0632280D01*
Y0531360D01*
X0631886Y0530966D01*
X0631099D01*
X0630705Y0531360D01*
Y0532540D01*
Y0531753D02*
X0629918Y0530966D01*
X0632280Y0528605D02*
Y0530179D01*
X0631099D01*
X0631493Y0529392D01*
Y0528998D01*
X0631099Y0528605D01*
X0630312D01*
X0629918Y0528998D01*
Y0529785D01*
X0630312Y0530179D01*
Y0527818D02*
X0629918Y0527424D01*
Y0526637D01*
X0630312Y0526243D01*
X0631886D01*
X0632280Y0526637D01*
Y0527424D01*
X0631886Y0527818D01*
X0631493D01*
X0631099Y0527424D01*
Y0526243D01*
X0579639Y0381152D02*
X0579246Y0380759D01*
Y0379971D01*
X0579639Y0379578D01*
X0581214D01*
X0581607Y0379971D01*
Y0380759D01*
X0581214Y0381152D01*
X0581607Y0383513D02*
Y0381939D01*
X0580033Y0383513D01*
X0579639D01*
X0579246Y0383120D01*
Y0382333D01*
X0579639Y0381939D01*
X0581607Y0385481D02*
X0579246D01*
X0580427Y0384301D01*
Y0385875D01*
X0574128Y0381152D02*
X0573734Y0380759D01*
Y0379971D01*
X0574128Y0379578D01*
X0575702D01*
X0576096Y0379971D01*
Y0380759D01*
X0575702Y0381152D01*
X0576096Y0383513D02*
Y0381939D01*
X0574521Y0383513D01*
X0574128D01*
X0573734Y0383120D01*
Y0382333D01*
X0574128Y0381939D01*
Y0384301D02*
X0573734Y0384694D01*
Y0385481D01*
X0574128Y0385875D01*
X0574521D01*
X0574915Y0385481D01*
X0575308Y0385875D01*
X0575702D01*
X0576096Y0385481D01*
Y0384694D01*
X0575702Y0384301D01*
X0575308D01*
X0574915Y0384694D01*
X0574521Y0384301D01*
X0574128D01*
X0574915Y0384694D02*
Y0385481D01*
X0697133Y0513307D02*
Y0510028D01*
X0697789Y0509372D01*
X0699101D01*
X0699757Y0510028D01*
Y0513307D01*
X0703693D02*
X0702381Y0512651D01*
X0701069Y0511340D01*
Y0510028D01*
X0701725Y0509372D01*
X0703037D01*
X0703693Y0510028D01*
Y0510683D01*
X0703037Y0511340D01*
X0701069D01*
X0586611Y0423208D02*
Y0420847D01*
X0585431D01*
X0585037Y0421240D01*
Y0422027D01*
X0585431Y0422421D01*
X0586611D01*
X0585824D02*
X0585037Y0423208D01*
X0582676Y0420847D02*
X0584250D01*
Y0422027D01*
X0583463Y0421634D01*
X0583069D01*
X0582676Y0422027D01*
Y0422815D01*
X0583069Y0423208D01*
X0583856D01*
X0584250Y0422815D01*
X0580314Y0423208D02*
X0581888D01*
X0580314Y0421634D01*
Y0421240D01*
X0580708Y0420847D01*
X0581495D01*
X0581888Y0421240D01*
X0383451Y0370516D02*
X0383058Y0370910D01*
X0382271D01*
X0381877Y0370516D01*
Y0368942D01*
X0382271Y0368548D01*
X0383058D01*
X0383451Y0368942D01*
X0385813Y0368548D02*
X0384239D01*
X0385813Y0370123D01*
Y0370516D01*
X0385419Y0370910D01*
X0384632D01*
X0384239Y0370516D01*
X0386600Y0370910D02*
X0388174D01*
Y0370516D01*
X0386600Y0368942D01*
Y0368548D01*
X0596782Y0419299D02*
X0599405D01*
X0599930Y0419824D01*
Y0420873D01*
X0599405Y0421398D01*
X0596782D01*
X0599930Y0424022D02*
X0596782D01*
X0598356Y0422447D01*
Y0424546D01*
X0414055Y0491606D02*
X0414449Y0491999D01*
Y0492787D01*
X0414055Y0493180D01*
X0412481D01*
X0412088Y0492787D01*
Y0491999D01*
X0412481Y0491606D01*
X0412088Y0489245D02*
Y0490819D01*
X0413662Y0489245D01*
X0414055D01*
X0414449Y0489638D01*
Y0490425D01*
X0414055Y0490819D01*
X0412481Y0488457D02*
X0412088Y0488064D01*
Y0487277D01*
X0412481Y0486883D01*
X0414055D01*
X0414449Y0487277D01*
Y0488064D01*
X0414055Y0488457D01*
X0413662D01*
X0413268Y0488064D01*
Y0486883D01*
X0267851Y0278234D02*
X0270213D01*
Y0277053D01*
X0269819Y0276659D01*
X0269032D01*
X0268639Y0277053D01*
Y0278234D01*
Y0277447D02*
X0267851Y0276659D01*
X0270213Y0274298D02*
X0269819Y0275085D01*
X0269032Y0275872D01*
X0268245D01*
X0267851Y0275479D01*
Y0274692D01*
X0268245Y0274298D01*
X0268639D01*
X0269032Y0274692D01*
Y0275872D01*
X0267851Y0271937D02*
Y0273511D01*
X0269426Y0271937D01*
X0269819D01*
X0270213Y0272330D01*
Y0273117D01*
X0269819Y0273511D01*
X0287984Y0271883D02*
X0288639Y0271227D01*
X0289951D01*
X0290607Y0271883D01*
Y0272539D01*
X0289951Y0273195D01*
X0288639D01*
X0287984Y0273851D01*
Y0274507D01*
X0288639Y0275163D01*
X0289951D01*
X0290607Y0274507D01*
X0286672Y0275163D02*
X0285360D01*
X0286016D01*
Y0271227D01*
X0286672Y0271883D01*
X0417497Y0490872D02*
Y0493233D01*
X0418678D01*
X0419071Y0492839D01*
Y0492052D01*
X0418678Y0491659D01*
X0417497D01*
X0418284D02*
X0419071Y0490872D01*
X0421433Y0493233D02*
X0420646Y0492839D01*
X0419859Y0492052D01*
Y0491265D01*
X0420252Y0490872D01*
X0421039D01*
X0421433Y0491265D01*
Y0491659D01*
X0421039Y0492052D01*
X0419859D01*
X0423401Y0490872D02*
Y0493233D01*
X0422220Y0492052D01*
X0423794D01*
X0426159Y0488037D02*
Y0485676D01*
X0424978D01*
X0424584Y0486069D01*
Y0486856D01*
X0424978Y0487250D01*
X0426159D01*
X0425371D02*
X0424584Y0488037D01*
X0422223Y0485676D02*
X0423010Y0486069D01*
X0423797Y0486856D01*
Y0487643D01*
X0423404Y0488037D01*
X0422616D01*
X0422223Y0487643D01*
Y0487250D01*
X0422616Y0486856D01*
X0423797D01*
X0421436Y0486069D02*
X0421042Y0485676D01*
X0420255D01*
X0419861Y0486069D01*
Y0486463D01*
X0420255Y0486856D01*
X0420648D01*
X0420255D01*
X0419861Y0487250D01*
Y0487643D01*
X0420255Y0488037D01*
X0421042D01*
X0421436Y0487643D01*
X0710765Y0419218D02*
Y0421580D01*
X0711946D01*
X0712339Y0421186D01*
Y0420399D01*
X0711946Y0420005D01*
X0710765D01*
X0711552D02*
X0712339Y0419218D01*
X0714701Y0421580D02*
X0713913Y0421186D01*
X0713126Y0420399D01*
Y0419612D01*
X0713520Y0419218D01*
X0714307D01*
X0714701Y0419612D01*
Y0420005D01*
X0714307Y0420399D01*
X0713126D01*
X0717062Y0421580D02*
X0716275Y0421186D01*
X0715488Y0420399D01*
Y0419612D01*
X0715881Y0419218D01*
X0716669D01*
X0717062Y0419612D01*
Y0420005D01*
X0716669Y0420399D01*
X0715488D01*
X0710765Y0413234D02*
Y0415595D01*
X0711946D01*
X0712339Y0415202D01*
Y0414415D01*
X0711946Y0414021D01*
X0710765D01*
X0711552D02*
X0712339Y0413234D01*
X0714701Y0415595D02*
X0713913Y0415202D01*
X0713126Y0414415D01*
Y0413627D01*
X0713520Y0413234D01*
X0714307D01*
X0714701Y0413627D01*
Y0414021D01*
X0714307Y0414415D01*
X0713126D01*
X0717062Y0415595D02*
X0715488D01*
Y0414415D01*
X0716275Y0414808D01*
X0716668D01*
X0717062Y0414415D01*
Y0413627D01*
X0716668Y0413234D01*
X0715881D01*
X0715488Y0413627D01*
X0416890Y0533756D02*
X0417284Y0534150D01*
Y0534937D01*
X0416890Y0535330D01*
X0415316D01*
X0414922Y0534937D01*
Y0534150D01*
X0415316Y0533756D01*
X0414922Y0531395D02*
Y0532969D01*
X0416497Y0531395D01*
X0416890D01*
X0417284Y0531788D01*
Y0532575D01*
X0416890Y0532969D01*
X0417284Y0529033D02*
Y0530607D01*
X0416103D01*
X0416497Y0529820D01*
Y0529427D01*
X0416103Y0529033D01*
X0415316D01*
X0414922Y0529427D01*
Y0530214D01*
X0415316Y0530607D01*
X0406650Y0487239D02*
X0406256Y0486846D01*
Y0486059D01*
X0406650Y0485665D01*
X0408224D01*
X0408618Y0486059D01*
Y0486846D01*
X0408224Y0487239D01*
X0408618Y0489601D02*
Y0488026D01*
X0407043Y0489601D01*
X0406650D01*
X0406256Y0489207D01*
Y0488420D01*
X0406650Y0488026D01*
Y0490388D02*
X0406256Y0490781D01*
Y0491569D01*
X0406650Y0491962D01*
X0407043D01*
X0407437Y0491569D01*
Y0491175D01*
Y0491569D01*
X0407830Y0491962D01*
X0408224D01*
X0408618Y0491569D01*
Y0490781D01*
X0408224Y0490388D01*
X0398973Y0488136D02*
Y0490104D01*
X0398579Y0490498D01*
X0397792D01*
X0397398Y0490104D01*
Y0488136D01*
X0396611Y0490498D02*
X0395824D01*
X0396217D01*
Y0488136D01*
X0396611Y0488530D01*
X0394643D02*
X0394250Y0488136D01*
X0393462D01*
X0393069Y0488530D01*
Y0488923D01*
X0393462Y0489317D01*
X0393856D01*
X0393462D01*
X0393069Y0489711D01*
Y0490104D01*
X0393462Y0490498D01*
X0394250D01*
X0394643Y0490104D01*
X0718867Y0610243D02*
X0716506D01*
Y0611424D01*
X0716899Y0611818D01*
X0717686D01*
X0718080Y0611424D01*
Y0610243D01*
Y0611030D02*
X0718867Y0611818D01*
X0716899Y0612605D02*
X0716506Y0612998D01*
Y0613785D01*
X0716899Y0614179D01*
X0717293D01*
X0717686Y0613785D01*
Y0613392D01*
Y0613785D01*
X0718080Y0614179D01*
X0718473D01*
X0718867Y0613785D01*
Y0612998D01*
X0718473Y0612605D01*
X0718867Y0616147D02*
X0716506D01*
X0717686Y0614966D01*
Y0616540D01*
X0710284Y0610247D02*
X0707922D01*
Y0611428D01*
X0708316Y0611821D01*
X0709103D01*
X0709496Y0611428D01*
Y0610247D01*
Y0611034D02*
X0710284Y0611821D01*
X0708316Y0612608D02*
X0707922Y0613002D01*
Y0613789D01*
X0708316Y0614183D01*
X0708709D01*
X0709103Y0613789D01*
Y0613396D01*
Y0613789D01*
X0709496Y0614183D01*
X0709890D01*
X0710284Y0613789D01*
Y0613002D01*
X0709890Y0612608D01*
X0707922Y0616544D02*
Y0614970D01*
X0709103D01*
X0708709Y0615757D01*
Y0616151D01*
X0709103Y0616544D01*
X0709890D01*
X0710284Y0616151D01*
Y0615364D01*
X0709890Y0614970D01*
X0781193Y0384127D02*
X0783817D01*
X0784342Y0384652D01*
Y0385702D01*
X0783817Y0386227D01*
X0781193D01*
X0784342Y0387276D02*
Y0388326D01*
Y0387801D01*
X0781193D01*
X0781718Y0387276D01*
X0784342Y0391474D02*
X0781193D01*
X0782768Y0389900D01*
Y0391999D01*
X0768722Y0400287D02*
Y0397925D01*
X0767541D01*
X0767147Y0398319D01*
Y0399106D01*
X0767541Y0399500D01*
X0768722D01*
X0767935D02*
X0767147Y0400287D01*
X0765180D02*
Y0397925D01*
X0766360Y0399106D01*
X0764786D01*
X0763999Y0398319D02*
X0763605Y0397925D01*
X0762818D01*
X0762425Y0398319D01*
Y0398713D01*
X0762818Y0399106D01*
X0762425Y0399500D01*
Y0399893D01*
X0762818Y0400287D01*
X0763605D01*
X0763999Y0399893D01*
Y0399500D01*
X0763605Y0399106D01*
X0763999Y0398713D01*
Y0398319D01*
X0763605Y0399106D02*
X0762818D01*
X0768720Y0394297D02*
Y0391935D01*
X0767539D01*
X0767146Y0392329D01*
Y0393116D01*
X0767539Y0393510D01*
X0768720D01*
X0767933D02*
X0767146Y0394297D01*
X0765178D02*
Y0391935D01*
X0766359Y0393116D01*
X0764784D01*
X0763997Y0393903D02*
X0763604Y0394297D01*
X0762816D01*
X0762423Y0393903D01*
Y0392329D01*
X0762816Y0391935D01*
X0763604D01*
X0763997Y0392329D01*
Y0392723D01*
X0763604Y0393116D01*
X0762423D01*
X0768720Y0385950D02*
Y0383589D01*
X0767539D01*
X0767146Y0383982D01*
Y0384770D01*
X0767539Y0385163D01*
X0768720D01*
X0767933D02*
X0767146Y0385950D01*
X0764784Y0383589D02*
X0766359D01*
Y0384770D01*
X0765571Y0384376D01*
X0765178D01*
X0764784Y0384770D01*
Y0385557D01*
X0765178Y0385950D01*
X0765965D01*
X0766359Y0385557D01*
X0762816Y0385950D02*
Y0383589D01*
X0763997Y0384770D01*
X0762423D01*
X0768720Y0379927D02*
Y0377565D01*
X0767539D01*
X0767146Y0377959D01*
Y0378746D01*
X0767539Y0379140D01*
X0768720D01*
X0767933D02*
X0767146Y0379927D01*
X0764784Y0377565D02*
X0766359D01*
Y0378746D01*
X0765571Y0378352D01*
X0765178D01*
X0764784Y0378746D01*
Y0379533D01*
X0765178Y0379927D01*
X0765965D01*
X0766359Y0379533D01*
X0763997Y0377565D02*
X0762423D01*
Y0377959D01*
X0763997Y0379533D01*
Y0379927D01*
X0710773Y0363204D02*
Y0365565D01*
X0711953D01*
X0712347Y0365171D01*
Y0364384D01*
X0711953Y0363991D01*
X0710773D01*
X0711560D02*
X0712347Y0363204D01*
X0714315D02*
Y0365565D01*
X0713134Y0364384D01*
X0714709D01*
X0717070Y0365565D02*
X0715496D01*
Y0364384D01*
X0716283Y0364778D01*
X0716676D01*
X0717070Y0364384D01*
Y0363597D01*
X0716676Y0363204D01*
X0715889D01*
X0715496Y0363597D01*
X0710773Y0369188D02*
Y0371549D01*
X0711953D01*
X0712347Y0371156D01*
Y0370369D01*
X0711953Y0369975D01*
X0710773D01*
X0711560D02*
X0712347Y0369188D01*
X0714315D02*
Y0371549D01*
X0713134Y0370369D01*
X0714709D01*
X0716676Y0369188D02*
Y0371549D01*
X0715496Y0370369D01*
X0717070D01*
X0710773Y0375172D02*
Y0377533D01*
X0711953D01*
X0712347Y0377140D01*
Y0376353D01*
X0711953Y0375959D01*
X0710773D01*
X0711560D02*
X0712347Y0375172D01*
X0714315D02*
Y0377533D01*
X0713134Y0376353D01*
X0714709D01*
X0715496Y0377140D02*
X0715889Y0377533D01*
X0716676D01*
X0717070Y0377140D01*
Y0376746D01*
X0716676Y0376353D01*
X0716283D01*
X0716676D01*
X0717070Y0375959D01*
Y0375566D01*
X0716676Y0375172D01*
X0715889D01*
X0715496Y0375566D01*
X0710773Y0381196D02*
Y0383557D01*
X0711953D01*
X0712347Y0383163D01*
Y0382376D01*
X0711953Y0381983D01*
X0710773D01*
X0711560D02*
X0712347Y0381196D01*
X0714315D02*
Y0383557D01*
X0713134Y0382376D01*
X0714709D01*
X0717070Y0381196D02*
X0715496D01*
X0717070Y0382770D01*
Y0383163D01*
X0716676Y0383557D01*
X0715889D01*
X0715496Y0383163D01*
X0710773Y0387219D02*
Y0389581D01*
X0711953D01*
X0712347Y0389187D01*
Y0388400D01*
X0711953Y0388006D01*
X0710773D01*
X0711560D02*
X0712347Y0387219D01*
X0713134Y0389187D02*
X0713528Y0389581D01*
X0714315D01*
X0714709Y0389187D01*
Y0388793D01*
X0714315Y0388400D01*
X0713921D01*
X0714315D01*
X0714709Y0388006D01*
Y0387613D01*
X0714315Y0387219D01*
X0713528D01*
X0713134Y0387613D01*
X0715496Y0389187D02*
X0715889Y0389581D01*
X0716676D01*
X0717070Y0389187D01*
Y0388793D01*
X0716676Y0388400D01*
X0717070Y0388006D01*
Y0387613D01*
X0716676Y0387219D01*
X0715889D01*
X0715496Y0387613D01*
Y0388006D01*
X0715889Y0388400D01*
X0715496Y0388793D01*
Y0389187D01*
X0715889Y0388400D02*
X0716676D01*
X0710773Y0393203D02*
Y0395565D01*
X0711953D01*
X0712347Y0395171D01*
Y0394384D01*
X0711953Y0393991D01*
X0710773D01*
X0711560D02*
X0712347Y0393203D01*
X0714315D02*
Y0395565D01*
X0713134Y0394384D01*
X0714709D01*
X0715496Y0393203D02*
X0716283D01*
X0715889D01*
Y0395565D01*
X0715496Y0395171D01*
X0710773Y0399227D02*
Y0401589D01*
X0711953D01*
X0712347Y0401195D01*
Y0400408D01*
X0711953Y0400014D01*
X0710773D01*
X0711560D02*
X0712347Y0399227D01*
X0713134Y0401195D02*
X0713528Y0401589D01*
X0714315D01*
X0714709Y0401195D01*
Y0400801D01*
X0714315Y0400408D01*
X0713921D01*
X0714315D01*
X0714709Y0400014D01*
Y0399621D01*
X0714315Y0399227D01*
X0713528D01*
X0713134Y0399621D01*
X0715496D02*
X0715889Y0399227D01*
X0716676D01*
X0717070Y0399621D01*
Y0401195D01*
X0716676Y0401589D01*
X0715889D01*
X0715496Y0401195D01*
Y0400801D01*
X0715889Y0400408D01*
X0717070D01*
X0710773Y0405211D02*
Y0407573D01*
X0711953D01*
X0712347Y0407179D01*
Y0406392D01*
X0711953Y0405999D01*
X0710773D01*
X0711560D02*
X0712347Y0405211D01*
X0713134Y0407179D02*
X0713528Y0407573D01*
X0714315D01*
X0714709Y0407179D01*
Y0406786D01*
X0714315Y0406392D01*
X0713921D01*
X0714315D01*
X0714709Y0405999D01*
Y0405605D01*
X0714315Y0405211D01*
X0713528D01*
X0713134Y0405605D01*
X0715496Y0407573D02*
X0717070D01*
Y0407179D01*
X0715496Y0405605D01*
Y0405211D01*
X0809923Y0308988D02*
X0812284D01*
Y0307807D01*
X0811890Y0307414D01*
X0811103D01*
X0810710Y0307807D01*
Y0308988D01*
Y0308201D02*
X0809923Y0307414D01*
X0811890Y0306626D02*
X0812284Y0306233D01*
Y0305446D01*
X0811890Y0305052D01*
X0811497D01*
X0811103Y0305446D01*
Y0305839D01*
Y0305446D01*
X0810710Y0305052D01*
X0810316D01*
X0809923Y0305446D01*
Y0306233D01*
X0810316Y0306626D01*
X0812284Y0302691D02*
X0811890Y0303478D01*
X0811103Y0304265D01*
X0810316D01*
X0809923Y0303871D01*
Y0303084D01*
X0810316Y0302691D01*
X0810710D01*
X0811103Y0303084D01*
Y0304265D01*
X0745986Y0309460D02*
X0748347D01*
Y0308280D01*
X0747953Y0307886D01*
X0747166D01*
X0746773Y0308280D01*
Y0309460D01*
Y0308673D02*
X0745986Y0307886D01*
Y0305918D02*
X0748347D01*
X0747166Y0307099D01*
Y0305524D01*
X0748347Y0303163D02*
X0747953Y0303950D01*
X0747166Y0304737D01*
X0746379D01*
X0745986Y0304344D01*
Y0303557D01*
X0746379Y0303163D01*
X0746773D01*
X0747166Y0303557D01*
Y0304737D01*
X0396848Y0341300D02*
X0394486D01*
Y0342481D01*
X0394880Y0342875D01*
X0395667D01*
X0396060Y0342481D01*
Y0341300D01*
Y0342087D02*
X0396848Y0342875D01*
X0394486Y0345236D02*
X0394880Y0344449D01*
X0395667Y0343662D01*
X0396454D01*
X0396848Y0344055D01*
Y0344842D01*
X0396454Y0345236D01*
X0396060D01*
X0395667Y0344842D01*
Y0343662D01*
X0394880Y0346023D02*
X0394486Y0346417D01*
Y0347204D01*
X0394880Y0347597D01*
X0396454D01*
X0396848Y0347204D01*
Y0346417D01*
X0396454Y0346023D01*
X0394880D01*
X0396868Y0330269D02*
X0394507D01*
Y0331450D01*
X0394901Y0331843D01*
X0395688D01*
X0396081Y0331450D01*
Y0330269D01*
Y0331056D02*
X0396868Y0331843D01*
X0394507Y0334205D02*
Y0332631D01*
X0395688D01*
X0395294Y0333418D01*
Y0333811D01*
X0395688Y0334205D01*
X0396475D01*
X0396868Y0333811D01*
Y0333024D01*
X0396475Y0332631D01*
X0394901Y0334992D02*
X0394507Y0335386D01*
Y0336173D01*
X0394901Y0336566D01*
X0395294D01*
X0395688Y0336173D01*
X0396081Y0336566D01*
X0396475D01*
X0396868Y0336173D01*
Y0335386D01*
X0396475Y0334992D01*
X0396081D01*
X0395688Y0335386D01*
X0395294Y0334992D01*
X0394901D01*
X0395688Y0335386D02*
Y0336173D01*
X0387721Y0338931D02*
X0390082D01*
Y0337750D01*
X0389689Y0337356D01*
X0388901D01*
X0388508Y0337750D01*
Y0338931D01*
Y0338143D02*
X0387721Y0337356D01*
X0390082Y0334995D02*
Y0336569D01*
X0388901D01*
X0389295Y0335782D01*
Y0335388D01*
X0388901Y0334995D01*
X0388114D01*
X0387721Y0335388D01*
Y0336176D01*
X0388114Y0336569D01*
X0390082Y0332633D02*
Y0334208D01*
X0388901D01*
X0389295Y0333421D01*
Y0333027D01*
X0388901Y0332633D01*
X0388114D01*
X0387721Y0333027D01*
Y0333814D01*
X0388114Y0334208D01*
X0379900Y0338931D02*
X0382261D01*
Y0337750D01*
X0381868Y0337356D01*
X0381081D01*
X0380687Y0337750D01*
Y0338931D01*
Y0338143D02*
X0379900Y0337356D01*
X0382261Y0334995D02*
Y0336569D01*
X0381081D01*
X0381474Y0335782D01*
Y0335388D01*
X0381081Y0334995D01*
X0380293D01*
X0379900Y0335388D01*
Y0336176D01*
X0380293Y0336569D01*
X0379900Y0334208D02*
Y0333421D01*
Y0333814D01*
X0382261D01*
X0381868Y0334208D01*
X0373921Y0338931D02*
X0376283D01*
Y0337750D01*
X0375889Y0337356D01*
X0375102D01*
X0374708Y0337750D01*
Y0338931D01*
Y0338143D02*
X0373921Y0337356D01*
X0376283Y0334995D02*
Y0336569D01*
X0375102D01*
X0375495Y0335782D01*
Y0335388D01*
X0375102Y0334995D01*
X0374315D01*
X0373921Y0335388D01*
Y0336176D01*
X0374315Y0336569D01*
X0375889Y0334208D02*
X0376283Y0333814D01*
Y0333027D01*
X0375889Y0332633D01*
X0374315D01*
X0373921Y0333027D01*
Y0333814D01*
X0374315Y0334208D01*
X0375889D01*
X0387786Y0363053D02*
X0388179Y0362660D01*
X0388966D01*
X0389360Y0363053D01*
Y0364628D01*
X0388966Y0365021D01*
X0388179D01*
X0387786Y0364628D01*
X0385424Y0365021D02*
X0386998D01*
X0385424Y0363447D01*
Y0363053D01*
X0385818Y0362660D01*
X0386605D01*
X0386998Y0363053D01*
X0383063Y0365021D02*
X0384637D01*
X0383063Y0363447D01*
Y0363053D01*
X0383456Y0362660D01*
X0384243D01*
X0384637Y0363053D01*
X0389401Y0350117D02*
Y0352741D01*
X0388876Y0353265D01*
X0387827D01*
X0387302Y0352741D01*
Y0350117D01*
X0386252Y0353265D02*
X0385203D01*
X0385728D01*
Y0350117D01*
X0386252Y0350641D01*
X0381530Y0350117D02*
X0383629D01*
Y0351691D01*
X0382579Y0351166D01*
X0382054D01*
X0381530Y0351691D01*
Y0352741D01*
X0382054Y0353265D01*
X0383104D01*
X0383629Y0352741D01*
X0599308Y0414547D02*
Y0412185D01*
X0598127D01*
X0597734Y0412579D01*
Y0413366D01*
X0598127Y0413760D01*
X0599308D01*
X0598521D02*
X0597734Y0414547D01*
X0595372Y0412185D02*
X0596947D01*
Y0413366D01*
X0596160Y0412972D01*
X0595766D01*
X0595372Y0413366D01*
Y0414153D01*
X0595766Y0414547D01*
X0596553D01*
X0596947Y0414153D01*
X0593011Y0412185D02*
X0593798Y0412579D01*
X0594585Y0413366D01*
Y0414153D01*
X0594192Y0414547D01*
X0593404D01*
X0593011Y0414153D01*
Y0413760D01*
X0593404Y0413366D01*
X0594585D01*
X0586611Y0417204D02*
Y0414843D01*
X0585431D01*
X0585037Y0415237D01*
Y0416024D01*
X0585431Y0416417D01*
X0586611D01*
X0585824D02*
X0585037Y0417204D01*
X0582676Y0414843D02*
X0584250D01*
Y0416024D01*
X0583463Y0415630D01*
X0583069D01*
X0582676Y0416024D01*
Y0416811D01*
X0583069Y0417204D01*
X0583856D01*
X0584250Y0416811D01*
X0581888Y0415237D02*
X0581495Y0414843D01*
X0580708D01*
X0580314Y0415237D01*
Y0415630D01*
X0580708Y0416024D01*
X0581101D01*
X0580708D01*
X0580314Y0416417D01*
Y0416811D01*
X0580708Y0417204D01*
X0581495D01*
X0581888Y0416811D01*
X0813072Y0285838D02*
X0810711D01*
Y0287019D01*
X0811104Y0287413D01*
X0811891D01*
X0812285Y0287019D01*
Y0285838D01*
Y0286625D02*
X0813072Y0287413D01*
Y0289380D02*
X0810711D01*
X0811891Y0288200D01*
Y0289774D01*
X0811104Y0290561D02*
X0810711Y0290955D01*
Y0291742D01*
X0811104Y0292135D01*
X0812679D01*
X0813072Y0291742D01*
Y0290955D01*
X0812679Y0290561D01*
X0811104D01*
X0749135Y0286311D02*
X0746774D01*
Y0287491D01*
X0747167Y0287885D01*
X0747954D01*
X0748348Y0287491D01*
Y0286311D01*
Y0287098D02*
X0749135Y0287885D01*
Y0289853D02*
X0746774D01*
X0747954Y0288672D01*
Y0290246D01*
X0746774Y0291034D02*
Y0292608D01*
X0747167D01*
X0748741Y0291034D01*
X0749135D01*
X0704718Y0479650D02*
X0707080D01*
Y0478469D01*
X0706686Y0478076D01*
X0705899D01*
X0705505Y0478469D01*
Y0479650D01*
Y0478863D02*
X0704718Y0478076D01*
X0706686Y0477289D02*
X0707080Y0476895D01*
Y0476108D01*
X0706686Y0475714D01*
X0706293D01*
X0705899Y0476108D01*
Y0476502D01*
Y0476108D01*
X0705505Y0475714D01*
X0705112D01*
X0704718Y0476108D01*
Y0476895D01*
X0705112Y0477289D01*
X0704718Y0474927D02*
Y0474140D01*
Y0474534D01*
X0707080D01*
X0706686Y0474927D01*
X0586611Y0429212D02*
Y0426851D01*
X0585431D01*
X0585037Y0427244D01*
Y0428031D01*
X0585431Y0428425D01*
X0586611D01*
X0585824D02*
X0585037Y0429212D01*
X0584250Y0427244D02*
X0583856Y0426851D01*
X0583069D01*
X0582676Y0427244D01*
Y0427638D01*
X0583069Y0428031D01*
X0583463D01*
X0583069D01*
X0582676Y0428425D01*
Y0428819D01*
X0583069Y0429212D01*
X0583856D01*
X0584250Y0428819D01*
X0581888Y0427244D02*
X0581495Y0426851D01*
X0580708D01*
X0580314Y0427244D01*
Y0428819D01*
X0580708Y0429212D01*
X0581495D01*
X0581888Y0428819D01*
Y0427244D01*
X0741549Y0451428D02*
X0741155Y0451034D01*
Y0450247D01*
X0741549Y0449853D01*
X0743123D01*
X0743517Y0450247D01*
Y0451034D01*
X0743123Y0451428D01*
X0743517Y0452215D02*
Y0453002D01*
Y0452608D01*
X0741155D01*
X0741549Y0452215D01*
X0741155Y0455757D02*
Y0454183D01*
X0742336D01*
X0741943Y0454970D01*
Y0455364D01*
X0742336Y0455757D01*
X0743123D01*
X0743517Y0455364D01*
Y0454576D01*
X0743123Y0454183D01*
X0655576Y0523902D02*
X0658462Y0519572D01*
Y0523902D02*
X0655576Y0519572D01*
X0659905D02*
X0661348D01*
X0660627D01*
Y0523902D01*
X0659905Y0523180D01*
X0607434Y0493589D02*
Y0496213D01*
X0606910Y0496738D01*
X0605860D01*
X0605335Y0496213D01*
Y0493589D01*
X0602187Y0496738D02*
X0604286D01*
X0602187Y0494639D01*
Y0494114D01*
X0602711Y0493589D01*
X0603761D01*
X0604286Y0494114D01*
X0551716Y0494751D02*
Y0497374D01*
X0551191Y0497899D01*
X0550142D01*
X0549617Y0497374D01*
Y0494751D01*
X0548567Y0497899D02*
X0547518D01*
X0548042D01*
Y0494751D01*
X0548567Y0495275D01*
X0574451Y0519356D02*
Y0517257D01*
Y0518306D01*
X0571303D01*
Y0516207D02*
Y0515158D01*
Y0515683D01*
X0574451D01*
X0573926Y0516207D01*
X0723765Y0470950D02*
X0721403D01*
Y0472131D01*
X0721797Y0472525D01*
X0722584D01*
X0722977Y0472131D01*
Y0470950D01*
Y0471737D02*
X0723765Y0472525D01*
X0721797Y0473312D02*
X0721403Y0473705D01*
Y0474493D01*
X0721797Y0474886D01*
X0722190D01*
X0722584Y0474493D01*
Y0474099D01*
Y0474493D01*
X0722977Y0474886D01*
X0723371D01*
X0723765Y0474493D01*
Y0473705D01*
X0723371Y0473312D01*
X0723765Y0477247D02*
Y0475673D01*
X0722190Y0477247D01*
X0721797D01*
X0721403Y0476854D01*
Y0476067D01*
X0721797Y0475673D01*
X0714629Y0479612D02*
X0716991D01*
Y0478431D01*
X0716597Y0478038D01*
X0715810D01*
X0715416Y0478431D01*
Y0479612D01*
Y0478825D02*
X0714629Y0478038D01*
Y0475676D02*
Y0477250D01*
X0716203Y0475676D01*
X0716597D01*
X0716991Y0476070D01*
Y0476857D01*
X0716597Y0477250D01*
X0715023Y0474889D02*
X0714629Y0474495D01*
Y0473708D01*
X0715023Y0473315D01*
X0716597D01*
X0716991Y0473708D01*
Y0474495D01*
X0716597Y0474889D01*
X0716203D01*
X0715810Y0474495D01*
Y0473315D01*
X0719982Y0538903D02*
X0717620D01*
Y0540084D01*
X0718014Y0540478D01*
X0718801D01*
X0719194Y0540084D01*
Y0538903D01*
Y0539690D02*
X0719982Y0540478D01*
Y0542839D02*
Y0541265D01*
X0718407Y0542839D01*
X0718014D01*
X0717620Y0542445D01*
Y0541658D01*
X0718014Y0541265D01*
Y0543626D02*
X0717620Y0544020D01*
Y0544807D01*
X0718014Y0545200D01*
X0718407D01*
X0718801Y0544807D01*
X0719194Y0545200D01*
X0719588D01*
X0719982Y0544807D01*
Y0544020D01*
X0719588Y0543626D01*
X0719194D01*
X0718801Y0544020D01*
X0718407Y0543626D01*
X0718014D01*
X0718801Y0544020D02*
Y0544807D01*
X0735810Y0470950D02*
X0733449D01*
Y0472131D01*
X0733843Y0472525D01*
X0734630D01*
X0735023Y0472131D01*
Y0470950D01*
Y0471737D02*
X0735810Y0472525D01*
Y0474886D02*
Y0473312D01*
X0734236Y0474886D01*
X0733843D01*
X0733449Y0474493D01*
Y0473705D01*
X0733843Y0473312D01*
X0733449Y0475673D02*
Y0477247D01*
X0733843D01*
X0735417Y0475673D01*
X0735810D01*
X0729788Y0470950D02*
X0727427D01*
Y0472131D01*
X0727820Y0472525D01*
X0728608D01*
X0729001Y0472131D01*
Y0470950D01*
Y0471737D02*
X0729788Y0472525D01*
Y0474886D02*
Y0473312D01*
X0728214Y0474886D01*
X0727820D01*
X0727427Y0474493D01*
Y0473705D01*
X0727820Y0473312D01*
X0727427Y0477247D02*
X0727820Y0476460D01*
X0728608Y0475673D01*
X0729395D01*
X0729788Y0476067D01*
Y0476854D01*
X0729395Y0477247D01*
X0729001D01*
X0728608Y0476854D01*
Y0475673D01*
X0713991Y0538903D02*
X0711629D01*
Y0540084D01*
X0712023Y0540478D01*
X0712810D01*
X0713204Y0540084D01*
Y0538903D01*
Y0539690D02*
X0713991Y0540478D01*
Y0542839D02*
Y0541265D01*
X0712417Y0542839D01*
X0712023D01*
X0711629Y0542445D01*
Y0541658D01*
X0712023Y0541265D01*
X0711629Y0545200D02*
Y0543626D01*
X0712810D01*
X0712417Y0544413D01*
Y0544807D01*
X0712810Y0545200D01*
X0713597D01*
X0713991Y0544807D01*
Y0544020D01*
X0713597Y0543626D01*
X0701884Y0470989D02*
X0699522D01*
Y0472169D01*
X0699916Y0472563D01*
X0700703D01*
X0701096Y0472169D01*
Y0470989D01*
Y0471776D02*
X0701884Y0472563D01*
Y0474924D02*
Y0473350D01*
X0700309Y0474924D01*
X0699916D01*
X0699522Y0474531D01*
Y0473744D01*
X0699916Y0473350D01*
X0701884Y0476892D02*
X0699522D01*
X0700703Y0475712D01*
Y0477286D01*
X0695860Y0470989D02*
X0693499D01*
Y0472169D01*
X0693892Y0472563D01*
X0694679D01*
X0695073Y0472169D01*
Y0470989D01*
Y0471776D02*
X0695860Y0472563D01*
Y0474924D02*
Y0473350D01*
X0694286Y0474924D01*
X0693892D01*
X0693499Y0474531D01*
Y0473744D01*
X0693892Y0473350D01*
Y0475712D02*
X0693499Y0476105D01*
Y0476892D01*
X0693892Y0477286D01*
X0694286D01*
X0694679Y0476892D01*
Y0476499D01*
Y0476892D01*
X0695073Y0477286D01*
X0695466D01*
X0695860Y0476892D01*
Y0476105D01*
X0695466Y0475712D01*
X0689836Y0470989D02*
X0687475D01*
Y0472169D01*
X0687868Y0472563D01*
X0688656D01*
X0689049Y0472169D01*
Y0470989D01*
Y0471776D02*
X0689836Y0472563D01*
Y0474924D02*
Y0473350D01*
X0688262Y0474924D01*
X0687868D01*
X0687475Y0474531D01*
Y0473744D01*
X0687868Y0473350D01*
X0689836Y0475712D02*
Y0476499D01*
Y0476105D01*
X0687475D01*
X0687868Y0475712D01*
X0461907Y0637462D02*
Y0639823D01*
X0463087D01*
X0463481Y0639430D01*
Y0638642D01*
X0463087Y0638249D01*
X0461907D01*
X0462694D02*
X0463481Y0637462D01*
X0465842D02*
X0464268D01*
X0465842Y0639036D01*
Y0639430D01*
X0465449Y0639823D01*
X0464662D01*
X0464268Y0639430D01*
X0466630D02*
X0467023Y0639823D01*
X0467810D01*
X0468204Y0639430D01*
Y0637855D01*
X0467810Y0637462D01*
X0467023D01*
X0466630Y0637855D01*
Y0639430D01*
X0470568Y0634607D02*
Y0632246D01*
X0469387D01*
X0468994Y0632640D01*
Y0633427D01*
X0469387Y0633820D01*
X0470568D01*
X0469781D02*
X0468994Y0634607D01*
X0468207D02*
X0467419D01*
X0467813D01*
Y0632246D01*
X0468207Y0632640D01*
X0466239Y0634214D02*
X0465845Y0634607D01*
X0465058D01*
X0464664Y0634214D01*
Y0632640D01*
X0465058Y0632246D01*
X0465845D01*
X0466239Y0632640D01*
Y0633033D01*
X0465845Y0633427D01*
X0464664D01*
X0481592Y0640611D02*
Y0638250D01*
X0480411D01*
X0480017Y0638643D01*
Y0639431D01*
X0480411Y0639824D01*
X0481592D01*
X0480804D02*
X0480017Y0640611D01*
X0479230D02*
X0478443D01*
X0478837D01*
Y0638250D01*
X0479230Y0638643D01*
X0477262D02*
X0476869Y0638250D01*
X0476082D01*
X0475688Y0638643D01*
Y0639037D01*
X0476082Y0639431D01*
X0475688Y0639824D01*
Y0640218D01*
X0476082Y0640611D01*
X0476869D01*
X0477262Y0640218D01*
Y0639824D01*
X0476869Y0639431D01*
X0477262Y0639037D01*
Y0638643D01*
X0476869Y0639431D02*
X0476082D01*
X0481592Y0634607D02*
Y0632246D01*
X0480411D01*
X0480017Y0632640D01*
Y0633427D01*
X0480411Y0633820D01*
X0481592D01*
X0480804D02*
X0480017Y0634607D01*
X0479230D02*
X0478443D01*
X0478837D01*
Y0632246D01*
X0479230Y0632640D01*
X0477262Y0632246D02*
X0475688D01*
Y0632640D01*
X0477262Y0634214D01*
Y0634607D01*
X0537149Y0482053D02*
X0539510D01*
Y0480872D01*
X0539117Y0480478D01*
X0538330D01*
X0537936Y0480872D01*
Y0482053D01*
Y0481266D02*
X0537149Y0480478D01*
Y0479691D02*
Y0478904D01*
Y0479298D01*
X0539510D01*
X0539117Y0479691D01*
X0537149Y0476543D02*
X0539510D01*
X0538330Y0477723D01*
Y0476149D01*
X0557228Y0482053D02*
X0559589D01*
Y0480872D01*
X0559196Y0480478D01*
X0558408D01*
X0558015Y0480872D01*
Y0482053D01*
Y0481266D02*
X0557228Y0480478D01*
Y0479691D02*
Y0478904D01*
Y0479298D01*
X0559589D01*
X0559196Y0479691D01*
Y0477723D02*
X0559589Y0477330D01*
Y0476543D01*
X0559196Y0476149D01*
X0558802D01*
X0558408Y0476543D01*
Y0476936D01*
Y0476543D01*
X0558015Y0476149D01*
X0557621D01*
X0557228Y0476543D01*
Y0477330D01*
X0557621Y0477723D01*
X0524944Y0526147D02*
X0522583D01*
Y0527328D01*
X0522976Y0527722D01*
X0523764D01*
X0524157Y0527328D01*
Y0526147D01*
Y0526934D02*
X0524944Y0527722D01*
Y0528509D02*
Y0529296D01*
Y0528902D01*
X0522583D01*
X0522976Y0528509D01*
X0524944Y0532051D02*
Y0530477D01*
X0523370Y0532051D01*
X0522976D01*
X0522583Y0531657D01*
Y0530870D01*
X0522976Y0530477D01*
X0708007Y0538903D02*
X0705645D01*
Y0540084D01*
X0706039Y0540478D01*
X0706826D01*
X0707220Y0540084D01*
Y0538903D01*
Y0539690D02*
X0708007Y0540478D01*
Y0541265D02*
Y0542052D01*
Y0541658D01*
X0705645D01*
X0706039Y0541265D01*
X0708007Y0543232D02*
Y0544020D01*
Y0543626D01*
X0705645D01*
X0706039Y0543232D01*
X0582818Y0500950D02*
Y0503312D01*
X0583999D01*
X0584392Y0502918D01*
Y0502131D01*
X0583999Y0501737D01*
X0582818D01*
X0583605D02*
X0584392Y0500950D01*
X0585180D02*
X0585967D01*
X0585573D01*
Y0503312D01*
X0585180Y0502918D01*
X0587148D02*
X0587541Y0503312D01*
X0588328D01*
X0588722Y0502918D01*
Y0501344D01*
X0588328Y0500950D01*
X0587541D01*
X0587148Y0501344D01*
Y0502918D01*
X0582818Y0493076D02*
Y0495438D01*
X0583999D01*
X0584392Y0495044D01*
Y0494257D01*
X0583999Y0493863D01*
X0582818D01*
X0583605D02*
X0584392Y0493076D01*
X0585180Y0493470D02*
X0585573Y0493076D01*
X0586360D01*
X0586754Y0493470D01*
Y0495044D01*
X0586360Y0495438D01*
X0585573D01*
X0585180Y0495044D01*
Y0494651D01*
X0585573Y0494257D01*
X0586754D01*
X0582818Y0472998D02*
Y0475359D01*
X0583999D01*
X0584392Y0474965D01*
Y0474178D01*
X0583999Y0473785D01*
X0582818D01*
X0583605D02*
X0584392Y0472998D01*
X0585180Y0474965D02*
X0585573Y0475359D01*
X0586360D01*
X0586754Y0474965D01*
Y0474572D01*
X0586360Y0474178D01*
X0586754Y0473785D01*
Y0473391D01*
X0586360Y0472998D01*
X0585573D01*
X0585180Y0473391D01*
Y0473785D01*
X0585573Y0474178D01*
X0585180Y0474572D01*
Y0474965D01*
X0585573Y0474178D02*
X0586360D01*
X0546991Y0473391D02*
X0544630D01*
Y0474572D01*
X0545024Y0474966D01*
X0545811D01*
X0546204Y0474572D01*
Y0473391D01*
Y0474179D02*
X0546991Y0474966D01*
X0544630Y0475753D02*
Y0477327D01*
X0545024D01*
X0546598Y0475753D01*
X0546991D01*
X0702022Y0538903D02*
X0699661D01*
Y0540084D01*
X0700055Y0540478D01*
X0700842D01*
X0701235Y0540084D01*
Y0538903D01*
Y0539690D02*
X0702022Y0540478D01*
X0699661Y0542839D02*
X0700055Y0542052D01*
X0700842Y0541265D01*
X0701629D01*
X0702022Y0541658D01*
Y0542445D01*
X0701629Y0542839D01*
X0701235D01*
X0700842Y0542445D01*
Y0541265D01*
X0595023Y0524179D02*
Y0521817D01*
X0593842D01*
X0593449Y0522211D01*
Y0522998D01*
X0593842Y0523392D01*
X0595023D01*
X0594236D02*
X0593449Y0524179D01*
X0591087Y0521817D02*
X0592662D01*
Y0522998D01*
X0591874Y0522604D01*
X0591481D01*
X0591087Y0522998D01*
Y0523785D01*
X0591481Y0524179D01*
X0592268D01*
X0592662Y0523785D01*
X0582818Y0479691D02*
Y0482052D01*
X0583999D01*
X0584392Y0481658D01*
Y0480871D01*
X0583999Y0480478D01*
X0582818D01*
X0583605D02*
X0584392Y0479691D01*
X0586360D02*
Y0482052D01*
X0585180Y0480871D01*
X0586754D01*
X0550535Y0482053D02*
X0552896D01*
Y0480872D01*
X0552503Y0480478D01*
X0551716D01*
X0551322Y0480872D01*
Y0482053D01*
Y0481266D02*
X0550535Y0480478D01*
X0552503Y0479691D02*
X0552896Y0479298D01*
Y0478511D01*
X0552503Y0478117D01*
X0552109D01*
X0551716Y0478511D01*
Y0478904D01*
Y0478511D01*
X0551322Y0478117D01*
X0550928D01*
X0550535Y0478511D01*
Y0479298D01*
X0550928Y0479691D01*
X0531639Y0501344D02*
Y0498983D01*
X0530458D01*
X0530064Y0499376D01*
Y0500163D01*
X0530458Y0500557D01*
X0531639D01*
X0530852D02*
X0530064Y0501344D01*
X0527703D02*
X0529277D01*
X0527703Y0499770D01*
Y0499376D01*
X0528096Y0498983D01*
X0528884D01*
X0529277Y0499376D01*
X0531637Y0508037D02*
Y0505676D01*
X0530456D01*
X0530063Y0506069D01*
Y0506856D01*
X0530456Y0507250D01*
X0531637D01*
X0530850D02*
X0530063Y0508037D01*
X0529276D02*
X0528488D01*
X0528882D01*
Y0505676D01*
X0529276Y0506069D01*
X0601310Y0539731D02*
X0603409D01*
Y0541305D01*
X0602359D01*
X0603409D01*
Y0542879D01*
X0600260D02*
X0599211D01*
X0599735D01*
Y0539731D01*
X0600260Y0540256D01*
X0592661Y0513550D02*
Y0518273D01*
X0590299D01*
X0589512Y0517486D01*
Y0514337D01*
X0590299Y0513550D01*
X0592661D01*
X0584789D02*
X0586364Y0514337D01*
X0587938Y0515912D01*
Y0517486D01*
X0587151Y0518273D01*
X0585576D01*
X0584789Y0517486D01*
Y0516699D01*
X0585576Y0515912D01*
X0587938D01*
X0538921Y0531660D02*
Y0534809D01*
X0537346D01*
X0536822Y0534284D01*
Y0532185D01*
X0537346Y0531660D01*
X0538921D01*
X0533673D02*
X0535772D01*
Y0533234D01*
X0534723Y0532710D01*
X0534198D01*
X0533673Y0533234D01*
Y0534284D01*
X0534198Y0534809D01*
X0535247D01*
X0535772Y0534284D01*
X0561165Y0531857D02*
Y0535006D01*
X0559590D01*
X0559066Y0534481D01*
Y0532382D01*
X0559590Y0531857D01*
X0561165D01*
X0556442Y0535006D02*
Y0531857D01*
X0558016Y0533431D01*
X0555917D01*
X0578683Y0539730D02*
X0575535D01*
Y0538156D01*
X0576059Y0537631D01*
X0578159D01*
X0578683Y0538156D01*
Y0539730D01*
X0578159Y0536581D02*
X0578683Y0536057D01*
Y0535007D01*
X0578159Y0534482D01*
X0577634D01*
X0577109Y0535007D01*
Y0535532D01*
Y0535007D01*
X0576584Y0534482D01*
X0576059D01*
X0575535Y0535007D01*
Y0536057D01*
X0576059Y0536581D01*
X0529865Y0512762D02*
Y0515124D01*
X0528685D01*
X0528291Y0514730D01*
Y0513156D01*
X0528685Y0512762D01*
X0529865D01*
X0525930Y0515124D02*
X0527504D01*
X0525930Y0513549D01*
Y0513156D01*
X0526323Y0512762D01*
X0527110D01*
X0527504Y0513156D01*
X0601599Y0517683D02*
X0606322D01*
Y0520044D01*
X0605535Y0520831D01*
X0602386D01*
X0601599Y0520044D01*
Y0517683D01*
X0606322Y0522405D02*
Y0523980D01*
Y0523193D01*
X0601599D01*
X0602386Y0522405D01*
X0751877Y0492236D02*
X0751221Y0491580D01*
Y0490268D01*
X0751877Y0489612D01*
X0754501D01*
X0755157Y0490268D01*
Y0491580D01*
X0754501Y0492236D01*
X0751221Y0495515D02*
Y0494204D01*
X0751877Y0493547D01*
X0754501D01*
X0755157Y0494204D01*
Y0495515D01*
X0754501Y0496171D01*
X0751877D01*
X0751221Y0495515D01*
X0755157Y0497483D02*
X0751221D01*
X0755157Y0500107D01*
X0751221D01*
X0755157Y0504043D02*
Y0501419D01*
X0752533Y0504043D01*
X0751877D01*
X0751221Y0503387D01*
Y0502075D01*
X0751877Y0501419D01*
X0636760Y0470453D02*
X0636366Y0470060D01*
Y0469273D01*
X0636760Y0468879D01*
X0638334D01*
X0638728Y0469273D01*
Y0470060D01*
X0638334Y0470453D01*
X0638728Y0471241D02*
Y0472028D01*
Y0471634D01*
X0636366D01*
X0636760Y0471241D01*
X0638728Y0474389D02*
X0636366D01*
X0637547Y0473208D01*
Y0474783D01*
X0619153Y0474217D02*
X0618760Y0473823D01*
Y0473036D01*
X0619153Y0472642D01*
X0620728D01*
X0621121Y0473036D01*
Y0473823D01*
X0620728Y0474217D01*
X0621121Y0475004D02*
Y0475791D01*
Y0475397D01*
X0618760D01*
X0619153Y0475004D01*
Y0476972D02*
X0618760Y0477365D01*
Y0478152D01*
X0619153Y0478546D01*
X0619547D01*
X0619941Y0478152D01*
Y0477759D01*
Y0478152D01*
X0620334Y0478546D01*
X0620728D01*
X0621121Y0478152D01*
Y0477365D01*
X0620728Y0476972D01*
X0585072Y0489024D02*
X0584678Y0489418D01*
X0583891D01*
X0583497Y0489024D01*
Y0487450D01*
X0583891Y0487057D01*
X0584678D01*
X0585072Y0487450D01*
X0585859Y0487057D02*
X0586646D01*
X0586252D01*
Y0489418D01*
X0585859Y0489024D01*
X0589401Y0487057D02*
X0587827D01*
X0589401Y0488631D01*
Y0489024D01*
X0589007Y0489418D01*
X0588220D01*
X0587827Y0489024D01*
X0614357Y0493185D02*
X0614750Y0493579D01*
Y0494366D01*
X0614357Y0494759D01*
X0612783D01*
X0612389Y0494366D01*
Y0493579D01*
X0612783Y0493185D01*
X0612389Y0492398D02*
Y0491611D01*
Y0492004D01*
X0614750D01*
X0614357Y0492398D01*
X0612389Y0490430D02*
Y0489643D01*
Y0490036D01*
X0614750D01*
X0614357Y0490430D01*
X0600614Y0475933D02*
X0600089Y0476457D01*
X0599040D01*
X0598515Y0475933D01*
Y0473833D01*
X0599040Y0473309D01*
X0600089D01*
X0600614Y0473833D01*
X0601664Y0473309D02*
X0602713D01*
X0602188D01*
Y0476457D01*
X0601664Y0475933D01*
X0604287D02*
X0604812Y0476457D01*
X0605862D01*
X0606387Y0475933D01*
Y0473833D01*
X0605862Y0473309D01*
X0604812D01*
X0604287Y0473833D01*
Y0475933D01*
X0603199Y0481791D02*
X0603724Y0481266D01*
X0604774D01*
X0605299Y0481791D01*
Y0483890D01*
X0604774Y0484415D01*
X0603724D01*
X0603199Y0483890D01*
X0602150D02*
X0601625Y0484415D01*
X0600576D01*
X0600051Y0483890D01*
Y0481791D01*
X0600576Y0481266D01*
X0601625D01*
X0602150Y0481791D01*
Y0482316D01*
X0601625Y0482841D01*
X0600051D01*
X0618618Y0513968D02*
X0618093Y0514493D01*
X0617044D01*
X0616519Y0513968D01*
Y0511869D01*
X0617044Y0511344D01*
X0618093D01*
X0618618Y0511869D01*
X0619668Y0513968D02*
X0620192Y0514493D01*
X0621242D01*
X0621767Y0513968D01*
Y0513443D01*
X0621242Y0512918D01*
X0621767Y0512394D01*
Y0511869D01*
X0621242Y0511344D01*
X0620192D01*
X0619668Y0511869D01*
Y0512394D01*
X0620192Y0512918D01*
X0619668Y0513443D01*
Y0513968D01*
X0620192Y0512918D02*
X0621242D01*
X0618854Y0522236D02*
X0618329Y0522760D01*
X0617280D01*
X0616755Y0522236D01*
Y0520136D01*
X0617280Y0519612D01*
X0618329D01*
X0618854Y0520136D01*
X0619904Y0522760D02*
X0622003D01*
Y0522236D01*
X0619904Y0520136D01*
Y0519612D01*
X0615193Y0530306D02*
X0614668Y0530831D01*
X0613619D01*
X0613094Y0530306D01*
Y0528207D01*
X0613619Y0527683D01*
X0614668D01*
X0615193Y0528207D01*
X0618341Y0530831D02*
X0617292Y0530306D01*
X0616242Y0529257D01*
Y0528207D01*
X0616767Y0527683D01*
X0617817D01*
X0618341Y0528207D01*
Y0528732D01*
X0617817Y0529257D01*
X0616242D01*
X0567726Y0478969D02*
X0568250Y0479494D01*
Y0480544D01*
X0567726Y0481069D01*
X0565626D01*
X0565102Y0480544D01*
Y0479494D01*
X0565626Y0478969D01*
X0568250Y0475821D02*
Y0477920D01*
X0566676D01*
X0567201Y0476870D01*
Y0476346D01*
X0566676Y0475821D01*
X0565626D01*
X0565102Y0476346D01*
Y0477395D01*
X0565626Y0477920D01*
X0576781Y0478773D02*
X0577305Y0479297D01*
Y0480347D01*
X0576781Y0480872D01*
X0574682D01*
X0574157Y0480347D01*
Y0479297D01*
X0574682Y0478773D01*
X0574157Y0476149D02*
X0577305D01*
X0575731Y0477723D01*
Y0475624D01*
X0559705Y0511472D02*
X0559311Y0511078D01*
Y0510291D01*
X0559705Y0509897D01*
X0561279D01*
X0561672Y0510291D01*
Y0511078D01*
X0561279Y0511472D01*
X0559705Y0512259D02*
X0559311Y0512652D01*
Y0513439D01*
X0559705Y0513833D01*
X0560098D01*
X0560492Y0513439D01*
Y0513046D01*
Y0513439D01*
X0560885Y0513833D01*
X0561279D01*
X0561672Y0513439D01*
Y0512652D01*
X0561279Y0512259D01*
X0551437Y0515015D02*
X0551043Y0514621D01*
Y0513834D01*
X0551437Y0513441D01*
X0553011D01*
X0553405Y0513834D01*
Y0514621D01*
X0553011Y0515015D01*
X0553405Y0517376D02*
Y0515802D01*
X0551830Y0517376D01*
X0551437D01*
X0551043Y0516983D01*
Y0516196D01*
X0551437Y0515802D01*
X0545481Y0515977D02*
X0546006Y0516502D01*
Y0517552D01*
X0545481Y0518076D01*
X0543382D01*
X0542858Y0517552D01*
Y0516502D01*
X0543382Y0515977D01*
X0542858Y0514928D02*
Y0513878D01*
Y0514403D01*
X0546006D01*
X0545481Y0514928D01*
X0591480Y0510793D02*
Y0508431D01*
X0590299D01*
X0589905Y0508825D01*
Y0509612D01*
X0590299Y0510006D01*
X0591480D01*
X0590693D02*
X0589905Y0510793D01*
X0589118D02*
X0588331D01*
X0588725D01*
Y0508431D01*
X0589118Y0508825D01*
X0585576Y0508431D02*
X0587150D01*
Y0509612D01*
X0586363Y0509219D01*
X0585970D01*
X0585576Y0509612D01*
Y0510399D01*
X0585970Y0510793D01*
X0586757D01*
X0587150Y0510399D01*
X0673142Y0520954D02*
X0672749Y0521347D01*
X0671962D01*
X0671568Y0520954D01*
Y0519379D01*
X0671962Y0518986D01*
X0672749D01*
X0673142Y0519379D01*
X0673930Y0518986D02*
X0674717D01*
X0674323D01*
Y0521347D01*
X0673930Y0520954D01*
X0675898Y0521347D02*
X0677472D01*
Y0520954D01*
X0675898Y0519379D01*
Y0518986D01*
X0673142Y0531938D02*
X0672749Y0532332D01*
X0671962D01*
X0671568Y0531938D01*
Y0530364D01*
X0671962Y0529970D01*
X0672749D01*
X0673142Y0530364D01*
X0673930Y0529970D02*
X0674717D01*
X0674323D01*
Y0532332D01*
X0673930Y0531938D01*
X0675898D02*
X0676291Y0532332D01*
X0677078D01*
X0677472Y0531938D01*
Y0531544D01*
X0677078Y0531151D01*
X0677472Y0530757D01*
Y0530364D01*
X0677078Y0529970D01*
X0676291D01*
X0675898Y0530364D01*
Y0530757D01*
X0676291Y0531151D01*
X0675898Y0531544D01*
Y0531938D01*
X0676291Y0531151D02*
X0677078D01*
X0673064Y0526347D02*
X0672670Y0526741D01*
X0671883D01*
X0671489Y0526347D01*
Y0524773D01*
X0671883Y0524379D01*
X0672670D01*
X0673064Y0524773D01*
X0673851Y0524379D02*
X0674638D01*
X0674244D01*
Y0526741D01*
X0673851Y0526347D01*
X0675819Y0524773D02*
X0676212Y0524379D01*
X0677000D01*
X0677393Y0524773D01*
Y0526347D01*
X0677000Y0526741D01*
X0676212D01*
X0675819Y0526347D01*
Y0525954D01*
X0676212Y0525560D01*
X0677393D01*
X0640733Y0547604D02*
X0643094D01*
Y0546423D01*
X0642701Y0546030D01*
X0641914D01*
X0641520Y0546423D01*
Y0547604D01*
Y0546817D02*
X0640733Y0546030D01*
Y0545243D02*
Y0544455D01*
Y0544849D01*
X0643094D01*
X0642701Y0545243D01*
X0643094Y0541700D02*
X0642701Y0542487D01*
X0641914Y0543275D01*
X0641127D01*
X0640733Y0542881D01*
Y0542094D01*
X0641127Y0541700D01*
X0641520D01*
X0641914Y0542094D01*
Y0543275D01*
X0588054Y0527761D02*
Y0530123D01*
X0589235D01*
X0589629Y0529729D01*
Y0528942D01*
X0589235Y0528548D01*
X0588054D01*
X0588842D02*
X0589629Y0527761D01*
X0591990D02*
X0590416D01*
X0591990Y0529336D01*
Y0529729D01*
X0591597Y0530123D01*
X0590809D01*
X0590416Y0529729D01*
X0594352Y0527761D02*
X0592777D01*
X0594352Y0529336D01*
Y0529729D01*
X0593958Y0530123D01*
X0593171D01*
X0592777Y0529729D01*
X0680702Y0479650D02*
X0683064D01*
Y0478469D01*
X0682670Y0478076D01*
X0681883D01*
X0681490Y0478469D01*
Y0479650D01*
Y0478863D02*
X0680702Y0478076D01*
X0682670Y0477289D02*
X0683064Y0476895D01*
Y0476108D01*
X0682670Y0475714D01*
X0682277D01*
X0681883Y0476108D01*
Y0476502D01*
Y0476108D01*
X0681490Y0475714D01*
X0681096D01*
X0680702Y0476108D01*
Y0476895D01*
X0681096Y0477289D01*
X0682670Y0474927D02*
X0683064Y0474534D01*
Y0473746D01*
X0682670Y0473353D01*
X0682277D01*
X0681883Y0473746D01*
Y0474140D01*
Y0473746D01*
X0681490Y0473353D01*
X0681096D01*
X0680702Y0473746D01*
Y0474534D01*
X0681096Y0474927D01*
X0612421Y0500330D02*
X0612028Y0499936D01*
Y0499149D01*
X0612421Y0498756D01*
X0613996D01*
X0614389Y0499149D01*
Y0499936D01*
X0613996Y0500330D01*
X0614389Y0502691D02*
Y0501117D01*
X0612815Y0502691D01*
X0612421D01*
X0612028Y0502298D01*
Y0501510D01*
X0612421Y0501117D01*
Y0503478D02*
X0612028Y0503872D01*
Y0504659D01*
X0612421Y0505053D01*
X0613996D01*
X0614389Y0504659D01*
Y0503872D01*
X0613996Y0503478D01*
X0612421D01*
X0743419Y0508223D02*
X0743025Y0507830D01*
Y0507043D01*
X0743419Y0506649D01*
X0744993D01*
X0745387Y0507043D01*
Y0507830D01*
X0744993Y0508223D01*
X0745387Y0510585D02*
Y0509011D01*
X0743813Y0510585D01*
X0743419D01*
X0743025Y0510191D01*
Y0509404D01*
X0743419Y0509011D01*
X0743025Y0512946D02*
X0743419Y0512159D01*
X0744206Y0511372D01*
X0744993D01*
X0745387Y0511766D01*
Y0512553D01*
X0744993Y0512946D01*
X0744600D01*
X0744206Y0512553D01*
Y0511372D01*
X0647151Y0538431D02*
X0649513D01*
Y0539611D01*
X0649119Y0540005D01*
X0647545D01*
X0647151Y0539611D01*
Y0538431D01*
Y0540792D02*
Y0542366D01*
X0647545D01*
X0649119Y0540792D01*
X0649513D01*
X0750359Y0455932D02*
X0749703Y0455276D01*
Y0453964D01*
X0750359Y0453308D01*
X0751015D01*
X0751671Y0453964D01*
Y0455276D01*
X0752327Y0455932D01*
X0752983D01*
X0753639Y0455276D01*
Y0453964D01*
X0752983Y0453308D01*
X0749703Y0457244D02*
X0753639D01*
X0752327Y0458556D01*
X0753639Y0459868D01*
X0749703D01*
X0753639Y0461180D02*
Y0462492D01*
Y0461836D01*
X0749703D01*
X0750359Y0461180D01*
X0689745Y0545543D02*
X0690138Y0545936D01*
Y0546724D01*
X0689745Y0547117D01*
X0688170D01*
X0687777Y0546724D01*
Y0545936D01*
X0688170Y0545543D01*
X0687777Y0544756D02*
Y0543969D01*
Y0544362D01*
X0690138D01*
X0689745Y0544756D01*
X0690138Y0541214D02*
X0689745Y0542001D01*
X0688957Y0542788D01*
X0688170D01*
X0687777Y0542394D01*
Y0541607D01*
X0688170Y0541214D01*
X0688564D01*
X0688957Y0541607D01*
Y0542788D01*
D11*
X0626491Y0472407D02*
G03*
X0626491Y0472407I-0000326J0000000D01*
G01*
X0542661Y0530478D02*
G03*
X0542661Y0530478I-0000394J0000000D01*
G01*
X0608881Y0531069D02*
G03*
X0608881Y0531069I-0000394J0000000D01*
G01*
X0591266Y0376997D02*
Y0389233D01*
X0603442D01*
Y0376997D02*
Y0389233D01*
X0591266Y0376997D02*
X0603442D01*
X0771812Y0285365D02*
X0802914D01*
X0771812D02*
Y0309775D01*
X0802914D01*
Y0285365D02*
Y0309775D01*
X0707835Y0285838D02*
X0738937D01*
X0707835D02*
Y0310247D01*
X0738937D01*
Y0285838D02*
Y0310247D01*
X0781139Y0646695D02*
X0806139D01*
X0781139D02*
Y0659694D01*
X0806139D01*
Y0646695D02*
Y0659694D01*
X0634570Y0331511D02*
Y0443323D01*
Y0331511D02*
X0744413D01*
Y0443323D01*
X0634570D02*
X0744413D01*
X0798720Y0337919D02*
Y0407407D01*
X0819232D01*
Y0337919D02*
Y0407407D01*
X0798720Y0337919D02*
X0819232D01*
X0294521Y0512453D02*
Y0522296D01*
X0241867Y0335596D02*
X0271789D01*
X0241867Y0314139D02*
X0271789D01*
Y0335596D01*
X0241867Y0314139D02*
Y0335596D01*
X0733047Y0446647D02*
Y0466647D01*
X0533047Y0446647D02*
Y0466647D01*
X0733047D01*
X0533047Y0446647D02*
X0733047D01*
X0798040Y0652071D02*
X0798565Y0651546D01*
X0799614D01*
X0800139Y0652071D01*
Y0654170D01*
X0799614Y0654695D01*
X0798565D01*
X0798040Y0654170D01*
X0795416Y0651546D02*
X0796465D01*
X0796990Y0652071D01*
Y0654170D01*
X0796465Y0654695D01*
X0795416D01*
X0794891Y0654170D01*
Y0652071D01*
X0795416Y0651546D01*
X0793842Y0654695D02*
Y0651546D01*
X0791743Y0654695D01*
Y0651546D01*
X0789119Y0654695D02*
Y0651546D01*
X0790693Y0653120D01*
X0788594D01*
X0630810Y0493433D02*
Y0499336D01*
X0626875D01*
X0620971D02*
X0624907D01*
X0620971Y0495400D01*
Y0494417D01*
X0621955Y0493433D01*
X0623923D01*
X0624907Y0494417D01*
X0575338Y0493472D02*
Y0499376D01*
X0571402D01*
X0569434D02*
X0567466D01*
X0568450D01*
Y0493472D01*
X0569434Y0494456D01*
X0631868Y0454129D02*
X0632852Y0453145D01*
X0634819D01*
X0635803Y0454129D01*
Y0458064D01*
X0634819Y0459048D01*
X0632852D01*
X0631868Y0458064D01*
X0626948Y0453145D02*
X0628916D01*
X0629900Y0454129D01*
Y0458064D01*
X0628916Y0459048D01*
X0626948D01*
X0625964Y0458064D01*
Y0454129D01*
X0626948Y0453145D01*
X0623996Y0459048D02*
Y0453145D01*
X0620060Y0459048D01*
Y0453145D01*
X0614157D02*
X0618092D01*
Y0456097D01*
X0616125Y0455113D01*
X0615141D01*
X0614157Y0456097D01*
Y0458064D01*
X0615141Y0459048D01*
X0617109D01*
X0618092Y0458064D01*
D12*
X0593449Y0387265D02*
G03*
X0593449Y0387265I-0000440J0000000D01*
G01*
X0596430Y0428299D02*
G03*
X0596430Y0428299I-0000500J0000000D01*
G01*
X0396336Y0538962D02*
G03*
X0396336Y0538962I-0000394J0000000D01*
G01*
X0780842Y0393127D02*
G03*
X0780842Y0393127I-0000500J0000000D01*
G01*
X0380901Y0349265D02*
G03*
X0380901Y0349265I-0000500J0000000D01*
G01*
X0795632Y0295013D02*
X0796616Y0294029D01*
X0798584D01*
X0799568Y0295013D01*
Y0295997D01*
X0798584Y0296981D01*
X0796616D01*
X0795632Y0297965D01*
Y0298949D01*
X0796616Y0299933D01*
X0798584D01*
X0799568Y0298949D01*
X0793665Y0294029D02*
Y0299933D01*
X0791697Y0297965D01*
X0789729Y0299933D01*
Y0294029D01*
X0783825Y0299933D02*
X0787761D01*
X0783825Y0295997D01*
Y0295013D01*
X0784809Y0294029D01*
X0786777D01*
X0787761Y0295013D01*
X0731656Y0295485D02*
X0732640Y0294502D01*
X0734608D01*
X0735592Y0295485D01*
Y0296469D01*
X0734608Y0297453D01*
X0732640D01*
X0731656Y0298437D01*
Y0299421D01*
X0732640Y0300405D01*
X0734608D01*
X0735592Y0299421D01*
X0729688Y0294502D02*
Y0300405D01*
X0727720Y0298437D01*
X0725752Y0300405D01*
Y0294502D01*
X0723785Y0295485D02*
X0722801Y0294502D01*
X0720833D01*
X0719849Y0295485D01*
Y0296469D01*
X0720833Y0297453D01*
X0721817D01*
X0720833D01*
X0719849Y0298437D01*
Y0299421D01*
X0720833Y0300405D01*
X0722801D01*
X0723785Y0299421D01*
X0810021Y0353784D02*
X0809037Y0352800D01*
Y0350832D01*
X0810021Y0349848D01*
X0813957D01*
X0814940Y0350832D01*
Y0352800D01*
X0813957Y0353784D01*
X0809037Y0358703D02*
Y0356735D01*
X0810021Y0355752D01*
X0813957D01*
X0814940Y0356735D01*
Y0358703D01*
X0813957Y0359687D01*
X0810021D01*
X0809037Y0358703D01*
X0814940Y0361655D02*
X0809037D01*
X0814940Y0365591D01*
X0809037D01*
X0810021Y0367559D02*
X0809037Y0368543D01*
Y0370511D01*
X0810021Y0371495D01*
X0811005D01*
X0811989Y0370511D01*
X0812973Y0371495D01*
X0813957D01*
X0814940Y0370511D01*
Y0368543D01*
X0813957Y0367559D01*
X0812973D01*
X0811989Y0368543D01*
X0811005Y0367559D01*
X0810021D01*
X0811989Y0368543D02*
Y0370511D01*
D13*
X0689905Y0529632D02*
G03*
X0689905Y0529632I-0000394J0000000D01*
G01*
X0391336Y0485478D02*
G03*
X0391336Y0485478I-0000139J0000000D01*
G01*
X0595023Y0513549D02*
G03*
X0595023Y0513549I-0000394J0000000D01*
G01*
X0533606Y0510793D02*
Y0517092D01*
X0534787Y0510793D02*
Y0517092D01*
X0521795D02*
X0534787D01*
X0521795Y0510793D02*
Y0517092D01*
Y0510793D02*
X0534787D01*
X0262179Y0322625D02*
X0263179Y0321625D01*
X0265178D01*
X0266178Y0322625D01*
Y0326624D01*
X0265178Y0327624D01*
X0263179D01*
X0262179Y0326624D01*
X0257181Y0321625D02*
X0259180D01*
X0260180Y0322625D01*
Y0326624D01*
X0259180Y0327624D01*
X0257181D01*
X0256182Y0326624D01*
Y0322625D01*
X0257181Y0321625D01*
X0254182Y0327624D02*
Y0321625D01*
X0250183Y0327624D01*
Y0321625D01*
X0248184Y0327624D02*
X0246185D01*
X0247184D01*
Y0321625D01*
X0248184Y0322625D01*
D16*
X0547779Y0538352D02*
G03*
X0547779Y0538352I-0000394J0000000D01*
G01*
X0572582Y0525753D02*
G03*
X0572582Y0525753I-0000394J0000000D01*
G01*
D17*
X0625971Y0476146D02*
Y0473523D01*
X0626496Y0472998D01*
X0627545D01*
X0628070Y0473523D01*
Y0476146D01*
X0629120Y0475622D02*
X0629644Y0476146D01*
X0630694D01*
X0631219Y0475622D01*
Y0475097D01*
X0630694Y0474572D01*
X0630169D01*
X0630694D01*
X0631219Y0474047D01*
Y0473523D01*
X0630694Y0472998D01*
X0629644D01*
X0629120Y0473523D01*
X0598732Y0386551D02*
X0596436D01*
X0595977Y0386092D01*
Y0385174D01*
X0596436Y0384715D01*
X0598732D01*
X0595977Y0383796D02*
Y0382878D01*
Y0383337D01*
X0598732D01*
X0598273Y0383796D01*
X0598732Y0379664D02*
X0598273Y0380582D01*
X0597354Y0381500D01*
X0596436D01*
X0595977Y0381041D01*
Y0380123D01*
X0596436Y0379664D01*
X0596895D01*
X0597354Y0380123D01*
Y0381500D01*
X0304891Y0513764D02*
X0303579Y0512452D01*
Y0509828D01*
X0304891Y0508516D01*
X0310138D01*
X0311450Y0509828D01*
Y0512452D01*
X0310138Y0513764D01*
X0303579Y0520324D02*
Y0517700D01*
X0304891Y0516388D01*
X0310138D01*
X0311450Y0517700D01*
Y0520324D01*
X0310138Y0521635D01*
X0304891D01*
X0303579Y0520324D01*
X0311450Y0524259D02*
X0303579D01*
X0311450Y0529507D01*
X0303579D01*
Y0532131D02*
Y0537379D01*
X0304891D01*
X0310138Y0532131D01*
X0311450D01*
X0662775Y0507758D02*
X0660152D01*
X0659627Y0507233D01*
Y0506183D01*
X0660152Y0505658D01*
X0662775D01*
Y0502510D02*
Y0504609D01*
X0661201D01*
X0661726Y0503559D01*
Y0503035D01*
X0661201Y0502510D01*
X0660152D01*
X0659627Y0503035D01*
Y0504084D01*
X0660152Y0504609D01*
D155*
X0738047Y0463647D02*
X0736381D01*
X0737214D01*
Y0458648D01*
X0738047Y0459481D01*
X0734715Y0453647D02*
X0738047D01*
X0734715Y0450315D01*
Y0449481D01*
X0735548Y0448648D01*
X0737214D01*
X0738047Y0449481D01*
X0530047Y0459481D02*
X0529214Y0458648D01*
X0527548D01*
X0526715Y0459481D01*
Y0460315D01*
X0527548Y0461148D01*
X0528381D01*
X0527548D01*
X0526715Y0461981D01*
Y0462814D01*
X0527548Y0463647D01*
X0529214D01*
X0530047Y0462814D01*
X0525049D02*
X0524216Y0463647D01*
X0522550D01*
X0521717Y0462814D01*
Y0459481D01*
X0522550Y0458648D01*
X0524216D01*
X0525049Y0459481D01*
Y0460315D01*
X0524216Y0461148D01*
X0521717D01*
X0527548Y0453647D02*
Y0448648D01*
X0530047Y0451148D01*
X0526715D01*
X0525049Y0449481D02*
X0524216Y0448648D01*
X0522550D01*
X0521717Y0449481D01*
Y0452814D01*
X0522550Y0453647D01*
X0524216D01*
X0525049Y0452814D01*
Y0449481D01*
D160*
X0863900Y0643340D02*
G03*
X0863900Y0643340I-0001245J0000000D01*
G01*
D197*
X0728270Y0440252D02*
X0725646D01*
X0725121Y0439727D01*
Y0438677D01*
X0725646Y0438153D01*
X0728270D01*
X0727745Y0437103D02*
X0728270Y0436578D01*
Y0435529D01*
X0727745Y0435004D01*
X0727220D01*
X0726696Y0435529D01*
X0726171Y0435004D01*
X0725646D01*
X0725121Y0435529D01*
Y0436578D01*
X0725646Y0437103D01*
X0726171D01*
X0726696Y0436578D01*
X0727220Y0437103D01*
X0727745D01*
X0726696Y0436578D02*
Y0435529D01*
D198*
X0399584Y0532761D02*
Y0530793D01*
X0399977Y0530399D01*
X0400765D01*
X0401158Y0530793D01*
Y0532761D01*
X0401945D02*
X0403519D01*
Y0532367D01*
X0401945Y0530793D01*
Y0530399D01*
X0837301Y0628155D02*
X0839662D01*
Y0629729D01*
X0837695Y0630516D02*
X0837301Y0630910D01*
Y0631697D01*
X0837695Y0632091D01*
X0838088D01*
X0838482Y0631697D01*
Y0631304D01*
Y0631697D01*
X0838875Y0632091D01*
X0839269D01*
X0839662Y0631697D01*
Y0630910D01*
X0839269Y0630516D01*
X0833876Y0633380D02*
X0834269Y0632986D01*
X0835056D01*
X0835450Y0633380D01*
Y0634954D01*
X0835056Y0635348D01*
X0834269D01*
X0833876Y0634954D01*
X0831514Y0635348D02*
X0833088D01*
X0831514Y0633773D01*
Y0633380D01*
X0831908Y0632986D01*
X0832695D01*
X0833088Y0633380D01*
X0830727Y0635348D02*
X0829940D01*
X0830333D01*
Y0632986D01*
X0830727Y0633380D01*
X0825648Y0628076D02*
X0828009D01*
Y0629651D01*
Y0631618D02*
X0825648D01*
X0826828Y0630438D01*
Y0632012D01*
X0870233Y0628281D02*
X0871808D01*
X0872595Y0627493D01*
X0871808Y0626706D01*
X0870233D01*
X0871414D01*
Y0628281D01*
X0870233Y0625919D02*
Y0625132D01*
Y0625526D01*
X0872595D01*
X0872201Y0625919D01*
X0836395Y0644677D02*
Y0642316D01*
X0837969D01*
X0840331Y0644677D02*
X0838756D01*
Y0643497D01*
X0839543Y0643890D01*
X0839937D01*
X0840331Y0643497D01*
Y0642710D01*
X0839937Y0642316D01*
X0839150D01*
X0838756Y0642710D01*
D199*
X0625692Y0504327D02*
D03*
X0571795Y0504563D02*
D03*
M02*
