G04*
G04 #@! TF.GenerationSoftware,Altium Limited,Altium Designer,20.2.5 (213)*
G04*
G04 Layer_Color=8421504*
%FSAX25Y25*%
%MOIN*%
G70*
G04*
G04 #@! TF.SameCoordinates,38458E12-344E-42E4-8E5B-5AAD2516AE5C*
G04*
G04*
G04 #@! TF.FilePolarity,Positive*
G04*
G01*
G75*
%ADD28R,0.01929X0.03740*%
%ADD29R,0.03780X0.01968*%
%ADD30R,0.03740X0.01929*%
%ADD31R,0.03740X0.01929*%
%ADD32R,0.03543X0.02362*%
%ADD33C,0.00039*%
%ADD34R,0.03150X0.03150*%
%ADD35R,0.05709X0.01181*%
%ADD36R,0.05906X0.05906*%
G04:AMPARAMS|DCode=37|XSize=59.06mil|YSize=59.06mil|CornerRadius=5.91mil|HoleSize=0mil|Usage=FLASHONLY|Rotation=0.000|XOffset=0mil|YOffset=0mil|HoleType=Round|Shape=RoundedRectangle|*
%AMROUNDEDRECTD37*
21,1,0.05906,0.04724,0,0,0.0*
21,1,0.04724,0.05906,0,0,0.0*
1,1,0.01181,0.02362,-0.02362*
1,1,0.01181,-0.02362,-0.02362*
1,1,0.01181,-0.02362,0.02362*
1,1,0.01181,0.02362,0.02362*
%
%ADD37ROUNDEDRECTD37*%
%ADD38R,0.02362X0.03543*%
%ADD39R,0.03150X0.03150*%
%ADD40R,0.04331X0.02362*%
%ADD41R,0.06299X0.03150*%
%ADD42O,0.03543X0.00984*%
%ADD43R,0.01968X0.05512*%
%ADD44R,0.03937X0.02362*%
%ADD45R,0.01929X0.01772*%
%ADD46R,0.02244X0.02441*%
%ADD47R,0.03937X0.03543*%
%ADD48R,0.05118X0.03543*%
%ADD49R,0.03543X0.05118*%
%ADD50R,0.01575X0.05512*%
%ADD51R,0.04724X0.05512*%
%ADD52R,0.08661X0.04134*%
%ADD53R,0.08504X0.07008*%
%ADD54R,0.05512X0.03937*%
%ADD55O,0.00984X0.03543*%
%ADD56R,0.09449X0.09449*%
G04:AMPARAMS|DCode=57|XSize=9.84mil|YSize=23.62mil|CornerRadius=2.46mil|HoleSize=0mil|Usage=FLASHONLY|Rotation=90.000|XOffset=0mil|YOffset=0mil|HoleType=Round|Shape=RoundedRectangle|*
%AMROUNDEDRECTD57*
21,1,0.00984,0.01870,0,0,90.0*
21,1,0.00492,0.02362,0,0,90.0*
1,1,0.00492,0.00935,0.00246*
1,1,0.00492,0.00935,-0.00246*
1,1,0.00492,-0.00935,-0.00246*
1,1,0.00492,-0.00935,0.00246*
%
%ADD57ROUNDEDRECTD57*%
G04:AMPARAMS|DCode=58|XSize=9.84mil|YSize=66.93mil|CornerRadius=2.46mil|HoleSize=0mil|Usage=FLASHONLY|Rotation=90.000|XOffset=0mil|YOffset=0mil|HoleType=Round|Shape=RoundedRectangle|*
%AMROUNDEDRECTD58*
21,1,0.00984,0.06201,0,0,90.0*
21,1,0.00492,0.06693,0,0,90.0*
1,1,0.00492,0.03100,0.00246*
1,1,0.00492,0.03100,-0.00246*
1,1,0.00492,-0.03100,-0.00246*
1,1,0.00492,-0.03100,0.00246*
%
%ADD58ROUNDEDRECTD58*%
G04:AMPARAMS|DCode=59|XSize=9.84mil|YSize=23.62mil|CornerRadius=2.46mil|HoleSize=0mil|Usage=FLASHONLY|Rotation=0.000|XOffset=0mil|YOffset=0mil|HoleType=Round|Shape=RoundedRectangle|*
%AMROUNDEDRECTD59*
21,1,0.00984,0.01870,0,0,0.0*
21,1,0.00492,0.02362,0,0,0.0*
1,1,0.00492,0.00246,-0.00935*
1,1,0.00492,-0.00246,-0.00935*
1,1,0.00492,-0.00246,0.00935*
1,1,0.00492,0.00246,0.00935*
%
%ADD59ROUNDEDRECTD59*%
%ADD60R,0.01181X0.02756*%
%ADD61R,0.01968X0.01968*%
%ADD62R,0.05512X0.06693*%
%ADD63R,0.06693X0.05512*%
%ADD64R,0.02362X0.04331*%
%ADD65R,0.02441X0.02244*%
%ADD66R,0.03543X0.03937*%
%ADD67R,0.02362X0.04921*%
%ADD68R,0.11811X0.08268*%
%ADD69R,0.07087X0.05118*%
%ADD70R,0.04331X0.07480*%
G04:AMPARAMS|DCode=71|XSize=9.84mil|YSize=27.56mil|CornerRadius=2.46mil|HoleSize=0mil|Usage=FLASHONLY|Rotation=90.000|XOffset=0mil|YOffset=0mil|HoleType=Round|Shape=RoundedRectangle|*
%AMROUNDEDRECTD71*
21,1,0.00984,0.02264,0,0,90.0*
21,1,0.00492,0.02756,0,0,90.0*
1,1,0.00492,0.01132,0.00246*
1,1,0.00492,0.01132,-0.00246*
1,1,0.00492,-0.01132,-0.00246*
1,1,0.00492,-0.01132,0.00246*
%
%ADD71ROUNDEDRECTD71*%
G04:AMPARAMS|DCode=72|XSize=9.84mil|YSize=53.15mil|CornerRadius=2.46mil|HoleSize=0mil|Usage=FLASHONLY|Rotation=90.000|XOffset=0mil|YOffset=0mil|HoleType=Round|Shape=RoundedRectangle|*
%AMROUNDEDRECTD72*
21,1,0.00984,0.04823,0,0,90.0*
21,1,0.00492,0.05315,0,0,90.0*
1,1,0.00492,0.02411,0.00246*
1,1,0.00492,0.02411,-0.00246*
1,1,0.00492,-0.02411,-0.00246*
1,1,0.00492,-0.02411,0.00246*
%
%ADD72ROUNDEDRECTD72*%
%ADD73R,0.09449X0.06299*%
%ADD74R,0.06102X0.13583*%
%ADD75R,0.02756X0.01772*%
%ADD76R,0.03543X0.03740*%
%ADD77R,0.06299X0.05906*%
%ADD78R,0.05906X0.06299*%
%ADD79R,0.03937X0.03937*%
%ADD80R,0.02244X0.04921*%
G36*
X0632956Y0477032D02*
X0632956Y0476737D01*
X0632956Y0473293D01*
X0626264Y0473293D01*
X0625278Y0474277D01*
X0625279Y0476742D01*
X0625280Y0477034D01*
X0632956Y0477032D01*
D02*
G37*
D28*
X0730318Y0528588D02*
D03*
X0727129D02*
D03*
X0723980D02*
D03*
X0720830D02*
D03*
X0717680D02*
D03*
X0714531D02*
D03*
X0711381D02*
D03*
X0708271D02*
D03*
X0705122D02*
D03*
X0701972D02*
D03*
X0698822D02*
D03*
X0695633Y0528549D02*
D03*
X0730476Y0488549D02*
D03*
X0727169D02*
D03*
X0723980D02*
D03*
X0720830D02*
D03*
X0717680D02*
D03*
X0714531D02*
D03*
X0711381D02*
D03*
X0708232D02*
D03*
X0705122D02*
D03*
X0701972D02*
D03*
X0698783D02*
D03*
X0695633D02*
D03*
D29*
X0734747Y0491206D02*
D03*
Y0494356D02*
D03*
Y0497506D02*
D03*
Y0500655D02*
D03*
Y0503805D02*
D03*
Y0506954D02*
D03*
Y0510104D02*
D03*
Y0513253D02*
D03*
Y0516403D02*
D03*
Y0519553D02*
D03*
Y0522702D02*
D03*
Y0525852D02*
D03*
X0691204Y0525891D02*
D03*
D30*
X0691184Y0491226D02*
D03*
Y0494376D02*
D03*
Y0497525D02*
D03*
Y0500675D02*
D03*
Y0503825D02*
D03*
Y0506974D02*
D03*
Y0510123D02*
D03*
Y0513273D02*
D03*
Y0519572D02*
D03*
Y0522761D02*
D03*
D31*
Y0516423D02*
D03*
D32*
X0631493Y0525257D02*
D03*
Y0531163D02*
D03*
X0706432Y0540281D02*
D03*
X0734235Y0478234D02*
D03*
X0708709Y0611625D02*
D03*
X0700448Y0540281D02*
D03*
X0728213Y0478234D02*
D03*
X0717292Y0611621D02*
D03*
X0682277Y0472367D02*
D03*
X0523369Y0527525D02*
D03*
X0558803Y0480675D02*
D03*
X0538724D02*
D03*
X0722190Y0472328D02*
D03*
X0747560Y0293594D02*
D03*
X0811497Y0293122D02*
D03*
X0381475Y0331647D02*
D03*
X0269426Y0270950D02*
D03*
Y0276856D02*
D03*
X0717292Y0617527D02*
D03*
X0708709Y0617530D02*
D03*
X0811497Y0301704D02*
D03*
Y0307610D02*
D03*
X0747560Y0302177D02*
D03*
Y0308082D02*
D03*
X0395273Y0348584D02*
D03*
Y0342678D02*
D03*
X0395294Y0337553D02*
D03*
Y0331647D02*
D03*
X0389296Y0331647D02*
D03*
Y0337553D02*
D03*
X0381475D02*
D03*
X0375496Y0331647D02*
D03*
Y0337553D02*
D03*
X0811497Y0287216D02*
D03*
X0747560Y0287689D02*
D03*
X0706293Y0472367D02*
D03*
Y0478272D02*
D03*
X0722190Y0478234D02*
D03*
X0716204Y0472328D02*
D03*
Y0478234D02*
D03*
X0718407Y0546187D02*
D03*
Y0540281D02*
D03*
X0734235Y0472328D02*
D03*
X0728213D02*
D03*
X0712416Y0546187D02*
D03*
Y0540281D02*
D03*
X0700309Y0478272D02*
D03*
Y0472367D02*
D03*
X0694285Y0478272D02*
D03*
Y0472367D02*
D03*
X0688262Y0478272D02*
D03*
Y0472367D02*
D03*
X0538724Y0474769D02*
D03*
X0558803D02*
D03*
X0523369Y0533431D02*
D03*
X0706432Y0546187D02*
D03*
X0545417Y0480675D02*
D03*
Y0474769D02*
D03*
X0700448Y0546187D02*
D03*
X0552110Y0474769D02*
D03*
Y0480675D02*
D03*
X0642308Y0540320D02*
D03*
Y0546226D02*
D03*
X0682277Y0478272D02*
D03*
D33*
X0788639Y0650695D02*
D03*
Y0655694D02*
D03*
X0793639Y0650695D02*
D03*
Y0655694D02*
D03*
X0798639Y0650695D02*
D03*
Y0655694D02*
D03*
D34*
X0580607Y0386281D02*
D03*
Y0380375D02*
D03*
X0575096Y0386281D02*
D03*
Y0380375D02*
D03*
X0688777Y0540414D02*
D03*
Y0546320D02*
D03*
X0648331Y0539612D02*
D03*
X0744387Y0507446D02*
D03*
X0613389Y0499553D02*
D03*
X0552405Y0520143D02*
D03*
X0613389Y0493962D02*
D03*
X0620121Y0473440D02*
D03*
X0637728Y0475582D02*
D03*
X0742517Y0456556D02*
D03*
X0407618Y0492368D02*
D03*
X0415922Y0534533D02*
D03*
X0413088Y0492383D02*
D03*
Y0486477D02*
D03*
X0415922Y0528627D02*
D03*
X0407618Y0486462D02*
D03*
X0742517Y0450651D02*
D03*
X0637728Y0469676D02*
D03*
X0620121Y0479345D02*
D03*
X0613389Y0488057D02*
D03*
X0560673Y0516600D02*
D03*
Y0510695D02*
D03*
X0552405Y0514238D02*
D03*
X0613389Y0505458D02*
D03*
X0744387Y0513352D02*
D03*
X0648331Y0545911D02*
D03*
D35*
X0606001Y0387068D02*
D03*
Y0385100D02*
D03*
Y0383131D02*
D03*
Y0381163D02*
D03*
Y0379194D02*
D03*
X0588678D02*
D03*
Y0381163D02*
D03*
Y0383131D02*
D03*
Y0385100D02*
D03*
Y0387068D02*
D03*
D36*
X0722826Y0498706D02*
D03*
X0712984D02*
D03*
X0703043D02*
D03*
X0722826Y0508549D02*
D03*
X0712984D02*
D03*
X0703141D02*
D03*
X0722826Y0518391D02*
D03*
X0712984Y0518391D02*
D03*
D37*
X0703141Y0518391D02*
D03*
D38*
X0585233Y0421633D02*
D03*
X0579328D02*
D03*
X0585233Y0427637D02*
D03*
X0585233Y0415629D02*
D03*
X0712151Y0382770D02*
D03*
Y0376747D02*
D03*
Y0370763D02*
D03*
Y0364778D02*
D03*
X0718048Y0420793D02*
D03*
X0579328Y0415629D02*
D03*
X0761437Y0384376D02*
D03*
X0590102Y0509218D02*
D03*
X0530261Y0499769D02*
D03*
X0584196Y0474572D02*
D03*
Y0502525D02*
D03*
X0469190Y0639037D02*
D03*
X0712151Y0400802D02*
D03*
Y0394778D02*
D03*
X0761437Y0392722D02*
D03*
X0579328Y0427637D02*
D03*
X0592025Y0412972D02*
D03*
X0424781Y0492446D02*
D03*
X0418875D02*
D03*
Y0486462D02*
D03*
X0424781D02*
D03*
X0712143Y0420793D02*
D03*
X0718048Y0414809D02*
D03*
X0712143D02*
D03*
X0761438Y0398712D02*
D03*
X0767344D02*
D03*
X0767342Y0392722D02*
D03*
X0767342Y0384376D02*
D03*
X0761437Y0378352D02*
D03*
X0767342D02*
D03*
X0718056Y0364778D02*
D03*
Y0370763D02*
D03*
Y0376747D02*
D03*
Y0382770D02*
D03*
X0718056Y0388794D02*
D03*
X0712151D02*
D03*
X0718056Y0394778D02*
D03*
Y0400802D02*
D03*
Y0406786D02*
D03*
X0712151D02*
D03*
X0597930Y0412972D02*
D03*
X0463284Y0639037D02*
D03*
X0463284Y0633033D02*
D03*
X0469190D02*
D03*
X0474308Y0639037D02*
D03*
X0480214D02*
D03*
X0474308Y0633033D02*
D03*
X0480214D02*
D03*
X0590102Y0502525D02*
D03*
Y0494651D02*
D03*
X0584196D02*
D03*
X0590102Y0474572D02*
D03*
X0587740Y0522604D02*
D03*
X0593645D02*
D03*
X0590102Y0481265D02*
D03*
X0584196D02*
D03*
X0524355Y0499769D02*
D03*
X0524354Y0506462D02*
D03*
X0530259D02*
D03*
X0584196Y0509218D02*
D03*
X0595338Y0529336D02*
D03*
X0589432D02*
D03*
D39*
X0388580Y0369548D02*
D03*
X0382674D02*
D03*
X0672287Y0525380D02*
D03*
X0672366Y0530970D02*
D03*
X0672366Y0519986D02*
D03*
X0584295Y0488057D02*
D03*
X0382657Y0364021D02*
D03*
X0388563D02*
D03*
X0530850Y0513942D02*
D03*
X0524550D02*
D03*
X0590200Y0488057D02*
D03*
X0678271Y0519986D02*
D03*
X0678271Y0530970D02*
D03*
X0678192Y0525380D02*
D03*
D40*
X0592615Y0427539D02*
D03*
Y0423799D02*
D03*
Y0420059D02*
D03*
X0603245D02*
D03*
Y0423799D02*
D03*
Y0427539D02*
D03*
X0777027Y0388628D02*
D03*
X0787657Y0384887D02*
D03*
Y0388628D02*
D03*
X0777027Y0392368D02*
D03*
Y0384887D02*
D03*
X0787657Y0392368D02*
D03*
D41*
X0800492Y0389789D02*
D03*
Y0350419D02*
D03*
Y0384868D02*
D03*
Y0379946D02*
D03*
Y0394710D02*
D03*
Y0375025D02*
D03*
Y0355340D02*
D03*
Y0370104D02*
D03*
Y0365183D02*
D03*
Y0360261D02*
D03*
D42*
X0541775Y0493667D02*
D03*
Y0491698D02*
D03*
Y0499572D02*
D03*
X0556932D02*
D03*
Y0501541D02*
D03*
Y0497604D02*
D03*
Y0495635D02*
D03*
Y0493667D02*
D03*
Y0491698D02*
D03*
X0541775Y0495635D02*
D03*
Y0497604D02*
D03*
Y0501541D02*
D03*
D43*
X0659847Y0495399D02*
D03*
X0657288D02*
D03*
Y0513116D02*
D03*
X0664965D02*
D03*
X0662406D02*
D03*
X0659847D02*
D03*
X0664965Y0495399D02*
D03*
X0662406D02*
D03*
D44*
X0396040Y0535616D02*
D03*
Y0528135D02*
D03*
Y0531876D02*
D03*
X0406867Y0528135D02*
D03*
Y0535616D02*
D03*
D45*
X0390902Y0493254D02*
D03*
Y0490695D02*
D03*
X0398539Y0488135D02*
D03*
X0390902Y0485576D02*
D03*
Y0488135D02*
D03*
X0398539Y0490695D02*
D03*
Y0485576D02*
D03*
Y0493254D02*
D03*
D46*
X0837300Y0643497D02*
D03*
D47*
X0755922Y0450663D02*
D03*
X0749623D02*
D03*
Y0466804D02*
D03*
X0755922D02*
D03*
D48*
X0544629Y0520045D02*
D03*
X0575732Y0474769D02*
D03*
X0566677D02*
D03*
Y0482250D02*
D03*
X0575732D02*
D03*
X0544629Y0512565D02*
D03*
D49*
X0622740Y0529257D02*
D03*
X0622661Y0521187D02*
D03*
X0622621Y0513116D02*
D03*
X0599196Y0482840D02*
D03*
X0599275Y0474809D02*
D03*
X0606755D02*
D03*
X0606676Y0482840D02*
D03*
X0615141Y0513116D02*
D03*
X0615180Y0521187D02*
D03*
X0615259Y0529257D02*
D03*
D50*
X0251710Y0314828D02*
D03*
X0261946D02*
D03*
X0254269D02*
D03*
X0256828D02*
D03*
X0259387D02*
D03*
D51*
X0244229Y0315714D02*
D03*
X0269426D02*
D03*
D52*
X0754476Y0499750D02*
D03*
Y0488135D02*
D03*
D53*
X0604157Y0512565D02*
D03*
Y0528313D02*
D03*
D54*
X0577306Y0520045D02*
D03*
Y0512565D02*
D03*
X0568645Y0516305D02*
D03*
D55*
X0546401Y0489041D02*
D03*
X0548369D02*
D03*
X0544432Y0504198D02*
D03*
X0546401D02*
D03*
X0548369D02*
D03*
X0550338D02*
D03*
X0552306D02*
D03*
X0554275D02*
D03*
Y0489041D02*
D03*
X0552306D02*
D03*
X0550338D02*
D03*
X0544432D02*
D03*
D56*
X0549354Y0496620D02*
D03*
D57*
X0598871Y0493391D02*
D03*
Y0495360D02*
D03*
Y0497328D02*
D03*
Y0499297D02*
D03*
D58*
X0605761Y0496344D02*
D03*
D59*
X0600446Y0502643D02*
D03*
X0602415D02*
D03*
X0604383D02*
D03*
X0606352D02*
D03*
Y0490045D02*
D03*
X0604383D02*
D03*
X0602415D02*
D03*
X0600446D02*
D03*
D60*
X0626165Y0471029D02*
D03*
Y0479297D02*
D03*
X0628133D02*
D03*
X0630102D02*
D03*
X0632070D02*
D03*
Y0471029D02*
D03*
X0630102D02*
D03*
X0628133D02*
D03*
D61*
X0629117Y0475163D02*
D03*
D62*
X0380985Y0381381D02*
D03*
X0403426D02*
D03*
X0410906D02*
D03*
Y0433350D02*
D03*
X0380985D02*
D03*
X0388465D02*
D03*
X0395946D02*
D03*
X0403426D02*
D03*
X0395946Y0381381D02*
D03*
X0388465D02*
D03*
D63*
X0421930Y0392405D02*
D03*
Y0422326D02*
D03*
X0369961D02*
D03*
Y0392405D02*
D03*
Y0399885D02*
D03*
Y0407366D02*
D03*
Y0414846D02*
D03*
X0421930D02*
D03*
Y0407366D02*
D03*
Y0399885D02*
D03*
D64*
X0384901Y0356580D02*
D03*
X0381161Y0345950D02*
D03*
X0384901D02*
D03*
X0388641D02*
D03*
Y0356580D02*
D03*
X0381161D02*
D03*
D65*
X0826828Y0628982D02*
D03*
X0838481Y0629061D02*
D03*
Y0632761D02*
D03*
X0826828Y0632683D02*
D03*
D66*
X0276702Y0277013D02*
D03*
X0292844D02*
D03*
Y0270714D02*
D03*
X0276702D02*
D03*
D67*
X0830804Y0634068D02*
D03*
X0834584D02*
D03*
D68*
X0811909Y0340380D02*
D03*
Y0404750D02*
D03*
D69*
X0855174Y0643537D02*
D03*
Y0634088D02*
D03*
Y0616765D02*
D03*
Y0603773D02*
D03*
X0889033Y0643537D02*
D03*
Y0603773D02*
D03*
Y0616765D02*
D03*
D70*
X0655772Y0521541D02*
D03*
X0665615D02*
D03*
D71*
X0605367Y0490734D02*
D03*
Y0501954D02*
D03*
D72*
X0606450Y0498313D02*
D03*
Y0494376D02*
D03*
D73*
X0625692Y0503864D02*
D03*
Y0490478D02*
D03*
X0571795Y0504100D02*
D03*
Y0490714D02*
D03*
D74*
X0609314Y0541108D02*
D03*
X0593566D02*
D03*
D75*
X0583803Y0515911D02*
D03*
X0593645D02*
D03*
D76*
X0529472Y0533234D02*
D03*
X0543251D02*
D03*
D77*
X0550043Y0533234D02*
D03*
X0566775D02*
D03*
D78*
X0577306Y0528411D02*
D03*
Y0545143D02*
D03*
D79*
X0748570Y0493942D02*
D03*
D80*
X0841001Y0643497D02*
D03*
M02*
