G04*
G04 #@! TF.GenerationSoftware,Altium Limited,Altium Designer,20.2.5 (213)*
G04*
G04 Layer_Color=16711935*
%FSAX25Y25*%
%MOIN*%
G70*
G04*
G04 #@! TF.SameCoordinates,38458E12-344E-42E4-8E5B-5AAD2516AE5C*
G04*
G04*
G04 #@! TF.FilePolarity,Positive*
G04*
G01*
G75*
%ADD10C,0.00394*%
%ADD11C,0.00787*%
%ADD13C,0.01000*%
%ADD194C,0.00050*%
%ADD195C,0.00039*%
%ADD196C,0.00600*%
D10*
X0252246Y0591371D02*
G03*
X0252349Y0587434I0000034J-0001969D01*
G01*
X0254283Y0587434D02*
G03*
X0254180Y0591371I-0000034J0001969D01*
G01*
X0252254Y0610662D02*
G03*
X0252357Y0606726I0000034J-0001969D01*
G01*
X0254303Y0606726D02*
G03*
X0254200Y0610662I-0000034J0001969D01*
G01*
X0262340Y0597415D02*
G03*
X0266276Y0597519I0001969J0000034D01*
G01*
X0266277Y0599472D02*
G03*
X0262340Y0599369I-0001969J-0000034D01*
G01*
X0762346Y0551344D02*
G03*
X0750535Y0563155I-0011811J0000000D01*
G01*
Y0445045D02*
G03*
X0762346Y0456856I0000000J0011811D01*
G01*
X0506440D02*
G03*
X0518251Y0445045I0011811J0000000D01*
G01*
Y0563155D02*
G03*
X0506440Y0551344I0000000J-0011811D01*
G01*
Y0456856D02*
G03*
X0518251Y0445045I0011811J0000000D01*
G01*
X0750535D02*
G03*
X0762346Y0456856I0000000J0011811D01*
G01*
Y0551344D02*
G03*
X0750535Y0563155I-0011811J0000000D01*
G01*
X0252261Y0591371D02*
X0254190D01*
X0252340Y0587434D02*
X0254269D01*
X0252269Y0610663D02*
X0254210D01*
X0252347Y0606726D02*
X0254289D01*
X0262340Y0597430D02*
Y0599379D01*
X0266277Y0597509D02*
Y0599458D01*
X0517661Y0563155D02*
X0750535D01*
X0506440Y0456856D02*
Y0551344D01*
X0518251Y0445045D02*
X0750535Y0445045D01*
X0762346Y0456856D02*
Y0551344D01*
Y0456856D02*
Y0551344D01*
X0518251Y0445045D02*
X0750535Y0445045D01*
X0506440Y0456856D02*
Y0551344D01*
X0517661Y0563155D02*
X0750535D01*
X0747031Y0563234D02*
X0762505D01*
Y0549889D02*
Y0563234D01*
D11*
X0253875Y0583596D02*
X0250727D01*
Y0582021D01*
X0251251Y0581496D01*
X0252301D01*
X0252826Y0582021D01*
Y0583596D01*
X0250727Y0580447D02*
Y0578348D01*
X0251251D01*
X0253350Y0580447D01*
X0253875D01*
D13*
X0243540Y0609481D02*
X0246198D01*
X0243540D02*
X0246198D01*
X0243540Y0565781D02*
Y0609481D01*
Y0565781D02*
X0263127Y0565879D01*
Y0591666D01*
X0263226Y0605052D02*
Y0609383D01*
X0260666D02*
X0263226D01*
X0949769Y0231552D02*
X0951769Y0225552D01*
X0953769Y0231552D01*
X0951769Y0669480D02*
X0953769Y0663480D01*
X0949769D02*
X0951769Y0669480D01*
Y0225552D02*
Y0428321D01*
Y0463511D02*
Y0669480D01*
X0866854Y0225552D02*
X0952769D01*
X0857880Y0669480D02*
X0952769D01*
X0229918Y0213544D02*
X0235918Y0215544D01*
X0229918Y0213544D02*
X0235918Y0211544D01*
X0918899D02*
X0924899Y0213544D01*
X0918899Y0215544D02*
X0924899Y0213544D01*
X0229918D02*
X0557714D01*
X0593903D02*
X0924899D01*
X0229918Y0212544D02*
Y0299632D01*
X0924899Y0212544D02*
Y0293527D01*
D194*
X0837057Y0415418D02*
G03*
X0840994Y0411481I0003937J0000000D01*
G01*
Y0596717D02*
G03*
X0837057Y0592780I0000000J-0003937D01*
G01*
X0297917Y0669454D02*
G03*
X0229946Y0601482I0000000J-0067971D01*
G01*
Y0566049D02*
G03*
X0233883Y0562112I0003937J0000000D01*
G01*
X0289001Y0558175D02*
G03*
X0285064Y0562112I-0003937J0000000D01*
G01*
Y0331889D02*
G03*
X0289001Y0335826I0000000J0003937D01*
G01*
X0233883Y0331889D02*
G03*
X0229946Y0327952I0000000J-0003937D01*
G01*
Y0292519D02*
G03*
X0284042Y0225972I0067979J0000000D01*
G01*
X0284042Y0225972D02*
G03*
X0304059Y0239047I0003457J0016568D01*
G01*
X0850739D02*
G03*
X0870756Y0225972I0016560J0003494D01*
G01*
X0897174Y0253325D02*
G03*
X0897174Y0253325I-0005906J0000000D01*
G01*
X0269435D02*
G03*
X0269435Y0253325I-0005906J0000000D01*
G01*
X0767348Y0581236D02*
G03*
X0767348Y0581236I-0003937J0000000D01*
G01*
X0601994Y0362732D02*
G03*
X0601994Y0362732I-0003937J0000000D01*
G01*
Y0581236D02*
G03*
X0601994Y0581236I-0003937J0000000D01*
G01*
X0684671D02*
G03*
X0684671Y0581236I-0003937J0000000D01*
G01*
Y0362732D02*
G03*
X0684671Y0362732I-0003937J0000000D01*
G01*
X0767348D02*
G03*
X0767348Y0362732I-0003937J0000000D01*
G01*
X0353962Y0581236D02*
G03*
X0353962Y0581236I-0003937J0000000D01*
G01*
Y0362732D02*
G03*
X0353962Y0362732I-0003937J0000000D01*
G01*
X0436639D02*
G03*
X0436639Y0362732I-0003937J0000000D01*
G01*
Y0581236D02*
G03*
X0436639Y0581236I-0003937J0000000D01*
G01*
X0519316D02*
G03*
X0519316Y0581236I-0003937J0000000D01*
G01*
Y0362732D02*
G03*
X0519316Y0362732I-0003937J0000000D01*
G01*
X0766560Y0613913D02*
G03*
X0766560Y0613913I-0003150J0000000D01*
G01*
X0683883D02*
G03*
X0683883Y0613913I-0003150J0000000D01*
G01*
X0601206D02*
G03*
X0601206Y0613913I-0003150J0000000D01*
G01*
X0518529D02*
G03*
X0518529Y0613913I-0003150J0000000D01*
G01*
X0435852D02*
G03*
X0435852Y0613913I-0003150J0000000D01*
G01*
X0353175D02*
G03*
X0353175Y0613913I-0003150J0000000D01*
G01*
X0766560Y0330055D02*
G03*
X0766560Y0330055I-0003150J0000000D01*
G01*
X0683883D02*
G03*
X0683883Y0330055I-0003150J0000000D01*
G01*
X0601206D02*
G03*
X0601206Y0330055I-0003150J0000000D01*
G01*
X0518529D02*
G03*
X0518529Y0330055I-0003150J0000000D01*
G01*
X0435852D02*
G03*
X0435852Y0330055I-0003150J0000000D01*
G01*
X0353175D02*
G03*
X0353175Y0330055I-0003150J0000000D01*
G01*
X0526600Y0639926D02*
G03*
X0526600Y0639926I-0007283J0000000D01*
G01*
X0754946D02*
G03*
X0754946Y0639926I-0007283J0000000D01*
G01*
X0497364Y0412936D02*
G03*
X0497364Y0412936I-0005906J0000000D01*
G01*
X0546576D02*
G03*
X0546576Y0412936I-0005906J0000000D01*
G01*
X0410076Y0298136D02*
G03*
X0410076Y0298136I-0009843J0000000D01*
G01*
X0522281Y0306011D02*
G03*
X0522281Y0306011I-0003937J0000000D01*
G01*
Y0290263D02*
G03*
X0522281Y0290263I-0003937J0000000D01*
G01*
X0826230Y0563154D02*
G03*
X0826230Y0563154I-0004921J0000000D01*
G01*
X0837057Y0415418D02*
Y0592780D01*
X0297917Y0669454D02*
X0856881D01*
X0233883Y0562112D02*
X0285064D01*
X0289001Y0335826D02*
Y0558175D01*
X0233883Y0331889D02*
X0285064D01*
X0229946Y0292519D02*
Y0327952D01*
X0303829Y0237372D02*
X0303897Y0237967D01*
X0303980Y0238562D01*
X0304078Y0239155D01*
X0304193Y0239748D01*
X0304323Y0240339D01*
X0304469Y0240930D01*
X0304631Y0241518D01*
X0304809Y0242106D01*
X0305002Y0242692D01*
X0305210Y0243276D01*
X0305434Y0243858D01*
X0305674Y0244439D01*
X0305929Y0245017D01*
X0306199Y0245593D01*
X0306485Y0246166D01*
X0306786Y0246737D01*
X0307102Y0247306D01*
X0307433Y0247871D01*
X0307779Y0248434D01*
X0308140Y0248993D01*
X0308516Y0249550D01*
X0308907Y0250103D01*
X0309312Y0250653D01*
X0309732Y0251199D01*
X0310166Y0251741D01*
X0310615Y0252280D01*
X0311078Y0252815D01*
X0311555Y0253345D01*
X0312047Y0253872D01*
X0312552Y0254394D01*
X0313071Y0254912D01*
X0313604Y0255425D01*
X0314150Y0255934D01*
X0314710Y0256438D01*
X0315283Y0256937D01*
X0315869Y0257431D01*
X0316469Y0257919D01*
X0317081Y0258403D01*
X0317706Y0258881D01*
X0318344Y0259354D01*
X0318995Y0259821D01*
X0319657Y0260283D01*
X0320333Y0260739D01*
X0321019Y0261189D01*
X0321718Y0261633D01*
X0322429Y0262071D01*
X0323151Y0262503D01*
X0323885Y0262928D01*
X0324630Y0263348D01*
X0325385Y0263760D01*
X0326152Y0264166D01*
X0326930Y0264566D01*
X0327718Y0264959D01*
X0328516Y0265344D01*
X0329325Y0265723D01*
X0330143Y0266095D01*
X0330972Y0266460D01*
X0331810Y0266818D01*
X0332657Y0267168D01*
X0333514Y0267511D01*
X0334380Y0267847D01*
X0335254Y0268175D01*
X0336137Y0268496D01*
X0337029Y0268809D01*
X0337929Y0269114D01*
X0338836Y0269411D01*
X0339752Y0269701D01*
X0340675Y0269983D01*
X0341606Y0270256D01*
X0342543Y0270522D01*
X0343488Y0270779D01*
X0344440Y0271029D01*
X0345398Y0271270D01*
X0346362Y0271503D01*
X0347332Y0271727D01*
X0348309Y0271943D01*
X0349290Y0272151D01*
X0350278Y0272350D01*
X0351270Y0272541D01*
X0352268Y0272723D01*
X0353270Y0272896D01*
X0354277Y0273061D01*
X0355288Y0273217D01*
X0356302Y0273365D01*
X0357321Y0273503D01*
X0358344Y0273633D01*
X0359369Y0273754D01*
X0360398Y0273866D01*
X0361430Y0273970D01*
X0362464Y0274064D01*
X0363501Y0274149D01*
X0364540Y0274226D01*
X0365580Y0274293D01*
X0366623Y0274352D01*
X0367667Y0274402D01*
X0368712Y0274442D01*
X0369758Y0274474D01*
X0370805Y0274496D01*
X0371852Y0274510D01*
X0372899Y0274515D01*
X0781899D01*
X0782947Y0274510D01*
X0783994Y0274496D01*
X0785041Y0274474D01*
X0786087Y0274442D01*
X0787132Y0274402D01*
X0788176Y0274352D01*
X0789218Y0274293D01*
X0790259Y0274226D01*
X0791298Y0274149D01*
X0792335Y0274064D01*
X0793369Y0273970D01*
X0794400Y0273866D01*
X0795429Y0273754D01*
X0796455Y0273633D01*
X0797477Y0273503D01*
X0798496Y0273365D01*
X0799511Y0273217D01*
X0800522Y0273061D01*
X0801529Y0272896D01*
X0802531Y0272723D01*
X0803528Y0272541D01*
X0804521Y0272350D01*
X0805508Y0272151D01*
X0806490Y0271943D01*
X0807466Y0271727D01*
X0808437Y0271503D01*
X0809401Y0271270D01*
X0810359Y0271029D01*
X0811310Y0270779D01*
X0812255Y0270522D01*
X0813193Y0270256D01*
X0814124Y0269983D01*
X0815047Y0269701D01*
X0815962Y0269411D01*
X0816870Y0269114D01*
X0817770Y0268809D01*
X0818661Y0268496D01*
X0819545Y0268175D01*
X0820419Y0267847D01*
X0821285Y0267511D01*
X0822141Y0267168D01*
X0822989Y0266818D01*
X0823827Y0266460D01*
X0824655Y0266095D01*
X0825474Y0265723D01*
X0826282Y0265344D01*
X0827081Y0264959D01*
X0827869Y0264566D01*
X0828646Y0264166D01*
X0829413Y0263760D01*
X0830169Y0263348D01*
X0830914Y0262928D01*
X0831647Y0262503D01*
X0832370Y0262071D01*
X0833080Y0261633D01*
X0833779Y0261189D01*
X0834466Y0260739D01*
X0835141Y0260283D01*
X0835804Y0259821D01*
X0836454Y0259354D01*
X0837092Y0258881D01*
X0837717Y0258403D01*
X0838330Y0257919D01*
X0838929Y0257431D01*
X0839515Y0256937D01*
X0840089Y0256438D01*
X0840649Y0255934D01*
X0841195Y0255425D01*
X0841728Y0254912D01*
X0842247Y0254394D01*
X0842752Y0253872D01*
X0843243Y0253345D01*
X0843721Y0252815D01*
X0844184Y0252280D01*
X0844632Y0251741D01*
X0845067Y0251199D01*
X0845487Y0250653D01*
X0845892Y0250103D01*
X0846283Y0249550D01*
X0846659Y0248993D01*
X0847020Y0248434D01*
X0847366Y0247871D01*
X0847697Y0247306D01*
X0848013Y0246737D01*
X0848314Y0246166D01*
X0848599Y0245593D01*
X0848870Y0245017D01*
X0849125Y0244439D01*
X0849364Y0243858D01*
X0849588Y0243276D01*
X0849797Y0242692D01*
X0849990Y0242106D01*
X0850167Y0241518D01*
X0850329Y0240930D01*
X0850475Y0240339D01*
X0850605Y0239748D01*
X0850720Y0239155D01*
X0850819Y0238562D01*
X0850902Y0237967D01*
X0850969Y0237372D01*
D195*
X0266269Y0595489D02*
X0266277Y0595497D01*
D196*
X0956367Y0429921D02*
Y0431921D01*
Y0430921D01*
X0950369D01*
X0951369Y0429921D01*
X0956367Y0434920D02*
Y0436919D01*
Y0435919D01*
X0950369D01*
X0951369Y0434920D01*
X0956367Y0443917D02*
Y0439918D01*
X0952369Y0443917D01*
X0951369D01*
X0950369Y0442917D01*
Y0440918D01*
X0951369Y0439918D01*
X0957367Y0446916D02*
X0956367Y0447916D01*
X0955368D01*
Y0446916D01*
X0956367D01*
Y0447916D01*
X0957367Y0446916D01*
X0958367Y0445916D01*
X0950369Y0451914D02*
Y0455913D01*
X0951369D01*
X0955368Y0451914D01*
X0956367D01*
X0950369Y0461911D02*
X0951369Y0459912D01*
X0953368Y0457912D01*
X0955368D01*
X0956367Y0458912D01*
Y0460911D01*
X0955368Y0461911D01*
X0954368D01*
X0953368Y0460911D01*
Y0457912D01*
X0559314Y0208946D02*
X0561313D01*
X0560314D01*
Y0214944D01*
X0559314Y0213944D01*
X0564312Y0214944D02*
X0568311D01*
Y0213944D01*
X0564312Y0209945D01*
Y0208946D01*
X0574309Y0214944D02*
X0572310Y0213944D01*
X0570310Y0211945D01*
Y0209945D01*
X0571310Y0208946D01*
X0573309D01*
X0574309Y0209945D01*
Y0210945D01*
X0573309Y0211945D01*
X0570310D01*
X0577308Y0207946D02*
X0578308Y0208946D01*
Y0209945D01*
X0577308D01*
Y0208946D01*
X0578308D01*
X0577308Y0207946D01*
X0576308Y0206946D01*
X0586305Y0214944D02*
X0582306D01*
Y0211945D01*
X0584306Y0212944D01*
X0585306D01*
X0586305Y0211945D01*
Y0209945D01*
X0585306Y0208946D01*
X0583306D01*
X0582306Y0209945D01*
X0588305Y0213944D02*
X0589304Y0214944D01*
X0591303D01*
X0592303Y0213944D01*
Y0212944D01*
X0591303Y0211945D01*
X0590304D01*
X0591303D01*
X0592303Y0210945D01*
Y0209945D01*
X0591303Y0208946D01*
X0589304D01*
X0588305Y0209945D01*
M02*
