G04*
G04 #@! TF.GenerationSoftware,Altium Limited,Altium Designer,20.2.5 (213)*
G04*
G04 Layer_Color=65535*
%FSAX25Y25*%
%MOIN*%
G70*
G04*
G04 #@! TF.SameCoordinates,38458E12-344E-42E4-8E5B-5AAD2516AE5C*
G04*
G04*
G04 #@! TF.FilePolarity,Positive*
G04*
G01*
G75*
%ADD10C,0.00394*%
%ADD11C,0.00787*%
%ADD12C,0.01181*%
%ADD13C,0.01000*%
%ADD14C,0.00984*%
%ADD15C,0.02362*%
%ADD16C,0.01968*%
%ADD17C,0.00591*%
%ADD18C,0.00315*%
%ADD19C,0.00027*%
%ADD20C,0.00630*%
%ADD21C,0.00551*%
%ADD22C,0.01575*%
%ADD23C,0.00669*%
%ADD24R,0.39055X0.02480*%
%ADD25R,0.03071X0.10748*%
%ADD26R,0.03071X0.12165*%
%ADD27R,0.37913X0.02874*%
G36*
X0891872Y0277438D02*
Y0276653D01*
X0891760D01*
Y0276092D01*
X0891647D01*
Y0275643D01*
X0891535D01*
Y0275306D01*
X0891423D01*
Y0274970D01*
X0891311D01*
Y0274745D01*
X0891199D01*
Y0274409D01*
X0891086D01*
Y0274297D01*
X0890974D01*
Y0274072D01*
X0890862D01*
Y0273848D01*
X0890750D01*
Y0273736D01*
X0890638D01*
Y0273511D01*
X0890526D01*
Y0273399D01*
X0890413D01*
Y0273287D01*
X0890301D01*
Y0273175D01*
X0890189D01*
Y0273062D01*
X0890077D01*
Y0272950D01*
X0889964D01*
Y0272838D01*
X0889852D01*
Y0272726D01*
X0889740D01*
X0889628D01*
Y0272614D01*
X0889516D01*
Y0272501D01*
X0889404D01*
X0889291D01*
Y0272389D01*
X0889179D01*
X0889067D01*
Y0272277D01*
X0888955D01*
X0888842D01*
Y0272165D01*
X0888730D01*
X0888618D01*
X0888506D01*
Y0272053D01*
X0888394D01*
X0888282D01*
X0888169D01*
X0888057D01*
X0887945D01*
Y0271940D01*
X0887833D01*
X0887720D01*
X0887608D01*
X0887496D01*
X0887384D01*
X0887272D01*
X0887160D01*
X0887047D01*
X0886935D01*
X0886823D01*
X0886711D01*
X0886598D01*
X0886486D01*
X0886374D01*
X0886262D01*
X0886150D01*
X0886038D01*
Y0272053D01*
X0885925D01*
Y0272165D01*
X0885813D01*
Y0272389D01*
X0885701D01*
Y0275755D01*
X0885813D01*
Y0275980D01*
X0885925D01*
Y0276092D01*
X0886038D01*
X0886150D01*
X0886262D01*
Y0276204D01*
X0886374D01*
X0886486D01*
X0886598D01*
X0886711D01*
X0886823D01*
X0886935D01*
X0887047D01*
X0887160D01*
X0887272D01*
X0887384D01*
X0887496D01*
X0887608D01*
X0887720D01*
Y0276316D01*
X0887833D01*
X0887945D01*
Y0276428D01*
X0888057D01*
Y0276541D01*
X0888169D01*
Y0276653D01*
X0888282D01*
Y0276765D01*
X0888394D01*
Y0276989D01*
X0888506D01*
Y0277326D01*
X0888618D01*
Y0277887D01*
X0888730D01*
Y0279682D01*
X0888618D01*
Y0280243D01*
X0888506D01*
Y0280580D01*
X0888394D01*
Y0280804D01*
X0888282D01*
Y0281029D01*
X0888169D01*
Y0281141D01*
X0888057D01*
Y0281253D01*
X0887945D01*
X0887833D01*
Y0281365D01*
X0887720D01*
X0887608D01*
X0887496D01*
Y0281477D01*
X0887384D01*
X0887272D01*
X0887160D01*
X0887047D01*
X0886935D01*
X0886823D01*
X0886711D01*
X0886598D01*
Y0281365D01*
X0886486D01*
X0886374D01*
X0886262D01*
Y0281253D01*
X0886150D01*
Y0281141D01*
X0886038D01*
Y0281029D01*
X0885925D01*
Y0280916D01*
X0885813D01*
Y0280804D01*
X0885701D01*
Y0280580D01*
X0885589D01*
Y0280355D01*
X0885476D01*
Y0280019D01*
X0885364D01*
Y0279682D01*
X0885252D01*
Y0279346D01*
X0885140D01*
Y0279009D01*
X0885028D01*
Y0278785D01*
X0884916D01*
Y0278448D01*
X0884803D01*
Y0278111D01*
X0884691D01*
Y0277775D01*
X0884579D01*
Y0277438D01*
X0884467D01*
Y0277102D01*
X0884355D01*
Y0276877D01*
X0884242D01*
Y0276541D01*
X0884130D01*
Y0276204D01*
X0884018D01*
Y0275867D01*
X0883906D01*
Y0275531D01*
X0883794D01*
Y0275194D01*
X0883681D01*
Y0274970D01*
X0883569D01*
Y0274633D01*
X0883457D01*
Y0274409D01*
X0883345D01*
Y0274184D01*
X0883233D01*
Y0273960D01*
X0883120D01*
Y0273736D01*
X0883008D01*
Y0273511D01*
X0882896D01*
Y0273399D01*
X0882784D01*
Y0273175D01*
X0882672D01*
Y0273062D01*
X0882559D01*
Y0272950D01*
X0882447D01*
Y0272726D01*
X0882335D01*
Y0272614D01*
X0882223D01*
Y0272501D01*
X0882111D01*
X0881998D01*
Y0272389D01*
X0881886D01*
Y0272277D01*
X0881774D01*
Y0272165D01*
X0881662D01*
X0881550D01*
Y0272053D01*
X0881437D01*
X0881325D01*
Y0271940D01*
X0881213D01*
X0881101D01*
Y0271828D01*
X0880989D01*
X0880876D01*
X0880764D01*
Y0271716D01*
X0880652D01*
X0880540D01*
X0880428D01*
X0880315D01*
X0880203D01*
X0880091D01*
X0879979D01*
X0879867D01*
X0879755D01*
X0879642D01*
X0879530D01*
X0879418D01*
X0879306D01*
X0879193D01*
X0879081D01*
X0878969D01*
X0878857D01*
X0878745D01*
X0878633D01*
X0878520D01*
X0878408D01*
X0878296D01*
X0878184D01*
X0878071D01*
X0877959D01*
X0877847D01*
X0877735D01*
X0877623D01*
X0877511D01*
X0877398D01*
X0877286D01*
Y0271828D01*
X0877174D01*
X0877062D01*
X0876950D01*
Y0271940D01*
X0876837D01*
X0876725D01*
X0876613D01*
Y0272053D01*
X0876501D01*
X0876388D01*
Y0272165D01*
X0876276D01*
X0876164D01*
Y0272277D01*
X0876052D01*
Y0272389D01*
X0875940D01*
X0875828D01*
Y0272501D01*
X0875715D01*
Y0272614D01*
X0875603D01*
Y0272726D01*
X0875491D01*
Y0272838D01*
X0875379D01*
Y0272950D01*
X0875267D01*
Y0273062D01*
X0875154D01*
Y0273175D01*
X0875042D01*
Y0273287D01*
X0874930D01*
Y0273399D01*
X0874818D01*
Y0273623D01*
X0874706D01*
Y0273848D01*
X0874593D01*
Y0273960D01*
X0874481D01*
Y0274184D01*
X0874369D01*
Y0274409D01*
X0874257D01*
Y0274745D01*
X0874145D01*
Y0274970D01*
X0874032D01*
Y0275306D01*
X0873920D01*
Y0275755D01*
X0873808D01*
Y0276204D01*
X0873696D01*
Y0276877D01*
X0873584D01*
Y0277999D01*
X0873471D01*
Y0279907D01*
X0873584D01*
Y0281029D01*
X0873696D01*
Y0281590D01*
X0873808D01*
Y0282151D01*
X0873920D01*
Y0282487D01*
X0874032D01*
Y0282824D01*
X0874145D01*
Y0283160D01*
X0874257D01*
Y0283385D01*
X0874369D01*
Y0283609D01*
X0874481D01*
Y0283834D01*
X0874593D01*
Y0284058D01*
X0874706D01*
Y0284170D01*
X0874818D01*
Y0284395D01*
X0874930D01*
Y0284507D01*
X0875042D01*
Y0284731D01*
X0875154D01*
Y0284843D01*
X0875267D01*
Y0284955D01*
X0875379D01*
Y0285068D01*
X0875491D01*
Y0285180D01*
X0875603D01*
Y0285292D01*
X0875715D01*
X0875828D01*
Y0285404D01*
X0875940D01*
Y0285516D01*
X0876052D01*
X0876164D01*
Y0285629D01*
X0876276D01*
X0876388D01*
Y0285741D01*
X0876501D01*
X0876613D01*
Y0285853D01*
X0876725D01*
X0876837D01*
Y0285965D01*
X0876950D01*
X0877062D01*
X0877174D01*
X0877286D01*
Y0286077D01*
X0877398D01*
X0877511D01*
X0877623D01*
X0877735D01*
X0877847D01*
X0877959D01*
X0878071D01*
X0878184D01*
X0878296D01*
X0878408D01*
X0878520D01*
X0878633D01*
X0878745D01*
X0878857D01*
X0878969D01*
X0879081D01*
X0879193D01*
X0879306D01*
X0879418D01*
X0879530D01*
Y0285965D01*
X0879642D01*
Y0285741D01*
X0879755D01*
Y0282263D01*
X0879642D01*
Y0282038D01*
X0879530D01*
Y0281926D01*
X0879418D01*
X0879306D01*
X0879193D01*
Y0281814D01*
X0879081D01*
X0878969D01*
X0878857D01*
X0878745D01*
X0878633D01*
X0878520D01*
X0878408D01*
X0878296D01*
X0878184D01*
X0878071D01*
X0877959D01*
X0877847D01*
Y0281702D01*
X0877735D01*
X0877623D01*
Y0281590D01*
X0877511D01*
Y0281477D01*
X0877398D01*
Y0281365D01*
X0877286D01*
Y0281141D01*
X0877174D01*
Y0280916D01*
X0877062D01*
Y0280580D01*
X0876950D01*
Y0280131D01*
X0876837D01*
Y0277663D01*
X0876950D01*
Y0277214D01*
X0877062D01*
Y0276877D01*
X0877174D01*
Y0276653D01*
X0877286D01*
Y0276541D01*
X0877398D01*
Y0276428D01*
X0877511D01*
Y0276316D01*
X0877623D01*
Y0276204D01*
X0877735D01*
Y0276092D01*
X0877847D01*
X0877959D01*
Y0275980D01*
X0878071D01*
X0878184D01*
X0878296D01*
X0878408D01*
X0878520D01*
X0878633D01*
X0878745D01*
X0878857D01*
X0878969D01*
X0879081D01*
X0879193D01*
X0879306D01*
Y0276092D01*
X0879418D01*
X0879530D01*
Y0276204D01*
X0879642D01*
Y0276316D01*
X0879755D01*
Y0276541D01*
X0879867D01*
Y0276653D01*
X0879979D01*
Y0276877D01*
X0880091D01*
Y0277102D01*
X0880203D01*
Y0277438D01*
X0880315D01*
Y0277663D01*
X0880428D01*
Y0277999D01*
X0880540D01*
Y0278336D01*
X0880652D01*
Y0278560D01*
X0880764D01*
Y0278897D01*
X0880876D01*
Y0279233D01*
X0880989D01*
Y0279570D01*
X0881101D01*
Y0279794D01*
X0881213D01*
Y0280131D01*
X0881325D01*
Y0280468D01*
X0881437D01*
Y0280804D01*
X0881550D01*
Y0281029D01*
X0881662D01*
Y0281365D01*
X0881774D01*
Y0281702D01*
X0881886D01*
Y0281926D01*
X0881998D01*
Y0282263D01*
X0882111D01*
Y0282599D01*
X0882223D01*
Y0282936D01*
X0882335D01*
Y0283160D01*
X0882447D01*
Y0283385D01*
X0882559D01*
Y0283609D01*
X0882672D01*
Y0283721D01*
X0882784D01*
Y0283946D01*
X0882896D01*
Y0284058D01*
X0883008D01*
Y0284170D01*
X0883120D01*
Y0284282D01*
X0883233D01*
Y0284395D01*
X0883345D01*
Y0284507D01*
X0883457D01*
Y0284619D01*
X0883569D01*
Y0284731D01*
X0883681D01*
Y0284843D01*
X0883794D01*
Y0284955D01*
X0883906D01*
X0884018D01*
Y0285068D01*
X0884130D01*
Y0285180D01*
X0884242D01*
X0884355D01*
Y0285292D01*
X0884467D01*
X0884579D01*
Y0285404D01*
X0884691D01*
X0884803D01*
Y0285516D01*
X0884916D01*
X0885028D01*
X0885140D01*
Y0285629D01*
X0885252D01*
X0885364D01*
X0885476D01*
X0885589D01*
X0885701D01*
X0885813D01*
Y0285741D01*
X0885925D01*
X0886038D01*
X0886150D01*
X0886262D01*
X0886374D01*
X0886486D01*
X0886598D01*
X0886711D01*
X0886823D01*
X0886935D01*
X0887047D01*
X0887160D01*
X0887272D01*
X0887384D01*
X0887496D01*
Y0285629D01*
X0887608D01*
X0887720D01*
X0887833D01*
X0887945D01*
X0888057D01*
X0888169D01*
X0888282D01*
Y0285516D01*
X0888394D01*
X0888506D01*
X0888618D01*
Y0285404D01*
X0888730D01*
X0888842D01*
X0888955D01*
Y0285292D01*
X0889067D01*
X0889179D01*
Y0285180D01*
X0889291D01*
X0889404D01*
Y0285068D01*
X0889516D01*
Y0284955D01*
X0889628D01*
X0889740D01*
Y0284843D01*
X0889852D01*
Y0284731D01*
X0889964D01*
Y0284619D01*
X0890077D01*
Y0284507D01*
X0890189D01*
Y0284395D01*
X0890301D01*
Y0284282D01*
X0890413D01*
Y0284170D01*
X0890526D01*
Y0284058D01*
X0890638D01*
Y0283946D01*
X0890750D01*
Y0283721D01*
X0890862D01*
Y0283609D01*
X0890974D01*
Y0283385D01*
X0891086D01*
Y0283160D01*
X0891199D01*
Y0282936D01*
X0891311D01*
Y0282599D01*
X0891423D01*
Y0282375D01*
X0891535D01*
Y0282038D01*
X0891647D01*
Y0281590D01*
X0891760D01*
Y0281029D01*
X0891872D01*
Y0280131D01*
X0891984D01*
Y0277438D01*
X0891872D01*
D02*
G37*
G36*
Y0294268D02*
Y0293370D01*
X0891760D01*
Y0292809D01*
X0891647D01*
Y0292248D01*
X0891535D01*
Y0291912D01*
X0891423D01*
Y0291575D01*
X0891311D01*
Y0291351D01*
X0891199D01*
Y0291126D01*
X0891086D01*
Y0290902D01*
X0890974D01*
Y0290677D01*
X0890862D01*
Y0290453D01*
X0890750D01*
Y0290341D01*
X0890638D01*
Y0290229D01*
X0890526D01*
Y0290004D01*
X0890413D01*
Y0289892D01*
X0890301D01*
Y0289780D01*
X0890189D01*
Y0289668D01*
X0890077D01*
Y0289556D01*
X0889964D01*
X0889852D01*
Y0289443D01*
X0889740D01*
Y0289331D01*
X0889628D01*
Y0289219D01*
X0889516D01*
X0889404D01*
Y0289107D01*
X0889291D01*
X0889179D01*
Y0288995D01*
X0889067D01*
X0888955D01*
Y0288882D01*
X0888842D01*
X0888730D01*
X0888618D01*
Y0288770D01*
X0888506D01*
X0888394D01*
X0888282D01*
X0888169D01*
Y0288658D01*
X0888057D01*
X0887945D01*
X0887833D01*
X0887720D01*
X0887608D01*
X0887496D01*
Y0288546D01*
X0887384D01*
X0887272D01*
X0887160D01*
X0887047D01*
X0886935D01*
X0886823D01*
X0886711D01*
X0886598D01*
X0886486D01*
X0886374D01*
X0886262D01*
X0886150D01*
X0886038D01*
X0885925D01*
X0885813D01*
X0885701D01*
X0885589D01*
X0885476D01*
X0885364D01*
X0885252D01*
X0885140D01*
X0885028D01*
X0884916D01*
X0884803D01*
X0884691D01*
X0884579D01*
X0884467D01*
X0884355D01*
X0884242D01*
X0884130D01*
X0884018D01*
X0883906D01*
X0883794D01*
X0883681D01*
X0883569D01*
X0883457D01*
X0883345D01*
X0883233D01*
X0883120D01*
X0883008D01*
X0882896D01*
X0882784D01*
X0882672D01*
X0882559D01*
X0882447D01*
X0882335D01*
X0882223D01*
X0882111D01*
X0881998D01*
X0881886D01*
X0881774D01*
X0881662D01*
X0881550D01*
X0881437D01*
X0881325D01*
X0881213D01*
X0881101D01*
X0880989D01*
X0880876D01*
X0880764D01*
X0880652D01*
X0880540D01*
X0880428D01*
X0880315D01*
X0880203D01*
X0880091D01*
X0879979D01*
X0879867D01*
X0879755D01*
X0879642D01*
X0879530D01*
X0879418D01*
X0879306D01*
X0879193D01*
X0879081D01*
X0878969D01*
X0878857D01*
X0878745D01*
X0878633D01*
X0878520D01*
X0878408D01*
X0878296D01*
X0878184D01*
X0878071D01*
X0877959D01*
X0877847D01*
X0877735D01*
X0877623D01*
X0877511D01*
X0877398D01*
X0877286D01*
X0877174D01*
X0877062D01*
X0876950D01*
X0876837D01*
X0876725D01*
X0876613D01*
X0876501D01*
X0876388D01*
X0876276D01*
X0876164D01*
X0876052D01*
X0875940D01*
X0875828D01*
X0875715D01*
X0875603D01*
X0875491D01*
X0875379D01*
X0875267D01*
X0875154D01*
X0875042D01*
X0874930D01*
X0874818D01*
X0874706D01*
X0874593D01*
X0874481D01*
X0874369D01*
Y0288658D01*
X0874257D01*
X0874145D01*
X0874032D01*
Y0288770D01*
X0873920D01*
Y0288995D01*
X0873808D01*
Y0292585D01*
X0873920D01*
Y0292697D01*
X0874032D01*
Y0292809D01*
X0874145D01*
X0874257D01*
Y0292921D01*
X0874369D01*
X0874481D01*
X0874593D01*
X0874706D01*
X0874818D01*
X0874930D01*
Y0293034D01*
X0875042D01*
X0875154D01*
X0875267D01*
X0875379D01*
Y0293258D01*
X0875267D01*
Y0293370D01*
X0875154D01*
Y0293595D01*
X0875042D01*
Y0293707D01*
X0874930D01*
Y0293819D01*
X0874818D01*
Y0294043D01*
X0874706D01*
Y0294268D01*
X0874593D01*
Y0294380D01*
X0874481D01*
Y0294604D01*
X0874369D01*
Y0294829D01*
X0874257D01*
Y0295053D01*
X0874145D01*
Y0295390D01*
X0874032D01*
Y0295614D01*
X0873920D01*
Y0295951D01*
X0873808D01*
Y0296400D01*
X0873696D01*
Y0296848D01*
X0873584D01*
Y0297746D01*
X0873471D01*
Y0299092D01*
X0873584D01*
Y0299878D01*
X0873696D01*
Y0300326D01*
X0873808D01*
Y0300663D01*
X0873920D01*
Y0301000D01*
X0874032D01*
Y0301224D01*
X0874145D01*
Y0301448D01*
X0874257D01*
Y0301561D01*
X0874369D01*
Y0301785D01*
X0874481D01*
Y0301897D01*
X0874593D01*
Y0302122D01*
X0874706D01*
Y0302234D01*
X0874818D01*
Y0302346D01*
X0874930D01*
Y0302458D01*
X0875042D01*
Y0302571D01*
X0875154D01*
X0875267D01*
Y0302683D01*
X0875379D01*
Y0302795D01*
X0875491D01*
Y0302907D01*
X0875603D01*
X0875715D01*
Y0303019D01*
X0875828D01*
X0875940D01*
Y0303132D01*
X0876052D01*
X0876164D01*
Y0303244D01*
X0876276D01*
X0876388D01*
Y0303356D01*
X0876501D01*
X0876613D01*
X0876725D01*
X0876837D01*
Y0303468D01*
X0876950D01*
X0877062D01*
X0877174D01*
X0877286D01*
X0877398D01*
Y0303580D01*
X0877511D01*
X0877623D01*
X0877735D01*
X0877847D01*
X0877959D01*
X0878071D01*
X0878184D01*
X0878296D01*
X0878408D01*
X0878520D01*
X0878633D01*
X0878745D01*
X0878857D01*
X0878969D01*
X0879081D01*
X0879193D01*
X0879306D01*
X0879418D01*
X0879530D01*
X0879642D01*
X0879755D01*
X0879867D01*
X0879979D01*
X0880091D01*
X0880203D01*
Y0303468D01*
X0880315D01*
X0880428D01*
X0880540D01*
X0880652D01*
X0880764D01*
Y0303356D01*
X0880876D01*
X0880989D01*
X0881101D01*
Y0303244D01*
X0881213D01*
X0881325D01*
X0881437D01*
Y0303132D01*
X0881550D01*
X0881662D01*
Y0303019D01*
X0881774D01*
X0881886D01*
Y0302907D01*
X0881998D01*
Y0302795D01*
X0882111D01*
X0882223D01*
Y0302683D01*
X0882335D01*
Y0302571D01*
X0882447D01*
Y0302458D01*
X0882559D01*
Y0302346D01*
X0882672D01*
Y0302234D01*
X0882784D01*
Y0302122D01*
X0882896D01*
Y0302010D01*
X0883008D01*
Y0301897D01*
X0883120D01*
Y0301673D01*
X0883233D01*
Y0301561D01*
X0883345D01*
Y0301336D01*
X0883457D01*
Y0301112D01*
X0883569D01*
Y0300887D01*
X0883681D01*
Y0300551D01*
X0883794D01*
Y0300214D01*
X0883906D01*
Y0299765D01*
X0884018D01*
Y0299092D01*
X0884130D01*
Y0293146D01*
X0884242D01*
X0884355D01*
X0884467D01*
X0884579D01*
X0884691D01*
X0884803D01*
X0884916D01*
X0885028D01*
X0885140D01*
X0885252D01*
X0885364D01*
X0885476D01*
X0885589D01*
X0885701D01*
X0885813D01*
X0885925D01*
X0886038D01*
X0886150D01*
X0886262D01*
X0886374D01*
X0886486D01*
X0886598D01*
X0886711D01*
X0886823D01*
X0886935D01*
Y0293258D01*
X0887047D01*
X0887160D01*
X0887272D01*
X0887384D01*
Y0293370D01*
X0887496D01*
X0887608D01*
Y0293482D01*
X0887720D01*
Y0293595D01*
X0887833D01*
Y0293707D01*
X0887945D01*
Y0293819D01*
X0888057D01*
Y0293931D01*
X0888169D01*
Y0294156D01*
X0888282D01*
Y0294492D01*
X0888394D01*
Y0294941D01*
X0888506D01*
Y0296848D01*
X0888394D01*
Y0297409D01*
X0888282D01*
Y0297746D01*
X0888169D01*
Y0297970D01*
X0888057D01*
Y0298083D01*
X0887945D01*
Y0298307D01*
X0887833D01*
X0887720D01*
Y0298419D01*
X0887608D01*
Y0298531D01*
X0887496D01*
X0887384D01*
Y0298644D01*
X0887272D01*
X0887160D01*
X0887047D01*
X0886935D01*
X0886823D01*
Y0298756D01*
X0886711D01*
X0886598D01*
X0886486D01*
X0886374D01*
X0886262D01*
X0886150D01*
X0886038D01*
X0885925D01*
X0885813D01*
Y0298868D01*
X0885701D01*
Y0298980D01*
X0885589D01*
Y0299092D01*
X0885476D01*
Y0302683D01*
X0885589D01*
Y0302795D01*
X0885701D01*
Y0302907D01*
X0885813D01*
Y0303019D01*
X0885925D01*
X0886038D01*
X0886150D01*
X0886262D01*
X0886374D01*
X0886486D01*
X0886598D01*
X0886711D01*
X0886823D01*
X0886935D01*
X0887047D01*
X0887160D01*
X0887272D01*
X0887384D01*
X0887496D01*
X0887608D01*
X0887720D01*
X0887833D01*
X0887945D01*
Y0302907D01*
X0888057D01*
X0888169D01*
X0888282D01*
X0888394D01*
Y0302795D01*
X0888506D01*
X0888618D01*
X0888730D01*
Y0302683D01*
X0888842D01*
X0888955D01*
X0889067D01*
Y0302571D01*
X0889179D01*
X0889291D01*
Y0302458D01*
X0889404D01*
Y0302346D01*
X0889516D01*
X0889628D01*
Y0302234D01*
X0889740D01*
Y0302122D01*
X0889852D01*
X0889964D01*
Y0302010D01*
X0890077D01*
Y0301897D01*
X0890189D01*
Y0301785D01*
X0890301D01*
Y0301673D01*
X0890413D01*
Y0301561D01*
X0890526D01*
Y0301336D01*
X0890638D01*
Y0301224D01*
X0890750D01*
Y0301112D01*
X0890862D01*
Y0300887D01*
X0890974D01*
Y0300663D01*
X0891086D01*
Y0300439D01*
X0891199D01*
Y0300214D01*
X0891311D01*
Y0299990D01*
X0891423D01*
Y0299653D01*
X0891535D01*
Y0299205D01*
X0891647D01*
Y0298756D01*
X0891760D01*
Y0298195D01*
X0891872D01*
Y0297297D01*
X0891984D01*
Y0294268D01*
X0891872D01*
D02*
G37*
G36*
Y0310312D02*
Y0309751D01*
X0891760D01*
Y0309302D01*
X0891647D01*
Y0308966D01*
X0891535D01*
Y0308741D01*
X0891423D01*
Y0308517D01*
X0891311D01*
Y0308293D01*
X0891199D01*
Y0308068D01*
X0891086D01*
Y0307956D01*
X0890974D01*
Y0307844D01*
X0890862D01*
Y0307619D01*
X0890750D01*
Y0307507D01*
X0890638D01*
Y0307395D01*
X0890526D01*
Y0307283D01*
X0890413D01*
Y0307171D01*
X0890301D01*
Y0307058D01*
X0890189D01*
X0890077D01*
Y0306946D01*
X0889964D01*
Y0306834D01*
X0889852D01*
X0889740D01*
Y0306722D01*
X0889628D01*
X0889516D01*
Y0306610D01*
X0889404D01*
X0889291D01*
Y0306497D01*
X0889179D01*
X0889067D01*
Y0306385D01*
X0888955D01*
X0888842D01*
X0888730D01*
Y0306273D01*
X0888618D01*
X0888506D01*
X0888394D01*
X0888282D01*
Y0306161D01*
X0888169D01*
X0888057D01*
X0887945D01*
X0887833D01*
X0887720D01*
X0887608D01*
X0887496D01*
X0887384D01*
X0887272D01*
X0887160D01*
X0887047D01*
X0886935D01*
X0886823D01*
X0886711D01*
X0886598D01*
X0886486D01*
X0886374D01*
X0886262D01*
X0886150D01*
X0886038D01*
X0885925D01*
X0885813D01*
X0885701D01*
X0885589D01*
X0885476D01*
X0885364D01*
X0885252D01*
X0885140D01*
X0885028D01*
X0884916D01*
X0884803D01*
X0884691D01*
X0884579D01*
X0884467D01*
X0884355D01*
X0884242D01*
X0884130D01*
X0884018D01*
X0883906D01*
X0883794D01*
X0883681D01*
X0883569D01*
X0883457D01*
X0883345D01*
X0883233D01*
X0883120D01*
X0883008D01*
X0882896D01*
X0882784D01*
X0882672D01*
X0882559D01*
X0882447D01*
X0882335D01*
X0882223D01*
X0882111D01*
X0881998D01*
X0881886D01*
X0881774D01*
X0881662D01*
X0881550D01*
X0881437D01*
X0881325D01*
X0881213D01*
X0881101D01*
X0880989D01*
X0880876D01*
X0880764D01*
X0880652D01*
X0880540D01*
X0880428D01*
X0880315D01*
X0880203D01*
X0880091D01*
X0879979D01*
X0879867D01*
X0879755D01*
X0879642D01*
X0879530D01*
X0879418D01*
X0879306D01*
X0879193D01*
X0879081D01*
X0878969D01*
X0878857D01*
X0878745D01*
X0878633D01*
X0878520D01*
X0878408D01*
X0878296D01*
X0878184D01*
X0878071D01*
X0877959D01*
X0877847D01*
X0877735D01*
X0877623D01*
X0877511D01*
X0877398D01*
X0877286D01*
X0877174D01*
X0877062D01*
X0876950D01*
X0876837D01*
X0876725D01*
X0876613D01*
X0876501D01*
X0876388D01*
X0876276D01*
X0876164D01*
X0876052D01*
X0875940D01*
X0875828D01*
X0875715D01*
X0875603D01*
X0875491D01*
X0875379D01*
X0875267D01*
X0875154D01*
X0875042D01*
X0874930D01*
X0874818D01*
X0874706D01*
X0874593D01*
X0874481D01*
X0874369D01*
X0874257D01*
X0874145D01*
Y0306273D01*
X0874032D01*
Y0306385D01*
X0873920D01*
Y0306497D01*
X0873808D01*
Y0310424D01*
X0873920D01*
Y0310537D01*
X0874032D01*
Y0310649D01*
X0874145D01*
Y0310761D01*
X0874257D01*
X0874369D01*
X0874481D01*
X0874593D01*
Y0310873D01*
X0874706D01*
X0874818D01*
X0874930D01*
X0875042D01*
X0875154D01*
X0875267D01*
X0875379D01*
X0875491D01*
X0875603D01*
X0875715D01*
X0875828D01*
X0875940D01*
X0876052D01*
X0876164D01*
X0876276D01*
X0876388D01*
X0876501D01*
X0876613D01*
X0876725D01*
X0876837D01*
X0876950D01*
X0877062D01*
X0877174D01*
X0877286D01*
X0877398D01*
X0877511D01*
X0877623D01*
X0877735D01*
X0877847D01*
X0877959D01*
X0878071D01*
X0878184D01*
X0878296D01*
X0878408D01*
X0878520D01*
X0878633D01*
X0878745D01*
X0878857D01*
X0878969D01*
X0879081D01*
X0879193D01*
X0879306D01*
X0879418D01*
X0879530D01*
X0879642D01*
X0879755D01*
X0879867D01*
X0879979D01*
X0880091D01*
X0880203D01*
X0880315D01*
X0880428D01*
X0880540D01*
X0880652D01*
X0880764D01*
X0880876D01*
X0880989D01*
X0881101D01*
X0881213D01*
X0881325D01*
X0881437D01*
X0881550D01*
X0881662D01*
X0881774D01*
X0881886D01*
X0881998D01*
X0882111D01*
X0882223D01*
X0882335D01*
X0882447D01*
X0882559D01*
X0882672D01*
X0882784D01*
X0882896D01*
X0883008D01*
X0883120D01*
X0883233D01*
X0883345D01*
X0883457D01*
X0883569D01*
X0883681D01*
X0883794D01*
X0883906D01*
X0884018D01*
X0884130D01*
X0884242D01*
X0884355D01*
X0884467D01*
X0884579D01*
X0884691D01*
X0884803D01*
X0884916D01*
X0885028D01*
X0885140D01*
X0885252D01*
X0885364D01*
X0885476D01*
X0885589D01*
X0885701D01*
X0885813D01*
X0885925D01*
X0886038D01*
X0886150D01*
X0886262D01*
X0886374D01*
X0886486D01*
X0886598D01*
X0886711D01*
X0886823D01*
X0886935D01*
Y0310985D01*
X0887047D01*
X0887160D01*
Y0311098D01*
X0887272D01*
X0887384D01*
Y0311210D01*
X0887496D01*
Y0311322D01*
X0887608D01*
Y0311546D01*
X0887720D01*
Y0311771D01*
X0887833D01*
Y0312220D01*
X0887945D01*
Y0313454D01*
X0887833D01*
Y0314015D01*
X0887720D01*
Y0314463D01*
X0887608D01*
Y0314800D01*
X0887496D01*
Y0315024D01*
X0887384D01*
Y0315249D01*
X0887272D01*
Y0315585D01*
X0887160D01*
Y0315698D01*
X0887047D01*
Y0315922D01*
X0886935D01*
Y0316146D01*
X0886823D01*
Y0316371D01*
X0886711D01*
Y0316483D01*
X0886598D01*
Y0316707D01*
X0886486D01*
Y0316820D01*
X0886374D01*
Y0316932D01*
X0886262D01*
Y0317044D01*
X0886150D01*
X0886038D01*
X0885925D01*
X0885813D01*
X0885701D01*
X0885589D01*
X0885476D01*
X0885364D01*
X0885252D01*
X0885140D01*
X0885028D01*
X0884916D01*
X0884803D01*
X0884691D01*
X0884579D01*
X0884467D01*
X0884355D01*
X0884242D01*
X0884130D01*
X0884018D01*
X0883906D01*
X0883794D01*
X0883681D01*
X0883569D01*
X0883457D01*
X0883345D01*
X0883233D01*
X0883120D01*
X0883008D01*
X0882896D01*
X0882784D01*
X0882672D01*
X0882559D01*
X0882447D01*
X0882335D01*
X0882223D01*
X0882111D01*
X0881998D01*
X0881886D01*
X0881774D01*
X0881662D01*
X0881550D01*
X0881437D01*
X0881325D01*
X0881213D01*
X0881101D01*
X0880989D01*
X0880876D01*
X0880764D01*
X0880652D01*
X0880540D01*
X0880428D01*
X0880315D01*
X0880203D01*
X0880091D01*
X0879979D01*
X0879867D01*
X0879755D01*
X0879642D01*
X0879530D01*
X0879418D01*
X0879306D01*
X0879193D01*
X0879081D01*
X0878969D01*
X0878857D01*
X0878745D01*
X0878633D01*
X0878520D01*
X0878408D01*
X0878296D01*
X0878184D01*
X0878071D01*
X0877959D01*
X0877847D01*
X0877735D01*
X0877623D01*
X0877511D01*
X0877398D01*
X0877286D01*
X0877174D01*
X0877062D01*
X0876950D01*
X0876837D01*
X0876725D01*
X0876613D01*
X0876501D01*
X0876388D01*
X0876276D01*
X0876164D01*
X0876052D01*
X0875940D01*
X0875828D01*
X0875715D01*
X0875603D01*
X0875491D01*
X0875379D01*
X0875267D01*
X0875154D01*
X0875042D01*
X0874930D01*
X0874818D01*
X0874706D01*
X0874593D01*
X0874481D01*
X0874369D01*
X0874257D01*
X0874145D01*
Y0317156D01*
X0874032D01*
X0873920D01*
Y0317381D01*
X0873808D01*
Y0321307D01*
X0873920D01*
Y0321420D01*
X0874032D01*
Y0321532D01*
X0874145D01*
Y0321644D01*
X0874257D01*
X0874369D01*
X0874481D01*
X0874593D01*
X0874706D01*
X0874818D01*
X0874930D01*
X0875042D01*
X0875154D01*
X0875267D01*
X0875379D01*
X0875491D01*
X0875603D01*
X0875715D01*
X0875828D01*
X0875940D01*
X0876052D01*
X0876164D01*
X0876276D01*
X0876388D01*
X0876501D01*
X0876613D01*
X0876725D01*
X0876837D01*
X0876950D01*
X0877062D01*
X0877174D01*
X0877286D01*
X0877398D01*
X0877511D01*
X0877623D01*
X0877735D01*
X0877847D01*
X0877959D01*
X0878071D01*
X0878184D01*
X0878296D01*
X0878408D01*
X0878520D01*
X0878633D01*
X0878745D01*
X0878857D01*
X0878969D01*
X0879081D01*
X0879193D01*
X0879306D01*
X0879418D01*
X0879530D01*
X0879642D01*
X0879755D01*
X0879867D01*
X0879979D01*
X0880091D01*
X0880203D01*
X0880315D01*
X0880428D01*
X0880540D01*
X0880652D01*
X0880764D01*
X0880876D01*
X0880989D01*
X0881101D01*
X0881213D01*
X0881325D01*
X0881437D01*
X0881550D01*
X0881662D01*
X0881774D01*
X0881886D01*
X0881998D01*
X0882111D01*
X0882223D01*
X0882335D01*
X0882447D01*
X0882559D01*
X0882672D01*
X0882784D01*
X0882896D01*
X0883008D01*
X0883120D01*
X0883233D01*
X0883345D01*
X0883457D01*
X0883569D01*
X0883681D01*
X0883794D01*
X0883906D01*
X0884018D01*
X0884130D01*
X0884242D01*
X0884355D01*
X0884467D01*
X0884579D01*
X0884691D01*
X0884803D01*
X0884916D01*
X0885028D01*
X0885140D01*
X0885252D01*
X0885364D01*
X0885476D01*
X0885589D01*
X0885701D01*
X0885813D01*
X0885925D01*
X0886038D01*
X0886150D01*
X0886262D01*
X0886374D01*
X0886486D01*
X0886598D01*
X0886711D01*
X0886823D01*
X0886935D01*
X0887047D01*
X0887160D01*
X0887272D01*
X0887384D01*
X0887496D01*
X0887608D01*
X0887720D01*
X0887833D01*
X0887945D01*
X0888057D01*
X0888169D01*
X0888282D01*
X0888394D01*
X0888506D01*
X0888618D01*
X0888730D01*
X0888842D01*
X0888955D01*
X0889067D01*
X0889179D01*
X0889291D01*
X0889404D01*
X0889516D01*
X0889628D01*
X0889740D01*
X0889852D01*
X0889964D01*
X0890077D01*
X0890189D01*
X0890301D01*
X0890413D01*
X0890526D01*
X0890638D01*
X0890750D01*
X0890862D01*
X0890974D01*
X0891086D01*
X0891199D01*
X0891311D01*
Y0321532D01*
X0891423D01*
X0891535D01*
Y0321420D01*
X0891647D01*
Y0317493D01*
X0891535D01*
Y0317381D01*
X0891423D01*
Y0317268D01*
X0891311D01*
X0891199D01*
X0891086D01*
Y0317156D01*
X0890974D01*
X0890862D01*
X0890750D01*
X0890638D01*
X0890526D01*
X0890413D01*
X0890301D01*
X0890189D01*
X0890077D01*
Y0316932D01*
X0890189D01*
Y0316707D01*
X0890301D01*
Y0316595D01*
X0890413D01*
Y0316371D01*
X0890526D01*
Y0316259D01*
X0890638D01*
Y0316034D01*
X0890750D01*
Y0315922D01*
X0890862D01*
Y0315698D01*
X0890974D01*
Y0315473D01*
X0891086D01*
Y0315249D01*
X0891199D01*
Y0315024D01*
X0891311D01*
Y0314688D01*
X0891423D01*
Y0314463D01*
X0891535D01*
Y0314127D01*
X0891647D01*
Y0313678D01*
X0891760D01*
Y0313229D01*
X0891872D01*
Y0312444D01*
X0891984D01*
Y0310312D01*
X0891872D01*
D02*
G37*
G36*
X0880764Y0403100D02*
X0881550D01*
Y0402987D01*
X0881998D01*
Y0402875D01*
X0882335D01*
Y0402763D01*
X0882672D01*
Y0402651D01*
X0882896D01*
Y0402539D01*
X0883120D01*
Y0402426D01*
X0883345D01*
Y0402314D01*
X0883569D01*
Y0402202D01*
X0883794D01*
Y0402090D01*
X0883906D01*
Y0401978D01*
X0884130D01*
Y0401865D01*
X0884242D01*
Y0401753D01*
X0884355D01*
Y0401641D01*
X0884467D01*
Y0401529D01*
X0884691D01*
Y0401417D01*
X0884803D01*
Y0401304D01*
X0884916D01*
Y0401192D01*
X0885028D01*
Y0401080D01*
X0885140D01*
Y0400856D01*
X0885252D01*
Y0400743D01*
X0885364D01*
Y0400631D01*
X0885476D01*
Y0400519D01*
X0885589D01*
Y0400295D01*
X0885701D01*
Y0400182D01*
X0885813D01*
Y0399958D01*
X0885925D01*
Y0399734D01*
X0886038D01*
Y0399509D01*
X0886150D01*
Y0399285D01*
X0886262D01*
Y0399061D01*
X0886374D01*
Y0398724D01*
X0886486D01*
Y0398387D01*
X0886598D01*
Y0397939D01*
X0886711D01*
Y0397378D01*
X0886823D01*
Y0395246D01*
X0886711D01*
Y0394236D01*
X0886823D01*
Y0393563D01*
X0886935D01*
Y0393226D01*
X0887047D01*
Y0393002D01*
X0887160D01*
Y0392777D01*
X0887272D01*
Y0392553D01*
X0887384D01*
Y0392441D01*
X0887496D01*
Y0392329D01*
X0887608D01*
Y0392216D01*
X0887720D01*
Y0391992D01*
X0887833D01*
Y0391880D01*
X0887945D01*
Y0391768D01*
X0888057D01*
Y0391655D01*
X0888282D01*
Y0391543D01*
X0888394D01*
Y0391431D01*
X0888506D01*
Y0391319D01*
X0888618D01*
Y0391207D01*
X0888842D01*
Y0391094D01*
X0889067D01*
Y0390982D01*
X0889179D01*
Y0390870D01*
X0889516D01*
Y0390758D01*
X0889852D01*
Y0390646D01*
X0890301D01*
Y0390533D01*
X0891647D01*
Y0390646D01*
X0892321D01*
Y0390758D01*
X0894452D01*
Y0390646D01*
X0894901D01*
Y0390533D01*
X0895350D01*
Y0390421D01*
X0895574D01*
Y0390309D01*
X0895911D01*
Y0390197D01*
X0896135D01*
Y0390085D01*
X0896360D01*
Y0389972D01*
X0896472D01*
Y0389860D01*
X0896696D01*
Y0389748D01*
X0896921D01*
Y0389636D01*
X0897033D01*
Y0389524D01*
X0897145D01*
Y0389411D01*
X0897257D01*
Y0389299D01*
X0897482D01*
Y0389187D01*
X0897594D01*
Y0389075D01*
X0897706D01*
Y0388963D01*
X0897818D01*
Y0388851D01*
X0897931D01*
Y0388626D01*
X0898043D01*
Y0388514D01*
X0898155D01*
Y0388402D01*
X0898267D01*
Y0388290D01*
X0898379D01*
Y0388065D01*
X0898491D01*
Y0387953D01*
X0898604D01*
Y0387729D01*
X0898716D01*
Y0387504D01*
X0898828D01*
Y0387280D01*
X0898940D01*
Y0387055D01*
X0899053D01*
Y0386719D01*
X0899165D01*
Y0386382D01*
X0899277D01*
Y0385821D01*
X0899389D01*
Y0383577D01*
X0899277D01*
Y0383128D01*
X0899165D01*
Y0382680D01*
X0899053D01*
Y0382455D01*
X0898940D01*
Y0382119D01*
X0898828D01*
Y0381894D01*
X0898716D01*
Y0381782D01*
X0898604D01*
Y0381558D01*
X0898491D01*
Y0381333D01*
X0898379D01*
Y0381221D01*
X0898267D01*
Y0380997D01*
X0898155D01*
Y0380885D01*
X0898043D01*
Y0380772D01*
X0897931D01*
Y0380660D01*
X0897818D01*
Y0380548D01*
X0897706D01*
Y0380436D01*
X0897594D01*
Y0380324D01*
X0897482D01*
Y0380211D01*
X0897369D01*
Y0380099D01*
X0897257D01*
Y0379987D01*
X0897145D01*
Y0379875D01*
X0896921D01*
Y0379763D01*
X0896809D01*
Y0379650D01*
X0896584D01*
Y0379538D01*
X0896472D01*
Y0379426D01*
X0896247D01*
Y0379314D01*
X0896023D01*
Y0379202D01*
X0895799D01*
Y0379089D01*
X0895462D01*
Y0378977D01*
X0895126D01*
Y0378865D01*
X0894789D01*
Y0378753D01*
X0894116D01*
Y0378641D01*
X0892545D01*
Y0378753D01*
X0891984D01*
Y0378865D01*
X0891535D01*
Y0378977D01*
X0891199D01*
Y0379089D01*
X0890862D01*
Y0379202D01*
X0890526D01*
Y0379314D01*
X0889852D01*
Y0379426D01*
X0888506D01*
Y0379314D01*
X0887833D01*
Y0379202D01*
X0887384D01*
Y0379089D01*
X0887160D01*
Y0378977D01*
X0886823D01*
Y0378865D01*
X0886598D01*
Y0378753D01*
X0886374D01*
Y0378641D01*
X0886150D01*
Y0378528D01*
X0886038D01*
Y0378416D01*
X0885813D01*
Y0378304D01*
X0885701D01*
Y0378192D01*
X0885589D01*
Y0378080D01*
X0885364D01*
Y0377967D01*
X0885252D01*
Y0377855D01*
X0885140D01*
Y0377743D01*
X0885028D01*
Y0377631D01*
X0884916D01*
Y0377519D01*
X0884803D01*
Y0377406D01*
X0884691D01*
Y0377294D01*
X0884579D01*
Y0377182D01*
X0884467D01*
Y0377070D01*
X0884355D01*
Y0376845D01*
X0884242D01*
Y0376733D01*
X0884130D01*
Y0376621D01*
X0884018D01*
Y0376509D01*
X0883906D01*
Y0376284D01*
X0883794D01*
Y0376172D01*
X0883681D01*
Y0375948D01*
X0883569D01*
Y0375723D01*
X0883457D01*
Y0375499D01*
X0883345D01*
Y0375275D01*
X0883233D01*
Y0375050D01*
X0883120D01*
Y0374826D01*
X0883008D01*
Y0374489D01*
X0882896D01*
Y0374041D01*
X0882784D01*
Y0373143D01*
X0882672D01*
Y0372470D01*
X0882784D01*
Y0371572D01*
X0882896D01*
Y0371123D01*
X0883008D01*
Y0370787D01*
X0883120D01*
Y0370562D01*
X0883233D01*
Y0370226D01*
X0883345D01*
Y0370001D01*
X0883457D01*
Y0369889D01*
X0883569D01*
Y0369665D01*
X0883681D01*
Y0369440D01*
X0883794D01*
Y0369328D01*
X0883906D01*
Y0369216D01*
X0884018D01*
Y0369104D01*
X0884130D01*
Y0368879D01*
X0884242D01*
Y0368767D01*
X0884355D01*
Y0368655D01*
X0884467D01*
Y0368543D01*
X0884579D01*
Y0368431D01*
X0884803D01*
Y0368318D01*
X0884916D01*
Y0368206D01*
X0885028D01*
Y0368094D01*
X0885140D01*
Y0367982D01*
X0885364D01*
Y0367870D01*
X0885476D01*
Y0367757D01*
X0885701D01*
Y0367645D01*
X0885925D01*
Y0367533D01*
X0886150D01*
Y0367421D01*
X0886374D01*
Y0367309D01*
X0886711D01*
Y0367196D01*
X0887047D01*
Y0367084D01*
X0887608D01*
Y0366972D01*
X0888282D01*
Y0366860D01*
X0888842D01*
Y0366748D01*
X0889291D01*
Y0366635D01*
X0889628D01*
Y0366523D01*
X0889852D01*
Y0366411D01*
X0890189D01*
Y0366299D01*
X0890413D01*
Y0366187D01*
X0890638D01*
Y0366074D01*
X0890862D01*
Y0365962D01*
X0890974D01*
Y0365850D01*
X0891199D01*
Y0365738D01*
X0891311D01*
Y0365626D01*
X0891535D01*
Y0365513D01*
X0891647D01*
Y0365401D01*
X0891760D01*
Y0365289D01*
X0891984D01*
Y0365177D01*
X0892096D01*
Y0365065D01*
X0892208D01*
Y0364952D01*
X0892321D01*
Y0364840D01*
X0892433D01*
Y0364728D01*
X0892545D01*
Y0364616D01*
X0892657D01*
Y0364504D01*
X0892769D01*
Y0364391D01*
X0892882D01*
Y0364167D01*
X0892994D01*
Y0364055D01*
X0893106D01*
Y0363943D01*
X0893218D01*
Y0363718D01*
X0893330D01*
Y0363606D01*
X0893443D01*
Y0363382D01*
X0893555D01*
Y0363269D01*
X0893667D01*
Y0363045D01*
X0893779D01*
Y0362821D01*
X0893891D01*
Y0362596D01*
X0894004D01*
Y0362372D01*
X0894116D01*
Y0362035D01*
X0894228D01*
Y0361699D01*
X0894340D01*
Y0361362D01*
X0894452D01*
Y0360801D01*
X0894565D01*
Y0359904D01*
X0894677D01*
Y0358894D01*
X0894565D01*
Y0357996D01*
X0894452D01*
Y0357547D01*
X0894340D01*
Y0357099D01*
X0894228D01*
Y0356762D01*
X0894116D01*
Y0356538D01*
X0894004D01*
Y0356201D01*
X0893891D01*
Y0355977D01*
X0893779D01*
Y0355752D01*
X0893667D01*
Y0355528D01*
X0893555D01*
Y0355416D01*
X0893443D01*
Y0355191D01*
X0893330D01*
Y0355079D01*
X0893218D01*
Y0354855D01*
X0893106D01*
Y0354742D01*
X0892994D01*
Y0354630D01*
X0892882D01*
Y0354406D01*
X0892769D01*
Y0354294D01*
X0892657D01*
Y0354181D01*
X0892545D01*
Y0354069D01*
X0892433D01*
Y0353957D01*
X0892321D01*
Y0353845D01*
X0892208D01*
Y0353733D01*
X0892096D01*
Y0353621D01*
X0891984D01*
Y0353508D01*
X0891760D01*
Y0353396D01*
X0891647D01*
Y0353284D01*
X0891535D01*
Y0353172D01*
X0891311D01*
Y0353060D01*
X0891199D01*
Y0352947D01*
X0890974D01*
Y0352835D01*
X0890750D01*
Y0352723D01*
X0890638D01*
Y0352611D01*
X0890413D01*
Y0352499D01*
X0890189D01*
Y0352386D01*
X0889852D01*
Y0352274D01*
X0889628D01*
Y0352162D01*
X0889291D01*
Y0352050D01*
X0888842D01*
Y0351938D01*
X0888282D01*
Y0351825D01*
X0887160D01*
Y0351713D01*
X0886823D01*
Y0351825D01*
X0885701D01*
Y0351938D01*
X0885140D01*
Y0352050D01*
X0884803D01*
Y0352162D01*
X0884467D01*
Y0352274D01*
X0884130D01*
Y0352386D01*
X0883906D01*
Y0352499D01*
X0883569D01*
Y0352611D01*
X0883345D01*
Y0352723D01*
X0883233D01*
Y0352835D01*
X0883008D01*
Y0352947D01*
X0882784D01*
Y0353060D01*
X0882672D01*
Y0353172D01*
X0882447D01*
Y0353284D01*
X0882335D01*
Y0353396D01*
X0882223D01*
Y0353508D01*
X0882111D01*
Y0353621D01*
X0881886D01*
Y0353733D01*
X0881774D01*
Y0353845D01*
X0881662D01*
Y0353957D01*
X0881550D01*
Y0354069D01*
X0881437D01*
Y0354181D01*
X0881325D01*
Y0354406D01*
X0881213D01*
Y0354518D01*
X0881101D01*
Y0354630D01*
X0880989D01*
Y0354742D01*
X0880876D01*
Y0354967D01*
X0880764D01*
Y0355079D01*
X0880652D01*
Y0355191D01*
X0880540D01*
Y0355416D01*
X0880428D01*
Y0355640D01*
X0880315D01*
Y0355864D01*
X0880203D01*
Y0356089D01*
X0880091D01*
Y0356313D01*
X0879979D01*
Y0356538D01*
X0879867D01*
Y0356874D01*
X0879755D01*
Y0357211D01*
X0879642D01*
Y0357547D01*
X0879530D01*
Y0358108D01*
X0879418D01*
Y0360689D01*
X0879530D01*
Y0361250D01*
X0879642D01*
Y0361586D01*
X0879755D01*
Y0361923D01*
X0879867D01*
Y0362260D01*
X0879979D01*
Y0362484D01*
X0880091D01*
Y0362708D01*
X0880203D01*
Y0363045D01*
X0880315D01*
Y0363269D01*
X0880428D01*
Y0363494D01*
X0880540D01*
Y0363830D01*
X0880652D01*
Y0364167D01*
X0880764D01*
Y0364616D01*
X0880876D01*
Y0365289D01*
X0880989D01*
Y0366523D01*
X0880876D01*
Y0367196D01*
X0880764D01*
Y0367645D01*
X0880652D01*
Y0367982D01*
X0880540D01*
Y0368318D01*
X0880428D01*
Y0368543D01*
X0880315D01*
Y0368767D01*
X0880203D01*
Y0368992D01*
X0880091D01*
Y0369104D01*
X0879979D01*
Y0369328D01*
X0879867D01*
Y0369440D01*
X0879755D01*
Y0369553D01*
X0879642D01*
Y0369665D01*
X0879530D01*
Y0369889D01*
X0879418D01*
Y0370001D01*
X0879306D01*
Y0370113D01*
X0879193D01*
Y0370226D01*
X0878969D01*
Y0370338D01*
X0878857D01*
Y0370450D01*
X0878745D01*
Y0370562D01*
X0878633D01*
Y0370674D01*
X0878408D01*
Y0370787D01*
X0878296D01*
Y0370899D01*
X0878071D01*
Y0371011D01*
X0877847D01*
Y0371123D01*
X0877623D01*
Y0371235D01*
X0877398D01*
Y0371348D01*
X0877062D01*
Y0371460D01*
X0876725D01*
Y0371572D01*
X0876501D01*
Y0371684D01*
X0876164D01*
Y0371796D01*
X0875940D01*
Y0371909D01*
X0875828D01*
Y0372021D01*
X0875603D01*
Y0372133D01*
X0875491D01*
Y0372245D01*
X0875267D01*
Y0372358D01*
X0875154D01*
Y0372470D01*
X0875042D01*
Y0372582D01*
X0874930D01*
Y0372694D01*
X0874818D01*
Y0372806D01*
X0874706D01*
Y0372919D01*
X0874593D01*
Y0373031D01*
X0874481D01*
Y0373255D01*
X0874369D01*
Y0373367D01*
X0874257D01*
Y0373592D01*
X0874145D01*
Y0373704D01*
X0874032D01*
Y0373928D01*
X0873920D01*
Y0374265D01*
X0873808D01*
Y0374489D01*
X0873696D01*
Y0374938D01*
X0873584D01*
Y0375499D01*
X0873471D01*
Y0376733D01*
X0873584D01*
Y0377294D01*
X0873696D01*
Y0377631D01*
X0873808D01*
Y0377967D01*
X0873920D01*
Y0378192D01*
X0874032D01*
Y0378416D01*
X0874145D01*
Y0378641D01*
X0874257D01*
Y0378865D01*
X0874369D01*
Y0378977D01*
X0874481D01*
Y0379089D01*
X0874593D01*
Y0379314D01*
X0874706D01*
Y0379426D01*
X0874818D01*
Y0379538D01*
X0874930D01*
Y0379650D01*
X0875042D01*
Y0379763D01*
X0875267D01*
Y0379875D01*
X0875379D01*
Y0379987D01*
X0875491D01*
Y0380099D01*
X0875715D01*
Y0380211D01*
X0875828D01*
Y0380324D01*
X0876052D01*
Y0380436D01*
X0876276D01*
Y0380548D01*
X0876501D01*
Y0380660D01*
X0876837D01*
Y0380772D01*
X0877286D01*
Y0380885D01*
X0878071D01*
Y0380997D01*
X0878520D01*
Y0380885D01*
X0879418D01*
Y0380772D01*
X0880428D01*
Y0380660D01*
X0881774D01*
Y0380772D01*
X0882559D01*
Y0380885D01*
X0882896D01*
Y0380997D01*
X0883233D01*
Y0381109D01*
X0883569D01*
Y0381221D01*
X0883794D01*
Y0381333D01*
X0884130D01*
Y0381446D01*
X0884355D01*
Y0381558D01*
X0884467D01*
Y0381670D01*
X0884691D01*
Y0381782D01*
X0884916D01*
Y0381894D01*
X0885140D01*
Y0382007D01*
X0885364D01*
Y0382119D01*
X0885476D01*
Y0382231D01*
X0885589D01*
Y0382343D01*
X0885813D01*
Y0382455D01*
X0885925D01*
Y0382568D01*
X0886038D01*
Y0382680D01*
X0886150D01*
Y0382792D01*
X0886262D01*
Y0382904D01*
X0886374D01*
Y0383016D01*
X0886486D01*
Y0383241D01*
X0886598D01*
Y0383353D01*
X0886711D01*
Y0383577D01*
X0886823D01*
Y0383802D01*
X0886935D01*
Y0384026D01*
X0887047D01*
Y0384363D01*
X0887160D01*
Y0384699D01*
X0887272D01*
Y0385372D01*
X0887384D01*
Y0386382D01*
X0887272D01*
Y0386943D01*
X0887160D01*
Y0387280D01*
X0887047D01*
Y0387616D01*
X0886935D01*
Y0387841D01*
X0886823D01*
Y0388065D01*
X0886711D01*
Y0388177D01*
X0886598D01*
Y0388402D01*
X0886486D01*
Y0388514D01*
X0886374D01*
Y0388626D01*
X0886262D01*
Y0388851D01*
X0886150D01*
Y0388963D01*
X0886038D01*
Y0389075D01*
X0885925D01*
Y0389187D01*
X0885701D01*
Y0389299D01*
X0885589D01*
Y0389411D01*
X0885476D01*
Y0389524D01*
X0885252D01*
Y0389636D01*
X0885028D01*
Y0389748D01*
X0884803D01*
Y0389860D01*
X0884579D01*
Y0389972D01*
X0884242D01*
Y0390085D01*
X0883794D01*
Y0390197D01*
X0882335D01*
Y0390085D01*
X0881886D01*
Y0389972D01*
X0881325D01*
Y0389860D01*
X0879081D01*
Y0389972D01*
X0878520D01*
Y0390085D01*
X0878071D01*
Y0390197D01*
X0877847D01*
Y0390309D01*
X0877511D01*
Y0390421D01*
X0877286D01*
Y0390533D01*
X0877062D01*
Y0390646D01*
X0876837D01*
Y0390758D01*
X0876613D01*
Y0390870D01*
X0876501D01*
Y0390982D01*
X0876276D01*
Y0391094D01*
X0876164D01*
Y0391207D01*
X0876052D01*
Y0391319D01*
X0875828D01*
Y0391431D01*
X0875715D01*
Y0391543D01*
X0875603D01*
Y0391655D01*
X0875491D01*
Y0391768D01*
X0875379D01*
Y0391880D01*
X0875267D01*
Y0391992D01*
X0875154D01*
Y0392104D01*
X0875042D01*
Y0392329D01*
X0874930D01*
Y0392441D01*
X0874818D01*
Y0392553D01*
X0874706D01*
Y0392777D01*
X0874593D01*
Y0392890D01*
X0874481D01*
Y0393114D01*
X0874369D01*
Y0393338D01*
X0874257D01*
Y0393563D01*
X0874145D01*
Y0393787D01*
X0874032D01*
Y0394012D01*
X0873920D01*
Y0394348D01*
X0873808D01*
Y0394685D01*
X0873696D01*
Y0395134D01*
X0873584D01*
Y0395807D01*
X0873471D01*
Y0397153D01*
X0873584D01*
Y0397826D01*
X0873696D01*
Y0398275D01*
X0873808D01*
Y0398724D01*
X0873920D01*
Y0398948D01*
X0874032D01*
Y0399285D01*
X0874145D01*
Y0399509D01*
X0874257D01*
Y0399734D01*
X0874369D01*
Y0399958D01*
X0874481D01*
Y0400070D01*
X0874593D01*
Y0400295D01*
X0874706D01*
Y0400407D01*
X0874818D01*
Y0400519D01*
X0874930D01*
Y0400743D01*
X0875042D01*
Y0400856D01*
X0875154D01*
Y0400968D01*
X0875267D01*
Y0401080D01*
X0875379D01*
Y0401192D01*
X0875491D01*
Y0401304D01*
X0875603D01*
Y0401417D01*
X0875715D01*
Y0401529D01*
X0875828D01*
Y0401641D01*
X0875940D01*
Y0401753D01*
X0876164D01*
Y0401865D01*
X0876276D01*
Y0401978D01*
X0876388D01*
Y0402090D01*
X0876613D01*
Y0402202D01*
X0876725D01*
Y0402314D01*
X0876950D01*
Y0402426D01*
X0877174D01*
Y0402539D01*
X0877398D01*
Y0402651D01*
X0877735D01*
Y0402763D01*
X0877959D01*
Y0402875D01*
X0878408D01*
Y0402987D01*
X0878857D01*
Y0403100D01*
X0879530D01*
Y0403212D01*
X0880764D01*
Y0403100D01*
D02*
G37*
G36*
X0891199Y0342176D02*
X0891423D01*
Y0342064D01*
X0891535D01*
Y0341952D01*
X0891647D01*
Y0337913D01*
X0891535D01*
Y0337688D01*
X0891199D01*
Y0337576D01*
X0874257D01*
Y0337688D01*
X0874032D01*
Y0337801D01*
X0873920D01*
Y0337913D01*
X0873808D01*
Y0341840D01*
X0873920D01*
Y0342064D01*
X0874032D01*
Y0342176D01*
X0874369D01*
Y0342288D01*
X0891199D01*
Y0342176D01*
D02*
G37*
G36*
X0896921Y0342625D02*
X0897482D01*
Y0342513D01*
X0897818D01*
Y0342401D01*
X0898043D01*
Y0342288D01*
X0898267D01*
Y0342176D01*
X0898379D01*
Y0342064D01*
X0898491D01*
Y0341952D01*
X0898604D01*
Y0341840D01*
X0898716D01*
Y0341727D01*
X0898828D01*
Y0341615D01*
X0898940D01*
Y0341503D01*
X0899053D01*
Y0341279D01*
X0899165D01*
Y0341054D01*
X0899277D01*
Y0340718D01*
X0899389D01*
Y0340044D01*
X0899501D01*
Y0339820D01*
X0899389D01*
Y0339147D01*
X0899277D01*
Y0338810D01*
X0899165D01*
Y0338586D01*
X0899053D01*
Y0338362D01*
X0898940D01*
Y0338249D01*
X0898828D01*
Y0338137D01*
X0898716D01*
Y0338025D01*
X0898604D01*
Y0337913D01*
X0898491D01*
Y0337801D01*
X0898379D01*
Y0337688D01*
X0898267D01*
Y0337576D01*
X0898043D01*
Y0337464D01*
X0897818D01*
Y0337352D01*
X0897482D01*
Y0337240D01*
X0897033D01*
Y0337127D01*
X0896360D01*
Y0337240D01*
X0895799D01*
Y0337352D01*
X0895574D01*
Y0337464D01*
X0895350D01*
Y0337576D01*
X0895126D01*
Y0337688D01*
X0895013D01*
Y0337801D01*
X0894901D01*
Y0337913D01*
X0894677D01*
Y0338137D01*
X0894565D01*
Y0338249D01*
X0894452D01*
Y0338362D01*
X0894340D01*
Y0338586D01*
X0894228D01*
Y0338810D01*
X0894116D01*
Y0339035D01*
X0894004D01*
Y0339596D01*
X0893891D01*
Y0340269D01*
X0894004D01*
Y0340830D01*
X0894116D01*
Y0341054D01*
X0894228D01*
Y0341279D01*
X0894340D01*
Y0341503D01*
X0894452D01*
Y0341615D01*
X0894565D01*
Y0341727D01*
X0894677D01*
Y0341840D01*
X0894789D01*
Y0341952D01*
X0894901D01*
Y0342064D01*
X0895013D01*
Y0342176D01*
X0895126D01*
Y0342288D01*
X0895350D01*
Y0342401D01*
X0895574D01*
Y0342513D01*
X0895911D01*
Y0342625D01*
X0896472D01*
Y0342737D01*
X0896921D01*
Y0342625D01*
D02*
G37*
G36*
X0891311Y0334435D02*
X0891535D01*
Y0334210D01*
X0891647D01*
Y0330396D01*
X0891535D01*
Y0330283D01*
X0891423D01*
Y0330171D01*
X0891199D01*
Y0330059D01*
X0890189D01*
Y0329947D01*
X0889628D01*
Y0329835D01*
X0889740D01*
Y0329722D01*
X0889852D01*
Y0329610D01*
X0889964D01*
Y0329498D01*
X0890077D01*
Y0329386D01*
X0890189D01*
Y0329274D01*
X0890301D01*
Y0329049D01*
X0890413D01*
Y0328937D01*
X0890526D01*
Y0328825D01*
X0890638D01*
Y0328600D01*
X0890750D01*
Y0328488D01*
X0890862D01*
Y0328376D01*
X0890974D01*
Y0328152D01*
X0891086D01*
Y0327927D01*
X0891199D01*
Y0327703D01*
X0891311D01*
Y0327478D01*
X0891423D01*
Y0327254D01*
X0891535D01*
Y0326917D01*
X0891647D01*
Y0326581D01*
X0891760D01*
Y0326244D01*
X0891872D01*
Y0325571D01*
X0891984D01*
Y0324225D01*
X0891872D01*
Y0324000D01*
X0891760D01*
Y0323888D01*
X0891647D01*
Y0323776D01*
X0888394D01*
Y0323888D01*
X0888169D01*
Y0324000D01*
X0888057D01*
Y0324225D01*
X0887945D01*
Y0325122D01*
X0887833D01*
Y0325795D01*
X0887720D01*
Y0326356D01*
X0887608D01*
Y0326693D01*
X0887496D01*
Y0327030D01*
X0887384D01*
Y0327366D01*
X0887272D01*
Y0327591D01*
X0887160D01*
Y0327927D01*
X0887047D01*
Y0328152D01*
X0886935D01*
Y0328264D01*
X0886823D01*
Y0328488D01*
X0886711D01*
Y0328713D01*
X0886598D01*
Y0328937D01*
X0886486D01*
Y0329049D01*
X0886374D01*
Y0329161D01*
X0886262D01*
Y0329386D01*
X0886150D01*
Y0329498D01*
X0886038D01*
Y0329610D01*
X0885925D01*
Y0329835D01*
X0874481D01*
Y0329947D01*
X0874032D01*
Y0330059D01*
X0873920D01*
Y0330283D01*
X0873808D01*
Y0334098D01*
X0873920D01*
Y0334322D01*
X0874032D01*
Y0334435D01*
X0874257D01*
Y0334547D01*
X0891311D01*
Y0334435D01*
D02*
G37*
%LPC*%
G36*
X0880876Y0293146D02*
Y0297746D01*
X0880764D01*
Y0298195D01*
X0880652D01*
Y0298419D01*
X0880540D01*
Y0298531D01*
X0880428D01*
Y0298644D01*
X0880315D01*
Y0298756D01*
X0880203D01*
X0880091D01*
Y0298868D01*
X0879979D01*
X0879867D01*
Y0298980D01*
X0879755D01*
X0879642D01*
X0879530D01*
X0879418D01*
X0879306D01*
X0879193D01*
X0879081D01*
X0878969D01*
X0878857D01*
X0878745D01*
X0878633D01*
X0878520D01*
X0878408D01*
X0878296D01*
X0878184D01*
X0878071D01*
Y0298868D01*
X0877959D01*
X0877847D01*
Y0298756D01*
X0877735D01*
Y0298644D01*
X0877623D01*
Y0298531D01*
X0877511D01*
Y0298419D01*
X0877398D01*
Y0298195D01*
X0877286D01*
Y0297746D01*
X0877174D01*
Y0296624D01*
X0877286D01*
Y0295951D01*
X0877398D01*
Y0295614D01*
X0877511D01*
Y0295278D01*
X0877623D01*
Y0295053D01*
X0877735D01*
Y0294717D01*
X0877847D01*
Y0294492D01*
X0877959D01*
Y0294380D01*
X0878071D01*
Y0294156D01*
X0878184D01*
Y0293931D01*
X0878296D01*
Y0293819D01*
X0878408D01*
Y0293595D01*
X0878520D01*
Y0293482D01*
X0878633D01*
Y0293258D01*
X0878745D01*
Y0293146D01*
X0878857D01*
X0878969D01*
X0879081D01*
X0879193D01*
X0879306D01*
X0879418D01*
X0879530D01*
X0879642D01*
X0879755D01*
X0879867D01*
X0879979D01*
X0880091D01*
X0880203D01*
X0880315D01*
X0880428D01*
X0880540D01*
X0880652D01*
X0880764D01*
X0880876D01*
D02*
G37*
%LPD*%
D10*
X0609486Y0395336D02*
G03*
X0609486Y0395336I-0002993J0000000D01*
G01*
X0591573D02*
G03*
X0591573Y0395336I-0002993J0000000D01*
G01*
X0609486Y0371812D02*
G03*
X0609486Y0371812I-0002993J0000000D01*
G01*
X0591573D02*
G03*
X0591573Y0371812I-0002993J0000000D01*
G01*
X0431083Y0343706D02*
G03*
X0431083Y0343706I-0002993J0000000D01*
G01*
X0420059Y0343470D02*
G03*
X0420059Y0343470I-0002993J0000000D01*
G01*
X0594826Y0513844D02*
G03*
X0594826Y0513844I-0000197J0000000D01*
G01*
X0544826Y0530183D02*
G03*
X0544826Y0530183I-0000197J0000000D01*
G01*
X0836513Y0627171D02*
Y0634651D01*
X0840450D01*
Y0627171D02*
Y0634651D01*
X0836513Y0627171D02*
X0840450D01*
X0836533Y0632001D02*
Y0636135D01*
X0828855D02*
X0836533D01*
X0828855Y0632001D02*
Y0636135D01*
Y0632001D02*
X0836533D01*
X0824859Y0627092D02*
Y0634572D01*
X0828796D01*
Y0627092D02*
Y0634572D01*
X0824859Y0627092D02*
X0828796D01*
X0624885Y0471226D02*
Y0479100D01*
X0633350D02*
X0633369Y0471226D01*
X0743999Y0505045D02*
X0744393D01*
X0835410Y0645466D02*
X0842891D01*
Y0641529D02*
Y0645466D01*
X0835410Y0641529D02*
X0842891D01*
X0835410D02*
Y0645466D01*
D11*
X0594196Y0389037D02*
G03*
X0600512Y0389035I0003158J0000197D01*
G01*
X0386985Y0485439D02*
G03*
X0386985Y0485439I-0000197J0000000D01*
G01*
X0628493Y0533710D02*
X0634493D01*
Y0522710D02*
Y0533710D01*
X0628493Y0522710D02*
X0634493D01*
X0628493D02*
Y0533710D01*
X0577857Y0389078D02*
X0583357D01*
X0577857Y0377578D02*
Y0389078D01*
Y0377578D02*
X0583357D01*
Y0389078D01*
X0591257Y0377005D02*
Y0389210D01*
Y0377005D02*
X0603462D01*
Y0389210D01*
X0591257D02*
X0603462D01*
X0577846Y0377578D02*
Y0389078D01*
X0572346Y0377578D02*
X0577846D01*
X0572346D02*
Y0389078D01*
X0577846D01*
X0688133Y0485458D02*
X0688291Y0485301D01*
X0688133Y0485458D02*
Y0489435D01*
X0688291Y0485301D02*
X0693802D01*
X0732228Y0485380D02*
X0737543D01*
X0737621Y0485458D01*
Y0489395D01*
X0737661Y0527702D02*
Y0531285D01*
X0737543Y0531403D02*
X0737661Y0531285D01*
X0732149Y0531403D02*
X0737543D01*
X0688133Y0531442D02*
X0693802D01*
X0688094Y0531403D02*
X0688133Y0531442D01*
X0688094Y0527702D02*
Y0531403D01*
X0576781Y0424634D02*
X0587781D01*
X0576781Y0418634D02*
Y0424634D01*
Y0418634D02*
X0587781D01*
Y0424634D01*
X0379877Y0366798D02*
X0391377D01*
X0379877D02*
Y0372298D01*
X0391377D01*
Y0366798D02*
Y0372298D01*
X0589466Y0430629D02*
X0606552D01*
X0589466Y0416929D02*
X0606552D01*
X0589466D02*
Y0430629D01*
X0606552Y0416929D02*
Y0430629D01*
X0410338Y0483680D02*
X0415838D01*
Y0495180D01*
X0410338D02*
X0415838D01*
X0410338Y0483680D02*
Y0495180D01*
X0266426Y0279403D02*
X0272426D01*
Y0268403D02*
Y0279403D01*
X0266426Y0268403D02*
X0272426D01*
X0266426D02*
Y0279403D01*
X0273836Y0267486D02*
Y0280084D01*
Y0267486D02*
X0295883D01*
Y0280084D01*
X0273836Y0280084D02*
X0295883Y0280084D01*
X0416328Y0489446D02*
Y0495446D01*
X0427328D01*
Y0489446D02*
Y0495446D01*
X0416328Y0489446D02*
X0427328D01*
X0427328Y0483462D02*
Y0489462D01*
X0416328Y0483462D02*
X0427328D01*
X0416328D02*
Y0489462D01*
X0427328D01*
X0709596Y0417793D02*
Y0423793D01*
X0720596D01*
Y0417793D02*
Y0423793D01*
X0709596Y0417793D02*
X0720596D01*
X0709596Y0411809D02*
Y0417809D01*
X0720596D01*
Y0411809D02*
Y0417809D01*
X0709596Y0411809D02*
X0720596D01*
X0399485Y0537978D02*
X0403422D01*
X0399485Y0525773D02*
X0403422D01*
X0399485D02*
Y0537978D01*
X0403422Y0525773D02*
Y0537978D01*
X0413172Y0525830D02*
Y0537330D01*
X0418672D01*
Y0525830D02*
Y0537330D01*
X0413172Y0525830D02*
X0418672D01*
X0770828Y0284677D02*
X0804293D01*
Y0310169D01*
X0770828D02*
X0804293D01*
X0770828Y0284677D02*
Y0310169D01*
X0706852Y0285149D02*
X0740316D01*
Y0310641D01*
X0706852D02*
X0740316D01*
X0706852Y0285149D02*
Y0310641D01*
X0410368Y0483665D02*
Y0495165D01*
X0404868Y0483665D02*
X0410368D01*
X0404868D02*
Y0495165D01*
X0410368D01*
X0714292Y0609074D02*
X0720292D01*
X0714292D02*
Y0620074D01*
X0720292D01*
Y0609074D02*
Y0620074D01*
X0705709Y0609078D02*
X0711709D01*
X0705709D02*
Y0620078D01*
X0711709D01*
Y0609078D02*
Y0620078D01*
X0773877Y0395458D02*
X0790964D01*
X0773877Y0381757D02*
X0790964D01*
X0773877D02*
Y0395458D01*
X0790964Y0381757D02*
Y0395458D01*
X0769891Y0395712D02*
Y0401712D01*
X0758891Y0395712D02*
X0769891D01*
X0758891D02*
Y0401712D01*
X0769891D01*
X0769889Y0389722D02*
Y0395722D01*
X0758889Y0389722D02*
X0769889D01*
X0758889D02*
Y0395722D01*
X0769889D01*
X0769889Y0381376D02*
Y0387376D01*
X0758889Y0381376D02*
X0769889D01*
X0758889D02*
Y0387376D01*
X0769889D01*
Y0375352D02*
Y0381352D01*
X0758889Y0375352D02*
X0769889D01*
X0758889D02*
Y0381352D01*
X0769889D01*
X0709604Y0361778D02*
Y0367778D01*
X0720604D01*
Y0361778D02*
Y0367778D01*
X0709604Y0361778D02*
X0720604D01*
X0709604Y0367763D02*
Y0373763D01*
X0720604D01*
Y0367763D02*
Y0373763D01*
X0709604Y0367763D02*
X0720604D01*
X0709604Y0373747D02*
Y0379747D01*
X0720604D01*
Y0373747D02*
Y0379747D01*
X0709604Y0373747D02*
X0720604D01*
X0709604Y0379770D02*
Y0385770D01*
X0720604D01*
Y0379770D02*
Y0385770D01*
X0709604Y0379770D02*
X0720604D01*
X0709604Y0385794D02*
Y0391794D01*
X0720604D01*
Y0385794D02*
Y0391794D01*
X0709604Y0385794D02*
X0720604D01*
X0709604Y0391778D02*
Y0397778D01*
X0720604D01*
Y0391778D02*
Y0397778D01*
X0709604Y0391778D02*
X0720604D01*
X0709604Y0397802D02*
Y0403802D01*
X0720604D01*
Y0397802D02*
Y0403802D01*
X0709604Y0397802D02*
X0720604D01*
X0709604Y0403786D02*
Y0409786D01*
X0720604D01*
Y0403786D02*
Y0409786D01*
X0709604Y0403786D02*
X0720604D01*
X0818602Y0401364D02*
X0819980D01*
Y0343578D02*
Y0401364D01*
X0818602Y0343578D02*
X0819980D01*
X0801988D02*
X0804822D01*
X0801988D02*
Y0347545D01*
Y0397397D02*
Y0401364D01*
X0804822D01*
X0808497Y0310157D02*
X0814497D01*
Y0299157D02*
Y0310157D01*
X0808497Y0299157D02*
X0814497D01*
X0808497D02*
Y0310157D01*
X0744560Y0310630D02*
X0750560D01*
Y0299630D02*
Y0310630D01*
X0744560Y0299630D02*
X0750560D01*
X0744560D02*
Y0310630D01*
X0392273Y0340131D02*
X0398273D01*
X0392273D02*
Y0351131D01*
X0398273D01*
Y0340131D02*
Y0351131D01*
X0392294Y0329100D02*
X0398294D01*
X0392294D02*
Y0340100D01*
X0398294D01*
Y0329100D02*
Y0340100D01*
X0386296D02*
X0392296D01*
Y0329100D02*
Y0340100D01*
X0386296Y0329100D02*
X0392296D01*
X0386296D02*
Y0340100D01*
X0378475D02*
X0384475D01*
Y0329100D02*
Y0340100D01*
X0378475Y0329100D02*
X0384475D01*
X0378475D02*
Y0340100D01*
X0372496D02*
X0378496D01*
Y0329100D02*
Y0340100D01*
X0372496Y0329100D02*
X0378496D01*
X0372496D02*
Y0340100D01*
X0379860Y0366771D02*
X0391360D01*
Y0361271D02*
Y0366771D01*
X0379860Y0361271D02*
X0391360D01*
X0379860D02*
Y0366771D01*
X0378070Y0342801D02*
Y0359887D01*
X0391771Y0342801D02*
Y0359887D01*
X0378070Y0342801D02*
X0391771D01*
X0378070Y0359887D02*
X0391771D01*
X0365434Y0376854D02*
Y0437878D01*
X0426458D01*
Y0376854D02*
Y0437878D01*
X0365434Y0376854D02*
X0426458D01*
X0600477Y0409972D02*
Y0415972D01*
X0589477Y0409972D02*
X0600477D01*
X0589477D02*
Y0415972D01*
X0600477D01*
X0587781Y0412630D02*
Y0418630D01*
X0576781Y0412630D02*
X0587781D01*
X0576781D02*
Y0418630D01*
X0587781D01*
X0294521Y0512453D02*
Y0522296D01*
X0315938Y0502611D02*
Y0532375D01*
X0292553Y0502611D02*
Y0532375D01*
X0315938D01*
X0292553Y0502611D02*
X0315938D01*
X0243442Y0609481D02*
X0245804D01*
X0263127Y0565781D02*
Y0591765D01*
X0260765Y0609481D02*
X0263127D01*
X0243442Y0565781D02*
X0263127D01*
Y0605151D02*
Y0609481D01*
X0243442Y0565781D02*
Y0609481D01*
X0850450Y0647277D02*
X0893757D01*
X0850450Y0600033D02*
Y0647277D01*
X0893757Y0600033D02*
Y0647277D01*
X0850450Y0600033D02*
X0893757D01*
X0808497Y0284669D02*
X0814497D01*
X0808497D02*
Y0295669D01*
X0814497D01*
Y0284669D02*
Y0295669D01*
X0744560Y0285141D02*
X0750560D01*
X0744560D02*
Y0296141D01*
X0750560D01*
Y0285141D02*
Y0296141D01*
X0703293Y0480819D02*
X0709293D01*
Y0469819D02*
Y0480819D01*
X0703293Y0469819D02*
X0709293D01*
X0703293D02*
Y0480819D01*
X0587781Y0424637D02*
Y0430637D01*
X0576781Y0424637D02*
X0587781D01*
X0576781D02*
Y0430637D01*
X0587781D01*
X0745267Y0447853D02*
Y0459353D01*
X0739767Y0447853D02*
X0745267D01*
X0739767D02*
Y0459353D01*
X0745267D01*
X0652694Y0517210D02*
X0668694D01*
Y0526041D01*
X0652694D02*
X0668694D01*
X0652694Y0517210D02*
Y0526041D01*
X0655024Y0508785D02*
X0667229D01*
X0655024Y0499730D02*
X0667229D01*
Y0508785D01*
X0655024Y0499730D02*
Y0508785D01*
X0597690Y0489651D02*
X0598379D01*
X0597690D02*
Y0491324D01*
X0608419Y0489651D02*
X0609108D01*
Y0491324D01*
Y0501364D02*
Y0503037D01*
X0608419D02*
X0609108D01*
X0597690D02*
X0598379D01*
X0597690Y0501364D02*
Y0503037D01*
X0540594Y0487860D02*
X0542365D01*
X0540594D02*
Y0489632D01*
X0556342Y0487860D02*
X0558113D01*
Y0489632D01*
Y0503608D02*
Y0505379D01*
X0556342D02*
X0558113D01*
X0540594D02*
X0542365D01*
X0540594Y0503608D02*
Y0505379D01*
X0570023Y0510202D02*
X0574354D01*
X0570023D02*
Y0512761D01*
Y0522407D02*
X0574354D01*
X0570023Y0519848D02*
Y0522407D01*
X0719190Y0469781D02*
X0725190D01*
X0719190D02*
Y0480781D01*
X0725190D01*
Y0469781D02*
Y0480781D01*
X0713204D02*
X0719204D01*
Y0469781D02*
Y0480781D01*
X0713204Y0469781D02*
X0719204D01*
X0713204D02*
Y0480781D01*
X0715407Y0537734D02*
X0721407D01*
X0715407D02*
Y0548734D01*
X0721407D01*
Y0537734D02*
Y0548734D01*
X0731236Y0469781D02*
X0737235D01*
X0731236D02*
Y0480781D01*
X0737235D01*
Y0469781D02*
Y0480781D01*
X0725213Y0469781D02*
X0731213D01*
X0725213D02*
Y0480781D01*
X0731213D01*
Y0469781D02*
Y0480781D01*
X0709416Y0537734D02*
X0715416D01*
X0709416D02*
Y0548734D01*
X0715416D01*
Y0537734D02*
Y0548734D01*
X0697309Y0469819D02*
X0703309D01*
X0697309D02*
Y0480819D01*
X0703309D01*
Y0469819D02*
Y0480819D01*
X0691285Y0469819D02*
X0697285D01*
X0691285D02*
Y0480819D01*
X0697285D01*
Y0469819D02*
Y0480819D01*
X0685262Y0469819D02*
X0691262D01*
X0685262D02*
Y0480819D01*
X0691262D01*
Y0469819D02*
Y0480819D01*
X0460737Y0636036D02*
Y0642036D01*
X0471737D01*
Y0636036D02*
Y0642036D01*
X0460737Y0636036D02*
X0471737D01*
Y0630033D02*
Y0636033D01*
X0460737Y0630033D02*
X0471737D01*
X0460737D02*
Y0636033D01*
X0471737D01*
X0482761Y0636036D02*
Y0642036D01*
X0471761Y0636036D02*
X0482761D01*
X0471761D02*
Y0642036D01*
X0482761D01*
Y0630033D02*
Y0636033D01*
X0471761Y0630033D02*
X0482761D01*
X0471761D02*
Y0636033D01*
X0482761D01*
X0535724Y0483222D02*
X0541724D01*
Y0472222D02*
Y0483222D01*
X0535724Y0472222D02*
X0541724D01*
X0535724D02*
Y0483222D01*
X0555802D02*
X0561802D01*
Y0472222D02*
Y0483222D01*
X0555802Y0472222D02*
X0561802D01*
X0555802D02*
Y0483222D01*
X0520369Y0524978D02*
X0526369D01*
X0520369D02*
Y0535978D01*
X0526369D01*
Y0524978D02*
Y0535978D01*
X0703432Y0537734D02*
X0709432D01*
X0703432D02*
Y0548734D01*
X0709432D01*
Y0537734D02*
Y0548734D01*
X0581649Y0499525D02*
Y0505525D01*
X0592649D01*
Y0499525D02*
Y0505525D01*
X0581649Y0499525D02*
X0592649D01*
X0581649Y0491651D02*
Y0497651D01*
X0592649D01*
Y0491651D02*
Y0497651D01*
X0581649Y0491651D02*
X0592649D01*
X0581649Y0471572D02*
Y0477572D01*
X0592649D01*
Y0471572D02*
Y0477572D01*
X0581649Y0471572D02*
X0592649D01*
X0542417Y0472222D02*
X0548417D01*
X0542417D02*
Y0483222D01*
X0548417D01*
Y0472222D02*
Y0483222D01*
X0697448Y0537734D02*
X0703448D01*
X0697448D02*
Y0548734D01*
X0703448D01*
Y0537734D02*
Y0548734D01*
X0596192Y0519604D02*
Y0525604D01*
X0585192Y0519604D02*
X0596192D01*
X0585192D02*
Y0525604D01*
X0596192D01*
X0581649Y0478265D02*
Y0484265D01*
X0592649D01*
Y0478265D02*
Y0484265D01*
X0581649Y0478265D02*
X0592649D01*
X0549110Y0483222D02*
X0555110D01*
Y0472222D02*
Y0483222D01*
X0549110Y0472222D02*
X0555110D01*
X0549110D02*
Y0483222D01*
X0532808Y0496769D02*
Y0502769D01*
X0521808Y0496769D02*
X0532808D01*
X0521808D02*
Y0502769D01*
X0532808D01*
X0532806Y0503462D02*
Y0509462D01*
X0521806Y0503462D02*
X0532806D01*
X0521806D02*
Y0509462D01*
X0532806D01*
X0507739Y0523076D02*
X0517739D01*
Y0483076D02*
Y0523076D01*
X0507739Y0483076D02*
Y0523076D01*
Y0483076D02*
X0517739D01*
X0569787Y0549887D02*
Y0559887D01*
X0589787D01*
Y0549887D02*
Y0559887D01*
X0569787Y0549887D02*
X0589787D01*
X0611598D02*
Y0559887D01*
X0591598Y0549887D02*
X0611598D01*
X0591598D02*
Y0559887D01*
X0611598D01*
X0633960Y0488903D02*
Y0505439D01*
X0617424Y0488903D02*
Y0505439D01*
X0631991D02*
X0633960D01*
X0631991Y0488903D02*
X0633960D01*
X0617424Y0505439D02*
X0619393D01*
X0617424Y0488903D02*
X0619393D01*
X0580062Y0489139D02*
Y0505675D01*
X0563527Y0489139D02*
Y0505675D01*
X0578094D02*
X0580062D01*
X0578094Y0489139D02*
X0580062D01*
X0563527Y0505675D02*
X0565495D01*
X0563527Y0489139D02*
X0565495D01*
X0589235Y0533234D02*
X0613645D01*
Y0548982D01*
X0589235D02*
X0613645D01*
X0589235Y0533234D02*
Y0548982D01*
X0585180Y0517978D02*
Y0518667D01*
X0592267Y0517978D02*
Y0518667D01*
X0585180Y0513155D02*
Y0513844D01*
X0592267Y0513155D02*
Y0513844D01*
X0585180Y0518667D02*
X0592267D01*
X0585180Y0513155D02*
X0592267D01*
X0529275Y0529297D02*
Y0530084D01*
Y0529297D02*
X0543448D01*
Y0530084D01*
Y0536383D02*
Y0537171D01*
X0529275D02*
X0543448D01*
X0529275Y0536383D02*
Y0537171D01*
X0549747Y0538549D02*
X0567070D01*
X0549747Y0527919D02*
X0567070D01*
X0549747Y0537761D02*
Y0538549D01*
X0567070Y0537761D02*
Y0538549D01*
X0549747Y0527919D02*
Y0528706D01*
X0567070Y0527919D02*
Y0528706D01*
X0571991Y0528116D02*
Y0545439D01*
X0582621Y0528116D02*
Y0545439D01*
X0571991Y0528116D02*
X0572779Y0528116D01*
X0571991Y0545439D02*
X0572779Y0545439D01*
X0581834Y0528116D02*
X0582621Y0528116D01*
X0581834Y0545439D02*
X0582621Y0545439D01*
X0521700Y0516943D02*
X0534700D01*
X0521700Y0510943D02*
Y0516943D01*
Y0510943D02*
X0534700D01*
X0533700D02*
Y0516943D01*
X0534700Y0510943D02*
Y0516943D01*
X0609669Y0511383D02*
Y0529494D01*
X0599039Y0511383D02*
Y0529494D01*
X0759594Y0500635D02*
X0760382D01*
Y0487250D02*
Y0500635D01*
X0759594Y0487250D02*
X0760382D01*
X0748177Y0496698D02*
Y0500635D01*
X0749358D01*
X0748177Y0487250D02*
X0749358Y0487250D01*
X0748177Y0487250D02*
Y0491187D01*
X0256828Y0339533D02*
X0258403Y0341108D01*
X0255253D02*
X0256828Y0339533D01*
Y0344257D01*
X0270607Y0337564D02*
Y0339533D01*
X0243048Y0337564D02*
Y0339533D01*
X0263914Y0313746D02*
X0265096D01*
X0241474Y0319848D02*
Y0320635D01*
X0241080Y0333824D02*
X0272576D01*
X0241080Y0331068D02*
X0272576D01*
X0241080Y0330084D02*
Y0336187D01*
X0272576Y0330084D02*
Y0336187D01*
X0241080D02*
X0272576D01*
X0272182Y0319848D02*
Y0320635D01*
X0248560Y0313746D02*
X0249741D01*
X0278088Y0339533D02*
Y0344257D01*
X0235568Y0339533D02*
X0278088D01*
X0235568D02*
Y0344257D01*
X0634978Y0478379D02*
X0640478D01*
X0634978Y0466879D02*
Y0478379D01*
Y0466879D02*
X0640478D01*
Y0478379D01*
X0622871Y0470642D02*
Y0482142D01*
X0617371Y0470642D02*
X0622871D01*
X0617371D02*
Y0482142D01*
X0622871D01*
X0581497Y0485307D02*
X0592997D01*
X0581497D02*
Y0490807D01*
X0592997D01*
Y0485307D02*
Y0490807D01*
X0610639Y0485259D02*
Y0496759D01*
X0616139D01*
Y0485259D02*
Y0496759D01*
X0610639Y0485259D02*
X0616139D01*
X0596015Y0470809D02*
Y0478809D01*
X0610015D01*
Y0470809D02*
Y0478809D01*
X0596015Y0470809D02*
X0610015D01*
X0595936Y0478840D02*
Y0486840D01*
X0609936D01*
Y0478840D02*
Y0486840D01*
X0595936Y0478840D02*
X0609936D01*
X0625881Y0509116D02*
Y0517116D01*
X0611881Y0509116D02*
X0625881D01*
X0611881D02*
Y0517116D01*
X0625881D01*
X0625921Y0517187D02*
Y0525187D01*
X0611921Y0517187D02*
X0625921D01*
X0611921D02*
Y0525187D01*
X0625921D01*
X0625999Y0525257D02*
Y0533257D01*
X0611999Y0525257D02*
X0625999D01*
X0611999D02*
Y0533257D01*
X0625999D01*
X0562676Y0485509D02*
X0570677D01*
Y0471509D02*
Y0485509D01*
X0562676Y0471509D02*
X0570677D01*
X0562676D02*
Y0485509D01*
X0571732D02*
X0579732D01*
Y0471509D02*
Y0485509D01*
X0571732Y0471509D02*
X0579732D01*
X0571732D02*
Y0485509D01*
X0563422Y0507897D02*
Y0519397D01*
X0557923Y0507897D02*
X0563422D01*
X0557923D02*
Y0519397D01*
X0563422D01*
X0555155Y0511441D02*
Y0522940D01*
X0549655Y0511441D02*
X0555155D01*
X0549655D02*
Y0522940D01*
X0555155D01*
X0540629Y0509305D02*
X0548629D01*
X0540629D02*
Y0523305D01*
X0548629D01*
Y0509305D02*
Y0523305D01*
X0592649Y0506218D02*
Y0512218D01*
X0581649Y0506218D02*
X0592649D01*
X0581649D02*
Y0512218D01*
X0592649D01*
X0669568Y0517236D02*
X0681068D01*
X0669568D02*
Y0522736D01*
X0681068D01*
Y0517236D02*
Y0522736D01*
X0669568Y0528220D02*
X0681068D01*
X0669568D02*
Y0533720D01*
X0681068D01*
Y0528220D02*
Y0533720D01*
X0669489Y0522629D02*
X0680990D01*
X0669489D02*
Y0528129D01*
X0680990D01*
Y0522629D02*
Y0528129D01*
X0639308Y0548773D02*
X0645308D01*
Y0537773D02*
Y0548773D01*
X0639308Y0537773D02*
X0645308D01*
X0639308D02*
Y0548773D01*
X0586885Y0526336D02*
Y0532336D01*
X0597885D01*
Y0526336D02*
Y0532336D01*
X0586885Y0526336D02*
X0597885D01*
X0679277Y0480819D02*
X0685277D01*
Y0469819D02*
Y0480819D01*
X0679277Y0469819D02*
X0685277D01*
X0679277D02*
Y0480819D01*
X0616139Y0496756D02*
Y0508255D01*
X0610639Y0496756D02*
X0616139D01*
X0610639D02*
Y0508255D01*
X0616139D01*
X0741637Y0516149D02*
X0747137D01*
X0741637Y0504649D02*
Y0516149D01*
Y0504649D02*
X0747137D01*
Y0516149D01*
X0533047Y0466647D02*
X0733047D01*
X0533047Y0446647D02*
X0733047D01*
Y0466647D01*
X0533047Y0446647D02*
Y0466647D01*
X0645331Y0535761D02*
X0651332D01*
X0645331Y0536761D02*
X0651332D01*
X0645331Y0535761D02*
Y0548761D01*
X0651332D01*
Y0535761D02*
Y0548761D01*
X0746552Y0447796D02*
X0759151D01*
Y0469844D01*
X0746552D02*
X0759151D01*
X0746552Y0447796D02*
Y0469844D01*
X0722544Y0549887D02*
Y0559887D01*
X0612544Y0549887D02*
X0722544D01*
X0612544D02*
Y0559887D01*
X0620044D01*
X0722544D01*
X0686027Y0537617D02*
X0691527D01*
Y0549117D01*
X0686027D02*
X0691527D01*
X0686027Y0537617D02*
Y0549117D01*
X0472800Y0434147D02*
X0482800D01*
X0472800D02*
Y0474147D01*
X0482800Y0434147D02*
Y0474147D01*
X0472800D02*
X0482800D01*
X0751080Y0479455D02*
X0754228D01*
Y0477881D01*
X0753704Y0477356D01*
X0752654D01*
X0752129Y0477881D01*
Y0479455D01*
Y0478406D02*
X0751080Y0477356D01*
X0753704Y0474207D02*
X0754228Y0474732D01*
Y0475782D01*
X0753704Y0476306D01*
X0753179D01*
X0752654Y0475782D01*
Y0474732D01*
X0752129Y0474207D01*
X0751605D01*
X0751080Y0474732D01*
Y0475782D01*
X0751605Y0476306D01*
X0754228Y0473158D02*
Y0471059D01*
Y0472108D01*
X0751080D01*
X0583566Y0561792D02*
X0586190D01*
X0566066Y0554792D02*
X0568690D01*
X0567378Y0556104D02*
Y0553480D01*
X0606639Y0561619D02*
X0609262D01*
X0575141Y0561595D02*
X0577765D01*
X0576623Y0560122D02*
Y0562746D01*
X0596464Y0560004D02*
Y0562628D01*
X0597664Y0561486D02*
X0595040D01*
X0610990Y0396713D02*
X0613614D01*
X0612302D01*
Y0392777D01*
X0614925D02*
Y0396713D01*
X0616893D01*
X0617549Y0396057D01*
Y0394745D01*
X0616893Y0394089D01*
X0614925D01*
X0621485Y0396713D02*
X0620173Y0396057D01*
X0618861Y0394745D01*
Y0393433D01*
X0619517Y0392777D01*
X0620829D01*
X0621485Y0393433D01*
Y0394089D01*
X0620829Y0394745D01*
X0618861D01*
X0611285Y0373386D02*
X0613909D01*
X0612597D01*
Y0369450D01*
X0615221D02*
Y0373386D01*
X0617189D01*
X0617844Y0372730D01*
Y0371418D01*
X0617189Y0370762D01*
X0615221D01*
X0621780Y0373386D02*
X0619156D01*
Y0371418D01*
X0620468Y0372074D01*
X0621124D01*
X0621780Y0371418D01*
Y0370107D01*
X0621124Y0369450D01*
X0619812D01*
X0619156Y0370107D01*
X0572308Y0397599D02*
X0574932D01*
X0573620D01*
Y0393663D01*
X0576244D02*
Y0397599D01*
X0578212D01*
X0578868Y0396943D01*
Y0395631D01*
X0578212Y0394975D01*
X0576244D01*
X0582148Y0393663D02*
Y0397599D01*
X0580180Y0395631D01*
X0582804D01*
X0571816Y0372993D02*
X0574440D01*
X0573128D01*
Y0369057D01*
X0575752D02*
Y0372993D01*
X0577720D01*
X0578376Y0372337D01*
Y0371025D01*
X0577720Y0370369D01*
X0575752D01*
X0579688Y0372337D02*
X0580344Y0372993D01*
X0581656D01*
X0582312Y0372337D01*
Y0371681D01*
X0581656Y0371025D01*
X0581000D01*
X0581656D01*
X0582312Y0370369D01*
Y0369713D01*
X0581656Y0369057D01*
X0580344D01*
X0579688Y0369713D01*
X0561284Y0380802D02*
X0560628Y0380147D01*
Y0378835D01*
X0561284Y0378179D01*
X0563907D01*
X0564563Y0378835D01*
Y0380147D01*
X0563907Y0380802D01*
X0564563Y0384738D02*
Y0382114D01*
X0561940Y0384738D01*
X0561284D01*
X0560628Y0384082D01*
Y0382770D01*
X0561284Y0382114D01*
Y0386050D02*
X0560628Y0386706D01*
Y0388018D01*
X0561284Y0388674D01*
X0561940D01*
X0562596Y0388018D01*
X0563251Y0388674D01*
X0563907D01*
X0564563Y0388018D01*
Y0386706D01*
X0563907Y0386050D01*
X0563251D01*
X0562596Y0386706D01*
X0561940Y0386050D01*
X0561284D01*
X0562596Y0386706D02*
Y0388018D01*
X0567190Y0380932D02*
X0566534Y0380276D01*
Y0378964D01*
X0567190Y0378308D01*
X0569814D01*
X0570470Y0378964D01*
Y0380276D01*
X0569814Y0380932D01*
X0570470Y0384868D02*
Y0382244D01*
X0567846Y0384868D01*
X0567190D01*
X0566534Y0384212D01*
Y0382900D01*
X0567190Y0382244D01*
X0570470Y0388147D02*
X0566534D01*
X0568502Y0386180D01*
Y0388804D01*
X0592714Y0397106D02*
Y0393826D01*
X0593370Y0393170D01*
X0594682D01*
X0595337Y0393826D01*
Y0397106D01*
X0596649Y0393170D02*
X0597961D01*
X0597305D01*
Y0397106D01*
X0596649Y0396450D01*
X0602553Y0397106D02*
X0601241Y0396450D01*
X0599929Y0395138D01*
Y0393826D01*
X0600585Y0393170D01*
X0601897D01*
X0602553Y0393826D01*
Y0394482D01*
X0601897Y0395138D01*
X0599929D01*
X0369617Y0371451D02*
X0368961Y0372107D01*
X0367650D01*
X0366994Y0371451D01*
Y0368827D01*
X0367650Y0368171D01*
X0368961D01*
X0369617Y0368827D01*
X0373553Y0368171D02*
X0370929D01*
X0373553Y0370795D01*
Y0371451D01*
X0372897Y0372107D01*
X0371585D01*
X0370929Y0371451D01*
X0374865Y0372107D02*
X0377489D01*
Y0371451D01*
X0374865Y0368827D01*
Y0368171D01*
X0283625Y0284860D02*
X0282969Y0285516D01*
X0281657D01*
X0281001Y0284860D01*
Y0284204D01*
X0281657Y0283548D01*
X0282969D01*
X0283625Y0282892D01*
Y0282236D01*
X0282969Y0281580D01*
X0281657D01*
X0281001Y0282236D01*
X0284937Y0281580D02*
X0286249D01*
X0285593D01*
Y0285516D01*
X0284937Y0284860D01*
X0695989Y0419336D02*
Y0423272D01*
X0697957D01*
X0698613Y0422616D01*
Y0421304D01*
X0697957Y0420648D01*
X0695989D01*
X0697301D02*
X0698613Y0419336D01*
X0702549Y0423272D02*
X0701237Y0422616D01*
X0699925Y0421304D01*
Y0419992D01*
X0700581Y0419336D01*
X0701893D01*
X0702549Y0419992D01*
Y0420648D01*
X0701893Y0421304D01*
X0699925D01*
X0706485Y0423272D02*
X0705173Y0422616D01*
X0703861Y0421304D01*
Y0419992D01*
X0704517Y0419336D01*
X0705829D01*
X0706485Y0419992D01*
Y0420648D01*
X0705829Y0421304D01*
X0703861D01*
X0695989Y0412722D02*
Y0416658D01*
X0697957D01*
X0698613Y0416002D01*
Y0414690D01*
X0697957Y0414034D01*
X0695989D01*
X0697301D02*
X0698613Y0412722D01*
X0702549Y0416658D02*
X0701237Y0416002D01*
X0699925Y0414690D01*
Y0413378D01*
X0700581Y0412722D01*
X0701893D01*
X0702549Y0413378D01*
Y0414034D01*
X0701893Y0414690D01*
X0699925D01*
X0706485Y0416658D02*
X0703861D01*
Y0414690D01*
X0705173Y0415346D01*
X0705829D01*
X0706485Y0414690D01*
Y0413378D01*
X0705829Y0412722D01*
X0704517D01*
X0703861Y0413378D01*
X0430017Y0490399D02*
Y0494335D01*
X0431985D01*
X0432641Y0493679D01*
Y0492367D01*
X0431985Y0491711D01*
X0430017D01*
X0431329D02*
X0432641Y0490399D01*
X0436576Y0494335D02*
X0435264Y0493679D01*
X0433953Y0492367D01*
Y0491055D01*
X0434609Y0490399D01*
X0435920D01*
X0436576Y0491055D01*
Y0491711D01*
X0435920Y0492367D01*
X0433953D01*
X0439856Y0490399D02*
Y0494335D01*
X0437888Y0492367D01*
X0440512D01*
X0430017Y0484139D02*
Y0488075D01*
X0431985D01*
X0432641Y0487419D01*
Y0486107D01*
X0431985Y0485451D01*
X0430017D01*
X0431329D02*
X0432641Y0484139D01*
X0436576Y0488075D02*
X0435264Y0487419D01*
X0433953Y0486107D01*
Y0484795D01*
X0434609Y0484139D01*
X0435920D01*
X0436576Y0484795D01*
Y0485451D01*
X0435920Y0486107D01*
X0433953D01*
X0437888Y0487419D02*
X0438544Y0488075D01*
X0439856D01*
X0440512Y0487419D01*
Y0486763D01*
X0439856Y0486107D01*
X0439200D01*
X0439856D01*
X0440512Y0485451D01*
Y0484795D01*
X0439856Y0484139D01*
X0438544D01*
X0437888Y0484795D01*
X0264938Y0282132D02*
Y0286067D01*
X0266906D01*
X0267562Y0285411D01*
Y0284099D01*
X0266906Y0283443D01*
X0264938D01*
X0266250D02*
X0267562Y0282132D01*
X0271498Y0286067D02*
X0270186Y0285411D01*
X0268874Y0284099D01*
Y0282787D01*
X0269530Y0282132D01*
X0270842D01*
X0271498Y0282787D01*
Y0283443D01*
X0270842Y0284099D01*
X0268874D01*
X0275433Y0282132D02*
X0272810D01*
X0275433Y0284755D01*
Y0285411D01*
X0274777Y0286067D01*
X0273465D01*
X0272810Y0285411D01*
X0783546Y0666199D02*
X0782890Y0666855D01*
X0781578D01*
X0780922Y0666199D01*
Y0663575D01*
X0781578Y0662919D01*
X0782890D01*
X0783546Y0663575D01*
X0786826Y0666855D02*
X0785514D01*
X0784858Y0666199D01*
Y0663575D01*
X0785514Y0662919D01*
X0786826D01*
X0787482Y0663575D01*
Y0666199D01*
X0786826Y0666855D01*
X0788794Y0662919D02*
Y0666855D01*
X0791418Y0662919D01*
Y0666855D01*
X0794697Y0662919D02*
Y0666855D01*
X0792730Y0664887D01*
X0795353D01*
X0602261Y0411084D02*
Y0415020D01*
X0604229D01*
X0604885Y0414363D01*
Y0413052D01*
X0604229Y0412396D01*
X0602261D01*
X0603573D02*
X0604885Y0411084D01*
X0608820Y0415020D02*
X0606197D01*
Y0413052D01*
X0607509Y0413708D01*
X0608165D01*
X0608820Y0413052D01*
Y0411740D01*
X0608165Y0411084D01*
X0606853D01*
X0606197Y0411740D01*
X0612756Y0415020D02*
X0611444Y0414363D01*
X0610132Y0413052D01*
Y0411740D01*
X0610788Y0411084D01*
X0612100D01*
X0612756Y0411740D01*
Y0412396D01*
X0612100Y0413052D01*
X0610132D01*
X0564072Y0426044D02*
Y0429980D01*
X0566040D01*
X0566696Y0429324D01*
Y0428012D01*
X0566040Y0427356D01*
X0564072D01*
X0565384D02*
X0566696Y0426044D01*
X0568008Y0429324D02*
X0568664Y0429980D01*
X0569976D01*
X0570632Y0429324D01*
Y0428668D01*
X0569976Y0428012D01*
X0569320D01*
X0569976D01*
X0570632Y0427356D01*
Y0426700D01*
X0569976Y0426044D01*
X0568664D01*
X0568008Y0426700D01*
X0571943Y0429324D02*
X0572599Y0429980D01*
X0573911D01*
X0574567Y0429324D01*
Y0426700D01*
X0573911Y0426044D01*
X0572599D01*
X0571943Y0426700D01*
Y0429324D01*
X0281289Y0325138D02*
X0281945Y0325794D01*
Y0327105D01*
X0281289Y0327761D01*
X0278665D01*
X0278009Y0327105D01*
Y0325794D01*
X0278665Y0325138D01*
X0281945Y0321858D02*
Y0323170D01*
X0281289Y0323826D01*
X0278665D01*
X0278009Y0323170D01*
Y0321858D01*
X0278665Y0321202D01*
X0281289D01*
X0281945Y0321858D01*
X0278009Y0319890D02*
X0281945D01*
X0278009Y0317266D01*
X0281945D01*
X0278009Y0315954D02*
Y0314642D01*
Y0315298D01*
X0281945D01*
X0281289Y0315954D01*
X0366043Y0355201D02*
Y0351921D01*
X0366699Y0351265D01*
X0368011D01*
X0368667Y0351921D01*
Y0355201D01*
X0369979Y0351265D02*
X0371290D01*
X0370635D01*
Y0355201D01*
X0369979Y0354545D01*
X0375882Y0355201D02*
X0373258D01*
Y0353233D01*
X0374570Y0353889D01*
X0375226D01*
X0375882Y0353233D01*
Y0351921D01*
X0375226Y0351265D01*
X0373914D01*
X0373258Y0351921D01*
X0777736Y0402327D02*
Y0399047D01*
X0778392Y0398391D01*
X0779704D01*
X0780360Y0399047D01*
Y0402327D01*
X0781671Y0398391D02*
X0782983D01*
X0782328D01*
Y0402327D01*
X0781671Y0401671D01*
X0786919Y0398391D02*
Y0402327D01*
X0784951Y0400359D01*
X0787575D01*
X0405767Y0339336D02*
X0409703D01*
Y0337368D01*
X0409047Y0336712D01*
X0407735D01*
X0407079Y0337368D01*
Y0339336D01*
Y0338024D02*
X0405767Y0336712D01*
X0409703Y0332777D02*
Y0335401D01*
X0407735D01*
X0408391Y0334088D01*
Y0333433D01*
X0407735Y0332777D01*
X0406423D01*
X0405767Y0333433D01*
Y0334745D01*
X0406423Y0335401D01*
X0409047Y0331465D02*
X0409703Y0330809D01*
Y0329497D01*
X0409047Y0328841D01*
X0408391D01*
X0407735Y0329497D01*
X0407079Y0328841D01*
X0406423D01*
X0405767Y0329497D01*
Y0330809D01*
X0406423Y0331465D01*
X0407079D01*
X0407735Y0330809D01*
X0408391Y0331465D01*
X0409047D01*
X0407735Y0330809D02*
Y0329497D01*
X0758954Y0365021D02*
Y0368956D01*
X0760922D01*
X0761578Y0368301D01*
Y0366989D01*
X0760922Y0366333D01*
X0758954D01*
X0760266D02*
X0761578Y0365021D01*
X0765513Y0368956D02*
X0762890D01*
Y0366989D01*
X0764201Y0367645D01*
X0764857D01*
X0765513Y0366989D01*
Y0365677D01*
X0764857Y0365021D01*
X0763546D01*
X0762890Y0365677D01*
X0766825Y0368956D02*
X0769449D01*
Y0368301D01*
X0766825Y0365677D01*
Y0365021D01*
X0400255Y0339336D02*
X0404191D01*
Y0337368D01*
X0403535Y0336712D01*
X0402223D01*
X0401567Y0337368D01*
Y0339336D01*
Y0338024D02*
X0400255Y0336712D01*
X0404191Y0332777D02*
Y0335401D01*
X0402223D01*
X0402879Y0334088D01*
Y0333433D01*
X0402223Y0332777D01*
X0400911D01*
X0400255Y0333433D01*
Y0334745D01*
X0400911Y0335401D01*
X0404191Y0328841D02*
Y0331465D01*
X0402223D01*
X0402879Y0330153D01*
Y0329497D01*
X0402223Y0328841D01*
X0400911D01*
X0400255Y0329497D01*
Y0330809D01*
X0400911Y0331465D01*
X0759035Y0370635D02*
Y0374571D01*
X0761003D01*
X0761659Y0373915D01*
Y0372603D01*
X0761003Y0371947D01*
X0759035D01*
X0760347D02*
X0761659Y0370635D01*
X0765594Y0374571D02*
X0762971D01*
Y0372603D01*
X0764283Y0373259D01*
X0764939D01*
X0765594Y0372603D01*
Y0371291D01*
X0764939Y0370635D01*
X0763627D01*
X0762971Y0371291D01*
X0768874Y0370635D02*
Y0374571D01*
X0766906Y0372603D01*
X0769530D01*
X0564072Y0413643D02*
Y0417579D01*
X0566040D01*
X0566696Y0416923D01*
Y0415611D01*
X0566040Y0414955D01*
X0564072D01*
X0565384D02*
X0566696Y0413643D01*
X0570632Y0417579D02*
X0568008D01*
Y0415611D01*
X0569320Y0416267D01*
X0569976D01*
X0570632Y0415611D01*
Y0414299D01*
X0569976Y0413643D01*
X0568664D01*
X0568008Y0414299D01*
X0571943Y0416923D02*
X0572599Y0417579D01*
X0573911D01*
X0574567Y0416923D01*
Y0416267D01*
X0573911Y0415611D01*
X0573255D01*
X0573911D01*
X0574567Y0414955D01*
Y0414299D01*
X0573911Y0413643D01*
X0572599D01*
X0571943Y0414299D01*
X0564072Y0419942D02*
Y0423878D01*
X0566040D01*
X0566696Y0423222D01*
Y0421910D01*
X0566040Y0421254D01*
X0564072D01*
X0565384D02*
X0566696Y0419942D01*
X0570632Y0423878D02*
X0568008D01*
Y0421910D01*
X0569320Y0422566D01*
X0569976D01*
X0570632Y0421910D01*
Y0420598D01*
X0569976Y0419942D01*
X0568664D01*
X0568008Y0420598D01*
X0574567Y0419942D02*
X0571943D01*
X0574567Y0422566D01*
Y0423222D01*
X0573911Y0423878D01*
X0572599D01*
X0571943Y0423222D01*
X0379507Y0326935D02*
X0383443D01*
Y0324967D01*
X0382787Y0324311D01*
X0381475D01*
X0380819Y0324967D01*
Y0326935D01*
Y0325623D02*
X0379507Y0324311D01*
X0383443Y0320375D02*
Y0322999D01*
X0381475D01*
X0382131Y0321687D01*
Y0321031D01*
X0381475Y0320375D01*
X0380163D01*
X0379507Y0321031D01*
Y0322343D01*
X0380163Y0322999D01*
X0379507Y0319063D02*
Y0317751D01*
Y0318407D01*
X0383443D01*
X0382787Y0319063D01*
X0373366Y0326935D02*
X0377301D01*
Y0324967D01*
X0376645Y0324311D01*
X0375334D01*
X0374678Y0324967D01*
Y0326935D01*
Y0325623D02*
X0373366Y0324311D01*
X0377301Y0320375D02*
Y0322999D01*
X0375334D01*
X0375990Y0321687D01*
Y0321031D01*
X0375334Y0320375D01*
X0374022D01*
X0373366Y0321031D01*
Y0322343D01*
X0374022Y0322999D01*
X0376645Y0319063D02*
X0377301Y0318407D01*
Y0317095D01*
X0376645Y0316439D01*
X0374022D01*
X0373366Y0317095D01*
Y0318407D01*
X0374022Y0319063D01*
X0376645D01*
X0759665Y0403509D02*
Y0407445D01*
X0761633D01*
X0762289Y0406789D01*
Y0405477D01*
X0761633Y0404821D01*
X0759665D01*
X0760977D02*
X0762289Y0403509D01*
X0765568D02*
Y0407445D01*
X0763601Y0405477D01*
X0766224D01*
X0767536Y0404165D02*
X0768192Y0403509D01*
X0769504D01*
X0770160Y0404165D01*
Y0406789D01*
X0769504Y0407445D01*
X0768192D01*
X0767536Y0406789D01*
Y0406133D01*
X0768192Y0405477D01*
X0770160D01*
X0759783Y0409139D02*
Y0413075D01*
X0761751D01*
X0762407Y0412419D01*
Y0411107D01*
X0761751Y0410451D01*
X0759783D01*
X0761095D02*
X0762407Y0409139D01*
X0765687D02*
Y0413075D01*
X0763719Y0411107D01*
X0766343D01*
X0767655Y0412419D02*
X0768310Y0413075D01*
X0769622D01*
X0770278Y0412419D01*
Y0411763D01*
X0769622Y0411107D01*
X0770278Y0410451D01*
Y0409795D01*
X0769622Y0409139D01*
X0768310D01*
X0767655Y0409795D01*
Y0410451D01*
X0768310Y0411107D01*
X0767655Y0411763D01*
Y0412419D01*
X0768310Y0411107D02*
X0769622D01*
X0696085Y0362598D02*
Y0366534D01*
X0698053D01*
X0698709Y0365878D01*
Y0364566D01*
X0698053Y0363910D01*
X0696085D01*
X0697397D02*
X0698709Y0362598D01*
X0701989D02*
Y0366534D01*
X0700021Y0364566D01*
X0702645D01*
X0706580Y0366534D02*
X0703957D01*
Y0364566D01*
X0705268Y0365222D01*
X0705924D01*
X0706580Y0364566D01*
Y0363254D01*
X0705924Y0362598D01*
X0704612D01*
X0703957Y0363254D01*
X0696011Y0368570D02*
Y0372505D01*
X0697979D01*
X0698635Y0371849D01*
Y0370537D01*
X0697979Y0369882D01*
X0696011D01*
X0697323D02*
X0698635Y0368570D01*
X0701915D02*
Y0372505D01*
X0699947Y0370537D01*
X0702571D01*
X0705850Y0368570D02*
Y0372505D01*
X0703883Y0370537D01*
X0706506D01*
X0696058Y0374577D02*
Y0378513D01*
X0698026D01*
X0698682Y0377856D01*
Y0376545D01*
X0698026Y0375889D01*
X0696058D01*
X0697370D02*
X0698682Y0374577D01*
X0701962D02*
Y0378513D01*
X0699994Y0376545D01*
X0702618D01*
X0703930Y0377856D02*
X0704586Y0378513D01*
X0705898D01*
X0706554Y0377856D01*
Y0377201D01*
X0705898Y0376545D01*
X0705242D01*
X0705898D01*
X0706554Y0375889D01*
Y0375233D01*
X0705898Y0374577D01*
X0704586D01*
X0703930Y0375233D01*
X0696004Y0380620D02*
Y0384556D01*
X0697972D01*
X0698628Y0383900D01*
Y0382588D01*
X0697972Y0381932D01*
X0696004D01*
X0697316D02*
X0698628Y0380620D01*
X0701908D02*
Y0384556D01*
X0699940Y0382588D01*
X0702563D01*
X0706499Y0380620D02*
X0703875D01*
X0706499Y0383244D01*
Y0383900D01*
X0705843Y0384556D01*
X0704531D01*
X0703875Y0383900D01*
X0696080Y0392546D02*
Y0396481D01*
X0698048D01*
X0698704Y0395825D01*
Y0394514D01*
X0698048Y0393858D01*
X0696080D01*
X0697392D02*
X0698704Y0392546D01*
X0701984D02*
Y0396481D01*
X0700016Y0394514D01*
X0702640D01*
X0703952Y0392546D02*
X0705264D01*
X0704608D01*
Y0396481D01*
X0703952Y0395825D01*
X0696064Y0398650D02*
Y0402586D01*
X0698032D01*
X0698688Y0401930D01*
Y0400618D01*
X0698032Y0399962D01*
X0696064D01*
X0697376D02*
X0698688Y0398650D01*
X0700000Y0401930D02*
X0700656Y0402586D01*
X0701967D01*
X0702623Y0401930D01*
Y0401274D01*
X0701967Y0400618D01*
X0701311D01*
X0701967D01*
X0702623Y0399962D01*
Y0399306D01*
X0701967Y0398650D01*
X0700656D01*
X0700000Y0399306D01*
X0703935D02*
X0704591Y0398650D01*
X0705903D01*
X0706559Y0399306D01*
Y0401930D01*
X0705903Y0402586D01*
X0704591D01*
X0703935Y0401930D01*
Y0401274D01*
X0704591Y0400618D01*
X0706559D01*
X0696042Y0386571D02*
Y0390507D01*
X0698010D01*
X0698666Y0389851D01*
Y0388539D01*
X0698010Y0387883D01*
X0696042D01*
X0697354D02*
X0698666Y0386571D01*
X0699977Y0389851D02*
X0700633Y0390507D01*
X0701945D01*
X0702601Y0389851D01*
Y0389195D01*
X0701945Y0388539D01*
X0701289D01*
X0701945D01*
X0702601Y0387883D01*
Y0387227D01*
X0701945Y0386571D01*
X0700633D01*
X0699977Y0387227D01*
X0703913Y0389851D02*
X0704569Y0390507D01*
X0705881D01*
X0706537Y0389851D01*
Y0389195D01*
X0705881Y0388539D01*
X0706537Y0387883D01*
Y0387227D01*
X0705881Y0386571D01*
X0704569D01*
X0703913Y0387227D01*
Y0387883D01*
X0704569Y0388539D01*
X0703913Y0389195D01*
Y0389851D01*
X0704569Y0388539D02*
X0705881D01*
X0695989Y0404554D02*
Y0408490D01*
X0697957D01*
X0698613Y0407834D01*
Y0406522D01*
X0697957Y0405866D01*
X0695989D01*
X0697301D02*
X0698613Y0404554D01*
X0699925Y0407834D02*
X0700581Y0408490D01*
X0701893D01*
X0702549Y0407834D01*
Y0407178D01*
X0701893Y0406522D01*
X0701237D01*
X0701893D01*
X0702549Y0405866D01*
Y0405210D01*
X0701893Y0404554D01*
X0700581D01*
X0699925Y0405210D01*
X0703861Y0408490D02*
X0706485D01*
Y0407834D01*
X0703861Y0405210D01*
Y0404554D01*
X0369151Y0491303D02*
Y0488024D01*
X0369807Y0487368D01*
X0371118D01*
X0371775Y0488024D01*
Y0491303D01*
X0373086Y0487368D02*
X0374398D01*
X0373742D01*
Y0491303D01*
X0373086Y0490648D01*
X0376366D02*
X0377022Y0491303D01*
X0378334D01*
X0378990Y0490648D01*
Y0489992D01*
X0378334Y0489336D01*
X0377678D01*
X0378334D01*
X0378990Y0488680D01*
Y0488024D01*
X0378334Y0487368D01*
X0377022D01*
X0376366Y0488024D01*
X0366437Y0444138D02*
Y0440858D01*
X0367092Y0440202D01*
X0368404D01*
X0369060Y0440858D01*
Y0444138D01*
X0370372Y0440202D02*
X0371684D01*
X0371028D01*
Y0444138D01*
X0370372Y0443482D01*
X0376276Y0440202D02*
X0373652D01*
X0376276Y0442826D01*
Y0443482D01*
X0375620Y0444138D01*
X0374308D01*
X0373652Y0443482D01*
X0624899Y0432539D02*
Y0429259D01*
X0625555Y0428603D01*
X0626867D01*
X0627523Y0429259D01*
Y0432539D01*
X0628834Y0431883D02*
X0629490Y0432539D01*
X0630802D01*
X0631458Y0431883D01*
Y0431227D01*
X0630802Y0430571D01*
X0631458Y0429915D01*
Y0429259D01*
X0630802Y0428603D01*
X0629490D01*
X0628834Y0429259D01*
Y0429915D01*
X0629490Y0430571D01*
X0628834Y0431227D01*
Y0431883D01*
X0629490Y0430571D02*
X0630802D01*
X0424468Y0352248D02*
X0427092D01*
X0425780D01*
Y0348313D01*
X0428404D02*
Y0352248D01*
X0430372D01*
X0431028Y0351592D01*
Y0350280D01*
X0430372Y0349624D01*
X0428404D01*
X0434963Y0348313D02*
X0432339D01*
X0434963Y0350936D01*
Y0351592D01*
X0434307Y0352248D01*
X0432996D01*
X0432339Y0351592D01*
X0412382Y0352366D02*
X0415005D01*
X0413693D01*
Y0348431D01*
X0416317D02*
Y0352366D01*
X0418285D01*
X0418941Y0351711D01*
Y0350399D01*
X0418285Y0349743D01*
X0416317D01*
X0420253Y0348431D02*
X0421565D01*
X0420909D01*
Y0352366D01*
X0420253Y0351711D01*
X0731893Y0281435D02*
X0731237Y0282091D01*
X0729925D01*
X0729269Y0281435D01*
Y0280779D01*
X0729925Y0280123D01*
X0731237D01*
X0731893Y0279467D01*
Y0278811D01*
X0731237Y0278155D01*
X0729925D01*
X0729269Y0278811D01*
X0733205Y0282091D02*
Y0278155D01*
X0734516Y0279467D01*
X0735828Y0278155D01*
Y0282091D01*
X0737140Y0281435D02*
X0737796Y0282091D01*
X0739108D01*
X0739764Y0281435D01*
Y0280779D01*
X0739108Y0280123D01*
X0738452D01*
X0739108D01*
X0739764Y0279467D01*
Y0278811D01*
X0739108Y0278155D01*
X0737796D01*
X0737140Y0278811D01*
X0798310Y0281435D02*
X0797654Y0282091D01*
X0796342D01*
X0795686Y0281435D01*
Y0280779D01*
X0796342Y0280123D01*
X0797654D01*
X0798310Y0279467D01*
Y0278811D01*
X0797654Y0278155D01*
X0796342D01*
X0795686Y0278811D01*
X0799622Y0282091D02*
Y0278155D01*
X0800934Y0279467D01*
X0802246Y0278155D01*
Y0282091D01*
X0806181Y0278155D02*
X0803558D01*
X0806181Y0280779D01*
Y0281435D01*
X0805525Y0282091D01*
X0804214D01*
X0803558Y0281435D01*
X0400588Y0351241D02*
X0404523D01*
Y0349273D01*
X0403867Y0348617D01*
X0402556D01*
X0401900Y0349273D01*
Y0351241D01*
Y0349929D02*
X0400588Y0348617D01*
X0404523Y0344682D02*
X0403867Y0345994D01*
X0402556Y0347305D01*
X0401244D01*
X0400588Y0346650D01*
Y0345338D01*
X0401244Y0344682D01*
X0401900D01*
X0402556Y0345338D01*
Y0347305D01*
X0403867Y0343370D02*
X0404523Y0342714D01*
Y0341402D01*
X0403867Y0340746D01*
X0401244D01*
X0400588Y0341402D01*
Y0342714D01*
X0401244Y0343370D01*
X0403867D01*
X0752382Y0288549D02*
Y0292484D01*
X0754349D01*
X0755005Y0291829D01*
Y0290517D01*
X0754349Y0289861D01*
X0752382D01*
X0753693D02*
X0755005Y0288549D01*
X0758285D02*
Y0292484D01*
X0756317Y0290517D01*
X0758941D01*
X0760253Y0292484D02*
X0762877D01*
Y0291829D01*
X0760253Y0289205D01*
Y0288549D01*
X0752185Y0303509D02*
Y0307445D01*
X0754152D01*
X0754808Y0306789D01*
Y0305477D01*
X0754152Y0304821D01*
X0752185D01*
X0753497D02*
X0754808Y0303509D01*
X0758088D02*
Y0307445D01*
X0756120Y0305477D01*
X0758744D01*
X0762680Y0307445D02*
X0761368Y0306789D01*
X0760056Y0305477D01*
Y0304165D01*
X0760712Y0303509D01*
X0762024D01*
X0762680Y0304165D01*
Y0304821D01*
X0762024Y0305477D01*
X0760056D01*
X0816161Y0288155D02*
Y0292091D01*
X0818129D01*
X0818785Y0291435D01*
Y0290123D01*
X0818129Y0289467D01*
X0816161D01*
X0817473D02*
X0818785Y0288155D01*
X0822065D02*
Y0292091D01*
X0820097Y0290123D01*
X0822721D01*
X0824032Y0291435D02*
X0824688Y0292091D01*
X0826000D01*
X0826656Y0291435D01*
Y0288811D01*
X0826000Y0288155D01*
X0824688D01*
X0824032Y0288811D01*
Y0291435D01*
X0816358Y0302565D02*
Y0306500D01*
X0818326D01*
X0818982Y0305844D01*
Y0304532D01*
X0818326Y0303876D01*
X0816358D01*
X0817670D02*
X0818982Y0302565D01*
X0820294Y0305844D02*
X0820949Y0306500D01*
X0822261D01*
X0822917Y0305844D01*
Y0305188D01*
X0822261Y0304532D01*
X0821605D01*
X0822261D01*
X0822917Y0303876D01*
Y0303221D01*
X0822261Y0302565D01*
X0820949D01*
X0820294Y0303221D01*
X0826853Y0306500D02*
X0825541Y0305844D01*
X0824229Y0304532D01*
Y0303221D01*
X0824885Y0302565D01*
X0826197D01*
X0826853Y0303221D01*
Y0303876D01*
X0826197Y0304532D01*
X0824229D01*
X0692814Y0613352D02*
Y0617288D01*
X0694782D01*
X0695438Y0616632D01*
Y0615320D01*
X0694782Y0614664D01*
X0692814D01*
X0694126D02*
X0695438Y0613352D01*
X0696750Y0616632D02*
X0697406Y0617288D01*
X0698718D01*
X0699374Y0616632D01*
Y0615976D01*
X0698718Y0615320D01*
X0698062D01*
X0698718D01*
X0699374Y0614664D01*
Y0614008D01*
X0698718Y0613352D01*
X0697406D01*
X0696750Y0614008D01*
X0703310Y0617288D02*
X0700686D01*
Y0615320D01*
X0701998Y0615976D01*
X0702654D01*
X0703310Y0615320D01*
Y0614008D01*
X0702654Y0613352D01*
X0701342D01*
X0700686Y0614008D01*
X0723563Y0612919D02*
Y0616855D01*
X0725530D01*
X0726186Y0616199D01*
Y0614887D01*
X0725530Y0614231D01*
X0723563D01*
X0724874D02*
X0726186Y0612919D01*
X0727498Y0616199D02*
X0728154Y0616855D01*
X0729466D01*
X0730122Y0616199D01*
Y0615543D01*
X0729466Y0614887D01*
X0728810D01*
X0729466D01*
X0730122Y0614231D01*
Y0613575D01*
X0729466Y0612919D01*
X0728154D01*
X0727498Y0613575D01*
X0733402Y0612919D02*
Y0616855D01*
X0731434Y0614887D01*
X0734058D01*
X0266397Y0570517D02*
Y0574453D01*
X0268365D01*
X0269021Y0573797D01*
Y0572485D01*
X0268365Y0571829D01*
X0266397D01*
X0270333Y0574453D02*
X0272957D01*
Y0573797D01*
X0270333Y0571173D01*
Y0570517D01*
X0473200Y0477300D02*
Y0481236D01*
X0475168D01*
X0475824Y0480580D01*
Y0479268D01*
X0475168Y0478612D01*
X0473200D01*
X0479104Y0477300D02*
Y0481236D01*
X0477136Y0479268D01*
X0479760D01*
X0836043Y0651697D02*
Y0647761D01*
X0838667D01*
X0842602Y0651697D02*
X0839979D01*
Y0649729D01*
X0841290Y0650385D01*
X0841947D01*
X0842602Y0649729D01*
Y0648417D01*
X0841947Y0647761D01*
X0840635D01*
X0839979Y0648417D01*
X0820371Y0625551D02*
Y0621615D01*
X0822995D01*
X0826275D02*
Y0625551D01*
X0824307Y0623583D01*
X0826931D01*
X0841631Y0625748D02*
Y0621812D01*
X0844255D01*
X0845567Y0625092D02*
X0846223Y0625748D01*
X0847535D01*
X0848191Y0625092D01*
Y0624436D01*
X0847535Y0623780D01*
X0846879D01*
X0847535D01*
X0848191Y0623124D01*
Y0622468D01*
X0847535Y0621812D01*
X0846223D01*
X0845567Y0622468D01*
X0807171Y0414821D02*
X0806515Y0415477D01*
X0805203D01*
X0804547Y0414821D01*
Y0412197D01*
X0805203Y0411541D01*
X0806515D01*
X0807171Y0412197D01*
X0810450Y0415477D02*
X0809138D01*
X0808482Y0414821D01*
Y0412197D01*
X0809138Y0411541D01*
X0810450D01*
X0811106Y0412197D01*
Y0414821D01*
X0810450Y0415477D01*
X0812418Y0411541D02*
Y0415477D01*
X0815042Y0411541D01*
Y0415477D01*
X0816354Y0414821D02*
X0817010Y0415477D01*
X0818322D01*
X0818978Y0414821D01*
Y0414165D01*
X0818322Y0413509D01*
X0818978Y0412853D01*
Y0412197D01*
X0818322Y0411541D01*
X0817010D01*
X0816354Y0412197D01*
Y0412853D01*
X0817010Y0413509D01*
X0816354Y0414165D01*
Y0414821D01*
X0817010Y0413509D02*
X0818322D01*
X0296108Y0539269D02*
X0295452Y0539925D01*
X0294140D01*
X0293484Y0539269D01*
Y0536646D01*
X0294140Y0535990D01*
X0295452D01*
X0296108Y0536646D01*
X0299387Y0539925D02*
X0298076D01*
X0297420Y0539269D01*
Y0536646D01*
X0298076Y0535990D01*
X0299387D01*
X0300043Y0536646D01*
Y0539269D01*
X0299387Y0539925D01*
X0301355Y0535990D02*
Y0539925D01*
X0303979Y0535990D01*
Y0539925D01*
X0305291D02*
X0307915D01*
Y0539269D01*
X0305291Y0536646D01*
Y0535990D01*
X0719533Y0654230D02*
X0718877Y0654886D01*
X0717565D01*
X0716909Y0654230D01*
Y0651606D01*
X0717565Y0650950D01*
X0718877D01*
X0719533Y0651606D01*
X0722813Y0654886D02*
X0721501D01*
X0720845Y0654230D01*
Y0651606D01*
X0721501Y0650950D01*
X0722813D01*
X0723469Y0651606D01*
Y0654230D01*
X0722813Y0654886D01*
X0724781Y0650950D02*
Y0654886D01*
X0727404Y0650950D01*
Y0654886D01*
X0731340D02*
X0730028Y0654230D01*
X0728716Y0652918D01*
Y0651606D01*
X0729372Y0650950D01*
X0730684D01*
X0731340Y0651606D01*
Y0652262D01*
X0730684Y0652918D01*
X0728716D01*
X0405436Y0480962D02*
X0404780Y0481618D01*
X0403468D01*
X0402812Y0480962D01*
Y0478339D01*
X0403468Y0477683D01*
X0404780D01*
X0405436Y0478339D01*
X0409372Y0477683D02*
X0406748D01*
X0409372Y0480306D01*
Y0480962D01*
X0408716Y0481618D01*
X0407404D01*
X0406748Y0480962D01*
X0410684D02*
X0411340Y0481618D01*
X0412651D01*
X0413307Y0480962D01*
Y0480306D01*
X0412651Y0479650D01*
X0411996D01*
X0412651D01*
X0413307Y0478995D01*
Y0478339D01*
X0412651Y0477683D01*
X0411340D01*
X0410684Y0478339D01*
X0369808Y0365214D02*
X0369152Y0365870D01*
X0367841D01*
X0367185Y0365214D01*
Y0362591D01*
X0367841Y0361935D01*
X0369152D01*
X0369808Y0362591D01*
X0373744Y0361935D02*
X0371120D01*
X0373744Y0364558D01*
Y0365214D01*
X0373088Y0365870D01*
X0371776D01*
X0371120Y0365214D01*
X0377680Y0361935D02*
X0375056D01*
X0377680Y0364558D01*
Y0365214D01*
X0377024Y0365870D01*
X0375712D01*
X0375056Y0365214D01*
X0831558Y0624895D02*
X0830902Y0625551D01*
X0829590D01*
X0828934Y0624895D01*
Y0622271D01*
X0829590Y0621615D01*
X0830902D01*
X0831558Y0622271D01*
X0835494Y0621615D02*
X0832870D01*
X0835494Y0624239D01*
Y0624895D01*
X0834838Y0625551D01*
X0833526D01*
X0832870Y0624895D01*
X0836806Y0621615D02*
X0838118D01*
X0837462D01*
Y0625551D01*
X0836806Y0624895D01*
X0895649Y0639769D02*
Y0642393D01*
X0896961Y0643705D01*
X0898273Y0642393D01*
Y0639769D01*
Y0641737D01*
X0895649D01*
X0899585Y0639769D02*
X0900897D01*
X0900241D01*
Y0643705D01*
X0899585Y0643049D01*
D12*
X0589709Y0389430D02*
G03*
X0589709Y0389430I-0000440J0000000D01*
G01*
X0373344Y0636281D02*
X0412694D01*
Y0596910D02*
Y0636281D01*
X0373344Y0596910D02*
X0412694D01*
X0373344D02*
Y0636281D01*
X0447438Y0663937D02*
Y0660001D01*
X0448225Y0659214D01*
X0449799D01*
X0450587Y0660001D01*
Y0663937D01*
X0452161Y0659214D02*
Y0662362D01*
X0453735Y0663937D01*
X0455310Y0662362D01*
Y0659214D01*
Y0661575D01*
X0452161D01*
X0456884Y0659214D02*
Y0663937D01*
X0459245D01*
X0460032Y0663149D01*
Y0661575D01*
X0459245Y0660788D01*
X0456884D01*
X0458458D02*
X0460032Y0659214D01*
X0461607Y0663937D02*
X0464755D01*
X0463181D01*
Y0659214D01*
X0471053D02*
X0473414D01*
X0474201Y0660001D01*
X0473414Y0660788D01*
X0471840D01*
X0471053Y0661575D01*
X0471840Y0662362D01*
X0474201D01*
X0478137Y0659214D02*
X0476562D01*
X0475775Y0660001D01*
Y0661575D01*
X0476562Y0662362D01*
X0478137D01*
X0478924Y0661575D01*
Y0660788D01*
X0475775D01*
X0480498Y0659214D02*
X0482072D01*
X0481285D01*
Y0663937D01*
X0480498D01*
X0486795Y0659214D02*
X0485221D01*
X0484434Y0660001D01*
Y0661575D01*
X0485221Y0662362D01*
X0486795D01*
X0487583Y0661575D01*
Y0660788D01*
X0484434D01*
X0492306Y0662362D02*
X0489944D01*
X0489157Y0661575D01*
Y0660001D01*
X0489944Y0659214D01*
X0492306D01*
X0494667Y0663149D02*
Y0662362D01*
X0493880D01*
X0495454D01*
X0494667D01*
Y0660001D01*
X0495454Y0659214D01*
X0303403Y0314531D02*
Y0309021D01*
X0306158D01*
X0307076Y0309940D01*
Y0310858D01*
X0306158Y0311776D01*
X0303403D01*
X0306158D01*
X0307076Y0312695D01*
Y0313613D01*
X0306158Y0314531D01*
X0303403D01*
X0309831Y0312695D02*
X0311668D01*
X0312586Y0311776D01*
Y0309021D01*
X0309831D01*
X0308913Y0309940D01*
X0309831Y0310858D01*
X0312586D01*
X0315341Y0313613D02*
Y0312695D01*
X0314423D01*
X0316259D01*
X0315341D01*
Y0309940D01*
X0316259Y0309021D01*
X0319933Y0313613D02*
Y0312695D01*
X0319014D01*
X0320851D01*
X0319933D01*
Y0309940D01*
X0320851Y0309021D01*
X0326361D02*
X0324524D01*
X0323606Y0309940D01*
Y0311776D01*
X0324524Y0312695D01*
X0326361D01*
X0327279Y0311776D01*
Y0310858D01*
X0323606D01*
X0329116Y0312695D02*
Y0309021D01*
Y0310858D01*
X0330034Y0311776D01*
X0330953Y0312695D01*
X0331871D01*
X0334626D02*
Y0309940D01*
X0335544Y0309021D01*
X0338299D01*
Y0308103D01*
X0337381Y0307185D01*
X0336463D01*
X0338299Y0309021D02*
Y0312695D01*
X0247930Y0304571D02*
Y0299979D01*
X0248849Y0299061D01*
X0250685D01*
X0251604Y0299979D01*
Y0304571D01*
X0257114Y0303652D02*
X0256195Y0304571D01*
X0254359D01*
X0253440Y0303652D01*
Y0302734D01*
X0254359Y0301816D01*
X0256195D01*
X0257114Y0300897D01*
Y0299979D01*
X0256195Y0299061D01*
X0254359D01*
X0253440Y0299979D01*
X0258950Y0304571D02*
Y0299061D01*
X0261705D01*
X0262624Y0299979D01*
Y0300897D01*
X0261705Y0301816D01*
X0258950D01*
X0261705D01*
X0262624Y0302734D01*
Y0303652D01*
X0261705Y0304571D01*
X0258950D01*
X0301841Y0304309D02*
X0303677D01*
X0304596Y0303390D01*
Y0300635D01*
X0301841D01*
X0300922Y0301554D01*
X0301841Y0302472D01*
X0304596D01*
X0310106Y0304309D02*
X0307351D01*
X0306432Y0303390D01*
Y0301554D01*
X0307351Y0300635D01*
X0310106D01*
X0312861Y0305227D02*
Y0304309D01*
X0311942D01*
X0313779D01*
X0312861D01*
Y0301554D01*
X0313779Y0300635D01*
X0316534D02*
X0318371D01*
X0317452D01*
Y0304309D01*
X0316534D01*
X0321126D02*
X0322962Y0300635D01*
X0324799Y0304309D01*
X0327554D02*
X0329391D01*
X0330309Y0303390D01*
Y0300635D01*
X0327554D01*
X0326636Y0301554D01*
X0327554Y0302472D01*
X0330309D01*
X0333064Y0305227D02*
Y0304309D01*
X0332146D01*
X0333982D01*
X0333064D01*
Y0301554D01*
X0333982Y0300635D01*
X0339493D02*
X0337656D01*
X0336737Y0301554D01*
Y0303390D01*
X0337656Y0304309D01*
X0339493D01*
X0340411Y0303390D01*
Y0302472D01*
X0336737D01*
X0323010Y0521147D02*
Y0524821D01*
X0321513Y0511973D02*
X0325186D01*
X0323350Y0513810D02*
Y0510136D01*
X0358854Y0545630D02*
X0355706D01*
Y0540907D01*
X0358854D01*
X0355706Y0543268D02*
X0357280D01*
X0363577Y0545630D02*
X0360429D01*
Y0540907D01*
X0363577D01*
X0360429Y0543268D02*
X0362003D01*
X0365152Y0540907D02*
Y0545630D01*
X0367513D01*
X0368300Y0544842D01*
Y0543268D01*
X0367513Y0542481D01*
X0365152D01*
X0369874Y0540907D02*
Y0545630D01*
X0372236D01*
X0373023Y0544842D01*
Y0543268D01*
X0372236Y0542481D01*
X0369874D01*
X0371449D02*
X0373023Y0540907D01*
X0376959Y0545630D02*
X0375384D01*
X0374597Y0544842D01*
Y0541694D01*
X0375384Y0540907D01*
X0376959D01*
X0377746Y0541694D01*
Y0544842D01*
X0376959Y0545630D01*
X0379320Y0540907D02*
Y0545630D01*
X0380894Y0544055D01*
X0382469Y0545630D01*
Y0540907D01*
X0771710Y0322641D02*
Y0317131D01*
X0774465D01*
X0775383Y0318050D01*
Y0318968D01*
X0774465Y0319886D01*
X0771710D01*
X0774465D01*
X0775383Y0320805D01*
Y0321723D01*
X0774465Y0322641D01*
X0771710D01*
X0777220Y0320805D02*
Y0318050D01*
X0778138Y0317131D01*
X0780893D01*
Y0320805D01*
X0783648Y0321723D02*
Y0320805D01*
X0782730D01*
X0784566D01*
X0783648D01*
Y0318050D01*
X0784566Y0317131D01*
X0788240Y0321723D02*
Y0320805D01*
X0787322D01*
X0789158D01*
X0788240D01*
Y0318050D01*
X0789158Y0317131D01*
X0792832D02*
X0794668D01*
X0795586Y0318050D01*
Y0319886D01*
X0794668Y0320805D01*
X0792832D01*
X0791913Y0319886D01*
Y0318050D01*
X0792832Y0317131D01*
X0797423D02*
Y0320805D01*
X0800178D01*
X0801097Y0319886D01*
Y0317131D01*
X0812117D02*
X0808443D01*
X0812117Y0320805D01*
Y0321723D01*
X0811198Y0322641D01*
X0809362D01*
X0808443Y0321723D01*
X0706946Y0322641D02*
Y0317131D01*
X0709701D01*
X0710619Y0318050D01*
Y0318968D01*
X0709701Y0319886D01*
X0706946D01*
X0709701D01*
X0710619Y0320805D01*
Y0321723D01*
X0709701Y0322641D01*
X0706946D01*
X0712456Y0320805D02*
Y0318050D01*
X0713374Y0317131D01*
X0716129D01*
Y0320805D01*
X0718884Y0321723D02*
Y0320805D01*
X0717966D01*
X0719803D01*
X0718884D01*
Y0318050D01*
X0719803Y0317131D01*
X0723476Y0321723D02*
Y0320805D01*
X0722558D01*
X0724394D01*
X0723476D01*
Y0318050D01*
X0724394Y0317131D01*
X0728068D02*
X0729904D01*
X0730823Y0318050D01*
Y0319886D01*
X0729904Y0320805D01*
X0728068D01*
X0727149Y0319886D01*
Y0318050D01*
X0728068Y0317131D01*
X0732659D02*
Y0320805D01*
X0735414D01*
X0736333Y0319886D01*
Y0317131D01*
X0743680D02*
X0745516D01*
X0744598D01*
Y0322641D01*
X0743680Y0321723D01*
X0291396Y0663390D02*
X0290609Y0664177D01*
X0289035D01*
X0288248Y0663390D01*
Y0662603D01*
X0289035Y0661816D01*
X0290609D01*
X0291396Y0661029D01*
Y0660242D01*
X0290609Y0659454D01*
X0289035D01*
X0288248Y0660242D01*
X0293758Y0659454D02*
X0295332D01*
X0296119Y0660242D01*
Y0661816D01*
X0295332Y0662603D01*
X0293758D01*
X0292970Y0661816D01*
Y0660242D01*
X0293758Y0659454D01*
X0297693D02*
X0299268D01*
X0298481D01*
Y0664177D01*
X0297693D01*
X0302416Y0662603D02*
X0303991D01*
X0304778Y0661816D01*
Y0659454D01*
X0302416D01*
X0301629Y0660242D01*
X0302416Y0661029D01*
X0304778D01*
X0306352Y0662603D02*
Y0659454D01*
Y0661029D01*
X0307139Y0661816D01*
X0307926Y0662603D01*
X0308713D01*
X0318946D02*
X0316585D01*
X0315798Y0661816D01*
Y0660242D01*
X0316585Y0659454D01*
X0318946D01*
X0320521Y0664177D02*
Y0659454D01*
Y0661816D01*
X0321308Y0662603D01*
X0322882D01*
X0323669Y0661816D01*
Y0659454D01*
X0326031Y0662603D02*
X0327605D01*
X0328392Y0661816D01*
Y0659454D01*
X0326031D01*
X0325243Y0660242D01*
X0326031Y0661029D01*
X0328392D01*
X0329966Y0662603D02*
Y0659454D01*
Y0661029D01*
X0330753Y0661816D01*
X0331541Y0662603D01*
X0332328D01*
X0336263Y0657880D02*
X0337051D01*
X0337838Y0658667D01*
Y0662603D01*
X0335476D01*
X0334689Y0661816D01*
Y0660242D01*
X0335476Y0659454D01*
X0337838D01*
X0341774D02*
X0340199D01*
X0339412Y0660242D01*
Y0661816D01*
X0340199Y0662603D01*
X0341774D01*
X0342561Y0661816D01*
Y0661029D01*
X0339412D01*
X0360922Y0510001D02*
Y0514724D01*
X0362497Y0513150D01*
X0364071Y0514724D01*
Y0510001D01*
X0365645D02*
X0367219D01*
X0366432D01*
Y0513150D01*
X0365645D01*
X0372729D02*
X0370368D01*
X0369581Y0512362D01*
Y0510788D01*
X0370368Y0510001D01*
X0372729D01*
X0374304Y0513150D02*
Y0510001D01*
Y0511575D01*
X0375091Y0512362D01*
X0375878Y0513150D01*
X0376665D01*
X0379814Y0510001D02*
X0381388D01*
X0382175Y0510788D01*
Y0512362D01*
X0381388Y0513150D01*
X0379814D01*
X0379027Y0512362D01*
Y0510788D01*
X0379814Y0510001D01*
X0386898Y0513150D02*
X0384537D01*
X0383750Y0512362D01*
Y0510788D01*
X0384537Y0510001D01*
X0386898D01*
X0388473D02*
X0390047D01*
X0389260D01*
Y0514724D01*
X0388473D01*
X0392408Y0510001D02*
X0393983D01*
X0393195D01*
Y0513150D01*
X0392408D01*
X0396344Y0510001D02*
Y0513150D01*
X0397131D01*
X0397918Y0512362D01*
Y0510001D01*
Y0512362D01*
X0398705Y0513150D01*
X0399493Y0512362D01*
Y0510001D01*
X0401854Y0513150D02*
X0403428D01*
X0404215Y0512362D01*
Y0510001D01*
X0401854D01*
X0401067Y0510788D01*
X0401854Y0511575D01*
X0404215D01*
X0406577Y0513937D02*
Y0513150D01*
X0405790D01*
X0407364D01*
X0406577D01*
Y0510788D01*
X0407364Y0510001D01*
X0412087D02*
X0410513D01*
X0409726Y0510788D01*
Y0512362D01*
X0410513Y0513150D01*
X0412087D01*
X0412874Y0512362D01*
Y0511575D01*
X0409726D01*
X0419171Y0510001D02*
X0421533D01*
X0422320Y0510788D01*
X0421533Y0511575D01*
X0419958D01*
X0419171Y0512362D01*
X0419958Y0513150D01*
X0422320D01*
X0426256Y0510001D02*
X0424681D01*
X0423894Y0510788D01*
Y0512362D01*
X0424681Y0513150D01*
X0426256D01*
X0427043Y0512362D01*
Y0511575D01*
X0423894D01*
X0428617Y0510001D02*
Y0513150D01*
X0430978D01*
X0431766Y0512362D01*
Y0510001D01*
X0433340D02*
X0435701D01*
X0436488Y0510788D01*
X0435701Y0511575D01*
X0434127D01*
X0433340Y0512362D01*
X0434127Y0513150D01*
X0436488D01*
X0438850Y0510001D02*
X0440424D01*
X0441211Y0510788D01*
Y0512362D01*
X0440424Y0513150D01*
X0438850D01*
X0438063Y0512362D01*
Y0510788D01*
X0438850Y0510001D01*
X0442786Y0513150D02*
Y0510001D01*
Y0511575D01*
X0443573Y0512362D01*
X0444360Y0513150D01*
X0445147D01*
X0358461Y0468071D02*
X0357674Y0468858D01*
X0356099D01*
X0355312Y0468071D01*
Y0464922D01*
X0356099Y0464135D01*
X0357674D01*
X0358461Y0464922D01*
Y0466496D01*
X0356886D01*
X0360035Y0464135D02*
Y0468858D01*
X0362396D01*
X0363184Y0468071D01*
Y0466496D01*
X0362396Y0465709D01*
X0360035D01*
X0367906Y0468071D02*
X0367119Y0468858D01*
X0365545D01*
X0364758Y0468071D01*
Y0467283D01*
X0365545Y0466496D01*
X0367119D01*
X0367906Y0465709D01*
Y0464922D01*
X0367119Y0464135D01*
X0365545D01*
X0364758Y0464922D01*
X0374204Y0464135D02*
X0376565D01*
X0377352Y0464922D01*
X0376565Y0465709D01*
X0374991D01*
X0374204Y0466496D01*
X0374991Y0467283D01*
X0377352D01*
X0381288Y0464135D02*
X0379714D01*
X0378926Y0464922D01*
Y0466496D01*
X0379714Y0467283D01*
X0381288D01*
X0382075Y0466496D01*
Y0465709D01*
X0378926D01*
X0383649Y0464135D02*
Y0467283D01*
X0386011D01*
X0386798Y0466496D01*
Y0464135D01*
X0388372D02*
X0390734D01*
X0391521Y0464922D01*
X0390734Y0465709D01*
X0389159D01*
X0388372Y0466496D01*
X0389159Y0467283D01*
X0391521D01*
X0393882Y0464135D02*
X0395457D01*
X0396244Y0464922D01*
Y0466496D01*
X0395457Y0467283D01*
X0393882D01*
X0393095Y0466496D01*
Y0464922D01*
X0393882Y0464135D01*
X0397818Y0467283D02*
Y0464135D01*
Y0465709D01*
X0398605Y0466496D01*
X0399392Y0467283D01*
X0400179D01*
X0457972Y0491738D02*
X0462695D01*
Y0489376D01*
X0461908Y0488589D01*
X0460333D01*
X0459546Y0489376D01*
Y0491738D01*
Y0490164D02*
X0457972Y0488589D01*
X0461121Y0486228D02*
Y0484653D01*
X0460333Y0483866D01*
X0457972D01*
Y0486228D01*
X0458759Y0487015D01*
X0459546Y0486228D01*
Y0483866D01*
X0457972Y0482292D02*
Y0479931D01*
X0458759Y0479143D01*
X0459546Y0479931D01*
Y0481505D01*
X0460333Y0482292D01*
X0461121Y0481505D01*
Y0479143D01*
X0456398Y0477569D02*
X0461121D01*
Y0475208D01*
X0460333Y0474420D01*
X0458759D01*
X0457972Y0475208D01*
Y0477569D01*
X0462695Y0472846D02*
X0457972D01*
Y0470485D01*
X0458759Y0469698D01*
X0459546D01*
X0460333D01*
X0461121Y0470485D01*
Y0472846D01*
X0457972Y0465762D02*
Y0467336D01*
X0458759Y0468123D01*
X0460333D01*
X0461121Y0467336D01*
Y0465762D01*
X0460333Y0464975D01*
X0459546D01*
Y0468123D01*
X0461121Y0463401D02*
X0457972D01*
X0459546D01*
X0460333Y0462613D01*
X0461121Y0461826D01*
Y0461039D01*
Y0458678D02*
X0457972D01*
X0459546D01*
X0460333Y0457891D01*
X0461121Y0457103D01*
Y0456316D01*
Y0453955D02*
X0458759D01*
X0457972Y0453168D01*
Y0450806D01*
X0457185D01*
X0456398Y0451593D01*
Y0452380D01*
X0457972Y0450806D02*
X0461121D01*
X0457972Y0444509D02*
X0462695D01*
Y0442147D01*
X0461908Y0441360D01*
X0460333D01*
X0459546Y0442147D01*
Y0444509D01*
X0457972Y0439786D02*
Y0438212D01*
Y0438999D01*
X0461121D01*
Y0439786D01*
Y0427979D02*
Y0430340D01*
X0460333Y0431128D01*
X0458759D01*
X0457972Y0430340D01*
Y0427979D01*
X0461121Y0425617D02*
Y0424043D01*
X0460333Y0423256D01*
X0457972D01*
Y0425617D01*
X0458759Y0426405D01*
X0459546Y0425617D01*
Y0423256D01*
X0457972Y0421682D02*
X0461121D01*
Y0420895D01*
X0460333Y0420107D01*
X0457972D01*
X0460333D01*
X0461121Y0419320D01*
X0460333Y0418533D01*
X0457972D01*
Y0414597D02*
Y0416172D01*
X0458759Y0416959D01*
X0460333D01*
X0461121Y0416172D01*
Y0414597D01*
X0460333Y0413810D01*
X0459546D01*
Y0416959D01*
X0461121Y0412236D02*
X0457972D01*
X0459546D01*
X0460333Y0411449D01*
X0461121Y0410662D01*
Y0409874D01*
Y0406726D02*
Y0405152D01*
X0460333Y0404364D01*
X0457972D01*
Y0406726D01*
X0458759Y0407513D01*
X0459546Y0406726D01*
Y0404364D01*
X0365843Y0663838D02*
X0365055Y0664626D01*
X0363481D01*
X0362694Y0663838D01*
Y0663051D01*
X0363481Y0662264D01*
X0365055D01*
X0365843Y0661477D01*
Y0660690D01*
X0365055Y0659903D01*
X0363481D01*
X0362694Y0660690D01*
X0369778Y0659903D02*
X0368204D01*
X0367417Y0660690D01*
Y0662264D01*
X0368204Y0663051D01*
X0369778D01*
X0370566Y0662264D01*
Y0661477D01*
X0367417D01*
X0372140Y0663051D02*
Y0659903D01*
Y0661477D01*
X0372927Y0662264D01*
X0373714Y0663051D01*
X0374501D01*
X0376863Y0659903D02*
X0378437D01*
X0377650D01*
Y0663051D01*
X0376863D01*
X0381586D02*
X0383160D01*
X0383947Y0662264D01*
Y0659903D01*
X0381586D01*
X0380798Y0660690D01*
X0381586Y0661477D01*
X0383947D01*
X0385521Y0659903D02*
X0387095D01*
X0386308D01*
Y0664626D01*
X0385521D01*
X0394180Y0659903D02*
Y0663051D01*
X0396541D01*
X0397328Y0662264D01*
Y0659903D01*
X0398903Y0663051D02*
Y0660690D01*
X0399690Y0659903D01*
X0402051D01*
Y0663051D01*
X0403626Y0659903D02*
Y0663051D01*
X0404413D01*
X0405200Y0662264D01*
Y0659903D01*
Y0662264D01*
X0405987Y0663051D01*
X0406774Y0662264D01*
Y0659903D01*
X0408349Y0664626D02*
Y0659903D01*
X0410710D01*
X0411497Y0660690D01*
Y0661477D01*
Y0662264D01*
X0410710Y0663051D01*
X0408349D01*
X0415433Y0659903D02*
X0413859D01*
X0413071Y0660690D01*
Y0662264D01*
X0413859Y0663051D01*
X0415433D01*
X0416220Y0662264D01*
Y0661477D01*
X0413071D01*
X0417794Y0663051D02*
Y0659903D01*
Y0661477D01*
X0418581Y0662264D01*
X0419369Y0663051D01*
X0420156D01*
X0774405Y0498288D02*
X0769682D01*
Y0495140D01*
X0772831Y0492778D02*
Y0491204D01*
X0772044Y0490417D01*
X0769682D01*
Y0492778D01*
X0770469Y0493566D01*
X0771256Y0492778D01*
Y0490417D01*
X0772831Y0485694D02*
Y0488056D01*
X0772044Y0488843D01*
X0770469D01*
X0769682Y0488056D01*
Y0485694D01*
X0772831Y0484120D02*
X0770469D01*
X0769682Y0483333D01*
Y0480971D01*
X0772831D01*
X0769682Y0479397D02*
X0772831D01*
Y0477036D01*
X0772044Y0476248D01*
X0769682D01*
X0772831Y0473887D02*
Y0472313D01*
X0772044Y0471525D01*
X0769682D01*
Y0473887D01*
X0770469Y0474674D01*
X0771256Y0473887D01*
Y0471525D01*
X0769682Y0465228D02*
Y0462867D01*
X0770469Y0462080D01*
X0771256Y0462867D01*
Y0464441D01*
X0772044Y0465228D01*
X0772831Y0464441D01*
Y0462080D01*
X0768108Y0460505D02*
X0772831D01*
Y0458144D01*
X0772044Y0457357D01*
X0770469D01*
X0769682Y0458144D01*
Y0460505D01*
X0772831Y0454995D02*
Y0453421D01*
X0772044Y0452634D01*
X0769682D01*
Y0454995D01*
X0770469Y0455783D01*
X0771256Y0454995D01*
Y0452634D01*
X0772831Y0447911D02*
Y0450273D01*
X0772044Y0451060D01*
X0770469D01*
X0769682Y0450273D01*
Y0447911D01*
Y0443975D02*
Y0445550D01*
X0770469Y0446337D01*
X0772044D01*
X0772831Y0445550D01*
Y0443975D01*
X0772044Y0443188D01*
X0771256D01*
Y0446337D01*
X0558954Y0338641D02*
Y0333918D01*
X0561315D01*
X0562102Y0334705D01*
Y0337854D01*
X0561315Y0338641D01*
X0558954D01*
X0563677Y0333918D02*
X0565251D01*
X0564464D01*
Y0337067D01*
X0563677D01*
X0567612Y0333918D02*
X0569974D01*
X0570761Y0334705D01*
X0569974Y0335493D01*
X0568400D01*
X0567612Y0336280D01*
X0568400Y0337067D01*
X0570761D01*
X0572335Y0332344D02*
Y0337067D01*
X0574697D01*
X0575484Y0336280D01*
Y0334705D01*
X0574697Y0333918D01*
X0572335D01*
X0577058D02*
X0578632D01*
X0577845D01*
Y0338641D01*
X0577058D01*
X0581781Y0337067D02*
X0583355D01*
X0584142Y0336280D01*
Y0333918D01*
X0581781D01*
X0580994Y0334705D01*
X0581781Y0335493D01*
X0584142D01*
X0585717Y0337067D02*
Y0334705D01*
X0586504Y0333918D01*
X0588865D01*
Y0333131D01*
X0588078Y0332344D01*
X0587291D01*
X0588865Y0333918D02*
Y0337067D01*
X0770410Y0605910D02*
X0773297D01*
X0771854D01*
Y0601580D01*
X0775461Y0604466D02*
X0776904D01*
X0777626Y0603745D01*
Y0601580D01*
X0775461D01*
X0774740Y0602302D01*
X0775461Y0603023D01*
X0777626D01*
X0780512Y0600137D02*
X0781234D01*
X0781955Y0600859D01*
Y0604466D01*
X0779791D01*
X0779069Y0603745D01*
Y0602302D01*
X0779791Y0601580D01*
X0781955D01*
X0790614Y0604466D02*
X0788449D01*
X0787728Y0603745D01*
Y0602302D01*
X0788449Y0601580D01*
X0790614D01*
X0792779D02*
X0794222D01*
X0794943Y0602302D01*
Y0603745D01*
X0794222Y0604466D01*
X0792779D01*
X0792057Y0603745D01*
Y0602302D01*
X0792779Y0601580D01*
X0796386D02*
Y0604466D01*
X0798551D01*
X0799273Y0603745D01*
Y0601580D01*
X0800716D02*
Y0604466D01*
X0802880D01*
X0803602Y0603745D01*
Y0601580D01*
X0807210D02*
X0805767D01*
X0805045Y0602302D01*
Y0603745D01*
X0805767Y0604466D01*
X0807210D01*
X0807931Y0603745D01*
Y0603023D01*
X0805045D01*
X0812261Y0604466D02*
X0810096D01*
X0809374Y0603745D01*
Y0602302D01*
X0810096Y0601580D01*
X0812261D01*
X0814425Y0605188D02*
Y0604466D01*
X0813704D01*
X0815147D01*
X0814425D01*
Y0602302D01*
X0815147Y0601580D01*
X0507970Y0432836D02*
Y0437559D01*
X0510331D01*
X0511118Y0436771D01*
Y0435197D01*
X0510331Y0434410D01*
X0507970D01*
X0512692Y0432836D02*
X0514267D01*
X0513480D01*
Y0435984D01*
X0512692D01*
X0516628D02*
Y0432836D01*
Y0434410D01*
X0517415Y0435197D01*
X0518202Y0435984D01*
X0518990D01*
X0522138D02*
X0523712D01*
X0524500Y0435197D01*
Y0432836D01*
X0522138D01*
X0521351Y0433623D01*
X0522138Y0434410D01*
X0524500D01*
X0533945Y0436771D02*
X0533158Y0437559D01*
X0531584D01*
X0530797Y0436771D01*
Y0435984D01*
X0531584Y0435197D01*
X0533158D01*
X0533945Y0434410D01*
Y0433623D01*
X0533158Y0432836D01*
X0531584D01*
X0530797Y0433623D01*
X0535520Y0432836D02*
Y0435984D01*
X0536307D01*
X0537094Y0435197D01*
Y0432836D01*
Y0435197D01*
X0537881Y0435984D01*
X0538668Y0435197D01*
Y0432836D01*
X0541030Y0435984D02*
X0542604D01*
X0543391Y0435197D01*
Y0432836D01*
X0541030D01*
X0540243Y0433623D01*
X0541030Y0434410D01*
X0543391D01*
X0544966Y0435984D02*
Y0432836D01*
Y0434410D01*
X0545753Y0435197D01*
X0546540Y0435984D01*
X0547327D01*
X0550476Y0436771D02*
Y0435984D01*
X0549688D01*
X0551263D01*
X0550476D01*
Y0433623D01*
X0551263Y0432836D01*
X0507421Y0660045D02*
Y0664768D01*
X0509782D01*
X0510569Y0663981D01*
Y0662406D01*
X0509782Y0661619D01*
X0507421D01*
X0508995D02*
X0510569Y0660045D01*
X0512931Y0663194D02*
X0514505D01*
X0515292Y0662406D01*
Y0660045D01*
X0512931D01*
X0512144Y0660832D01*
X0512931Y0661619D01*
X0515292D01*
X0516867Y0660045D02*
X0519228D01*
X0520015Y0660832D01*
X0519228Y0661619D01*
X0517654D01*
X0516867Y0662406D01*
X0517654Y0663194D01*
X0520015D01*
X0521590Y0658471D02*
Y0663194D01*
X0523951D01*
X0524738Y0662406D01*
Y0660832D01*
X0523951Y0660045D01*
X0521590D01*
X0526312Y0664768D02*
Y0660045D01*
X0528674D01*
X0529461Y0660832D01*
Y0661619D01*
Y0662406D01*
X0528674Y0663194D01*
X0526312D01*
X0533397Y0660045D02*
X0531822D01*
X0531035Y0660832D01*
Y0662406D01*
X0531822Y0663194D01*
X0533397D01*
X0534184Y0662406D01*
Y0661619D01*
X0531035D01*
X0535758Y0663194D02*
Y0660045D01*
Y0661619D01*
X0536545Y0662406D01*
X0537332Y0663194D01*
X0538120D01*
X0540481D02*
Y0660045D01*
Y0661619D01*
X0541268Y0662406D01*
X0542055Y0663194D01*
X0542842D01*
X0545204D02*
Y0660832D01*
X0545991Y0660045D01*
X0548352D01*
Y0659258D01*
X0547565Y0658471D01*
X0546778D01*
X0548352Y0660045D02*
Y0663194D01*
X0554650Y0660045D02*
Y0664768D01*
X0557011D01*
X0557798Y0663981D01*
Y0662406D01*
X0557011Y0661619D01*
X0554650D01*
X0559373Y0660045D02*
X0560947D01*
X0560160D01*
Y0663194D01*
X0559373D01*
X0568031Y0664768D02*
X0571180D01*
Y0663981D01*
X0568031Y0660832D01*
Y0660045D01*
X0571180D01*
X0575115D02*
X0573541D01*
X0572754Y0660832D01*
Y0662406D01*
X0573541Y0663194D01*
X0575115D01*
X0575903Y0662406D01*
Y0661619D01*
X0572754D01*
X0577477Y0663194D02*
Y0660045D01*
Y0661619D01*
X0578264Y0662406D01*
X0579051Y0663194D01*
X0579838D01*
X0582987Y0660045D02*
X0584561D01*
X0585348Y0660832D01*
Y0662406D01*
X0584561Y0663194D01*
X0582987D01*
X0582200Y0662406D01*
Y0660832D01*
X0582987Y0660045D01*
X0821122Y0664847D02*
Y0660124D01*
X0824270D01*
X0826632D02*
X0828206D01*
X0828993Y0660911D01*
Y0662485D01*
X0828206Y0663272D01*
X0826632D01*
X0825844Y0662485D01*
Y0660911D01*
X0826632Y0660124D01*
X0830567D02*
Y0664847D01*
X0832929D01*
X0833716Y0664059D01*
Y0662485D01*
X0832929Y0661698D01*
X0830567D01*
X0832142D02*
X0833716Y0660124D01*
X0836077Y0663272D02*
X0837652D01*
X0838439Y0662485D01*
Y0660124D01*
X0836077D01*
X0835290Y0660911D01*
X0836077Y0661698D01*
X0838439D01*
X0845523Y0663272D02*
X0847097D01*
X0847885Y0662485D01*
Y0660124D01*
X0845523D01*
X0844736Y0660911D01*
X0845523Y0661698D01*
X0847885D01*
X0849459Y0660124D02*
Y0663272D01*
X0851820D01*
X0852608Y0662485D01*
Y0660124D01*
X0854969Y0664059D02*
Y0663272D01*
X0854182D01*
X0855756D01*
X0854969D01*
Y0660911D01*
X0855756Y0660124D01*
X0860479D02*
X0858905D01*
X0858117Y0660911D01*
Y0662485D01*
X0858905Y0663272D01*
X0860479D01*
X0861266Y0662485D01*
Y0661698D01*
X0858117D01*
X0862840Y0660124D02*
Y0663272D01*
X0865202D01*
X0865989Y0662485D01*
Y0660124D01*
X0867563D02*
Y0663272D01*
X0869925D01*
X0870712Y0662485D01*
Y0660124D01*
X0873073Y0663272D02*
X0874648D01*
X0875435Y0662485D01*
Y0660124D01*
X0873073D01*
X0872286Y0660911D01*
X0873073Y0661698D01*
X0875435D01*
X0393009Y0319350D02*
Y0314627D01*
Y0316988D01*
X0396158D01*
Y0319350D01*
Y0314627D01*
X0400093D02*
X0398519D01*
X0397732Y0315414D01*
Y0316988D01*
X0398519Y0317776D01*
X0400093D01*
X0400880Y0316988D01*
Y0316201D01*
X0397732D01*
X0402455Y0317776D02*
X0405603Y0314627D01*
X0404029Y0316201D01*
X0405603Y0317776D01*
X0402455Y0314627D01*
X0411901D02*
Y0319350D01*
Y0316201D02*
X0414262Y0317776D01*
X0411901Y0316201D02*
X0414262Y0314627D01*
X0418985D02*
X0417411D01*
X0416623Y0315414D01*
Y0316988D01*
X0417411Y0317776D01*
X0418985D01*
X0419772Y0316988D01*
Y0316201D01*
X0416623D01*
X0421346Y0317776D02*
Y0315414D01*
X0422133Y0314627D01*
X0424495D01*
Y0313840D01*
X0423708Y0313053D01*
X0422921D01*
X0424495Y0314627D02*
Y0317776D01*
D13*
X0686637Y0530143D02*
G03*
X0686637Y0530143I-0000905J0000000D01*
G01*
X0781139Y0659694D02*
X0806139D01*
X0781139Y0646695D02*
Y0659694D01*
Y0646695D02*
X0806139D01*
Y0659694D01*
X0414936Y0503528D02*
X0413937Y0504528D01*
X0411938D01*
X0410938Y0503528D01*
Y0499530D01*
X0411938Y0498530D01*
X0413937D01*
X0414936Y0499530D01*
X0420935Y0498530D02*
X0416936D01*
X0420935Y0502529D01*
Y0503528D01*
X0419935Y0504528D01*
X0417936D01*
X0416936Y0503528D01*
X0422934Y0499530D02*
X0423934Y0498530D01*
X0425933D01*
X0426933Y0499530D01*
Y0503528D01*
X0425933Y0504528D01*
X0423934D01*
X0422934Y0503528D01*
Y0502529D01*
X0423934Y0501529D01*
X0426933D01*
D14*
X0590981Y0432441D02*
G03*
X0590981Y0432441I-0000492J0000000D01*
G01*
X0396533Y0538962D02*
G03*
X0396533Y0538962I-0000492J0000000D01*
G01*
X0775393Y0397269D02*
G03*
X0775393Y0397269I-0000492J0000000D01*
G01*
X0376751Y0343824D02*
G03*
X0376751Y0343824I-0000492J0000000D01*
G01*
X0668607Y0513116D02*
G03*
X0668607Y0513116I-0000492J0000000D01*
G01*
X0598902Y0504730D02*
G03*
X0598902Y0504730I-0000492J0000000D01*
G01*
X0539610Y0507151D02*
G03*
X0539610Y0507151I-0000492J0000000D01*
G01*
X0577799Y0508431D02*
G03*
X0577799Y0508431I-0000492J0000000D01*
G01*
X0634184Y0507171D02*
G03*
X0634184Y0507171I-0000492J0000000D01*
G01*
X0580287Y0507407D02*
G03*
X0580287Y0507407I-0000492J0000000D01*
G01*
X0547680Y0538352D02*
G03*
X0547680Y0538352I-0000492J0000000D01*
G01*
X0572680Y0525557D02*
G03*
X0572680Y0525557I-0000492J0000000D01*
G01*
X0610502Y0531462D02*
G03*
X0610502Y0531462I-0000440J0000000D01*
G01*
D15*
X0799665Y0345635D02*
G03*
X0799665Y0345635I-0000591J0000000D01*
G01*
D16*
X0363465Y0373901D02*
G03*
X0363465Y0373901I-0000984J0000000D01*
G01*
X0854086Y0651214D02*
G03*
X0854086Y0651214I-0000880J0000000D01*
G01*
X0436316Y0621123D02*
X0502851D01*
X0436316D02*
Y0655277D01*
X0436575D02*
Y0669479D01*
X0436316Y0655277D02*
X0436575D01*
X0592615D02*
Y0669365D01*
X0352064Y0655277D02*
X0592615D01*
X0775096Y0440478D02*
X0776769D01*
Y0500749D01*
X0766040D02*
X0776769D01*
X0765964Y0440478D02*
X0775096D01*
X0556395Y0341103D02*
X0591533D01*
Y0329588D02*
Y0341103D01*
X0837084Y0258860D02*
Y0415418D01*
X0556319Y0329336D02*
X0619151D01*
X0556319D02*
Y0391265D01*
X0465745Y0391300D02*
Y0517643D01*
X0464466Y0391300D02*
X0465745D01*
X0453442Y0310437D02*
X0453484Y0310395D01*
X0453442Y0506753D02*
X0453442Y0310437D01*
X0453442Y0506753D02*
Y0517580D01*
X0352261Y0506753D02*
X0453442D01*
X0352556Y0517643D02*
X0466040D01*
X0403014Y0461379D02*
Y0471460D01*
X0352163Y0461379D02*
X0403014D01*
X0503326Y0429883D02*
Y0440478D01*
Y0429883D02*
X0556198D01*
X0386414Y0538249D02*
Y0547993D01*
X0352163Y0538249D02*
X0386414D01*
X0286021Y0655277D02*
Y0668367D01*
Y0655277D02*
X0352111D01*
X0766434Y0608721D02*
X0817714D01*
X0878442Y0657442D02*
Y0666005D01*
X0818009Y0657442D02*
X0878442D01*
X0230659Y0308131D02*
X0289466D01*
X0229918Y0296911D02*
X0352064Y0296911D01*
X0474232Y0517643D02*
X0502340D01*
X0466040D02*
X0474232D01*
X0290017Y0318273D02*
X0351119D01*
X0289426Y0297107D02*
Y0334927D01*
X0352379Y0548234D02*
X0503206D01*
X0429387Y0311541D02*
Y0322796D01*
X0387893Y0310439D02*
Y0322796D01*
X0429387D01*
X0619151Y0329336D02*
X0746515D01*
X0503326Y0440478D02*
X0765964D01*
X0503326D02*
Y0668352D01*
X0765964Y0441069D02*
Y0668352D01*
X0817854Y0596691D02*
X0840994D01*
X0817854Y0597562D02*
Y0669454D01*
X0352386Y0471460D02*
X0453245D01*
X0453484Y0391265D02*
X0556319D01*
Y0440316D01*
X0352111Y0272482D02*
Y0668120D01*
X0746515Y0329336D02*
X0836513D01*
X0746515D02*
Y0439809D01*
X0766240Y0596691D02*
X0817854D01*
X0503208Y0567210D02*
X0765807D01*
X0681552Y0286108D02*
Y0310439D01*
X0387893Y0286108D02*
Y0310439D01*
Y0286108D02*
X0681552D01*
X0387893Y0310439D02*
X0681552D01*
D17*
X0389126Y0484021D02*
X0400126D01*
X0389126D02*
Y0495021D01*
X0400126D01*
Y0484021D02*
Y0495021D01*
X0634281Y0537953D02*
Y0535198D01*
X0632903D01*
X0632444Y0535658D01*
Y0536576D01*
X0632903Y0537035D01*
X0634281D01*
X0633362D02*
X0632444Y0537953D01*
X0629689Y0535198D02*
X0631526D01*
Y0536576D01*
X0630607Y0536117D01*
X0630148D01*
X0629689Y0536576D01*
Y0537494D01*
X0630148Y0537953D01*
X0631067D01*
X0631526Y0537494D01*
X0628771D02*
X0628311Y0537953D01*
X0627393D01*
X0626934Y0537494D01*
Y0535658D01*
X0627393Y0535198D01*
X0628311D01*
X0628771Y0535658D01*
Y0536117D01*
X0628311Y0536576D01*
X0626934D01*
X0674513Y0479415D02*
X0677268D01*
Y0478037D01*
X0676809Y0477578D01*
X0675890D01*
X0675431Y0478037D01*
Y0479415D01*
Y0478497D02*
X0674513Y0477578D01*
X0676809Y0476660D02*
X0677268Y0476201D01*
Y0475282D01*
X0676809Y0474823D01*
X0676349D01*
X0675890Y0475282D01*
Y0475742D01*
Y0475282D01*
X0675431Y0474823D01*
X0674972D01*
X0674513Y0475282D01*
Y0476201D01*
X0674972Y0476660D01*
X0674513Y0473905D02*
Y0472987D01*
Y0473446D01*
X0677268D01*
X0676809Y0473905D01*
X0743769Y0465999D02*
X0744229Y0466458D01*
Y0467377D01*
X0743769Y0467836D01*
X0741933D01*
X0741473Y0467377D01*
Y0466458D01*
X0741933Y0465999D01*
X0741473Y0465081D02*
Y0464162D01*
Y0464621D01*
X0744229D01*
X0743769Y0465081D01*
X0744229Y0460948D02*
Y0462785D01*
X0742851D01*
X0743310Y0461867D01*
Y0461407D01*
X0742851Y0460948D01*
X0741933D01*
X0741473Y0461407D01*
Y0462326D01*
X0741933Y0462785D01*
X0655072Y0527388D02*
X0653235Y0530143D01*
Y0527388D02*
X0655072Y0530143D01*
X0652317D02*
X0651398D01*
X0651858D01*
Y0527388D01*
X0652317Y0527847D01*
X0653647Y0499770D02*
Y0502066D01*
X0653187Y0502525D01*
X0652269D01*
X0651810Y0502066D01*
Y0499770D01*
X0649055D02*
X0650891D01*
Y0501148D01*
X0649973Y0500689D01*
X0649514D01*
X0649055Y0501148D01*
Y0502066D01*
X0649514Y0502525D01*
X0650432D01*
X0650891Y0502066D01*
X0601277Y0434705D02*
Y0432409D01*
X0601736Y0431950D01*
X0602654D01*
X0603113Y0432409D01*
Y0434705D01*
X0605409Y0431950D02*
Y0434705D01*
X0604032Y0433327D01*
X0605868D01*
X0637733Y0484265D02*
X0635437D01*
X0634978Y0483806D01*
Y0482888D01*
X0635437Y0482429D01*
X0637733D01*
X0637274Y0481510D02*
X0637733Y0481051D01*
Y0480133D01*
X0637274Y0479674D01*
X0636814D01*
X0636355Y0480133D01*
Y0480592D01*
Y0480133D01*
X0635896Y0479674D01*
X0635437D01*
X0634978Y0480133D01*
Y0481051D01*
X0635437Y0481510D01*
X0603725Y0505243D02*
Y0507539D01*
X0603266Y0507998D01*
X0602348D01*
X0601889Y0507539D01*
Y0505243D01*
X0599133Y0507998D02*
X0600970D01*
X0599133Y0506161D01*
Y0505702D01*
X0599593Y0505243D01*
X0600511D01*
X0600970Y0505702D01*
X0539117Y0486896D02*
Y0489192D01*
X0538658Y0489651D01*
X0537740D01*
X0537281Y0489192D01*
Y0486896D01*
X0536362Y0489651D02*
X0535444D01*
X0535903D01*
Y0486896D01*
X0536362Y0487355D01*
X0568724Y0519140D02*
X0566887D01*
X0567805D01*
Y0521895D01*
X0565969D02*
X0565050D01*
X0565510D01*
Y0519140D01*
X0565969Y0519599D01*
X0675765Y0490234D02*
X0678520D01*
Y0488856D01*
X0678060Y0488397D01*
X0677142D01*
X0676683Y0488856D01*
Y0490234D01*
Y0489316D02*
X0675765Y0488397D01*
X0678060Y0487479D02*
X0678520Y0487020D01*
Y0486101D01*
X0678060Y0485642D01*
X0677601D01*
X0677142Y0486101D01*
Y0486560D01*
Y0486101D01*
X0676683Y0485642D01*
X0676224D01*
X0675765Y0486101D01*
Y0487020D01*
X0676224Y0487479D01*
X0675765Y0482887D02*
Y0484724D01*
X0677601Y0482887D01*
X0678060D01*
X0678520Y0483346D01*
Y0484265D01*
X0678060Y0484724D01*
X0671914Y0490234D02*
X0674669D01*
Y0488856D01*
X0674210Y0488397D01*
X0673292D01*
X0672832Y0488856D01*
Y0490234D01*
Y0489316D02*
X0671914Y0488397D01*
Y0485642D02*
Y0487479D01*
X0673751Y0485642D01*
X0674210D01*
X0674669Y0486101D01*
Y0487020D01*
X0674210Y0487479D01*
X0672373Y0484724D02*
X0671914Y0484265D01*
Y0483346D01*
X0672373Y0482887D01*
X0674210D01*
X0674669Y0483346D01*
Y0484265D01*
X0674210Y0484724D01*
X0673751D01*
X0673292Y0484265D01*
Y0482887D01*
X0741442Y0477958D02*
X0744197D01*
Y0476581D01*
X0743738Y0476122D01*
X0742819D01*
X0742360Y0476581D01*
Y0477958D01*
Y0477040D02*
X0741442Y0476122D01*
Y0473367D02*
Y0475203D01*
X0743278Y0473367D01*
X0743738D01*
X0744197Y0473826D01*
Y0474744D01*
X0743738Y0475203D01*
X0744197Y0472448D02*
Y0470611D01*
X0743738D01*
X0741901Y0472448D01*
X0741442D01*
X0737977Y0477958D02*
X0740732D01*
Y0476581D01*
X0740273Y0476122D01*
X0739355D01*
X0738896Y0476581D01*
Y0477958D01*
Y0477040D02*
X0737977Y0476122D01*
Y0473367D02*
Y0475203D01*
X0739814Y0473367D01*
X0740273D01*
X0740732Y0473826D01*
Y0474744D01*
X0740273Y0475203D01*
X0740732Y0470611D02*
X0740273Y0471530D01*
X0739355Y0472448D01*
X0738436D01*
X0737977Y0471989D01*
Y0471071D01*
X0738436Y0470611D01*
X0738896D01*
X0739355Y0471071D01*
Y0472448D01*
X0670694Y0479415D02*
X0673449D01*
Y0478037D01*
X0672990Y0477578D01*
X0672071D01*
X0671612Y0478037D01*
Y0479415D01*
Y0478497D02*
X0670694Y0477578D01*
Y0474823D02*
Y0476660D01*
X0672530Y0474823D01*
X0672990D01*
X0673449Y0475282D01*
Y0476201D01*
X0672990Y0476660D01*
X0670694Y0472527D02*
X0673449D01*
X0672071Y0473905D01*
Y0472068D01*
X0666796Y0479415D02*
X0669551D01*
Y0478037D01*
X0669092Y0477578D01*
X0668174D01*
X0667714Y0478037D01*
Y0479415D01*
Y0478497D02*
X0666796Y0477578D01*
Y0474823D02*
Y0476660D01*
X0668633Y0474823D01*
X0669092D01*
X0669551Y0475282D01*
Y0476201D01*
X0669092Y0476660D01*
Y0473905D02*
X0669551Y0473446D01*
Y0472527D01*
X0669092Y0472068D01*
X0668633D01*
X0668174Y0472527D01*
Y0472987D01*
Y0472527D01*
X0667714Y0472068D01*
X0667255D01*
X0666796Y0472527D01*
Y0473446D01*
X0667255Y0473905D01*
X0662898Y0479415D02*
X0665654D01*
Y0478037D01*
X0665194Y0477578D01*
X0664276D01*
X0663817Y0478037D01*
Y0479415D01*
Y0478497D02*
X0662898Y0477578D01*
Y0474823D02*
Y0476660D01*
X0664735Y0474823D01*
X0665194D01*
X0665654Y0475282D01*
Y0476201D01*
X0665194Y0476660D01*
X0662898Y0473905D02*
Y0472987D01*
Y0473446D01*
X0665654D01*
X0665194Y0473905D01*
X0462300Y0643564D02*
Y0646319D01*
X0463678D01*
X0464137Y0645860D01*
Y0644942D01*
X0463678Y0644482D01*
X0462300D01*
X0463219D02*
X0464137Y0643564D01*
X0466892D02*
X0465055D01*
X0466892Y0645401D01*
Y0645860D01*
X0466433Y0646319D01*
X0465515D01*
X0465055Y0645860D01*
X0467810D02*
X0468269Y0646319D01*
X0469188D01*
X0469647Y0645860D01*
Y0644023D01*
X0469188Y0643564D01*
X0468269D01*
X0467810Y0644023D01*
Y0645860D01*
X0462596Y0625749D02*
Y0628504D01*
X0463973D01*
X0464432Y0628045D01*
Y0627127D01*
X0463973Y0626667D01*
X0462596D01*
X0463514D02*
X0464432Y0625749D01*
X0465351D02*
X0466269D01*
X0465810D01*
Y0628504D01*
X0465351Y0628045D01*
X0467646Y0626208D02*
X0468106Y0625749D01*
X0469024D01*
X0469483Y0626208D01*
Y0628045D01*
X0469024Y0628504D01*
X0468106D01*
X0467646Y0628045D01*
Y0627586D01*
X0468106Y0627127D01*
X0469483D01*
X0473225Y0643564D02*
Y0646319D01*
X0474603D01*
X0475062Y0645860D01*
Y0644942D01*
X0474603Y0644482D01*
X0473225D01*
X0474144D02*
X0475062Y0643564D01*
X0475981D02*
X0476899D01*
X0476440D01*
Y0646319D01*
X0475981Y0645860D01*
X0478276D02*
X0478735Y0646319D01*
X0479654D01*
X0480113Y0645860D01*
Y0645401D01*
X0479654Y0644942D01*
X0480113Y0644482D01*
Y0644023D01*
X0479654Y0643564D01*
X0478735D01*
X0478276Y0644023D01*
Y0644482D01*
X0478735Y0644942D01*
X0478276Y0645401D01*
Y0645860D01*
X0478735Y0644942D02*
X0479654D01*
X0474013Y0625749D02*
Y0628504D01*
X0475390D01*
X0475850Y0628045D01*
Y0627127D01*
X0475390Y0626667D01*
X0474013D01*
X0474931D02*
X0475850Y0625749D01*
X0476768D02*
X0477686D01*
X0477227D01*
Y0628504D01*
X0476768Y0628045D01*
X0479064Y0628504D02*
X0480900D01*
Y0628045D01*
X0479064Y0626208D01*
Y0625749D01*
X0540629Y0470596D02*
Y0467841D01*
X0539252D01*
X0538793Y0468300D01*
Y0469218D01*
X0539252Y0469678D01*
X0540629D01*
X0539711D02*
X0538793Y0470596D01*
X0537874D02*
X0536956D01*
X0537415D01*
Y0467841D01*
X0537874Y0468300D01*
X0534201Y0470596D02*
Y0467841D01*
X0535578Y0469218D01*
X0533742D01*
X0561362Y0470642D02*
Y0467887D01*
X0559984D01*
X0559525Y0468347D01*
Y0469265D01*
X0559984Y0469724D01*
X0561362D01*
X0560443D02*
X0559525Y0470642D01*
X0558606D02*
X0557688D01*
X0558147D01*
Y0467887D01*
X0558606Y0468347D01*
X0556311D02*
X0555852Y0467887D01*
X0554933D01*
X0554474Y0468347D01*
Y0468806D01*
X0554933Y0469265D01*
X0555392D01*
X0554933D01*
X0554474Y0469724D01*
Y0470183D01*
X0554933Y0470642D01*
X0555852D01*
X0556311Y0470183D01*
X0527503Y0523785D02*
Y0521030D01*
X0526126D01*
X0525667Y0521489D01*
Y0522407D01*
X0526126Y0522867D01*
X0527503D01*
X0526585D02*
X0525667Y0523785D01*
X0524748D02*
X0523830D01*
X0524289D01*
Y0521030D01*
X0524748Y0521489D01*
X0520616Y0523785D02*
X0522452D01*
X0520616Y0521948D01*
Y0521489D01*
X0521075Y0521030D01*
X0521993D01*
X0522452Y0521489D01*
X0594040Y0505320D02*
X0596795D01*
Y0503943D01*
X0596336Y0503484D01*
X0595418D01*
X0594958Y0503943D01*
Y0505320D01*
Y0504402D02*
X0594040Y0503484D01*
Y0502565D02*
Y0501647D01*
Y0502106D01*
X0596795D01*
X0596336Y0502565D01*
Y0500270D02*
X0596795Y0499810D01*
Y0498892D01*
X0596336Y0498433D01*
X0594499D01*
X0594040Y0498892D01*
Y0499810D01*
X0594499Y0500270D01*
X0596336D01*
X0594040Y0497486D02*
X0596795D01*
Y0496108D01*
X0596336Y0495649D01*
X0595418D01*
X0594958Y0496108D01*
Y0497486D01*
Y0496567D02*
X0594040Y0495649D01*
X0594499Y0494731D02*
X0594040Y0494272D01*
Y0493353D01*
X0594499Y0492894D01*
X0596336D01*
X0596795Y0493353D01*
Y0494272D01*
X0596336Y0494731D01*
X0595877D01*
X0595418Y0494272D01*
Y0492894D01*
X0592820Y0476738D02*
X0595575D01*
Y0475360D01*
X0595116Y0474901D01*
X0594197D01*
X0593738Y0475360D01*
Y0476738D01*
Y0475819D02*
X0592820Y0474901D01*
X0595116Y0473983D02*
X0595575Y0473524D01*
Y0472605D01*
X0595116Y0472146D01*
X0594656D01*
X0594197Y0472605D01*
X0593738Y0472146D01*
X0593279D01*
X0592820Y0472605D01*
Y0473524D01*
X0593279Y0473983D01*
X0593738D01*
X0594197Y0473524D01*
X0594656Y0473983D01*
X0595116D01*
X0594197Y0473524D02*
Y0472605D01*
X0546696Y0470596D02*
Y0467841D01*
X0545319D01*
X0544860Y0468300D01*
Y0469218D01*
X0545319Y0469678D01*
X0546696D01*
X0545778D02*
X0544860Y0470596D01*
X0543941Y0467841D02*
X0542104D01*
Y0468300D01*
X0543941Y0470137D01*
Y0470596D01*
X0581440Y0527289D02*
X0584195D01*
Y0525911D01*
X0583736Y0525452D01*
X0582818D01*
X0582359Y0525911D01*
Y0527289D01*
Y0526371D02*
X0581440Y0525452D01*
X0584195Y0522697D02*
Y0524534D01*
X0582818D01*
X0583277Y0523616D01*
Y0523156D01*
X0582818Y0522697D01*
X0581899D01*
X0581440Y0523156D01*
Y0524075D01*
X0581899Y0524534D01*
X0593095Y0483194D02*
X0595850D01*
Y0481817D01*
X0595391Y0481358D01*
X0594473D01*
X0594014Y0481817D01*
Y0483194D01*
Y0482276D02*
X0593095Y0481358D01*
Y0479062D02*
X0595850D01*
X0594473Y0480440D01*
Y0478603D01*
X0553213Y0470596D02*
Y0467841D01*
X0551836D01*
X0551377Y0468300D01*
Y0469218D01*
X0551836Y0469678D01*
X0553213D01*
X0552295D02*
X0551377Y0470596D01*
X0550458Y0468300D02*
X0549999Y0467841D01*
X0549081D01*
X0548622Y0468300D01*
Y0468759D01*
X0549081Y0469218D01*
X0549540D01*
X0549081D01*
X0548622Y0469678D01*
Y0470137D01*
X0549081Y0470596D01*
X0549999D01*
X0550458Y0470137D01*
X0534117Y0501364D02*
X0536872D01*
Y0499986D01*
X0536413Y0499527D01*
X0535495D01*
X0535036Y0499986D01*
Y0501364D01*
Y0500445D02*
X0534117Y0499527D01*
Y0496772D02*
Y0498609D01*
X0535954Y0496772D01*
X0536413D01*
X0536872Y0497231D01*
Y0498150D01*
X0536413Y0498609D01*
X0534117Y0508255D02*
X0536872D01*
Y0506878D01*
X0536413Y0506419D01*
X0535495D01*
X0535036Y0506878D01*
Y0508255D01*
Y0507337D02*
X0534117Y0506419D01*
Y0505501D02*
Y0504582D01*
Y0505041D01*
X0536872D01*
X0536413Y0505501D01*
X0514395Y0527289D02*
Y0524534D01*
X0513017D01*
X0512558Y0524993D01*
Y0525911D01*
X0513017Y0526371D01*
X0514395D01*
X0511639Y0524993D02*
X0511180Y0524534D01*
X0510262D01*
X0509803Y0524993D01*
Y0525452D01*
X0510262Y0525911D01*
X0509803Y0526371D01*
Y0526830D01*
X0510262Y0527289D01*
X0511180D01*
X0511639Y0526830D01*
Y0526371D01*
X0511180Y0525911D01*
X0511639Y0525452D01*
Y0524993D01*
X0511180Y0525911D02*
X0510262D01*
X0570694Y0547998D02*
Y0545243D01*
X0569316D01*
X0568857Y0545702D01*
Y0546620D01*
X0569316Y0547079D01*
X0570694D01*
X0567939Y0545702D02*
X0567480Y0545243D01*
X0566561D01*
X0566102Y0545702D01*
Y0546161D01*
X0566561Y0546620D01*
X0567020D01*
X0566561D01*
X0566102Y0547079D01*
Y0547539D01*
X0566561Y0547998D01*
X0567480D01*
X0567939Y0547539D01*
X0587938Y0548391D02*
Y0545636D01*
X0586560D01*
X0586101Y0546096D01*
Y0547014D01*
X0586560Y0547473D01*
X0587938D01*
X0585183Y0548391D02*
X0584265D01*
X0584724D01*
Y0545636D01*
X0585183Y0546096D01*
X0638370Y0505320D02*
X0635615D01*
Y0503484D01*
Y0500729D02*
Y0502565D01*
X0637452Y0500729D01*
X0637911D01*
X0638370Y0501188D01*
Y0502106D01*
X0637911Y0502565D01*
X0568448Y0508432D02*
Y0511187D01*
X0566611D01*
X0565693D02*
X0564775D01*
X0565234D01*
Y0508432D01*
X0565693Y0508891D01*
X0586140Y0541345D02*
X0587977D01*
Y0542723D01*
X0587059D01*
X0587977D01*
Y0544100D01*
X0585222D02*
X0584304D01*
X0584763D01*
Y0541345D01*
X0585222Y0541804D01*
X0584195Y0522407D02*
X0581440D01*
Y0521030D01*
X0581899Y0520570D01*
X0583736D01*
X0584195Y0521030D01*
Y0522407D01*
Y0517815D02*
X0583736Y0518734D01*
X0582818Y0519652D01*
X0581899D01*
X0581440Y0519193D01*
Y0518274D01*
X0581899Y0517815D01*
X0582359D01*
X0582818Y0518274D01*
Y0519652D01*
X0538330Y0525361D02*
Y0528116D01*
X0536952D01*
X0536493Y0527657D01*
Y0525820D01*
X0536952Y0525361D01*
X0538330D01*
X0533738D02*
X0535575D01*
Y0526738D01*
X0534657Y0526279D01*
X0534198D01*
X0533738Y0526738D01*
Y0527657D01*
X0534198Y0528116D01*
X0535116D01*
X0535575Y0527657D01*
X0569236Y0524180D02*
Y0526935D01*
X0567858D01*
X0567399Y0526475D01*
Y0524639D01*
X0567858Y0524180D01*
X0569236D01*
X0565103Y0526935D02*
Y0524180D01*
X0566480Y0525557D01*
X0564644D01*
X0570733Y0539613D02*
Y0542368D01*
X0569356D01*
X0568896Y0541909D01*
Y0540072D01*
X0569356Y0539613D01*
X0570733D01*
X0567978Y0540072D02*
X0567519Y0539613D01*
X0566601D01*
X0566141Y0540072D01*
Y0540531D01*
X0566601Y0540990D01*
X0567060D01*
X0566601D01*
X0566141Y0541449D01*
Y0541909D01*
X0566601Y0542368D01*
X0567519D01*
X0567978Y0541909D01*
X0538723Y0515911D02*
X0535968D01*
Y0514534D01*
X0536427Y0514074D01*
X0538264D01*
X0538723Y0514534D01*
Y0515911D01*
X0535968Y0511319D02*
Y0513156D01*
X0537805Y0511319D01*
X0538264D01*
X0538723Y0511778D01*
Y0512697D01*
X0538264Y0513156D01*
X0608419Y0505501D02*
Y0508255D01*
X0607041D01*
X0606582Y0507796D01*
Y0505960D01*
X0607041Y0505501D01*
X0608419D01*
X0605664Y0508255D02*
X0604745D01*
X0605204D01*
Y0505501D01*
X0605664Y0505960D01*
X0764047Y0499863D02*
X0764507Y0500322D01*
Y0501241D01*
X0764047Y0501700D01*
X0762211D01*
X0761752Y0501241D01*
Y0500322D01*
X0762211Y0499863D01*
X0764507Y0497567D02*
Y0498486D01*
X0764047Y0498945D01*
X0762211D01*
X0761752Y0498486D01*
Y0497567D01*
X0762211Y0497108D01*
X0764047D01*
X0764507Y0497567D01*
X0761752Y0496190D02*
X0764507D01*
X0761752Y0494353D01*
X0764507D01*
X0761752Y0491598D02*
Y0493435D01*
X0763588Y0491598D01*
X0764047D01*
X0764507Y0492057D01*
Y0492976D01*
X0764047Y0493435D01*
X0644446Y0474507D02*
X0644905Y0474967D01*
Y0475885D01*
X0644446Y0476344D01*
X0642610D01*
X0642150Y0475885D01*
Y0474967D01*
X0642610Y0474507D01*
X0642150Y0473589D02*
Y0472671D01*
Y0473130D01*
X0644905D01*
X0644446Y0473589D01*
X0642150Y0469916D02*
X0644905D01*
X0643528Y0471293D01*
Y0469456D01*
X0621257Y0467485D02*
X0621716Y0467026D01*
X0622635D01*
X0623094Y0467485D01*
Y0469322D01*
X0622635Y0469781D01*
X0621716D01*
X0621257Y0469322D01*
X0620339Y0469781D02*
X0619420D01*
X0619880D01*
Y0467026D01*
X0620339Y0467485D01*
X0618043D02*
X0617584Y0467026D01*
X0616665D01*
X0616206Y0467485D01*
Y0467944D01*
X0616665Y0468404D01*
X0617125D01*
X0616665D01*
X0616206Y0468863D01*
Y0469322D01*
X0616665Y0469781D01*
X0617584D01*
X0618043Y0469322D01*
X0596100Y0489822D02*
X0596559Y0490281D01*
Y0491200D01*
X0596100Y0491659D01*
X0594263D01*
X0593804Y0491200D01*
Y0490281D01*
X0594263Y0489822D01*
X0593804Y0488904D02*
Y0487986D01*
Y0488445D01*
X0596559D01*
X0596100Y0488904D01*
X0593804Y0484771D02*
Y0486608D01*
X0595641Y0484771D01*
X0596100D01*
X0596559Y0485231D01*
Y0486149D01*
X0596100Y0486608D01*
X0630155Y0483214D02*
X0630614Y0482754D01*
X0631532D01*
X0631991Y0483214D01*
Y0485050D01*
X0631532Y0485509D01*
X0630614D01*
X0630155Y0485050D01*
X0629236Y0485509D02*
X0628318D01*
X0628777D01*
Y0482754D01*
X0629236Y0483214D01*
X0626941Y0485509D02*
X0626022D01*
X0626481D01*
Y0482754D01*
X0626941Y0483214D01*
X0614177Y0474507D02*
X0614636Y0474967D01*
Y0475885D01*
X0614177Y0476344D01*
X0612340D01*
X0611881Y0475885D01*
Y0474967D01*
X0612340Y0474507D01*
X0611881Y0473589D02*
Y0472671D01*
Y0473130D01*
X0614636D01*
X0614177Y0473589D01*
Y0471293D02*
X0614636Y0470834D01*
Y0469916D01*
X0614177Y0469456D01*
X0612340D01*
X0611881Y0469916D01*
Y0470834D01*
X0612340Y0471293D01*
X0614177D01*
Y0481385D02*
X0614636Y0481845D01*
Y0482763D01*
X0614177Y0483222D01*
X0612340D01*
X0611881Y0482763D01*
Y0481845D01*
X0612340Y0481385D01*
Y0480467D02*
X0611881Y0480008D01*
Y0479089D01*
X0612340Y0478630D01*
X0614177D01*
X0614636Y0479089D01*
Y0480008D01*
X0614177Y0480467D01*
X0613718D01*
X0613259Y0480008D01*
Y0478630D01*
X0630393Y0510820D02*
X0630852Y0510361D01*
X0631770D01*
X0632229Y0510820D01*
Y0512657D01*
X0631770Y0513116D01*
X0630852D01*
X0630393Y0512657D01*
X0629474Y0510820D02*
X0629015Y0510361D01*
X0628097D01*
X0627637Y0510820D01*
Y0511279D01*
X0628097Y0511738D01*
X0627637Y0512197D01*
Y0512657D01*
X0628097Y0513116D01*
X0629015D01*
X0629474Y0512657D01*
Y0512197D01*
X0629015Y0511738D01*
X0629474Y0511279D01*
Y0510820D01*
X0629015Y0511738D02*
X0628097D01*
X0630393Y0514796D02*
X0630852Y0514337D01*
X0631770D01*
X0632229Y0514796D01*
Y0516633D01*
X0631770Y0517092D01*
X0630852D01*
X0630393Y0516633D01*
X0629474Y0514337D02*
X0627637D01*
Y0514796D01*
X0629474Y0516633D01*
Y0517092D01*
X0630155Y0518536D02*
X0630614Y0518077D01*
X0631532D01*
X0631991Y0518536D01*
Y0520373D01*
X0631532Y0520832D01*
X0630614D01*
X0630155Y0520373D01*
X0627400Y0518077D02*
X0628318Y0518536D01*
X0629236Y0519455D01*
Y0520373D01*
X0628777Y0520832D01*
X0627859D01*
X0627400Y0520373D01*
Y0519914D01*
X0627859Y0519455D01*
X0629236D01*
X0566887Y0468300D02*
X0567346Y0467841D01*
X0568264D01*
X0568724Y0468300D01*
Y0470137D01*
X0568264Y0470596D01*
X0567346D01*
X0566887Y0470137D01*
X0564132Y0467841D02*
X0565969D01*
Y0469218D01*
X0565050Y0468759D01*
X0564591D01*
X0564132Y0469218D01*
Y0470137D01*
X0564591Y0470596D01*
X0565510D01*
X0565969Y0470137D01*
X0576257Y0468300D02*
X0576716Y0467841D01*
X0577635D01*
X0578094Y0468300D01*
Y0470137D01*
X0577635Y0470596D01*
X0576716D01*
X0576257Y0470137D01*
X0573961Y0470596D02*
Y0467841D01*
X0575339Y0469218D01*
X0573502D01*
X0559966Y0521009D02*
X0560425Y0520550D01*
X0561343D01*
X0561802Y0521009D01*
Y0522846D01*
X0561343Y0523305D01*
X0560425D01*
X0559966Y0522846D01*
X0559047Y0521009D02*
X0558588Y0520550D01*
X0557670D01*
X0557211Y0521009D01*
Y0521468D01*
X0557670Y0521927D01*
X0558129D01*
X0557670D01*
X0557211Y0522386D01*
Y0522846D01*
X0557670Y0523305D01*
X0558588D01*
X0559047Y0522846D01*
X0553273Y0524639D02*
X0553732Y0524180D01*
X0554650D01*
X0555110Y0524639D01*
Y0526475D01*
X0554650Y0526935D01*
X0553732D01*
X0553273Y0526475D01*
X0550518Y0526935D02*
X0552354D01*
X0550518Y0525098D01*
Y0524639D01*
X0550977Y0524180D01*
X0551895D01*
X0552354Y0524639D01*
X0543974Y0524836D02*
X0544433Y0524376D01*
X0545351D01*
X0545810Y0524836D01*
Y0526672D01*
X0545351Y0527132D01*
X0544433D01*
X0543974Y0526672D01*
X0543055Y0527132D02*
X0542137D01*
X0542596D01*
Y0524376D01*
X0543055Y0524836D01*
X0594040Y0513155D02*
X0596795D01*
Y0511778D01*
X0596336Y0511318D01*
X0595418D01*
X0594958Y0511778D01*
Y0513155D01*
Y0512237D02*
X0594040Y0511318D01*
Y0510400D02*
Y0509482D01*
Y0509941D01*
X0596795D01*
X0596336Y0510400D01*
X0596795Y0506267D02*
Y0508104D01*
X0595418D01*
X0595877Y0507186D01*
Y0506727D01*
X0595418Y0506267D01*
X0594499D01*
X0594040Y0506727D01*
Y0507645D01*
X0594499Y0508104D01*
X0676915Y0506489D02*
X0677374Y0506030D01*
X0678293D01*
X0678752Y0506489D01*
Y0508326D01*
X0678293Y0508785D01*
X0677374D01*
X0676915Y0508326D01*
X0675997Y0508785D02*
X0675078D01*
X0675537D01*
Y0506030D01*
X0675997Y0506489D01*
X0673701Y0506030D02*
X0671864D01*
Y0506489D01*
X0673701Y0508326D01*
Y0508785D01*
X0676915Y0513735D02*
X0677374Y0513276D01*
X0678293D01*
X0678752Y0513735D01*
Y0515572D01*
X0678293Y0516031D01*
X0677374D01*
X0676915Y0515572D01*
X0675997Y0516031D02*
X0675078D01*
X0675537D01*
Y0513276D01*
X0675997Y0513735D01*
X0673701D02*
X0673242Y0513276D01*
X0672323D01*
X0671864Y0513735D01*
Y0514194D01*
X0672323Y0514654D01*
X0671864Y0515113D01*
Y0515572D01*
X0672323Y0516031D01*
X0673242D01*
X0673701Y0515572D01*
Y0515113D01*
X0673242Y0514654D01*
X0673701Y0514194D01*
Y0513735D01*
X0673242Y0514654D02*
X0672323D01*
X0676915Y0509922D02*
X0677374Y0509463D01*
X0678293D01*
X0678752Y0509922D01*
Y0511759D01*
X0678293Y0512218D01*
X0677374D01*
X0676915Y0511759D01*
X0675997Y0512218D02*
X0675078D01*
X0675537D01*
Y0509463D01*
X0675997Y0509922D01*
X0673701Y0511759D02*
X0673242Y0512218D01*
X0672323D01*
X0671864Y0511759D01*
Y0509922D01*
X0672323Y0509463D01*
X0673242D01*
X0673701Y0509922D01*
Y0510381D01*
X0673242Y0510841D01*
X0671864D01*
X0685262Y0486896D02*
Y0489192D01*
X0684802Y0489651D01*
X0683884D01*
X0683425Y0489192D01*
Y0486896D01*
X0680670D02*
X0681588Y0487355D01*
X0682507Y0488274D01*
Y0489192D01*
X0682047Y0489651D01*
X0681129D01*
X0680670Y0489192D01*
Y0488733D01*
X0681129Y0488274D01*
X0682507D01*
X0635627Y0548092D02*
X0638382D01*
Y0546714D01*
X0637923Y0546255D01*
X0637005D01*
X0636545Y0546714D01*
Y0548092D01*
Y0547173D02*
X0635627Y0546255D01*
Y0545337D02*
Y0544418D01*
Y0544877D01*
X0638382D01*
X0637923Y0545337D01*
X0638382Y0541204D02*
X0637923Y0542122D01*
X0637005Y0543041D01*
X0636086D01*
X0635627Y0542582D01*
Y0541663D01*
X0636086Y0541204D01*
X0636545D01*
X0637005Y0541663D01*
Y0543041D01*
X0585064Y0540202D02*
X0587819D01*
Y0538825D01*
X0587360Y0538366D01*
X0586441D01*
X0585982Y0538825D01*
Y0540202D01*
Y0539284D02*
X0585064Y0538366D01*
Y0535611D02*
Y0537447D01*
X0586901Y0535611D01*
X0587360D01*
X0587819Y0536070D01*
Y0536988D01*
X0587360Y0537447D01*
X0585064Y0532856D02*
Y0534692D01*
X0586901Y0532856D01*
X0587360D01*
X0587819Y0533315D01*
Y0534233D01*
X0587360Y0534692D01*
X0658843Y0479415D02*
X0661598D01*
Y0478037D01*
X0661139Y0477578D01*
X0660221D01*
X0659762Y0478037D01*
Y0479415D01*
Y0478497D02*
X0658843Y0477578D01*
X0661139Y0476660D02*
X0661598Y0476201D01*
Y0475282D01*
X0661139Y0474823D01*
X0660680D01*
X0660221Y0475282D01*
Y0475742D01*
Y0475282D01*
X0659762Y0474823D01*
X0659303D01*
X0658843Y0475282D01*
Y0476201D01*
X0659303Y0476660D01*
X0661139Y0473905D02*
X0661598Y0473446D01*
Y0472527D01*
X0661139Y0472068D01*
X0660680D01*
X0660221Y0472527D01*
Y0472987D01*
Y0472527D01*
X0659762Y0472068D01*
X0659303D01*
X0658843Y0472527D01*
Y0473446D01*
X0659303Y0473905D01*
X0623048Y0483214D02*
X0623508Y0482754D01*
X0624426D01*
X0624885Y0483214D01*
Y0485050D01*
X0624426Y0485509D01*
X0623508D01*
X0623048Y0485050D01*
X0620293Y0485509D02*
X0622130D01*
X0620293Y0483673D01*
Y0483214D01*
X0620753Y0482754D01*
X0621671D01*
X0622130Y0483214D01*
X0619375D02*
X0618916Y0482754D01*
X0617998D01*
X0617538Y0483214D01*
Y0485050D01*
X0617998Y0485509D01*
X0618916D01*
X0619375Y0485050D01*
Y0483214D01*
X0399328Y0544237D02*
Y0541941D01*
X0399787Y0541482D01*
X0400705D01*
X0401164Y0541941D01*
Y0544237D01*
X0402083D02*
X0403920D01*
Y0543778D01*
X0402083Y0541941D01*
Y0541482D01*
X0750856Y0511948D02*
X0751315Y0512407D01*
Y0513326D01*
X0750856Y0513785D01*
X0749019D01*
X0748560Y0513326D01*
Y0512407D01*
X0749019Y0511948D01*
X0748560Y0509193D02*
Y0511030D01*
X0750397Y0509193D01*
X0750856D01*
X0751315Y0509653D01*
Y0510571D01*
X0750856Y0511030D01*
X0751315Y0506438D02*
X0750856Y0507357D01*
X0749938Y0508275D01*
X0749019D01*
X0748560Y0507816D01*
Y0506897D01*
X0749019Y0506438D01*
X0749478D01*
X0749938Y0506897D01*
Y0508275D01*
X0736178Y0454114D02*
X0736638Y0454573D01*
Y0455491D01*
X0736178Y0455950D01*
X0734342D01*
X0733883Y0455491D01*
Y0454573D01*
X0734342Y0454114D01*
X0736638Y0451818D02*
Y0452736D01*
X0736178Y0453195D01*
X0734342D01*
X0733883Y0452736D01*
Y0451818D01*
X0734342Y0451359D01*
X0736178D01*
X0736638Y0451818D01*
X0733883Y0450440D02*
X0736638D01*
X0733883Y0448604D01*
X0736638D01*
Y0445849D02*
Y0447685D01*
X0735260D01*
X0735719Y0446767D01*
Y0446308D01*
X0735260Y0445849D01*
X0734342D01*
X0733883Y0446308D01*
Y0447226D01*
X0734342Y0447685D01*
X0655705Y0547993D02*
X0652950D01*
Y0546616D01*
X0653409Y0546157D01*
X0655246D01*
X0655705Y0546616D01*
Y0547993D01*
Y0545238D02*
Y0543401D01*
X0655246D01*
X0653409Y0545238D01*
X0652950D01*
X0762726Y0467908D02*
X0763185Y0468368D01*
Y0469286D01*
X0762726Y0469745D01*
X0762267D01*
X0761808Y0469286D01*
Y0468368D01*
X0761348Y0467908D01*
X0760889D01*
X0760430Y0468368D01*
Y0469286D01*
X0760889Y0469745D01*
X0763185Y0466990D02*
X0760430D01*
X0761348Y0466072D01*
X0760430Y0465154D01*
X0763185D01*
X0760430Y0464235D02*
Y0463317D01*
Y0463776D01*
X0763185D01*
X0762726Y0464235D01*
D18*
X0256828Y0323588D02*
Y0324376D01*
D19*
X0749146Y0520349D02*
X0750946D01*
X0749146Y0520324D02*
X0750996D01*
X0749171Y0520299D02*
X0751046D01*
X0749196Y0520274D02*
X0751096D01*
X0749196Y0520249D02*
X0751171D01*
X0749221Y0520224D02*
X0751271D01*
X0749246Y0520199D02*
X0757846D01*
X0749246Y0520174D02*
X0757846D01*
X0749271Y0520149D02*
X0757821D01*
X0749296Y0520124D02*
X0757796D01*
X0749321Y0520099D02*
X0757771D01*
X0749321Y0520074D02*
X0757771D01*
X0749346Y0520049D02*
X0757746D01*
X0749371Y0520024D02*
X0757721D01*
X0749396Y0519999D02*
X0757696D01*
X0749421Y0519974D02*
X0757696D01*
X0749421Y0519949D02*
X0757671D01*
X0749446Y0519924D02*
X0757646D01*
X0749471Y0519899D02*
X0757621D01*
X0749496Y0519874D02*
X0757596D01*
X0749521Y0519849D02*
X0757571D01*
X0749521Y0519824D02*
X0757571D01*
X0749546Y0519799D02*
X0757546D01*
X0749571Y0519774D02*
X0757521D01*
X0749596Y0519749D02*
X0757496D01*
X0749621Y0519724D02*
X0757471D01*
X0749646Y0519699D02*
X0757446D01*
X0749671Y0519674D02*
X0757421D01*
X0749696Y0519649D02*
X0757396D01*
X0749721Y0519624D02*
X0757371D01*
X0749746Y0519599D02*
X0757346D01*
X0749771Y0519574D02*
X0757321D01*
X0749796Y0519549D02*
X0757296D01*
X0749821Y0519524D02*
X0757296D01*
X0749846Y0519499D02*
X0757271D01*
X0749871Y0519474D02*
X0757246D01*
X0749896Y0519449D02*
X0757221D01*
X0749921Y0519424D02*
X0757171D01*
X0749946Y0519399D02*
X0757146D01*
X0749971Y0519374D02*
X0757121D01*
X0749996Y0519349D02*
X0757096D01*
X0750021Y0519324D02*
X0757071D01*
X0750046Y0519299D02*
X0757046D01*
X0750071Y0519274D02*
X0757021D01*
X0750096Y0519249D02*
X0756996D01*
X0750146Y0519224D02*
X0756971D01*
X0750171Y0519199D02*
X0756921D01*
X0750196Y0519174D02*
X0756896D01*
X0750221Y0519149D02*
X0756871D01*
X0750246Y0519124D02*
X0756846D01*
X0750296Y0519099D02*
X0756821D01*
X0750321Y0519074D02*
X0756771D01*
X0750346Y0519049D02*
X0756746D01*
X0750396Y0519024D02*
X0756721D01*
X0750421Y0518999D02*
X0756671D01*
X0750446Y0518974D02*
X0756646D01*
X0750496Y0518949D02*
X0756621D01*
X0750521Y0518924D02*
X0756571D01*
X0750571Y0518899D02*
X0756546D01*
X0750596Y0518874D02*
X0756496D01*
X0750646Y0518849D02*
X0756471D01*
X0750671Y0518824D02*
X0756421D01*
X0750721Y0518799D02*
X0756396D01*
X0750746Y0518774D02*
X0756346D01*
X0750796Y0518749D02*
X0756296D01*
X0750821Y0518724D02*
X0756271D01*
X0750871Y0518699D02*
X0756221D01*
X0750921Y0518674D02*
X0756196D01*
X0750946Y0518649D02*
X0756146D01*
X0750946Y0528199D02*
X0756146D01*
X0750896Y0528174D02*
X0756171D01*
X0750871Y0528149D02*
X0756221D01*
X0750821Y0528124D02*
X0756271D01*
X0750796Y0528099D02*
X0756296D01*
X0750746Y0528074D02*
X0756346D01*
X0750696Y0528049D02*
X0756396D01*
X0750671Y0528024D02*
X0756421D01*
X0750621Y0527999D02*
X0756471D01*
X0750596Y0527974D02*
X0756496D01*
X0750546Y0527949D02*
X0756546D01*
X0750521Y0527924D02*
X0756571D01*
X0750471Y0527899D02*
X0756621D01*
X0750446Y0527874D02*
X0756646D01*
X0750421Y0527849D02*
X0756671D01*
X0750396Y0527824D02*
X0756721D01*
X0750346Y0527799D02*
X0756746D01*
X0750321Y0527774D02*
X0756771D01*
X0750296Y0527749D02*
X0756796D01*
X0750246Y0527724D02*
X0756846D01*
X0750221Y0527699D02*
X0756871D01*
X0750196Y0527674D02*
X0756896D01*
X0750171Y0527649D02*
X0756921D01*
X0750146Y0527624D02*
X0756971D01*
X0750096Y0527599D02*
X0756996D01*
X0750071Y0527574D02*
X0757021D01*
X0750046Y0527549D02*
X0757046D01*
X0750021Y0527524D02*
X0757071D01*
X0749996Y0527499D02*
X0757096D01*
X0749971Y0527474D02*
X0757121D01*
X0749946Y0527449D02*
X0757146D01*
X0749921Y0527424D02*
X0757171D01*
X0749896Y0527399D02*
X0757221D01*
X0749871Y0527374D02*
X0757246D01*
X0749846Y0527349D02*
X0757271D01*
X0749821Y0527324D02*
X0757296D01*
X0749796Y0527299D02*
X0757321D01*
X0749771Y0527274D02*
X0757346D01*
X0749746Y0527249D02*
X0757346D01*
X0749721Y0527224D02*
X0757371D01*
X0749696Y0527199D02*
X0757396D01*
X0749671Y0527174D02*
X0757421D01*
X0749646Y0527149D02*
X0757446D01*
X0749646Y0527124D02*
X0757471D01*
X0749646Y0527099D02*
X0757496D01*
X0749646Y0527074D02*
X0757521D01*
X0749646Y0527049D02*
X0757546D01*
X0749646Y0527024D02*
X0757571D01*
X0749646Y0526999D02*
X0757596D01*
X0749646Y0526974D02*
X0757596D01*
X0749646Y0526949D02*
X0757621D01*
X0749646Y0526924D02*
X0757646D01*
X0749646Y0526899D02*
X0757671D01*
X0749646Y0526874D02*
X0757696D01*
X0749646Y0526849D02*
X0757696D01*
X0749646Y0526824D02*
X0757721D01*
X0749646Y0526799D02*
X0757746D01*
X0749646Y0526774D02*
X0757771D01*
X0749646Y0526749D02*
X0757771D01*
X0749646Y0526724D02*
X0757796D01*
X0749646Y0526699D02*
X0757821D01*
X0749646Y0526674D02*
X0757846D01*
X0749646Y0526649D02*
X0757846D01*
X0749646Y0526624D02*
X0757871D01*
X0749646Y0526599D02*
X0757896D01*
X0749646Y0526574D02*
X0757921D01*
X0749646Y0526549D02*
X0757921D01*
X0749646Y0526524D02*
X0757946D01*
X0749646Y0526499D02*
X0757971D01*
X0749646Y0526474D02*
X0757971D01*
X0749646Y0526449D02*
X0757996D01*
X0749646Y0526424D02*
X0755796D01*
X0749646Y0526399D02*
X0755696D01*
X0749646Y0526374D02*
X0755621D01*
X0749646Y0526349D02*
X0755571D01*
X0749646Y0526324D02*
X0755546D01*
X0749646Y0526299D02*
X0755496D01*
X0749646Y0526274D02*
X0755471D01*
X0749646Y0526249D02*
X0755446D01*
X0749646Y0526224D02*
X0755421D01*
X0749646Y0526199D02*
X0755396D01*
X0749646Y0526174D02*
X0755396D01*
X0749646Y0526149D02*
X0755371D01*
X0749646Y0526124D02*
X0755346D01*
X0749646Y0526099D02*
X0755346D01*
X0749646Y0526074D02*
X0755321D01*
X0749646Y0526049D02*
X0755321D01*
X0749646Y0526024D02*
X0755321D01*
X0749646Y0525999D02*
X0755296D01*
X0749646Y0525974D02*
X0755296D01*
X0749646Y0525949D02*
X0755296D01*
X0749646Y0525924D02*
X0755296D01*
X0749646Y0525899D02*
X0755296D01*
X0749646Y0525874D02*
X0755296D01*
X0749646Y0525849D02*
X0755296D01*
X0749646Y0525824D02*
X0755296D01*
X0749646Y0525799D02*
X0755296D01*
X0749646Y0525774D02*
X0755296D01*
X0749646Y0525749D02*
X0751096D01*
X0749646Y0525724D02*
X0751021D01*
X0749646Y0525699D02*
X0750946D01*
X0749646Y0524449D02*
X0750946D01*
X0749646Y0524424D02*
X0750996D01*
X0749646Y0524399D02*
X0751071D01*
X0749646Y0524374D02*
X0753821D01*
X0749646Y0524349D02*
X0753796D01*
X0749646Y0524324D02*
X0753796D01*
X0749646Y0524299D02*
X0753796D01*
X0749646Y0524274D02*
X0753796D01*
X0749646Y0524249D02*
X0753796D01*
X0749646Y0524224D02*
X0753796D01*
X0749646Y0524199D02*
X0753796D01*
X0749646Y0524174D02*
X0753796D01*
X0749646Y0524149D02*
X0753796D01*
X0749646Y0524124D02*
X0753796D01*
X0749646Y0524099D02*
X0753821D01*
X0749646Y0524074D02*
X0753821D01*
X0749646Y0524049D02*
X0753821D01*
X0749646Y0524024D02*
X0753821D01*
X0749646Y0523999D02*
X0753846D01*
X0749646Y0523974D02*
X0753846D01*
X0749646Y0523949D02*
X0753846D01*
X0749646Y0523924D02*
X0753871D01*
X0749646Y0523899D02*
X0753871D01*
X0749646Y0523874D02*
X0753896D01*
X0749646Y0523849D02*
X0753896D01*
X0749646Y0523824D02*
X0753921D01*
X0749646Y0523799D02*
X0753946D01*
X0749646Y0523774D02*
X0753946D01*
X0749646Y0523749D02*
X0753971D01*
X0749646Y0523724D02*
X0752646D01*
X0749646Y0523699D02*
X0752571D01*
X0749646Y0523674D02*
X0752521D01*
X0749646Y0523649D02*
X0752471D01*
X0749646Y0523624D02*
X0752446D01*
X0749646Y0523599D02*
X0752421D01*
X0749621Y0523574D02*
X0752396D01*
X0749621Y0523549D02*
X0752371D01*
X0749596Y0523524D02*
X0752346D01*
X0749571Y0523499D02*
X0752321D01*
X0749546Y0523474D02*
X0752321D01*
X0749471Y0523449D02*
X0752296D01*
X0748221Y0523424D02*
X0752296D01*
X0748221Y0523399D02*
X0752296D01*
X0748221Y0523374D02*
X0752271D01*
X0748221Y0523349D02*
X0752271D01*
X0748221Y0523324D02*
X0752271D01*
X0748221Y0523299D02*
X0752271D01*
X0748221Y0523274D02*
X0752271D01*
X0748221Y0523249D02*
X0752271D01*
X0748221Y0523224D02*
X0752271D01*
X0748221Y0523199D02*
X0752271D01*
X0748221Y0523174D02*
X0752271D01*
X0748221Y0523149D02*
X0752271D01*
X0748221Y0523124D02*
X0752271D01*
X0748221Y0523099D02*
X0752271D01*
X0748221Y0523074D02*
X0752296D01*
X0749446Y0523049D02*
X0752296D01*
X0749521Y0523024D02*
X0752321D01*
X0749571Y0522999D02*
X0752321D01*
X0749596Y0522974D02*
X0752321D01*
X0749621Y0522949D02*
X0752346D01*
X0749646Y0522924D02*
X0752371D01*
X0749646Y0522899D02*
X0752371D01*
X0749671Y0522874D02*
X0752396D01*
X0749671Y0522849D02*
X0752421D01*
X0749696Y0522824D02*
X0752421D01*
X0749696Y0522799D02*
X0752446D01*
X0749696Y0522774D02*
X0752446D01*
X0749721Y0522749D02*
X0752446D01*
X0749721Y0522724D02*
X0752446D01*
X0749721Y0522699D02*
X0752446D01*
X0749746Y0522674D02*
X0752446D01*
X0749746Y0522649D02*
X0752446D01*
X0749746Y0522624D02*
X0752446D01*
X0749771Y0522599D02*
X0752421D01*
X0749771Y0522574D02*
X0752421D01*
X0749771Y0522549D02*
X0752421D01*
X0749771Y0522524D02*
X0752396D01*
X0749796Y0522499D02*
X0752396D01*
X0749796Y0522474D02*
X0752371D01*
X0749796Y0522449D02*
X0752346D01*
X0749821Y0522424D02*
X0752346D01*
X0749821Y0522399D02*
X0752321D01*
X0749846Y0522374D02*
X0752321D01*
X0749871Y0522349D02*
X0752296D01*
X0749896Y0522324D02*
X0752271D01*
X0749921Y0522299D02*
X0752271D01*
X0749971Y0522274D02*
X0752246D01*
X0750021Y0522249D02*
X0752221D01*
X0750046Y0522224D02*
X0752221D01*
X0750096Y0522199D02*
X0752196D01*
X0750121Y0522174D02*
X0752171D01*
X0750171Y0522149D02*
X0752171D01*
X0750221Y0522124D02*
X0751271D01*
X0750271Y0522099D02*
X0751171D01*
X0750296Y0522074D02*
X0751071D01*
X0750346Y0522049D02*
X0751021D01*
X0750396Y0522024D02*
X0750971D01*
X0748846Y0520824D02*
X0750546D01*
X0752796Y0528824D02*
X0754346D01*
X0752371Y0520824D02*
X0758246D01*
X0748871Y0520799D02*
X0750571D01*
X0748871Y0520774D02*
X0750571D01*
X0748896Y0520749D02*
X0750596D01*
X0748896Y0520724D02*
X0750596D01*
X0748921Y0520699D02*
X0750621D01*
X0748946Y0520674D02*
X0750621D01*
X0748946Y0520649D02*
X0750646D01*
X0748971Y0520624D02*
X0750646D01*
X0748971Y0520599D02*
X0750671D01*
X0748996Y0520574D02*
X0750696D01*
X0749021Y0520549D02*
X0750721D01*
X0749021Y0520524D02*
X0750746D01*
X0749046Y0520499D02*
X0750771D01*
X0749046Y0520474D02*
X0750796D01*
X0749071Y0520449D02*
X0750821D01*
X0749096Y0520424D02*
X0750846D01*
X0749096Y0520399D02*
X0750871D01*
X0749121Y0520374D02*
X0750921D01*
X0748921Y0526149D02*
X0748946D01*
X0748896Y0526124D02*
X0748946D01*
X0748896Y0526099D02*
X0748946D01*
X0748871Y0526074D02*
X0748946D01*
X0748871Y0526049D02*
X0748946D01*
X0748846Y0526024D02*
X0748946D01*
X0748846Y0525999D02*
X0748946D01*
X0748821Y0525974D02*
X0748946D01*
X0748821Y0525949D02*
X0748946D01*
X0748796Y0525924D02*
X0748946D01*
X0748796Y0525899D02*
X0748946D01*
X0748771Y0525874D02*
X0748946D01*
X0748771Y0525849D02*
X0748946D01*
X0748746Y0525824D02*
X0748946D01*
X0748746Y0525799D02*
X0748946D01*
X0748721Y0525774D02*
X0748946D01*
X0748721Y0525749D02*
X0748946D01*
X0748696Y0525724D02*
X0748946D01*
X0748696Y0525699D02*
X0748946D01*
X0748696Y0525674D02*
X0748946D01*
X0749646D02*
X0750896D01*
X0748671Y0525649D02*
X0748946D01*
X0749646D02*
X0750846D01*
X0748671Y0525624D02*
X0748946D01*
X0749646D02*
X0750821D01*
X0748646Y0525599D02*
X0748946D01*
X0749646D02*
X0750796D01*
X0748646Y0525574D02*
X0748946D01*
X0749646D02*
X0750771D01*
X0748621Y0525549D02*
X0748946D01*
X0749646D02*
X0750746D01*
X0748621Y0525524D02*
X0748946D01*
X0749646D02*
X0750721D01*
X0748621Y0525499D02*
X0748946D01*
X0749646D02*
X0750696D01*
X0748596Y0525474D02*
X0748946D01*
X0749646D02*
X0750671D01*
X0748596Y0525449D02*
X0748946D01*
X0749646D02*
X0750646D01*
X0748571Y0525424D02*
X0748946D01*
X0749646D02*
X0750646D01*
X0748571Y0525399D02*
X0748946D01*
X0749646D02*
X0750621D01*
X0748571Y0525374D02*
X0748946D01*
X0749646D02*
X0750621D01*
X0748546Y0525349D02*
X0748946D01*
X0749646D02*
X0750596D01*
X0748546Y0525324D02*
X0748946D01*
X0749646D02*
X0750596D01*
X0748546Y0525299D02*
X0748946D01*
X0749646D02*
X0750571D01*
X0748521Y0525274D02*
X0748946D01*
X0749646D02*
X0750571D01*
X0748521Y0525249D02*
X0748946D01*
X0749646D02*
X0750571D01*
X0748521Y0525224D02*
X0748946D01*
X0749646D02*
X0750546D01*
X0748496Y0525199D02*
X0748946D01*
X0749646D02*
X0750546D01*
X0748496Y0525174D02*
X0748946D01*
X0749646D02*
X0750546D01*
X0748496Y0525149D02*
X0748946D01*
X0749646D02*
X0750546D01*
X0748471Y0525124D02*
X0748946D01*
X0749646D02*
X0750546D01*
X0748471Y0525099D02*
X0748946D01*
X0749646D02*
X0750546D01*
X0748471Y0525074D02*
X0748946D01*
X0749646D02*
X0750546D01*
X0748446Y0525049D02*
X0748946D01*
X0749646D02*
X0750546D01*
X0748446Y0525024D02*
X0748946D01*
X0749646D02*
X0750546D01*
X0748446Y0524999D02*
X0748946D01*
X0749646D02*
X0750546D01*
X0748421Y0524974D02*
X0748946D01*
X0749646D02*
X0750546D01*
X0748421Y0524949D02*
X0748946D01*
X0749646D02*
X0750546D01*
X0748421Y0524924D02*
X0748946D01*
X0749646D02*
X0750546D01*
X0748421Y0524899D02*
X0748946D01*
X0749646D02*
X0750571D01*
X0748396Y0524874D02*
X0748946D01*
X0749646D02*
X0750571D01*
X0748396Y0524849D02*
X0748946D01*
X0749646D02*
X0750571D01*
X0748396Y0524824D02*
X0748946D01*
X0749646D02*
X0750596D01*
X0748371Y0524799D02*
X0748946D01*
X0749646D02*
X0750596D01*
X0748371Y0524774D02*
X0748946D01*
X0749646D02*
X0750621D01*
X0748371Y0524749D02*
X0748946D01*
X0749646D02*
X0750621D01*
X0748371Y0524724D02*
X0748946D01*
X0749646D02*
X0750646D01*
X0748371Y0524699D02*
X0748946D01*
X0749646D02*
X0750646D01*
X0748346Y0524674D02*
X0748946D01*
X0749646D02*
X0750671D01*
X0748346Y0524649D02*
X0748946D01*
X0749646D02*
X0750696D01*
X0748346Y0524624D02*
X0748946D01*
X0749646D02*
X0750721D01*
X0748346Y0524599D02*
X0748946D01*
X0749646D02*
X0750721D01*
X0748321Y0524574D02*
X0748946D01*
X0749646D02*
X0750746D01*
X0748321Y0524549D02*
X0748946D01*
X0749646D02*
X0750796D01*
X0748321Y0524524D02*
X0748946D01*
X0749646D02*
X0750821D01*
X0748321Y0524499D02*
X0748946D01*
X0749646D02*
X0750846D01*
X0748321Y0524474D02*
X0748946D01*
X0749646D02*
X0750896D01*
X0748296Y0524449D02*
X0748946D01*
X0748296Y0524424D02*
X0748946D01*
X0748296Y0524399D02*
X0748946D01*
X0748296Y0524374D02*
X0748946D01*
X0748296Y0524349D02*
X0748946D01*
X0748296Y0524324D02*
X0748946D01*
X0748271Y0524299D02*
X0748946D01*
X0748271Y0524274D02*
X0748946D01*
X0748271Y0524249D02*
X0748946D01*
X0748271Y0524224D02*
X0748946D01*
X0748271Y0524199D02*
X0748946D01*
X0748271Y0524174D02*
X0748946D01*
X0748271Y0524149D02*
X0748946D01*
X0748246Y0524124D02*
X0748946D01*
X0748246Y0524099D02*
X0748946D01*
X0748246Y0524074D02*
X0748946D01*
X0748246Y0524049D02*
X0748946D01*
X0748246Y0524024D02*
X0748946D01*
X0748246Y0523999D02*
X0748946D01*
X0748246Y0523974D02*
X0748946D01*
X0748246Y0523949D02*
X0748946D01*
X0748246Y0523924D02*
X0748946D01*
X0748246Y0523899D02*
X0748946D01*
X0748246Y0523874D02*
X0748946D01*
X0748246Y0523849D02*
X0748946D01*
X0748221Y0523824D02*
X0748946D01*
X0748221Y0523799D02*
X0748946D01*
X0748221Y0523774D02*
X0748946D01*
X0748221Y0523749D02*
X0748946D01*
X0748221Y0523724D02*
X0748946D01*
X0748221Y0523699D02*
X0748946D01*
X0748221Y0523674D02*
X0748946D01*
X0748221Y0523649D02*
X0748971D01*
X0748221Y0523624D02*
X0748971D01*
X0748221Y0523599D02*
X0748971D01*
X0748221Y0523574D02*
X0748971D01*
X0748221Y0523549D02*
X0748996D01*
X0748221Y0523524D02*
X0749021D01*
X0748221Y0523499D02*
X0749046D01*
X0748221Y0523474D02*
X0749096D01*
X0748221Y0523449D02*
X0749146D01*
X0748221Y0523049D02*
X0749196D01*
X0748221Y0523024D02*
X0749121D01*
X0748221Y0522999D02*
X0749071D01*
X0748221Y0522974D02*
X0749046D01*
X0748246Y0522949D02*
X0749021D01*
X0748246Y0522924D02*
X0748996D01*
X0748246Y0522899D02*
X0748971D01*
X0748246Y0522874D02*
X0748946D01*
X0748246Y0522849D02*
X0748921D01*
X0748246Y0522824D02*
X0748921D01*
X0748246Y0522799D02*
X0748896D01*
X0748246Y0522774D02*
X0748896D01*
X0748271Y0522749D02*
X0748871D01*
X0748271Y0522724D02*
X0748871D01*
X0748271Y0522699D02*
X0748871D01*
X0748271Y0522674D02*
X0748846D01*
X0748271Y0522649D02*
X0748846D01*
X0748271Y0522624D02*
X0748846D01*
X0748271Y0522599D02*
X0748846D01*
X0748271Y0522574D02*
X0748846D01*
X0748296Y0522549D02*
X0748846D01*
X0748296Y0522524D02*
X0748846D01*
X0748296Y0522499D02*
X0748871D01*
X0748296Y0522474D02*
X0748871D01*
X0748296Y0522449D02*
X0748871D01*
X0748296Y0522424D02*
X0748896D01*
X0748321Y0522399D02*
X0748896D01*
X0748321Y0522374D02*
X0748921D01*
X0748321Y0522349D02*
X0748921D01*
X0748321Y0522324D02*
X0748946D01*
X0748321Y0522299D02*
X0748971D01*
X0748346Y0522274D02*
X0748971D01*
X0748346Y0522249D02*
X0749021D01*
X0748346Y0522224D02*
X0749046D01*
X0748346Y0522199D02*
X0749071D01*
X0748371Y0522174D02*
X0749121D01*
X0749546D02*
X0749771D01*
X0748371Y0522149D02*
X0749196D01*
X0749446D02*
X0749821D01*
X0748371Y0522124D02*
X0749846D01*
X0748371Y0522099D02*
X0749896D01*
X0748371Y0522074D02*
X0749946D01*
X0748396Y0522049D02*
X0749996D01*
X0748396Y0522024D02*
X0750046D01*
X0748396Y0521999D02*
X0750096D01*
X0750446D02*
X0750921D01*
X0748396Y0521974D02*
X0750146D01*
X0750496D02*
X0750896D01*
X0748421Y0521949D02*
X0750196D01*
X0750546D02*
X0750846D01*
X0748421Y0521924D02*
X0750221D01*
X0750596D02*
X0750821D01*
X0748421Y0521899D02*
X0750246D01*
X0750646D02*
X0750746D01*
X0748421Y0521874D02*
X0750296D01*
X0748446Y0521849D02*
X0750321D01*
X0748446Y0521824D02*
X0750346D01*
X0748446Y0521799D02*
X0750371D01*
X0748471Y0521774D02*
X0750396D01*
X0748471Y0521749D02*
X0750421D01*
X0748471Y0521724D02*
X0750446D01*
X0748496Y0521699D02*
X0750496D01*
X0748496Y0521674D02*
X0750496D01*
X0748496Y0521649D02*
X0750521D01*
X0748521Y0521624D02*
X0750546D01*
X0748521Y0521599D02*
X0750546D01*
X0748521Y0521574D02*
X0750546D01*
X0748546Y0521549D02*
X0750546D01*
X0748546Y0521524D02*
X0750546D01*
X0748546Y0521499D02*
X0750546D01*
X0748571Y0521474D02*
X0750546D01*
X0748571Y0521449D02*
X0750546D01*
X0748571Y0521424D02*
X0750546D01*
X0748596Y0521399D02*
X0750521D01*
X0748596Y0521374D02*
X0750521D01*
X0748621Y0521349D02*
X0750521D01*
X0748621Y0521324D02*
X0750496D01*
X0748646Y0521299D02*
X0750496D01*
X0748646Y0521274D02*
X0750496D01*
X0748646Y0521249D02*
X0750496D01*
X0748671Y0521224D02*
X0750471D01*
X0748671Y0521199D02*
X0750471D01*
X0748696Y0521174D02*
X0750471D01*
X0748696Y0521149D02*
X0750471D01*
X0748721Y0521124D02*
X0750471D01*
X0748721Y0521099D02*
X0750471D01*
X0748746Y0521074D02*
X0750496D01*
X0748746Y0521049D02*
X0750496D01*
X0748746Y0521024D02*
X0750496D01*
X0748771Y0520999D02*
X0750496D01*
X0748771Y0520974D02*
X0750496D01*
X0748796Y0520949D02*
X0750521D01*
X0748796Y0520924D02*
X0750521D01*
X0748821Y0520899D02*
X0750521D01*
X0748821Y0520874D02*
X0750546D01*
X0748846Y0520849D02*
X0750546D01*
X0752371Y0520799D02*
X0758221D01*
X0752346Y0520774D02*
X0758221D01*
X0752346Y0520749D02*
X0758196D01*
X0752321Y0520724D02*
X0758196D01*
X0752321Y0520699D02*
X0758171D01*
X0752296Y0520674D02*
X0758146D01*
X0752271Y0520649D02*
X0758146D01*
X0752271Y0520624D02*
X0758121D01*
X0752246Y0520599D02*
X0758121D01*
X0752221Y0520574D02*
X0758096D01*
X0752196Y0520549D02*
X0758096D01*
X0752171Y0520524D02*
X0758071D01*
X0752171Y0520499D02*
X0758046D01*
X0752146Y0520474D02*
X0758046D01*
X0752096Y0520449D02*
X0758021D01*
X0752071Y0520424D02*
X0757996D01*
X0752046Y0520399D02*
X0757996D01*
X0751996Y0520374D02*
X0757971D01*
X0751971Y0520349D02*
X0757946D01*
X0751921Y0520324D02*
X0757946D01*
X0751871Y0520299D02*
X0757921D01*
X0751821Y0520274D02*
X0757896D01*
X0751746Y0520249D02*
X0757896D01*
X0751646Y0520224D02*
X0757871D01*
X0750996Y0518624D02*
X0756096D01*
X0751046Y0518599D02*
X0756046D01*
X0751096Y0518574D02*
X0755996D01*
X0751146Y0518549D02*
X0755946D01*
X0751196Y0518524D02*
X0755896D01*
X0751246Y0518499D02*
X0755846D01*
X0751296Y0518474D02*
X0755796D01*
X0751346Y0518449D02*
X0755746D01*
X0751396Y0518424D02*
X0755696D01*
X0751446Y0518399D02*
X0755646D01*
X0751521Y0518374D02*
X0755571D01*
X0751571Y0518349D02*
X0755521D01*
X0751646Y0518324D02*
X0755446D01*
X0751696Y0518299D02*
X0755396D01*
X0751771Y0518274D02*
X0755321D01*
X0751846Y0518249D02*
X0755246D01*
X0751921Y0518224D02*
X0755171D01*
X0751996Y0518199D02*
X0755096D01*
X0752071Y0518174D02*
X0755021D01*
X0752171Y0518149D02*
X0754921D01*
X0752271Y0518124D02*
X0754796D01*
X0752371Y0518099D02*
X0754696D01*
X0752471Y0518074D02*
X0754596D01*
X0752621Y0518049D02*
X0754471D01*
X0752771Y0518024D02*
X0754296D01*
X0752946Y0517999D02*
X0754096D01*
X0753246Y0517974D02*
X0753821D01*
X0752621Y0528799D02*
X0754496D01*
X0752496Y0528774D02*
X0754621D01*
X0752396Y0528749D02*
X0754721D01*
X0752296Y0528724D02*
X0754846D01*
X0752171Y0528699D02*
X0754921D01*
X0752071Y0528674D02*
X0755021D01*
X0751996Y0528649D02*
X0755096D01*
X0751921Y0528624D02*
X0755171D01*
X0751846Y0528599D02*
X0755246D01*
X0751771Y0528574D02*
X0755321D01*
X0751696Y0528549D02*
X0755396D01*
X0751646Y0528524D02*
X0755446D01*
X0751571Y0528499D02*
X0755521D01*
X0751521Y0528474D02*
X0755571D01*
X0751446Y0528449D02*
X0755646D01*
X0751396Y0528424D02*
X0755696D01*
X0751346Y0528399D02*
X0755746D01*
X0751296Y0528374D02*
X0755796D01*
X0751246Y0528349D02*
X0755846D01*
X0751196Y0528324D02*
X0755896D01*
X0751146Y0528299D02*
X0755946D01*
X0751096Y0528274D02*
X0755996D01*
X0751046Y0528249D02*
X0756046D01*
X0750996Y0528224D02*
X0756096D01*
X0755921Y0526424D02*
X0757996D01*
X0756021Y0526399D02*
X0758021D01*
X0756096Y0526374D02*
X0758046D01*
X0756146Y0526349D02*
X0758046D01*
X0756171Y0526324D02*
X0758071D01*
X0756221Y0526299D02*
X0758096D01*
X0756246Y0526274D02*
X0758096D01*
X0756271Y0526249D02*
X0758121D01*
X0756296Y0526224D02*
X0758121D01*
X0756321Y0526199D02*
X0758146D01*
X0756321Y0526174D02*
X0758171D01*
X0756346Y0526149D02*
X0758171D01*
X0756371Y0526124D02*
X0758196D01*
X0756371Y0526099D02*
X0758196D01*
X0756396Y0526074D02*
X0758221D01*
X0756396Y0526049D02*
X0758221D01*
X0756396Y0526024D02*
X0758246D01*
X0756421Y0525999D02*
X0758246D01*
X0756421Y0525974D02*
X0758271D01*
X0756421Y0525949D02*
X0758271D01*
X0756421Y0525924D02*
X0758296D01*
X0756421Y0525899D02*
X0758296D01*
X0756421Y0525874D02*
X0758321D01*
X0756421Y0525849D02*
X0758321D01*
X0756421Y0525824D02*
X0758346D01*
X0756421Y0525799D02*
X0758346D01*
X0756421Y0525774D02*
X0758371D01*
X0751346Y0525749D02*
X0755296D01*
X0756421D02*
X0758371D01*
X0751421Y0525724D02*
X0755296D01*
X0756421D02*
X0758371D01*
X0751496Y0525699D02*
X0755321D01*
X0756396D02*
X0758396D01*
X0751546Y0525674D02*
X0755321D01*
X0756396D02*
X0758396D01*
X0751596Y0525649D02*
X0755321D01*
X0756396D02*
X0758421D01*
X0751621Y0525624D02*
X0755346D01*
X0756371D02*
X0758421D01*
X0751671Y0525599D02*
X0755346D01*
X0756371D02*
X0758446D01*
X0751696Y0525574D02*
X0755371D01*
X0756346D02*
X0758446D01*
X0751721Y0525549D02*
X0755371D01*
X0756346D02*
X0758471D01*
X0751746Y0525524D02*
X0755396D01*
X0756321D02*
X0758471D01*
X0751771Y0525499D02*
X0755421D01*
X0756296D02*
X0758471D01*
X0751771Y0525474D02*
X0755446D01*
X0756271D02*
X0758496D01*
X0751796Y0525449D02*
X0755471D01*
X0756246D02*
X0758496D01*
X0751821Y0525424D02*
X0755496D01*
X0756221D02*
X0758521D01*
X0751821Y0525399D02*
X0755521D01*
X0756196D02*
X0758521D01*
X0751846Y0525374D02*
X0755571D01*
X0756171D02*
X0758521D01*
X0751846Y0525349D02*
X0755596D01*
X0756121D02*
X0758546D01*
X0751871Y0525324D02*
X0755671D01*
X0756071D02*
X0758546D01*
X0751871Y0525299D02*
X0755746D01*
X0755971D02*
X0758546D01*
X0751871Y0525274D02*
X0758571D01*
X0751896Y0525249D02*
X0758571D01*
X0751896Y0525224D02*
X0758571D01*
X0751896Y0525199D02*
X0758596D01*
X0751896Y0525174D02*
X0758596D01*
X0751921Y0525149D02*
X0758596D01*
X0751921Y0525124D02*
X0758621D01*
X0751921Y0525099D02*
X0758621D01*
X0751921Y0525074D02*
X0758621D01*
X0751921Y0525049D02*
X0758646D01*
X0751921Y0525024D02*
X0754571D01*
X0754621D02*
X0758646D01*
X0751921Y0524999D02*
X0754396D01*
X0754771D02*
X0758646D01*
X0751896Y0524974D02*
X0754296D01*
X0754846D02*
X0758671D01*
X0751896Y0524949D02*
X0754246D01*
X0754921D02*
X0758671D01*
X0751896Y0524924D02*
X0754196D01*
X0754971D02*
X0758671D01*
X0751896Y0524899D02*
X0754171D01*
X0754996D02*
X0758696D01*
X0751871Y0524874D02*
X0754121D01*
X0755046D02*
X0758696D01*
X0751871Y0524849D02*
X0754096D01*
X0755071D02*
X0758696D01*
X0751871Y0524824D02*
X0754071D01*
X0755096D02*
X0758696D01*
X0751846Y0524799D02*
X0754046D01*
X0755121D02*
X0758696D01*
X0751846Y0524774D02*
X0754021D01*
X0755171D02*
X0758721D01*
X0751821Y0524749D02*
X0753996D01*
X0755171D02*
X0758721D01*
X0751821Y0524724D02*
X0753971D01*
X0755196D02*
X0758721D01*
X0751796Y0524699D02*
X0753946D01*
X0755221D02*
X0758721D01*
X0751796Y0524674D02*
X0753921D01*
X0755246D02*
X0758746D01*
X0751771Y0524649D02*
X0753921D01*
X0755246D02*
X0758746D01*
X0751746Y0524624D02*
X0753896D01*
X0755271D02*
X0758746D01*
X0751721Y0524599D02*
X0753896D01*
X0755271D02*
X0756721D01*
X0757021D02*
X0758746D01*
X0751696Y0524574D02*
X0753871D01*
X0755296D02*
X0756646D01*
X0757071D02*
X0758746D01*
X0751671Y0524549D02*
X0753871D01*
X0755296D02*
X0756596D01*
X0757121D02*
X0758771D01*
X0751646Y0524524D02*
X0753846D01*
X0755321D02*
X0756546D01*
X0757171D02*
X0758771D01*
X0751596Y0524499D02*
X0753846D01*
X0755321D02*
X0756521D01*
X0757196D02*
X0758771D01*
X0751571Y0524474D02*
X0753846D01*
X0755346D02*
X0756496D01*
X0757221D02*
X0758771D01*
X0751521Y0524449D02*
X0753821D01*
X0755346D02*
X0756471D01*
X0757246D02*
X0758796D01*
X0751446Y0524424D02*
X0753821D01*
X0755346D02*
X0756446D01*
X0757271D02*
X0758796D01*
X0751371Y0524399D02*
X0753821D01*
X0755346D02*
X0756421D01*
X0757296D02*
X0758796D01*
X0755371Y0524374D02*
X0756421D01*
X0757321D02*
X0758796D01*
X0755371Y0524349D02*
X0756396D01*
X0757321D02*
X0758796D01*
X0755371Y0524324D02*
X0756396D01*
X0757346D02*
X0758796D01*
X0755371Y0524299D02*
X0756371D01*
X0757346D02*
X0758821D01*
X0755371Y0524274D02*
X0756371D01*
X0757371D02*
X0758821D01*
X0755371Y0524249D02*
X0756346D01*
X0757371D02*
X0758821D01*
X0755371Y0524224D02*
X0756346D01*
X0757371D02*
X0758821D01*
X0755371Y0524199D02*
X0756346D01*
X0757396D02*
X0758821D01*
X0755371Y0524174D02*
X0756321D01*
X0757396D02*
X0758821D01*
X0755371Y0524149D02*
X0756321D01*
X0757396D02*
X0758821D01*
X0755371Y0524124D02*
X0756321D01*
X0757396D02*
X0758821D01*
X0755371Y0524099D02*
X0756321D01*
X0757396D02*
X0758846D01*
X0755346Y0524074D02*
X0756321D01*
X0757396D02*
X0758846D01*
X0755346Y0524049D02*
X0756321D01*
X0757396D02*
X0758846D01*
X0755346Y0524024D02*
X0756321D01*
X0757396D02*
X0758846D01*
X0755321Y0523999D02*
X0756321D01*
X0757396D02*
X0758846D01*
X0755321Y0523974D02*
X0756346D01*
X0757396D02*
X0758846D01*
X0755321Y0523949D02*
X0756346D01*
X0757371D02*
X0758846D01*
X0755296Y0523924D02*
X0756346D01*
X0757371D02*
X0758846D01*
X0755296Y0523899D02*
X0756371D01*
X0757371D02*
X0758871D01*
X0755271Y0523874D02*
X0756371D01*
X0757346D02*
X0757946D01*
X0758146D02*
X0758871D01*
X0755271Y0523849D02*
X0756371D01*
X0757346D02*
X0757871D01*
X0758221D02*
X0758871D01*
X0755246Y0523824D02*
X0756396D01*
X0757321D02*
X0757821D01*
X0758271D02*
X0758871D01*
X0755246Y0523799D02*
X0756421D01*
X0757321D02*
X0757796D01*
X0758321D02*
X0758871D01*
X0755221Y0523774D02*
X0756421D01*
X0757296D02*
X0757746D01*
X0758346D02*
X0758871D01*
X0755196Y0523749D02*
X0756446D01*
X0757271D02*
X0757721D01*
X0758371D02*
X0758871D01*
X0752871Y0523724D02*
X0753996D01*
X0755171D02*
X0756471D01*
X0757246D02*
X0757696D01*
X0758396D02*
X0758871D01*
X0752946Y0523699D02*
X0754021D01*
X0755146D02*
X0756496D01*
X0757221D02*
X0757696D01*
X0758421D02*
X0758871D01*
X0752996Y0523674D02*
X0754046D01*
X0755121D02*
X0756521D01*
X0757196D02*
X0757671D01*
X0758421D02*
X0758871D01*
X0753046Y0523649D02*
X0754071D01*
X0755096D02*
X0756546D01*
X0757171D02*
X0757646D01*
X0758446D02*
X0758871D01*
X0753071Y0523624D02*
X0754096D01*
X0755071D02*
X0756596D01*
X0757121D02*
X0757646D01*
X0758446D02*
X0758871D01*
X0753096Y0523599D02*
X0754121D01*
X0755046D02*
X0756646D01*
X0757071D02*
X0757621D01*
X0758471D02*
X0758871D01*
X0753121Y0523574D02*
X0754171D01*
X0754996D02*
X0756696D01*
X0757021D02*
X0757621D01*
X0758471D02*
X0758871D01*
X0753146Y0523549D02*
X0754221D01*
X0754971D02*
X0756821D01*
X0756896D02*
X0757621D01*
X0758496D02*
X0758871D01*
X0753171Y0523524D02*
X0754246D01*
X0754921D02*
X0757596D01*
X0758496D02*
X0758871D01*
X0753171Y0523499D02*
X0754321D01*
X0754846D02*
X0757596D01*
X0758496D02*
X0758871D01*
X0753196Y0523474D02*
X0754396D01*
X0754771D02*
X0757596D01*
X0758496D02*
X0758871D01*
X0753221Y0523449D02*
X0754571D01*
X0754596D02*
X0757596D01*
X0758496D02*
X0758871D01*
X0753221Y0523424D02*
X0757596D01*
X0758496D02*
X0758871D01*
X0753221Y0523399D02*
X0757596D01*
X0758496D02*
X0758871D01*
X0753246Y0523374D02*
X0757596D01*
X0758496D02*
X0758871D01*
X0753246Y0523349D02*
X0757596D01*
X0758496D02*
X0758871D01*
X0753246Y0523324D02*
X0757621D01*
X0758496D02*
X0758871D01*
X0753246Y0523299D02*
X0757621D01*
X0758471D02*
X0758871D01*
X0753271Y0523274D02*
X0757621D01*
X0758471D02*
X0758871D01*
X0753271Y0523249D02*
X0757646D01*
X0758471D02*
X0758871D01*
X0753271Y0523224D02*
X0757646D01*
X0758446D02*
X0758871D01*
X0753271Y0523199D02*
X0757671D01*
X0758446D02*
X0758871D01*
X0753246Y0523174D02*
X0757671D01*
X0758421D02*
X0758871D01*
X0753246Y0523149D02*
X0757696D01*
X0758396D02*
X0758871D01*
X0753246Y0523124D02*
X0757721D01*
X0758371D02*
X0758871D01*
X0753246Y0523099D02*
X0757746D01*
X0758346D02*
X0758871D01*
X0753246Y0523074D02*
X0757771D01*
X0758321D02*
X0758871D01*
X0753221Y0523049D02*
X0757821D01*
X0758296D02*
X0758871D01*
X0753221Y0523024D02*
X0757871D01*
X0758246D02*
X0758871D01*
X0753221Y0522999D02*
X0757921D01*
X0758171D02*
X0758871D01*
X0753221Y0522974D02*
X0758871D01*
X0753246Y0522949D02*
X0758846D01*
X0753271Y0522924D02*
X0758846D01*
X0753296Y0522899D02*
X0754221D01*
X0754521D02*
X0758846D01*
X0753321Y0522874D02*
X0754146D01*
X0754596D02*
X0758846D01*
X0753371Y0522849D02*
X0754096D01*
X0754646D02*
X0758846D01*
X0753046Y0522824D02*
X0753246D01*
X0753421D02*
X0754046D01*
X0754696D02*
X0758846D01*
X0752996Y0522799D02*
X0753296D01*
X0753471D02*
X0753996D01*
X0754721D02*
X0758846D01*
X0752946Y0522774D02*
X0753321D01*
X0753496D02*
X0753971D01*
X0754771D02*
X0758846D01*
X0752846Y0522749D02*
X0753371D01*
X0753571D02*
X0753946D01*
X0754796D02*
X0758846D01*
X0752721Y0522724D02*
X0753396D01*
X0753621D02*
X0753921D01*
X0754821D02*
X0758846D01*
X0752646Y0522699D02*
X0753446D01*
X0753671D02*
X0753896D01*
X0754846D02*
X0758846D01*
X0752621Y0522674D02*
X0753471D01*
X0753746D02*
X0753871D01*
X0754846D02*
X0758821D01*
X0752596Y0522649D02*
X0753521D01*
X0754871D02*
X0758821D01*
X0752596Y0522624D02*
X0753546D01*
X0754896D02*
X0758821D01*
X0752571Y0522599D02*
X0753596D01*
X0754921D02*
X0758821D01*
X0752546Y0522574D02*
X0753621D01*
X0754921D02*
X0758821D01*
X0752546Y0522549D02*
X0753671D01*
X0754946D02*
X0758821D01*
X0752521Y0522524D02*
X0753696D01*
X0754946D02*
X0758821D01*
X0752496Y0522499D02*
X0753721D01*
X0754946D02*
X0758796D01*
X0752496Y0522474D02*
X0753746D01*
X0754971D02*
X0758796D01*
X0752471Y0522449D02*
X0753746D01*
X0754971D02*
X0758796D01*
X0752446Y0522424D02*
X0753771D01*
X0754971D02*
X0758796D01*
X0752446Y0522399D02*
X0753746D01*
X0754971D02*
X0758796D01*
X0752421Y0522374D02*
X0753746D01*
X0754996D02*
X0758771D01*
X0752396Y0522349D02*
X0753746D01*
X0754996D02*
X0758771D01*
X0752396Y0522324D02*
X0753746D01*
X0754996D02*
X0758771D01*
X0752371Y0522299D02*
X0753746D01*
X0754996D02*
X0758771D01*
X0752346Y0522274D02*
X0753746D01*
X0754996D02*
X0758771D01*
X0752346Y0522249D02*
X0753746D01*
X0754996D02*
X0758746D01*
X0752321Y0522224D02*
X0753746D01*
X0754996D02*
X0758746D01*
X0752296Y0522199D02*
X0753746D01*
X0754971D02*
X0758746D01*
X0752296Y0522174D02*
X0753771D01*
X0754971D02*
X0758746D01*
X0752271Y0522149D02*
X0753771D01*
X0754971D02*
X0758746D01*
X0751621Y0522124D02*
X0752146D01*
X0752271D02*
X0753771D01*
X0754971D02*
X0758721D01*
X0751746Y0522099D02*
X0752121D01*
X0752246D02*
X0753796D01*
X0754946D02*
X0758721D01*
X0751821Y0522074D02*
X0752096D01*
X0752246D02*
X0753796D01*
X0754946D02*
X0758721D01*
X0751896Y0522049D02*
X0752046D01*
X0752221D02*
X0753796D01*
X0754946D02*
X0758721D01*
X0752221Y0522024D02*
X0753821D01*
X0754921D02*
X0758696D01*
X0752221Y0521999D02*
X0753821D01*
X0754921D02*
X0758696D01*
X0752196Y0521974D02*
X0753846D01*
X0754896D02*
X0758696D01*
X0752196Y0521949D02*
X0753871D01*
X0754871D02*
X0758696D01*
X0752196Y0521924D02*
X0753871D01*
X0754871D02*
X0758671D01*
X0752196Y0521899D02*
X0753896D01*
X0754846D02*
X0758671D01*
X0752196Y0521874D02*
X0753921D01*
X0754821D02*
X0758671D01*
X0752221Y0521849D02*
X0753946D01*
X0754796D02*
X0758646D01*
X0752221Y0521824D02*
X0753971D01*
X0754771D02*
X0758646D01*
X0752246Y0521799D02*
X0753996D01*
X0754746D02*
X0758646D01*
X0752246Y0521774D02*
X0754046D01*
X0754696D02*
X0758646D01*
X0752271Y0521749D02*
X0754096D01*
X0754646D02*
X0758621D01*
X0752296Y0521724D02*
X0754146D01*
X0754596D02*
X0758621D01*
X0752321Y0521699D02*
X0754221D01*
X0754521D02*
X0758621D01*
X0752321Y0521674D02*
X0758596D01*
X0752346Y0521649D02*
X0758596D01*
X0752346Y0521624D02*
X0758596D01*
X0752371Y0521599D02*
X0758571D01*
X0752396Y0521574D02*
X0758571D01*
X0752396Y0521549D02*
X0758571D01*
X0752396Y0521524D02*
X0758546D01*
X0752421Y0521499D02*
X0758546D01*
X0752421Y0521474D02*
X0758521D01*
X0752421Y0521449D02*
X0758521D01*
X0752446Y0521424D02*
X0758521D01*
X0752446Y0521399D02*
X0758496D01*
X0752446Y0521374D02*
X0758496D01*
X0752446Y0521349D02*
X0758471D01*
X0752446Y0521324D02*
X0758471D01*
X0752471Y0521299D02*
X0758471D01*
X0752471Y0521274D02*
X0758446D01*
X0752471Y0521249D02*
X0758446D01*
X0752471Y0521224D02*
X0758421D01*
X0752471Y0521199D02*
X0758421D01*
X0752471Y0521174D02*
X0758421D01*
X0752471Y0521149D02*
X0758396D01*
X0752471Y0521124D02*
X0758396D01*
X0752446Y0521099D02*
X0758371D01*
X0752446Y0521074D02*
X0758371D01*
X0752446Y0521049D02*
X0758346D01*
X0752446Y0521024D02*
X0758346D01*
X0752446Y0520999D02*
X0758321D01*
X0752421Y0520974D02*
X0758321D01*
X0752421Y0520949D02*
X0758296D01*
X0752421Y0520924D02*
X0758296D01*
X0752396Y0520899D02*
X0758271D01*
X0752396Y0520874D02*
X0758271D01*
X0752396Y0520849D02*
X0758246D01*
X0753246Y0528874D02*
X0753871D01*
X0752971Y0528849D02*
X0754146D01*
D20*
X0381204Y0643734D02*
X0380548Y0644390D01*
X0379236D01*
X0378580Y0643734D01*
Y0643078D01*
X0379236Y0642422D01*
X0380548D01*
X0381204Y0641766D01*
Y0641110D01*
X0380548Y0640454D01*
X0379236D01*
X0378580Y0641110D01*
X0385139Y0644390D02*
X0382516D01*
Y0640454D01*
X0385139D01*
X0382516Y0642422D02*
X0383827D01*
X0386451Y0640454D02*
Y0644390D01*
X0388419D01*
X0389075Y0643734D01*
Y0642422D01*
X0388419Y0641766D01*
X0386451D01*
X0387763D02*
X0389075Y0640454D01*
X0390387D02*
Y0641110D01*
X0391043D01*
Y0640454D01*
X0390387D01*
X0397603D02*
Y0644390D01*
X0400226Y0640454D01*
Y0644390D01*
X0402194Y0640454D02*
X0403506D01*
X0404162Y0641110D01*
Y0642422D01*
X0403506Y0643078D01*
X0402194D01*
X0401538Y0642422D01*
Y0641110D01*
X0402194Y0640454D01*
X0405474D02*
Y0641110D01*
X0406130D01*
Y0640454D01*
X0405474D01*
D21*
X0413926Y0600414D02*
X0417075D01*
Y0601989D01*
X0416550Y0602514D01*
X0414451D01*
X0413926Y0601989D01*
Y0600414D01*
X0417075Y0605137D02*
Y0604088D01*
X0416550Y0603563D01*
X0415501D01*
X0414976Y0604088D01*
Y0605137D01*
X0415501Y0605662D01*
X0416025D01*
Y0603563D01*
X0417075Y0606712D02*
Y0608286D01*
X0416550Y0608811D01*
X0416025Y0608286D01*
Y0607236D01*
X0415501Y0606712D01*
X0414976Y0607236D01*
Y0608811D01*
X0417075Y0609860D02*
Y0610910D01*
Y0610385D01*
X0414976D01*
Y0609860D01*
X0418124Y0613533D02*
Y0614058D01*
X0417600Y0614583D01*
X0414976D01*
Y0613009D01*
X0415501Y0612484D01*
X0416550D01*
X0417075Y0613009D01*
Y0614583D01*
Y0615633D02*
X0414976D01*
Y0617207D01*
X0415501Y0617732D01*
X0417075D01*
Y0620356D02*
Y0619306D01*
X0416550Y0618781D01*
X0415501D01*
X0414976Y0619306D01*
Y0620356D01*
X0415501Y0620880D01*
X0416025D01*
Y0618781D01*
X0413926Y0624029D02*
X0417075D01*
Y0622455D01*
X0416550Y0621930D01*
X0415501D01*
X0414976Y0622455D01*
Y0624029D01*
X0413926Y0628227D02*
X0417075D01*
Y0629801D01*
X0416550Y0630326D01*
X0416025D01*
X0415501D01*
X0414976Y0629801D01*
Y0628227D01*
Y0631376D02*
X0416550D01*
X0417075Y0631900D01*
Y0633475D01*
X0417600D01*
X0418124Y0632950D01*
Y0632425D01*
X0417075Y0633475D02*
X0414976D01*
X0423225Y0600414D02*
Y0601464D01*
Y0600939D01*
X0421127D01*
Y0600414D01*
Y0603038D02*
X0423225D01*
X0422176D01*
X0421651Y0603563D01*
X0421127Y0604088D01*
Y0604612D01*
X0423225Y0606187D02*
X0421127D01*
Y0607761D01*
X0421651Y0608286D01*
X0423225D01*
X0421127Y0609860D02*
Y0610910D01*
X0421651Y0611435D01*
X0423225D01*
Y0609860D01*
X0422701Y0609335D01*
X0422176Y0609860D01*
Y0611435D01*
X0423225Y0612484D02*
Y0614058D01*
X0422701Y0614583D01*
X0422176Y0614058D01*
Y0613009D01*
X0421651Y0612484D01*
X0421127Y0613009D01*
Y0614583D01*
X0423225Y0615633D02*
X0422701D01*
Y0616157D01*
X0423225D01*
Y0615633D01*
Y0619831D02*
Y0618781D01*
X0422701Y0618256D01*
X0421651D01*
X0421127Y0618781D01*
Y0619831D01*
X0421651Y0620356D01*
X0422176D01*
Y0618256D01*
X0421127Y0621405D02*
X0422701D01*
X0423225Y0621930D01*
Y0623504D01*
X0421127D01*
D22*
X0364151Y0564215D02*
Y0556868D01*
X0367824Y0553195D01*
X0371497Y0556868D01*
Y0564215D01*
X0375171Y0553195D02*
X0378844D01*
X0377007D01*
Y0564215D01*
X0375171Y0562378D01*
X0384354Y0553195D02*
Y0555031D01*
X0386191D01*
Y0553195D01*
X0384354D01*
X0400884D02*
X0393537D01*
X0400884Y0560541D01*
Y0562378D01*
X0399047Y0564215D01*
X0395374D01*
X0393537Y0562378D01*
X0364466Y0568352D02*
Y0575699D01*
X0368139Y0579372D01*
X0371812Y0575699D01*
Y0568352D01*
Y0573862D01*
X0364466D01*
X0375486Y0575699D02*
Y0568352D01*
Y0572025D01*
X0377322Y0573862D01*
X0379159Y0575699D01*
X0380996D01*
X0386506D02*
Y0568352D01*
Y0572025D01*
X0388342Y0573862D01*
X0390179Y0575699D01*
X0392016D01*
X0397526Y0568352D02*
X0401199D01*
X0399362D01*
Y0575699D01*
X0397526D01*
X0406709Y0579372D02*
Y0568352D01*
X0412219D01*
X0414056Y0570189D01*
Y0572025D01*
Y0573862D01*
X0412219Y0575699D01*
X0406709D01*
X0419566D02*
X0423239D01*
X0425076Y0573862D01*
Y0568352D01*
X0419566D01*
X0417729Y0570189D01*
X0419566Y0572025D01*
X0425076D01*
X0436096Y0579372D02*
Y0568352D01*
X0430586D01*
X0428749Y0570189D01*
Y0573862D01*
X0430586Y0575699D01*
X0436096D01*
X0441606D02*
X0445279D01*
X0447116Y0573862D01*
Y0568352D01*
X0441606D01*
X0439769Y0570189D01*
X0441606Y0572025D01*
X0447116D01*
X0461809Y0568352D02*
Y0579372D01*
X0467319D01*
X0469156Y0577535D01*
Y0573862D01*
X0467319Y0572025D01*
X0461809D01*
X0472830Y0568352D02*
Y0579372D01*
X0476503Y0575699D01*
X0480176Y0579372D01*
Y0568352D01*
X0483850D02*
Y0579372D01*
X0489360D01*
X0491196Y0577535D01*
Y0573862D01*
X0489360Y0572025D01*
X0483850D01*
D23*
X0414432Y0543104D02*
X0413973Y0543563D01*
X0413055D01*
X0412596Y0543104D01*
Y0541267D01*
X0413055Y0540808D01*
X0413973D01*
X0414432Y0541267D01*
X0417187Y0540808D02*
X0415351D01*
X0417187Y0542645D01*
Y0543104D01*
X0416728Y0543563D01*
X0415810D01*
X0415351Y0543104D01*
X0419942Y0543563D02*
X0418106D01*
Y0542186D01*
X0419024Y0542645D01*
X0419483D01*
X0419942Y0542186D01*
Y0541267D01*
X0419483Y0540808D01*
X0418565D01*
X0418106Y0541267D01*
D24*
X0392281Y0647206D02*
D03*
D25*
X0374289Y0641497D02*
D03*
D26*
X0411749Y0642363D02*
D03*
D27*
X0391670Y0637166D02*
D03*
M02*
