G04*
G04 #@! TF.GenerationSoftware,Altium Limited,Altium Designer,20.2.5 (213)*
G04*
G04 Layer_Color=32896*
%FSAX25Y25*%
%MOIN*%
G70*
G04*
G04 #@! TF.SameCoordinates,38458E12-344E-42E4-8E5B-5AAD2516AE5C*
G04*
G04*
G04 #@! TF.FilePolarity,Positive*
G04*
G01*
G75*
%ADD10C,0.00394*%
%ADD11C,0.00787*%
%ADD12C,0.01181*%
%ADD17C,0.00591*%
%ADD22C,0.01575*%
%ADD158C,0.03937*%
%ADD193R,0.30000X0.12362*%
D10*
X0642936Y0537919D02*
X0645889D01*
D11*
X0613180Y0469421D02*
G03*
X0613173Y0469421I0000779J0039364D01*
G01*
X0594938Y0630269D02*
X0603914D01*
X0599426Y0626017D02*
Y0634166D01*
X0640306Y0318792D02*
Y0623792D01*
X0557629Y0318792D02*
X0640306D01*
X0557629D02*
Y0623714D01*
X0557708Y0623792D01*
X0640306D01*
X0598692Y0597493D02*
Y0605643D01*
X0594204Y0601745D02*
X0603180D01*
X0593009Y0310033D02*
X0604702D01*
X0593220Y0337651D02*
X0604913D01*
X0677838Y0630249D02*
X0686814D01*
X0682326Y0625997D02*
Y0634147D01*
X0723206Y0318773D02*
Y0623773D01*
X0640529Y0318773D02*
X0723206D01*
X0640529D02*
Y0623694D01*
X0640607Y0623773D01*
X0723206D01*
X0681592Y0597473D02*
Y0605623D01*
X0677103Y0601725D02*
X0686080D01*
X0675909Y0310013D02*
X0687602D01*
X0676119Y0337631D02*
X0687812D01*
X0758745Y0337564D02*
X0770438D01*
X0758534Y0309946D02*
X0770227D01*
X0759729Y0601658D02*
X0768706D01*
X0764218Y0597407D02*
Y0605556D01*
X0723233Y0623706D02*
X0805832D01*
X0723155Y0623627D02*
X0723233Y0623706D01*
X0723155Y0318706D02*
Y0623627D01*
Y0318706D02*
X0805832D01*
Y0623706D01*
X0764952Y0625930D02*
Y0634080D01*
X0760464Y0630182D02*
X0769440D01*
X0511795Y0630235D02*
X0520772D01*
X0516283Y0625983D02*
Y0634132D01*
X0557163Y0318759D02*
Y0623759D01*
X0474486Y0318759D02*
X0557163D01*
X0474486D02*
Y0623680D01*
X0474565Y0623759D01*
X0557163D01*
X0515549Y0597459D02*
Y0605609D01*
X0511061Y0601711D02*
X0520037D01*
X0509866Y0309999D02*
X0521559D01*
X0510077Y0337617D02*
X0521770D01*
X0429216Y0630052D02*
X0438192D01*
X0433704Y0625800D02*
Y0633950D01*
X0474584Y0318576D02*
Y0623576D01*
X0391907Y0318576D02*
X0474584D01*
X0391907D02*
Y0623497D01*
X0391985Y0623576D01*
X0474584D01*
X0432970Y0597277D02*
Y0605426D01*
X0428481Y0601529D02*
X0437458D01*
X0427286Y0309816D02*
X0438979D01*
X0427497Y0337434D02*
X0439190D01*
X0344723Y0337420D02*
X0356416D01*
X0344512Y0309802D02*
X0356205D01*
X0345707Y0601514D02*
X0354683D01*
X0350195Y0597262D02*
Y0605412D01*
X0309211Y0623562D02*
X0391810D01*
X0309132Y0623483D02*
X0309211Y0623562D01*
X0309132Y0318562D02*
Y0623483D01*
Y0318562D02*
X0391810D01*
Y0623562D01*
X0350930Y0625786D02*
Y0633936D01*
X0346441Y0630038D02*
X0355418D01*
X0533043Y0628942D02*
Y0648943D01*
X0733043Y0628942D02*
Y0648943D01*
X0533043D02*
X0733043D01*
X0533043Y0628942D02*
X0733043D01*
X0569788Y0559887D02*
X0589788D01*
Y0549887D02*
Y0559887D01*
X0569788Y0549887D02*
X0589788D01*
X0569788D02*
Y0559887D01*
X0591599Y0549887D02*
Y0559887D01*
Y0549887D02*
X0611599D01*
Y0559887D01*
X0591599D02*
X0611599D01*
X0592072Y0544061D02*
X0593802D01*
X0595969Y0546228D01*
Y0546265D01*
X0564040Y0546620D02*
Y0547643D01*
X0568056Y0551659D01*
X0658961Y0522880D02*
X0665300D01*
X0659080Y0478588D02*
X0665418D01*
X0662328Y0475517D02*
Y0481856D01*
X0717710Y0547040D02*
X0717185Y0547565D01*
Y0548615D01*
X0717710Y0549139D01*
X0719809D01*
X0720334Y0548615D01*
Y0547565D01*
X0719809Y0547040D01*
X0718760D01*
Y0548090D01*
X0720334Y0545991D02*
X0717185D01*
X0720334Y0543892D01*
X0717185D01*
Y0542842D02*
X0720334D01*
Y0541268D01*
X0719809Y0540743D01*
X0717710D01*
X0717185Y0541268D01*
Y0542842D01*
X0521376Y0517775D02*
X0520851Y0517251D01*
X0519801D01*
X0519276Y0517775D01*
Y0519874D01*
X0519801Y0520399D01*
X0520851D01*
X0521376Y0519874D01*
Y0518825D01*
X0520326D01*
X0522425Y0520399D02*
Y0517251D01*
X0524524Y0520399D01*
Y0517251D01*
X0525574D02*
Y0520399D01*
X0527148D01*
X0527673Y0519874D01*
Y0517775D01*
X0527148Y0517251D01*
X0525574D01*
X0521454Y0506634D02*
X0520929Y0506109D01*
X0519880D01*
X0519355Y0506634D01*
Y0507158D01*
X0519880Y0507683D01*
X0520929D01*
X0521454Y0508208D01*
Y0508733D01*
X0520929Y0509258D01*
X0519880D01*
X0519355Y0508733D01*
X0524603Y0506634D02*
X0524078Y0506109D01*
X0523029D01*
X0522504Y0506634D01*
Y0508733D01*
X0523029Y0509258D01*
X0524078D01*
X0524603Y0508733D01*
X0525652Y0506109D02*
Y0509258D01*
X0527751D01*
X0522005Y0497460D02*
X0521481Y0496936D01*
X0520431D01*
X0519906Y0497460D01*
Y0497985D01*
X0520431Y0498510D01*
X0521481D01*
X0522005Y0499035D01*
Y0499559D01*
X0521481Y0500084D01*
X0520431D01*
X0519906Y0499559D01*
X0523055Y0496936D02*
Y0500084D01*
X0524629D01*
X0525154Y0499559D01*
Y0497460D01*
X0524629Y0496936D01*
X0523055D01*
X0526203Y0500084D02*
Y0497985D01*
X0527253Y0496936D01*
X0528303Y0497985D01*
Y0500084D01*
Y0498510D01*
X0526203D01*
X0519550Y0488023D02*
X0520075Y0487499D01*
X0521125D01*
X0521649Y0488023D01*
Y0488548D01*
X0521125Y0489073D01*
X0520600D01*
X0521125D01*
X0521649Y0489598D01*
Y0490122D01*
X0521125Y0490647D01*
X0520075D01*
X0519550Y0490122D01*
X0522699Y0487499D02*
Y0489598D01*
X0523748Y0490647D01*
X0524798Y0489598D01*
Y0487499D01*
X0544566Y0553889D02*
Y0557168D01*
X0545222Y0557824D01*
X0546534D01*
X0547190Y0557168D01*
Y0553889D01*
X0551126Y0554545D02*
X0550470Y0553889D01*
X0549158D01*
X0548502Y0554545D01*
Y0555201D01*
X0549158Y0555857D01*
X0550470D01*
X0551126Y0556512D01*
Y0557168D01*
X0550470Y0557824D01*
X0549158D01*
X0548502Y0557168D01*
X0552438Y0553889D02*
Y0557824D01*
X0554406D01*
X0555061Y0557168D01*
Y0556512D01*
X0554406Y0555857D01*
X0552438D01*
X0554406D01*
X0555061Y0555201D01*
Y0554545D01*
X0554406Y0553889D01*
X0552438D01*
X0561703Y0542001D02*
X0561047Y0541345D01*
X0559735D01*
X0559080Y0542001D01*
Y0542657D01*
X0559735Y0543313D01*
X0561047D01*
X0561703Y0543969D01*
Y0544625D01*
X0561047Y0545281D01*
X0559735D01*
X0559080Y0544625D01*
X0564983Y0541345D02*
X0563671D01*
X0563015Y0542001D01*
Y0544625D01*
X0563671Y0545281D01*
X0564983D01*
X0565639Y0544625D01*
Y0542001D01*
X0564983Y0541345D01*
X0566951D02*
Y0545281D01*
X0569575D01*
X0570887D02*
Y0542657D01*
X0572199Y0541345D01*
X0573511Y0542657D01*
Y0545281D01*
Y0543313D01*
X0570887D01*
X0574823Y0545281D02*
Y0541345D01*
X0576790D01*
X0577446Y0542001D01*
Y0543313D01*
X0576790Y0543969D01*
X0574823D01*
X0576134D02*
X0577446Y0545281D01*
X0580969Y0541424D02*
Y0545360D01*
X0582937D01*
X0583593Y0544704D01*
Y0544048D01*
X0582937Y0543392D01*
X0580969D01*
X0582937D01*
X0583593Y0542736D01*
Y0542080D01*
X0582937Y0541424D01*
X0580969D01*
X0584905Y0545360D02*
Y0542736D01*
X0586217Y0541424D01*
X0587529Y0542736D01*
Y0545360D01*
Y0543392D01*
X0584905D01*
X0588841Y0541424D02*
X0591465D01*
X0590153D01*
Y0545360D01*
X0582898Y0547368D02*
X0585522D01*
X0573843Y0547447D02*
X0576467D01*
X0575155Y0546135D02*
Y0548759D01*
X0605024Y0548353D02*
X0607648D01*
X0595694Y0547683D02*
X0598318D01*
X0597006Y0546371D02*
Y0548995D01*
X0622950Y0547802D02*
X0620851D01*
Y0549376D01*
X0621901Y0548851D01*
X0622426D01*
X0622950Y0549376D01*
Y0550426D01*
X0622426Y0550950D01*
X0621376D01*
X0620851Y0550426D01*
X0624000Y0547802D02*
Y0549901D01*
X0625049Y0550950D01*
X0626099Y0549901D01*
Y0547802D01*
X0629920Y0550950D02*
X0629395Y0550426D01*
Y0549376D01*
X0629920Y0548851D01*
X0630445D01*
X0630970Y0549376D01*
Y0549901D01*
Y0549376D01*
X0631495Y0548851D01*
X0632019D01*
X0632544Y0549376D01*
Y0550426D01*
X0632019Y0550950D01*
X0629395Y0547802D02*
X0631495D01*
X0632544Y0546752D01*
X0631495Y0545703D01*
X0629395D01*
X0650694Y0549139D02*
X0647545D01*
Y0547565D01*
X0648070Y0547040D01*
X0649119D01*
X0649644Y0547565D01*
Y0549139D01*
X0650694Y0545991D02*
X0648595D01*
X0647545Y0544941D01*
X0648595Y0543892D01*
X0650694D01*
X0649119D01*
Y0545991D01*
X0647545Y0540743D02*
Y0542842D01*
X0649119D01*
X0648595Y0541793D01*
Y0541268D01*
X0649119Y0540743D01*
X0650169D01*
X0650694Y0541268D01*
Y0542317D01*
X0650169Y0542842D01*
X0660300Y0549139D02*
X0657151D01*
Y0547565D01*
X0657676Y0547040D01*
X0658726D01*
X0659250Y0547565D01*
Y0549139D01*
X0657151Y0545991D02*
X0660300D01*
Y0544417D01*
X0659775Y0543892D01*
X0659250D01*
X0658726Y0544417D01*
Y0545991D01*
Y0544417D01*
X0658201Y0543892D01*
X0657676D01*
X0657151Y0544417D01*
Y0545991D01*
Y0540743D02*
Y0542842D01*
X0658726D01*
X0658201Y0541793D01*
Y0541268D01*
X0658726Y0540743D01*
X0659775D01*
X0660300Y0541268D01*
Y0542317D01*
X0659775Y0542842D01*
X0669434Y0549139D02*
X0666285D01*
Y0547565D01*
X0666810Y0547040D01*
X0667860D01*
X0668384Y0547565D01*
Y0549139D01*
X0666285Y0545991D02*
X0669434D01*
Y0544417D01*
X0668909Y0543892D01*
X0668384D01*
X0667860Y0544417D01*
Y0545991D01*
Y0544417D01*
X0667335Y0543892D01*
X0666810D01*
X0666285Y0544417D01*
Y0545991D01*
Y0542842D02*
Y0540743D01*
X0666810D01*
X0668909Y0542842D01*
X0669434D01*
X0676600Y0549139D02*
X0679749D01*
Y0547565D01*
X0679224Y0547040D01*
X0678699D01*
X0678174Y0547565D01*
Y0549139D01*
Y0547565D01*
X0677650Y0547040D01*
X0677125D01*
X0676600Y0547565D01*
Y0549139D01*
Y0545991D02*
X0679749D01*
Y0543892D01*
X0676600Y0540743D02*
Y0542842D01*
X0679749D01*
Y0540743D01*
X0678174Y0542842D02*
Y0541793D01*
X0679749Y0536545D02*
X0676600D01*
Y0534971D01*
X0677125Y0534446D01*
X0678174D01*
X0678699Y0534971D01*
Y0536545D01*
Y0535496D02*
X0679749Y0534446D01*
X0676600Y0533396D02*
X0679749Y0531297D01*
X0676600D02*
X0679749Y0533396D01*
X0686167Y0549139D02*
X0689316D01*
Y0547565D01*
X0688791Y0547040D01*
X0688266D01*
X0687742Y0547565D01*
Y0549139D01*
Y0547565D01*
X0687217Y0547040D01*
X0686692D01*
X0686167Y0547565D01*
Y0549139D01*
Y0545991D02*
X0689316D01*
Y0543892D01*
X0686167Y0540743D02*
Y0542842D01*
X0689316D01*
Y0540743D01*
X0687742Y0542842D02*
Y0541793D01*
X0686167Y0536545D02*
Y0534446D01*
Y0535496D01*
X0689316D01*
X0686167Y0533396D02*
X0689316Y0531297D01*
X0686167D02*
X0689316Y0533396D01*
X0706837Y0549139D02*
X0709460D01*
X0709985Y0548615D01*
Y0547565D01*
X0709460Y0547040D01*
X0706837D01*
X0709985Y0545991D02*
X0707886D01*
X0706837Y0544941D01*
X0707886Y0543892D01*
X0709985D01*
X0708411D01*
Y0545991D01*
X0709985Y0542842D02*
X0706837D01*
Y0541268D01*
X0707361Y0540743D01*
X0708411D01*
X0708935Y0541268D01*
Y0542842D01*
Y0541793D02*
X0709985Y0540743D01*
X0706837Y0539694D02*
Y0537595D01*
Y0538644D01*
X0709985D01*
Y0536545D02*
Y0535496D01*
Y0536020D01*
X0706837D01*
X0707361Y0536545D01*
X0709985Y0530773D02*
X0706837D01*
Y0529198D01*
X0707361Y0528674D01*
X0708411D01*
X0708935Y0529198D01*
Y0530773D01*
Y0529723D02*
X0709985Y0528674D01*
X0706837Y0527624D02*
X0709985Y0525525D01*
X0706837D02*
X0709985Y0527624D01*
X0696522Y0549139D02*
X0699145D01*
X0699670Y0548615D01*
Y0547565D01*
X0699145Y0547040D01*
X0696522D01*
X0699670Y0545991D02*
X0697571D01*
X0696522Y0544941D01*
X0697571Y0543892D01*
X0699670D01*
X0698096D01*
Y0545991D01*
X0699670Y0542842D02*
X0696522D01*
Y0541268D01*
X0697046Y0540743D01*
X0698096D01*
X0698621Y0541268D01*
Y0542842D01*
Y0541793D02*
X0699670Y0540743D01*
X0696522Y0539694D02*
Y0537595D01*
Y0538644D01*
X0699670D01*
Y0536545D02*
Y0535496D01*
Y0536020D01*
X0696522D01*
X0697046Y0536545D01*
X0696522Y0530773D02*
Y0528674D01*
Y0529723D01*
X0699670D01*
X0696522Y0527624D02*
X0699670Y0525525D01*
X0696522D02*
X0699670Y0527624D01*
X0640300Y0549139D02*
X0637151D01*
Y0547565D01*
X0637676Y0547040D01*
X0638726D01*
X0639251Y0547565D01*
Y0549139D01*
X0637151Y0545991D02*
X0640300D01*
X0638726D01*
Y0543892D01*
X0637151D01*
X0640300D01*
X0637676Y0542842D02*
X0637151Y0542317D01*
Y0541268D01*
X0637676Y0540743D01*
X0639775D01*
X0640300Y0541268D01*
Y0542317D01*
X0639775Y0542842D01*
X0637676D01*
X0320177Y0649965D02*
Y0646685D01*
X0319521Y0646029D01*
X0318209D01*
X0317553Y0646685D01*
Y0649965D01*
X0316241Y0646029D02*
X0314929D01*
X0315585D01*
Y0649965D01*
X0316241Y0649309D01*
X0312961Y0646029D02*
X0311649D01*
X0312305D01*
Y0649965D01*
X0312961Y0649309D01*
X0247972Y0300910D02*
Y0297630D01*
X0247316Y0296974D01*
X0246004D01*
X0245348Y0297630D01*
Y0300910D01*
X0244036Y0296974D02*
X0242724D01*
X0243380D01*
Y0300910D01*
X0244036Y0300254D01*
X0240757D02*
X0240101Y0300910D01*
X0238789D01*
X0238133Y0300254D01*
Y0297630D01*
X0238789Y0296974D01*
X0240101D01*
X0240757Y0297630D01*
Y0300254D01*
X0555413Y0301225D02*
Y0297945D01*
X0554757Y0297289D01*
X0553445D01*
X0552789Y0297945D01*
Y0301225D01*
X0551477Y0297945D02*
X0550821Y0297289D01*
X0549509D01*
X0548853Y0297945D01*
Y0300569D01*
X0549509Y0301225D01*
X0550821D01*
X0551477Y0300569D01*
Y0299913D01*
X0550821Y0299257D01*
X0548853D01*
D12*
X0403366Y0668313D02*
Y0662409D01*
X0406318D01*
X0407301Y0663393D01*
Y0665361D01*
X0406318Y0666345D01*
X0403366D01*
X0409269Y0665361D02*
X0413205D01*
X0345216Y0662409D02*
Y0668313D01*
X0348168D01*
X0349152Y0667329D01*
Y0666345D01*
X0348168Y0665361D01*
X0345216D01*
X0348168D01*
X0349152Y0664377D01*
Y0663393D01*
X0348168Y0662409D01*
X0345216D01*
X0351120Y0665361D02*
X0355055D01*
X0353088Y0663393D02*
Y0667329D01*
X0301476Y0284494D02*
Y0278590D01*
X0304428D01*
X0305412Y0279574D01*
Y0281542D01*
X0304428Y0282526D01*
X0301476D01*
X0307380Y0281542D02*
X0311315D01*
X0309347Y0279574D02*
Y0283510D01*
X0609045Y0285163D02*
Y0279259D01*
X0611997D01*
X0612981Y0280243D01*
Y0282211D01*
X0611997Y0283195D01*
X0609045D01*
X0614948Y0282211D02*
X0618884D01*
X0616916Y0280243D02*
Y0284179D01*
X0265807Y0278590D02*
Y0284494D01*
X0268758D01*
X0269742Y0283510D01*
Y0282526D01*
X0268758Y0281542D01*
X0265807D01*
X0268758D01*
X0269742Y0280558D01*
Y0279574D01*
X0268758Y0278590D01*
X0265807D01*
X0271710Y0281542D02*
X0275646D01*
X0273678Y0279574D02*
Y0283510D01*
X0436830Y0662409D02*
Y0668313D01*
X0439782D01*
X0440766Y0667329D01*
Y0666345D01*
X0439782Y0665361D01*
X0436830D01*
X0439782D01*
X0440766Y0664377D01*
Y0663393D01*
X0439782Y0662409D01*
X0436830D01*
X0442734Y0665361D02*
X0446670D01*
X0356318Y0278590D02*
Y0284494D01*
X0359270D01*
X0360254Y0283510D01*
Y0282526D01*
X0359270Y0281542D01*
X0356318D01*
X0359270D01*
X0360254Y0280558D01*
Y0279574D01*
X0359270Y0278590D01*
X0356318D01*
X0362222Y0281542D02*
X0366158D01*
X0667498Y0279259D02*
Y0285163D01*
X0670450D01*
X0671434Y0284179D01*
Y0283195D01*
X0670450Y0282211D01*
X0667498D01*
X0670450D01*
X0671434Y0281227D01*
Y0280243D01*
X0670450Y0279259D01*
X0667498D01*
X0673402Y0282211D02*
X0677338D01*
X0326909Y0284494D02*
Y0278590D01*
X0329861D01*
X0330845Y0279574D01*
Y0281542D01*
X0329861Y0282526D01*
X0326909D01*
X0332813Y0281542D02*
X0336748D01*
X0633890Y0285163D02*
Y0279259D01*
X0636842D01*
X0637826Y0280243D01*
Y0282211D01*
X0636842Y0283195D01*
X0633890D01*
X0639794Y0282211D02*
X0643730D01*
X0574403Y0279259D02*
Y0285163D01*
X0577355D01*
X0578339Y0284179D01*
Y0283195D01*
X0577355Y0282211D01*
X0574403D01*
X0577355D01*
X0578339Y0281227D01*
Y0280243D01*
X0577355Y0279259D01*
X0574403D01*
X0580306Y0282211D02*
X0584242D01*
X0582274Y0280243D02*
Y0284179D01*
X0378011Y0668313D02*
Y0662409D01*
X0380963D01*
X0381947Y0663393D01*
Y0665361D01*
X0380963Y0666345D01*
X0378011D01*
X0383915Y0665361D02*
X0387851D01*
X0385883Y0663393D02*
Y0667329D01*
D17*
X0645560Y0472237D02*
X0644904Y0471582D01*
X0643592D01*
X0642936Y0472237D01*
Y0474861D01*
X0643592Y0475517D01*
X0644904D01*
X0645560Y0474861D01*
X0648840Y0471582D02*
X0647528D01*
X0646872Y0472237D01*
Y0474861D01*
X0647528Y0475517D01*
X0648840D01*
X0649496Y0474861D01*
Y0472237D01*
X0648840Y0471582D01*
X0650808Y0475517D02*
Y0471582D01*
X0653432Y0475517D01*
Y0471582D01*
X0654743Y0472237D02*
X0655400Y0471582D01*
X0656711D01*
X0657367Y0472237D01*
Y0472893D01*
X0656711Y0473549D01*
X0656055D01*
X0656711D01*
X0657367Y0474205D01*
Y0474861D01*
X0656711Y0475517D01*
X0655400D01*
X0654743Y0474861D01*
D22*
X0541650Y0484088D02*
X0540338Y0482776D01*
X0537714D01*
X0536402Y0484088D01*
Y0485399D01*
X0537714Y0486711D01*
X0540338D01*
X0541650Y0488023D01*
Y0489335D01*
X0540338Y0490647D01*
X0537714D01*
X0536402Y0489335D01*
X0544274Y0490647D02*
Y0485399D01*
X0545586D01*
X0546898Y0486711D01*
Y0490647D01*
Y0486711D01*
X0548210Y0485399D01*
X0549521Y0486711D01*
Y0490647D01*
X0553457Y0485399D02*
X0556081D01*
X0557393Y0486711D01*
Y0490647D01*
X0553457D01*
X0552145Y0489335D01*
X0553457Y0488023D01*
X0557393D01*
X0560017Y0485399D02*
Y0490647D01*
Y0488023D01*
X0561329Y0486711D01*
X0562641Y0485399D01*
X0563953D01*
X0569200Y0484088D02*
Y0485399D01*
X0567888D01*
X0570512D01*
X0569200D01*
Y0489335D01*
X0570512Y0490647D01*
X0667935Y0507881D02*
X0666951Y0506897D01*
X0664983D01*
X0663999Y0507881D01*
Y0511817D01*
X0664983Y0512801D01*
X0666951D01*
X0667935Y0511817D01*
X0673839Y0506897D02*
X0669903D01*
Y0512801D01*
X0673839D01*
X0669903Y0509849D02*
X0671871D01*
X0675807Y0512801D02*
Y0506897D01*
X0678758D01*
X0679742Y0507881D01*
Y0509849D01*
X0678758Y0510833D01*
X0675807D01*
X0677774D02*
X0679742Y0512801D01*
X0681710D02*
Y0506897D01*
X0685646Y0512801D01*
Y0506897D01*
X0696469D02*
X0694501D01*
X0693517Y0507881D01*
Y0511817D01*
X0694501Y0512801D01*
X0696469D01*
X0697453Y0511817D01*
Y0507881D01*
X0696469Y0506897D01*
X0699421D02*
Y0512801D01*
Y0509849D01*
X0703357D01*
Y0506897D01*
Y0512801D01*
X0705325Y0506897D02*
Y0512801D01*
X0709260D01*
X0512898Y0533116D02*
X0515522D01*
X0514210D01*
Y0527868D01*
X0512898D01*
X0519458D02*
Y0533116D01*
Y0530492D01*
X0520770Y0529180D01*
X0522082Y0527868D01*
X0523394D01*
X0527329Y0533116D02*
Y0527868D01*
X0531265D01*
X0532577Y0529180D01*
Y0533116D01*
X0536513Y0527868D02*
X0539137D01*
X0540449Y0529180D01*
Y0533116D01*
X0536513D01*
X0535201Y0531804D01*
X0536513Y0530492D01*
X0540449D01*
X0543073Y0533116D02*
X0547008D01*
X0548320Y0531804D01*
X0547008Y0530492D01*
X0544384D01*
X0543073Y0529180D01*
X0544384Y0527868D01*
X0548320D01*
X0550944Y0533116D02*
Y0531804D01*
X0552256D01*
Y0533116D01*
X0550944D01*
X0561439D02*
X0558815D01*
X0557504Y0531804D01*
Y0529180D01*
X0558815Y0527868D01*
X0561439D01*
X0562751Y0529180D01*
Y0530492D01*
X0557504D01*
X0565375Y0527868D02*
Y0531804D01*
X0566687Y0533116D01*
X0570623D01*
Y0527868D01*
X0663921Y0502998D02*
Y0495126D01*
X0669168Y0502998D01*
Y0495126D01*
X0673104Y0502998D02*
X0675728D01*
X0677040Y0501686D01*
Y0499062D01*
X0675728Y0497750D01*
X0673104D01*
X0671792Y0499062D01*
Y0501686D01*
X0673104Y0502998D01*
X0679664D02*
Y0501686D01*
X0680975D01*
Y0502998D01*
X0679664D01*
X0536639Y0494181D02*
Y0499429D01*
X0539262Y0502053D01*
X0541886Y0499429D01*
Y0494181D01*
X0544510Y0502053D02*
X0547134D01*
X0545822D01*
Y0494181D01*
X0544510Y0495493D01*
X0551070Y0502053D02*
Y0500741D01*
X0552382D01*
Y0502053D01*
X0551070D01*
X0562877D02*
X0557629D01*
X0562877Y0496805D01*
Y0495493D01*
X0561565Y0494181D01*
X0558941D01*
X0557629Y0495493D01*
X0536402Y0478942D02*
Y0471071D01*
X0540338D01*
X0541650Y0472383D01*
Y0475007D01*
X0540338Y0476319D01*
X0536402D01*
X0544274Y0478942D02*
X0546898D01*
X0545586D01*
Y0473695D01*
X0544274D01*
X0550833Y0478942D02*
Y0471071D01*
X0554769D01*
X0556081Y0472383D01*
Y0475007D01*
X0554769Y0476319D01*
X0550833D01*
X0553457D02*
X0556081Y0478942D01*
X0558705D02*
Y0473695D01*
X0561329Y0471071D01*
X0563953Y0473695D01*
Y0478942D01*
Y0475007D01*
X0558705D01*
D158*
X0379326Y0284174D02*
Y0315670D01*
X0253342Y0284174D02*
Y0315670D01*
X0687305Y0283569D02*
Y0315066D01*
X0561320Y0283569D02*
Y0315066D01*
X0455061Y0633098D02*
Y0664594D01*
X0329077Y0633098D02*
Y0664594D01*
D193*
X0697347Y0499454D02*
D03*
M02*
